G75*
G70*
%OFA0B0*%
%FSLAX24Y24*%
%IPPOS*%
%LPD*%
%AMOC8*
5,1,8,0,0,1.08239X$1,22.5*
%
%ADD10C,0.0010*%
%ADD11C,0.0140*%
%ADD12C,0.0000*%
%ADD13C,0.1379*%
%ADD14C,0.0474*%
%ADD15C,0.0780*%
%ADD16C,0.0671*%
D10*
X040496Y015646D02*
X040231Y014683D01*
X039920Y013735D01*
X039562Y012803D01*
X039160Y011890D01*
X038714Y010997D01*
X038225Y010127D01*
X037694Y009282D01*
X037122Y008463D01*
X036512Y007674D01*
X035864Y006915D01*
X035179Y006188D01*
X034460Y005496D01*
X033708Y004839D01*
X032925Y004220D01*
X032113Y003640D01*
X031274Y003100D01*
X030409Y002601D01*
X029521Y002146D01*
X028612Y001733D01*
X027684Y001366D01*
X026739Y001044D01*
X025780Y000769D01*
X024808Y000541D01*
X023827Y000360D01*
X022838Y000227D01*
X021843Y000142D01*
X020846Y000106D01*
X019847Y000119D01*
X018851Y000180D01*
X017859Y000290D01*
X016874Y000447D01*
X015897Y000653D01*
X014931Y000906D01*
X013979Y001205D01*
X013043Y001551D01*
X012124Y001941D01*
X011226Y002376D01*
X010350Y002854D01*
X009498Y003375D01*
X008672Y003936D01*
X007875Y004536D01*
X007108Y005175D01*
X006373Y005850D01*
X005672Y006560D01*
X005006Y007304D01*
X004377Y008079D01*
X003787Y008884D01*
X003236Y009716D01*
X002727Y010574D01*
X002260Y011457D01*
X001836Y012360D01*
X001457Y013284D01*
X001123Y014224D01*
X000836Y015180D01*
X000595Y016149D01*
X000402Y017128D01*
X000257Y018116D01*
X000160Y019109D01*
X000111Y020106D01*
X000111Y021104D01*
X000160Y022101D01*
X000257Y023094D01*
X000402Y024082D01*
X000595Y025061D01*
X000836Y026030D01*
X001123Y026986D01*
X001457Y027926D01*
X001836Y028850D01*
X002260Y029753D01*
X002727Y030636D01*
X003236Y031494D01*
X003787Y032326D01*
X004377Y033131D01*
X005006Y033906D01*
X005672Y034650D01*
X006373Y035360D01*
X007108Y036035D01*
X007875Y036674D01*
X008672Y037274D01*
X009498Y037835D01*
X010350Y038356D01*
X011226Y038834D01*
X012124Y039269D01*
X013043Y039659D01*
X013979Y040005D01*
X014931Y040304D01*
X015897Y040557D01*
X016874Y040763D01*
X017859Y040920D01*
X018851Y041030D01*
X019847Y041091D01*
X020846Y041104D01*
X021843Y041068D01*
X022838Y040983D01*
X023827Y040850D01*
X024808Y040669D01*
X025780Y040441D01*
X026739Y040166D01*
X027684Y039844D01*
X028612Y039477D01*
X029521Y039064D01*
X030409Y038609D01*
X031274Y038110D01*
X032113Y037570D01*
X032925Y036990D01*
X033708Y036371D01*
X034460Y035714D01*
X035179Y035022D01*
X035864Y034295D01*
X036512Y033536D01*
X037122Y032747D01*
X037694Y031928D01*
X038225Y031083D01*
X038714Y030213D01*
X039160Y029320D01*
X039562Y028407D01*
X039920Y027475D01*
X040231Y026527D01*
X040496Y025564D01*
X040510Y025515D01*
X040527Y025467D01*
X040548Y025421D01*
X040572Y025376D01*
X040599Y025333D01*
X040629Y025291D01*
X040662Y025252D01*
X040697Y025216D01*
X040735Y025182D01*
X040775Y025150D01*
X040817Y025122D01*
X040862Y025096D01*
X040907Y025074D01*
X040955Y025055D01*
X044355Y022105D02*
X044355Y019105D01*
X040955Y016105D02*
X040908Y016091D01*
X040862Y016074D01*
X040818Y016054D01*
X040776Y016030D01*
X040736Y016002D01*
X040697Y015972D01*
X040662Y015939D01*
X040629Y015903D01*
X040598Y015865D01*
X040571Y015825D01*
X040547Y015782D01*
X040527Y015738D01*
X040509Y015692D01*
X040496Y015646D01*
X044355Y022105D02*
X044204Y022372D01*
X044040Y022632D01*
X043864Y022883D01*
X043676Y023125D01*
X043476Y023358D01*
X043265Y023581D01*
X043043Y023793D01*
X042811Y023994D01*
X042570Y024183D01*
X042319Y024361D01*
X042061Y024526D01*
X041794Y024678D01*
X041521Y024818D01*
X041241Y024943D01*
X040955Y025055D01*
X044355Y019105D02*
X044265Y018887D01*
X044164Y018674D01*
X044053Y018467D01*
X043932Y018264D01*
X043802Y018068D01*
X043663Y017878D01*
X043515Y017695D01*
X043358Y017519D01*
X043193Y017351D01*
X043020Y017191D01*
X042840Y017039D01*
X042652Y016896D01*
X042459Y016763D01*
X042258Y016638D01*
X042053Y016524D01*
X041842Y016419D01*
X041626Y016325D01*
X041406Y016241D01*
X041182Y016167D01*
X040955Y016105D01*
D11*
X040775Y023225D02*
X040775Y023599D01*
X040775Y023870D02*
X041335Y023870D01*
X041335Y024243D01*
X041055Y024056D02*
X041055Y023870D01*
X041335Y023225D02*
X040775Y023225D01*
D12*
X042741Y021196D02*
X042743Y021223D01*
X042749Y021250D01*
X042758Y021276D01*
X042771Y021300D01*
X042787Y021323D01*
X042806Y021342D01*
X042828Y021359D01*
X042852Y021373D01*
X042877Y021383D01*
X042904Y021390D01*
X042931Y021393D01*
X042959Y021392D01*
X042986Y021387D01*
X043012Y021379D01*
X043036Y021367D01*
X043059Y021351D01*
X043080Y021333D01*
X043097Y021312D01*
X043112Y021288D01*
X043123Y021263D01*
X043131Y021237D01*
X043135Y021210D01*
X043135Y021182D01*
X043131Y021155D01*
X043123Y021129D01*
X043112Y021104D01*
X043097Y021080D01*
X043080Y021059D01*
X043059Y021041D01*
X043037Y021025D01*
X043012Y021013D01*
X042986Y021005D01*
X042959Y021000D01*
X042931Y020999D01*
X042904Y021002D01*
X042877Y021009D01*
X042852Y021019D01*
X042828Y021033D01*
X042806Y021050D01*
X042787Y021069D01*
X042771Y021092D01*
X042758Y021116D01*
X042749Y021142D01*
X042743Y021169D01*
X042741Y021196D01*
X042741Y020014D02*
X042743Y020041D01*
X042749Y020068D01*
X042758Y020094D01*
X042771Y020118D01*
X042787Y020141D01*
X042806Y020160D01*
X042828Y020177D01*
X042852Y020191D01*
X042877Y020201D01*
X042904Y020208D01*
X042931Y020211D01*
X042959Y020210D01*
X042986Y020205D01*
X043012Y020197D01*
X043036Y020185D01*
X043059Y020169D01*
X043080Y020151D01*
X043097Y020130D01*
X043112Y020106D01*
X043123Y020081D01*
X043131Y020055D01*
X043135Y020028D01*
X043135Y020000D01*
X043131Y019973D01*
X043123Y019947D01*
X043112Y019922D01*
X043097Y019898D01*
X043080Y019877D01*
X043059Y019859D01*
X043037Y019843D01*
X043012Y019831D01*
X042986Y019823D01*
X042959Y019818D01*
X042931Y019817D01*
X042904Y019820D01*
X042877Y019827D01*
X042852Y019837D01*
X042828Y019851D01*
X042806Y019868D01*
X042787Y019887D01*
X042771Y019910D01*
X042758Y019934D01*
X042749Y019960D01*
X042743Y019987D01*
X042741Y020014D01*
X022955Y020605D02*
X022957Y020655D01*
X022963Y020705D01*
X022973Y020755D01*
X022986Y020803D01*
X023003Y020851D01*
X023024Y020897D01*
X023048Y020941D01*
X023076Y020983D01*
X023107Y021023D01*
X023141Y021060D01*
X023178Y021095D01*
X023217Y021126D01*
X023258Y021155D01*
X023302Y021180D01*
X023348Y021202D01*
X023395Y021220D01*
X023443Y021234D01*
X023492Y021245D01*
X023542Y021252D01*
X023592Y021255D01*
X023643Y021254D01*
X023693Y021249D01*
X023743Y021240D01*
X023791Y021228D01*
X023839Y021211D01*
X023885Y021191D01*
X023930Y021168D01*
X023973Y021141D01*
X024013Y021111D01*
X024051Y021078D01*
X024086Y021042D01*
X024119Y021003D01*
X024148Y020962D01*
X024174Y020919D01*
X024197Y020874D01*
X024216Y020827D01*
X024231Y020779D01*
X024243Y020730D01*
X024251Y020680D01*
X024255Y020630D01*
X024255Y020580D01*
X024251Y020530D01*
X024243Y020480D01*
X024231Y020431D01*
X024216Y020383D01*
X024197Y020336D01*
X024174Y020291D01*
X024148Y020248D01*
X024119Y020207D01*
X024086Y020168D01*
X024051Y020132D01*
X024013Y020099D01*
X023973Y020069D01*
X023930Y020042D01*
X023885Y020019D01*
X023839Y019999D01*
X023791Y019982D01*
X023743Y019970D01*
X023693Y019961D01*
X023643Y019956D01*
X023592Y019955D01*
X023542Y019958D01*
X023492Y019965D01*
X023443Y019976D01*
X023395Y019990D01*
X023348Y020008D01*
X023302Y020030D01*
X023258Y020055D01*
X023217Y020084D01*
X023178Y020115D01*
X023141Y020150D01*
X023107Y020187D01*
X023076Y020227D01*
X023048Y020269D01*
X023024Y020313D01*
X023003Y020359D01*
X022986Y020407D01*
X022973Y020455D01*
X022963Y020505D01*
X022957Y020555D01*
X022955Y020605D01*
X022076Y022726D02*
X022078Y022776D01*
X022084Y022826D01*
X022094Y022876D01*
X022107Y022924D01*
X022124Y022972D01*
X022145Y023018D01*
X022169Y023062D01*
X022197Y023104D01*
X022228Y023144D01*
X022262Y023181D01*
X022299Y023216D01*
X022338Y023247D01*
X022379Y023276D01*
X022423Y023301D01*
X022469Y023323D01*
X022516Y023341D01*
X022564Y023355D01*
X022613Y023366D01*
X022663Y023373D01*
X022713Y023376D01*
X022764Y023375D01*
X022814Y023370D01*
X022864Y023361D01*
X022912Y023349D01*
X022960Y023332D01*
X023006Y023312D01*
X023051Y023289D01*
X023094Y023262D01*
X023134Y023232D01*
X023172Y023199D01*
X023207Y023163D01*
X023240Y023124D01*
X023269Y023083D01*
X023295Y023040D01*
X023318Y022995D01*
X023337Y022948D01*
X023352Y022900D01*
X023364Y022851D01*
X023372Y022801D01*
X023376Y022751D01*
X023376Y022701D01*
X023372Y022651D01*
X023364Y022601D01*
X023352Y022552D01*
X023337Y022504D01*
X023318Y022457D01*
X023295Y022412D01*
X023269Y022369D01*
X023240Y022328D01*
X023207Y022289D01*
X023172Y022253D01*
X023134Y022220D01*
X023094Y022190D01*
X023051Y022163D01*
X023006Y022140D01*
X022960Y022120D01*
X022912Y022103D01*
X022864Y022091D01*
X022814Y022082D01*
X022764Y022077D01*
X022713Y022076D01*
X022663Y022079D01*
X022613Y022086D01*
X022564Y022097D01*
X022516Y022111D01*
X022469Y022129D01*
X022423Y022151D01*
X022379Y022176D01*
X022338Y022205D01*
X022299Y022236D01*
X022262Y022271D01*
X022228Y022308D01*
X022197Y022348D01*
X022169Y022390D01*
X022145Y022434D01*
X022124Y022480D01*
X022107Y022528D01*
X022094Y022576D01*
X022084Y022626D01*
X022078Y022676D01*
X022076Y022726D01*
X019955Y023605D02*
X019957Y023655D01*
X019963Y023705D01*
X019973Y023755D01*
X019986Y023803D01*
X020003Y023851D01*
X020024Y023897D01*
X020048Y023941D01*
X020076Y023983D01*
X020107Y024023D01*
X020141Y024060D01*
X020178Y024095D01*
X020217Y024126D01*
X020258Y024155D01*
X020302Y024180D01*
X020348Y024202D01*
X020395Y024220D01*
X020443Y024234D01*
X020492Y024245D01*
X020542Y024252D01*
X020592Y024255D01*
X020643Y024254D01*
X020693Y024249D01*
X020743Y024240D01*
X020791Y024228D01*
X020839Y024211D01*
X020885Y024191D01*
X020930Y024168D01*
X020973Y024141D01*
X021013Y024111D01*
X021051Y024078D01*
X021086Y024042D01*
X021119Y024003D01*
X021148Y023962D01*
X021174Y023919D01*
X021197Y023874D01*
X021216Y023827D01*
X021231Y023779D01*
X021243Y023730D01*
X021251Y023680D01*
X021255Y023630D01*
X021255Y023580D01*
X021251Y023530D01*
X021243Y023480D01*
X021231Y023431D01*
X021216Y023383D01*
X021197Y023336D01*
X021174Y023291D01*
X021148Y023248D01*
X021119Y023207D01*
X021086Y023168D01*
X021051Y023132D01*
X021013Y023099D01*
X020973Y023069D01*
X020930Y023042D01*
X020885Y023019D01*
X020839Y022999D01*
X020791Y022982D01*
X020743Y022970D01*
X020693Y022961D01*
X020643Y022956D01*
X020592Y022955D01*
X020542Y022958D01*
X020492Y022965D01*
X020443Y022976D01*
X020395Y022990D01*
X020348Y023008D01*
X020302Y023030D01*
X020258Y023055D01*
X020217Y023084D01*
X020178Y023115D01*
X020141Y023150D01*
X020107Y023187D01*
X020076Y023227D01*
X020048Y023269D01*
X020024Y023313D01*
X020003Y023359D01*
X019986Y023407D01*
X019973Y023455D01*
X019963Y023505D01*
X019957Y023555D01*
X019955Y023605D01*
X017834Y022726D02*
X017836Y022776D01*
X017842Y022826D01*
X017852Y022876D01*
X017865Y022924D01*
X017882Y022972D01*
X017903Y023018D01*
X017927Y023062D01*
X017955Y023104D01*
X017986Y023144D01*
X018020Y023181D01*
X018057Y023216D01*
X018096Y023247D01*
X018137Y023276D01*
X018181Y023301D01*
X018227Y023323D01*
X018274Y023341D01*
X018322Y023355D01*
X018371Y023366D01*
X018421Y023373D01*
X018471Y023376D01*
X018522Y023375D01*
X018572Y023370D01*
X018622Y023361D01*
X018670Y023349D01*
X018718Y023332D01*
X018764Y023312D01*
X018809Y023289D01*
X018852Y023262D01*
X018892Y023232D01*
X018930Y023199D01*
X018965Y023163D01*
X018998Y023124D01*
X019027Y023083D01*
X019053Y023040D01*
X019076Y022995D01*
X019095Y022948D01*
X019110Y022900D01*
X019122Y022851D01*
X019130Y022801D01*
X019134Y022751D01*
X019134Y022701D01*
X019130Y022651D01*
X019122Y022601D01*
X019110Y022552D01*
X019095Y022504D01*
X019076Y022457D01*
X019053Y022412D01*
X019027Y022369D01*
X018998Y022328D01*
X018965Y022289D01*
X018930Y022253D01*
X018892Y022220D01*
X018852Y022190D01*
X018809Y022163D01*
X018764Y022140D01*
X018718Y022120D01*
X018670Y022103D01*
X018622Y022091D01*
X018572Y022082D01*
X018522Y022077D01*
X018471Y022076D01*
X018421Y022079D01*
X018371Y022086D01*
X018322Y022097D01*
X018274Y022111D01*
X018227Y022129D01*
X018181Y022151D01*
X018137Y022176D01*
X018096Y022205D01*
X018057Y022236D01*
X018020Y022271D01*
X017986Y022308D01*
X017955Y022348D01*
X017927Y022390D01*
X017903Y022434D01*
X017882Y022480D01*
X017865Y022528D01*
X017852Y022576D01*
X017842Y022626D01*
X017836Y022676D01*
X017834Y022726D01*
X016955Y020605D02*
X016957Y020655D01*
X016963Y020705D01*
X016973Y020755D01*
X016986Y020803D01*
X017003Y020851D01*
X017024Y020897D01*
X017048Y020941D01*
X017076Y020983D01*
X017107Y021023D01*
X017141Y021060D01*
X017178Y021095D01*
X017217Y021126D01*
X017258Y021155D01*
X017302Y021180D01*
X017348Y021202D01*
X017395Y021220D01*
X017443Y021234D01*
X017492Y021245D01*
X017542Y021252D01*
X017592Y021255D01*
X017643Y021254D01*
X017693Y021249D01*
X017743Y021240D01*
X017791Y021228D01*
X017839Y021211D01*
X017885Y021191D01*
X017930Y021168D01*
X017973Y021141D01*
X018013Y021111D01*
X018051Y021078D01*
X018086Y021042D01*
X018119Y021003D01*
X018148Y020962D01*
X018174Y020919D01*
X018197Y020874D01*
X018216Y020827D01*
X018231Y020779D01*
X018243Y020730D01*
X018251Y020680D01*
X018255Y020630D01*
X018255Y020580D01*
X018251Y020530D01*
X018243Y020480D01*
X018231Y020431D01*
X018216Y020383D01*
X018197Y020336D01*
X018174Y020291D01*
X018148Y020248D01*
X018119Y020207D01*
X018086Y020168D01*
X018051Y020132D01*
X018013Y020099D01*
X017973Y020069D01*
X017930Y020042D01*
X017885Y020019D01*
X017839Y019999D01*
X017791Y019982D01*
X017743Y019970D01*
X017693Y019961D01*
X017643Y019956D01*
X017592Y019955D01*
X017542Y019958D01*
X017492Y019965D01*
X017443Y019976D01*
X017395Y019990D01*
X017348Y020008D01*
X017302Y020030D01*
X017258Y020055D01*
X017217Y020084D01*
X017178Y020115D01*
X017141Y020150D01*
X017107Y020187D01*
X017076Y020227D01*
X017048Y020269D01*
X017024Y020313D01*
X017003Y020359D01*
X016986Y020407D01*
X016973Y020455D01*
X016963Y020505D01*
X016957Y020555D01*
X016955Y020605D01*
X017834Y018484D02*
X017836Y018534D01*
X017842Y018584D01*
X017852Y018634D01*
X017865Y018682D01*
X017882Y018730D01*
X017903Y018776D01*
X017927Y018820D01*
X017955Y018862D01*
X017986Y018902D01*
X018020Y018939D01*
X018057Y018974D01*
X018096Y019005D01*
X018137Y019034D01*
X018181Y019059D01*
X018227Y019081D01*
X018274Y019099D01*
X018322Y019113D01*
X018371Y019124D01*
X018421Y019131D01*
X018471Y019134D01*
X018522Y019133D01*
X018572Y019128D01*
X018622Y019119D01*
X018670Y019107D01*
X018718Y019090D01*
X018764Y019070D01*
X018809Y019047D01*
X018852Y019020D01*
X018892Y018990D01*
X018930Y018957D01*
X018965Y018921D01*
X018998Y018882D01*
X019027Y018841D01*
X019053Y018798D01*
X019076Y018753D01*
X019095Y018706D01*
X019110Y018658D01*
X019122Y018609D01*
X019130Y018559D01*
X019134Y018509D01*
X019134Y018459D01*
X019130Y018409D01*
X019122Y018359D01*
X019110Y018310D01*
X019095Y018262D01*
X019076Y018215D01*
X019053Y018170D01*
X019027Y018127D01*
X018998Y018086D01*
X018965Y018047D01*
X018930Y018011D01*
X018892Y017978D01*
X018852Y017948D01*
X018809Y017921D01*
X018764Y017898D01*
X018718Y017878D01*
X018670Y017861D01*
X018622Y017849D01*
X018572Y017840D01*
X018522Y017835D01*
X018471Y017834D01*
X018421Y017837D01*
X018371Y017844D01*
X018322Y017855D01*
X018274Y017869D01*
X018227Y017887D01*
X018181Y017909D01*
X018137Y017934D01*
X018096Y017963D01*
X018057Y017994D01*
X018020Y018029D01*
X017986Y018066D01*
X017955Y018106D01*
X017927Y018148D01*
X017903Y018192D01*
X017882Y018238D01*
X017865Y018286D01*
X017852Y018334D01*
X017842Y018384D01*
X017836Y018434D01*
X017834Y018484D01*
X019955Y017605D02*
X019957Y017655D01*
X019963Y017705D01*
X019973Y017755D01*
X019986Y017803D01*
X020003Y017851D01*
X020024Y017897D01*
X020048Y017941D01*
X020076Y017983D01*
X020107Y018023D01*
X020141Y018060D01*
X020178Y018095D01*
X020217Y018126D01*
X020258Y018155D01*
X020302Y018180D01*
X020348Y018202D01*
X020395Y018220D01*
X020443Y018234D01*
X020492Y018245D01*
X020542Y018252D01*
X020592Y018255D01*
X020643Y018254D01*
X020693Y018249D01*
X020743Y018240D01*
X020791Y018228D01*
X020839Y018211D01*
X020885Y018191D01*
X020930Y018168D01*
X020973Y018141D01*
X021013Y018111D01*
X021051Y018078D01*
X021086Y018042D01*
X021119Y018003D01*
X021148Y017962D01*
X021174Y017919D01*
X021197Y017874D01*
X021216Y017827D01*
X021231Y017779D01*
X021243Y017730D01*
X021251Y017680D01*
X021255Y017630D01*
X021255Y017580D01*
X021251Y017530D01*
X021243Y017480D01*
X021231Y017431D01*
X021216Y017383D01*
X021197Y017336D01*
X021174Y017291D01*
X021148Y017248D01*
X021119Y017207D01*
X021086Y017168D01*
X021051Y017132D01*
X021013Y017099D01*
X020973Y017069D01*
X020930Y017042D01*
X020885Y017019D01*
X020839Y016999D01*
X020791Y016982D01*
X020743Y016970D01*
X020693Y016961D01*
X020643Y016956D01*
X020592Y016955D01*
X020542Y016958D01*
X020492Y016965D01*
X020443Y016976D01*
X020395Y016990D01*
X020348Y017008D01*
X020302Y017030D01*
X020258Y017055D01*
X020217Y017084D01*
X020178Y017115D01*
X020141Y017150D01*
X020107Y017187D01*
X020076Y017227D01*
X020048Y017269D01*
X020024Y017313D01*
X020003Y017359D01*
X019986Y017407D01*
X019973Y017455D01*
X019963Y017505D01*
X019957Y017555D01*
X019955Y017605D01*
X022076Y018484D02*
X022078Y018534D01*
X022084Y018584D01*
X022094Y018634D01*
X022107Y018682D01*
X022124Y018730D01*
X022145Y018776D01*
X022169Y018820D01*
X022197Y018862D01*
X022228Y018902D01*
X022262Y018939D01*
X022299Y018974D01*
X022338Y019005D01*
X022379Y019034D01*
X022423Y019059D01*
X022469Y019081D01*
X022516Y019099D01*
X022564Y019113D01*
X022613Y019124D01*
X022663Y019131D01*
X022713Y019134D01*
X022764Y019133D01*
X022814Y019128D01*
X022864Y019119D01*
X022912Y019107D01*
X022960Y019090D01*
X023006Y019070D01*
X023051Y019047D01*
X023094Y019020D01*
X023134Y018990D01*
X023172Y018957D01*
X023207Y018921D01*
X023240Y018882D01*
X023269Y018841D01*
X023295Y018798D01*
X023318Y018753D01*
X023337Y018706D01*
X023352Y018658D01*
X023364Y018609D01*
X023372Y018559D01*
X023376Y018509D01*
X023376Y018459D01*
X023372Y018409D01*
X023364Y018359D01*
X023352Y018310D01*
X023337Y018262D01*
X023318Y018215D01*
X023295Y018170D01*
X023269Y018127D01*
X023240Y018086D01*
X023207Y018047D01*
X023172Y018011D01*
X023134Y017978D01*
X023094Y017948D01*
X023051Y017921D01*
X023006Y017898D01*
X022960Y017878D01*
X022912Y017861D01*
X022864Y017849D01*
X022814Y017840D01*
X022764Y017835D01*
X022713Y017834D01*
X022663Y017837D01*
X022613Y017844D01*
X022564Y017855D01*
X022516Y017869D01*
X022469Y017887D01*
X022423Y017909D01*
X022379Y017934D01*
X022338Y017963D01*
X022299Y017994D01*
X022262Y018029D01*
X022228Y018066D01*
X022197Y018106D01*
X022169Y018148D01*
X022145Y018192D01*
X022124Y018238D01*
X022107Y018286D01*
X022094Y018334D01*
X022084Y018384D01*
X022078Y018434D01*
X022076Y018484D01*
X019955Y020605D02*
X019957Y020655D01*
X019963Y020705D01*
X019973Y020755D01*
X019986Y020803D01*
X020003Y020851D01*
X020024Y020897D01*
X020048Y020941D01*
X020076Y020983D01*
X020107Y021023D01*
X020141Y021060D01*
X020178Y021095D01*
X020217Y021126D01*
X020258Y021155D01*
X020302Y021180D01*
X020348Y021202D01*
X020395Y021220D01*
X020443Y021234D01*
X020492Y021245D01*
X020542Y021252D01*
X020592Y021255D01*
X020643Y021254D01*
X020693Y021249D01*
X020743Y021240D01*
X020791Y021228D01*
X020839Y021211D01*
X020885Y021191D01*
X020930Y021168D01*
X020973Y021141D01*
X021013Y021111D01*
X021051Y021078D01*
X021086Y021042D01*
X021119Y021003D01*
X021148Y020962D01*
X021174Y020919D01*
X021197Y020874D01*
X021216Y020827D01*
X021231Y020779D01*
X021243Y020730D01*
X021251Y020680D01*
X021255Y020630D01*
X021255Y020580D01*
X021251Y020530D01*
X021243Y020480D01*
X021231Y020431D01*
X021216Y020383D01*
X021197Y020336D01*
X021174Y020291D01*
X021148Y020248D01*
X021119Y020207D01*
X021086Y020168D01*
X021051Y020132D01*
X021013Y020099D01*
X020973Y020069D01*
X020930Y020042D01*
X020885Y020019D01*
X020839Y019999D01*
X020791Y019982D01*
X020743Y019970D01*
X020693Y019961D01*
X020643Y019956D01*
X020592Y019955D01*
X020542Y019958D01*
X020492Y019965D01*
X020443Y019976D01*
X020395Y019990D01*
X020348Y020008D01*
X020302Y020030D01*
X020258Y020055D01*
X020217Y020084D01*
X020178Y020115D01*
X020141Y020150D01*
X020107Y020187D01*
X020076Y020227D01*
X020048Y020269D01*
X020024Y020313D01*
X020003Y020359D01*
X019986Y020407D01*
X019973Y020455D01*
X019963Y020505D01*
X019957Y020555D01*
X019955Y020605D01*
D13*
X018484Y018484D03*
X020605Y017605D03*
X022726Y018484D03*
X023605Y020605D03*
X022726Y022726D03*
X020605Y023605D03*
X018484Y022726D03*
X017605Y020605D03*
X020605Y020605D03*
D14*
X042938Y020014D03*
X042938Y021196D03*
D15*
X042855Y023105D03*
X042855Y018105D03*
D16*
X027105Y020605D03*
X026355Y020605D03*
M02*
