G75*
G70*
%OFA0B0*%
%FSLAX24Y24*%
%IPPOS*%
%LPD*%
%AMOC8*
5,1,8,0,0,1.08239X$1,22.5*
%
%ADD10C,0.0010*%
%ADD11C,0.0000*%
%ADD12R,0.1496X0.0906*%
%ADD13R,0.0984X0.0217*%
%ADD14R,0.0394X0.0433*%
%ADD15C,0.0150*%
%ADD16C,0.0700*%
%ADD17C,0.0591*%
D10*
X040496Y015646D02*
X040231Y014683D01*
X039920Y013735D01*
X039562Y012803D01*
X039160Y011890D01*
X038714Y010997D01*
X038225Y010127D01*
X037694Y009282D01*
X037122Y008463D01*
X036512Y007674D01*
X035864Y006915D01*
X035179Y006188D01*
X034460Y005496D01*
X033708Y004839D01*
X032925Y004220D01*
X032113Y003640D01*
X031274Y003100D01*
X030409Y002601D01*
X029521Y002146D01*
X028612Y001733D01*
X027684Y001366D01*
X026739Y001044D01*
X025780Y000769D01*
X024808Y000541D01*
X023827Y000360D01*
X022838Y000227D01*
X021843Y000142D01*
X020846Y000106D01*
X019847Y000119D01*
X018851Y000180D01*
X017859Y000290D01*
X016874Y000447D01*
X015897Y000653D01*
X014931Y000906D01*
X013979Y001205D01*
X013043Y001551D01*
X012124Y001941D01*
X011226Y002376D01*
X010350Y002854D01*
X009498Y003375D01*
X008672Y003936D01*
X007875Y004536D01*
X007108Y005175D01*
X006373Y005850D01*
X005672Y006560D01*
X005006Y007304D01*
X004377Y008079D01*
X003787Y008884D01*
X003236Y009716D01*
X002727Y010574D01*
X002260Y011457D01*
X001836Y012360D01*
X001457Y013284D01*
X001123Y014224D01*
X000836Y015180D01*
X000595Y016149D01*
X000402Y017128D01*
X000257Y018116D01*
X000160Y019109D01*
X000111Y020106D01*
X000111Y021104D01*
X000160Y022101D01*
X000257Y023094D01*
X000402Y024082D01*
X000595Y025061D01*
X000836Y026030D01*
X001123Y026986D01*
X001457Y027926D01*
X001836Y028850D01*
X002260Y029753D01*
X002727Y030636D01*
X003236Y031494D01*
X003787Y032326D01*
X004377Y033131D01*
X005006Y033906D01*
X005672Y034650D01*
X006373Y035360D01*
X007108Y036035D01*
X007875Y036674D01*
X008672Y037274D01*
X009498Y037835D01*
X010350Y038356D01*
X011226Y038834D01*
X012124Y039269D01*
X013043Y039659D01*
X013979Y040005D01*
X014931Y040304D01*
X015897Y040557D01*
X016874Y040763D01*
X017859Y040920D01*
X018851Y041030D01*
X019847Y041091D01*
X020846Y041104D01*
X021843Y041068D01*
X022838Y040983D01*
X023827Y040850D01*
X024808Y040669D01*
X025780Y040441D01*
X026739Y040166D01*
X027684Y039844D01*
X028612Y039477D01*
X029521Y039064D01*
X030409Y038609D01*
X031274Y038110D01*
X032113Y037570D01*
X032925Y036990D01*
X033708Y036371D01*
X034460Y035714D01*
X035179Y035022D01*
X035864Y034295D01*
X036512Y033536D01*
X037122Y032747D01*
X037694Y031928D01*
X038225Y031083D01*
X038714Y030213D01*
X039160Y029320D01*
X039562Y028407D01*
X039920Y027475D01*
X040231Y026527D01*
X040496Y025564D01*
X040510Y025515D01*
X040527Y025467D01*
X040548Y025421D01*
X040572Y025376D01*
X040599Y025333D01*
X040629Y025291D01*
X040662Y025252D01*
X040697Y025216D01*
X040735Y025182D01*
X040775Y025150D01*
X040817Y025122D01*
X040862Y025096D01*
X040907Y025074D01*
X040955Y025055D01*
X044355Y022105D02*
X044355Y019105D01*
X040955Y016105D02*
X040908Y016091D01*
X040862Y016074D01*
X040818Y016054D01*
X040776Y016030D01*
X040736Y016002D01*
X040697Y015972D01*
X040662Y015939D01*
X040629Y015903D01*
X040598Y015865D01*
X040571Y015825D01*
X040547Y015782D01*
X040527Y015738D01*
X040509Y015692D01*
X040496Y015646D01*
X044355Y022105D02*
X044204Y022372D01*
X044040Y022632D01*
X043864Y022883D01*
X043676Y023125D01*
X043476Y023358D01*
X043265Y023581D01*
X043043Y023793D01*
X042811Y023994D01*
X042570Y024183D01*
X042319Y024361D01*
X042061Y024526D01*
X041794Y024678D01*
X041521Y024818D01*
X041241Y024943D01*
X040955Y025055D01*
X044355Y019105D02*
X044265Y018887D01*
X044164Y018674D01*
X044053Y018467D01*
X043932Y018264D01*
X043802Y018068D01*
X043663Y017878D01*
X043515Y017695D01*
X043358Y017519D01*
X043193Y017351D01*
X043020Y017191D01*
X042840Y017039D01*
X042652Y016896D01*
X042459Y016763D01*
X042258Y016638D01*
X042053Y016524D01*
X041842Y016419D01*
X041626Y016325D01*
X041406Y016241D01*
X041182Y016167D01*
X040955Y016105D01*
D11*
X017834Y018484D02*
X017836Y018534D01*
X017842Y018584D01*
X017852Y018634D01*
X017865Y018682D01*
X017882Y018730D01*
X017903Y018776D01*
X017927Y018820D01*
X017955Y018862D01*
X017986Y018902D01*
X018020Y018939D01*
X018057Y018974D01*
X018096Y019005D01*
X018137Y019034D01*
X018181Y019059D01*
X018227Y019081D01*
X018274Y019099D01*
X018322Y019113D01*
X018371Y019124D01*
X018421Y019131D01*
X018471Y019134D01*
X018522Y019133D01*
X018572Y019128D01*
X018622Y019119D01*
X018670Y019107D01*
X018718Y019090D01*
X018764Y019070D01*
X018809Y019047D01*
X018852Y019020D01*
X018892Y018990D01*
X018930Y018957D01*
X018965Y018921D01*
X018998Y018882D01*
X019027Y018841D01*
X019053Y018798D01*
X019076Y018753D01*
X019095Y018706D01*
X019110Y018658D01*
X019122Y018609D01*
X019130Y018559D01*
X019134Y018509D01*
X019134Y018459D01*
X019130Y018409D01*
X019122Y018359D01*
X019110Y018310D01*
X019095Y018262D01*
X019076Y018215D01*
X019053Y018170D01*
X019027Y018127D01*
X018998Y018086D01*
X018965Y018047D01*
X018930Y018011D01*
X018892Y017978D01*
X018852Y017948D01*
X018809Y017921D01*
X018764Y017898D01*
X018718Y017878D01*
X018670Y017861D01*
X018622Y017849D01*
X018572Y017840D01*
X018522Y017835D01*
X018471Y017834D01*
X018421Y017837D01*
X018371Y017844D01*
X018322Y017855D01*
X018274Y017869D01*
X018227Y017887D01*
X018181Y017909D01*
X018137Y017934D01*
X018096Y017963D01*
X018057Y017994D01*
X018020Y018029D01*
X017986Y018066D01*
X017955Y018106D01*
X017927Y018148D01*
X017903Y018192D01*
X017882Y018238D01*
X017865Y018286D01*
X017852Y018334D01*
X017842Y018384D01*
X017836Y018434D01*
X017834Y018484D01*
X016955Y020605D02*
X016957Y020655D01*
X016963Y020705D01*
X016973Y020755D01*
X016986Y020803D01*
X017003Y020851D01*
X017024Y020897D01*
X017048Y020941D01*
X017076Y020983D01*
X017107Y021023D01*
X017141Y021060D01*
X017178Y021095D01*
X017217Y021126D01*
X017258Y021155D01*
X017302Y021180D01*
X017348Y021202D01*
X017395Y021220D01*
X017443Y021234D01*
X017492Y021245D01*
X017542Y021252D01*
X017592Y021255D01*
X017643Y021254D01*
X017693Y021249D01*
X017743Y021240D01*
X017791Y021228D01*
X017839Y021211D01*
X017885Y021191D01*
X017930Y021168D01*
X017973Y021141D01*
X018013Y021111D01*
X018051Y021078D01*
X018086Y021042D01*
X018119Y021003D01*
X018148Y020962D01*
X018174Y020919D01*
X018197Y020874D01*
X018216Y020827D01*
X018231Y020779D01*
X018243Y020730D01*
X018251Y020680D01*
X018255Y020630D01*
X018255Y020580D01*
X018251Y020530D01*
X018243Y020480D01*
X018231Y020431D01*
X018216Y020383D01*
X018197Y020336D01*
X018174Y020291D01*
X018148Y020248D01*
X018119Y020207D01*
X018086Y020168D01*
X018051Y020132D01*
X018013Y020099D01*
X017973Y020069D01*
X017930Y020042D01*
X017885Y020019D01*
X017839Y019999D01*
X017791Y019982D01*
X017743Y019970D01*
X017693Y019961D01*
X017643Y019956D01*
X017592Y019955D01*
X017542Y019958D01*
X017492Y019965D01*
X017443Y019976D01*
X017395Y019990D01*
X017348Y020008D01*
X017302Y020030D01*
X017258Y020055D01*
X017217Y020084D01*
X017178Y020115D01*
X017141Y020150D01*
X017107Y020187D01*
X017076Y020227D01*
X017048Y020269D01*
X017024Y020313D01*
X017003Y020359D01*
X016986Y020407D01*
X016973Y020455D01*
X016963Y020505D01*
X016957Y020555D01*
X016955Y020605D01*
X017834Y022726D02*
X017836Y022776D01*
X017842Y022826D01*
X017852Y022876D01*
X017865Y022924D01*
X017882Y022972D01*
X017903Y023018D01*
X017927Y023062D01*
X017955Y023104D01*
X017986Y023144D01*
X018020Y023181D01*
X018057Y023216D01*
X018096Y023247D01*
X018137Y023276D01*
X018181Y023301D01*
X018227Y023323D01*
X018274Y023341D01*
X018322Y023355D01*
X018371Y023366D01*
X018421Y023373D01*
X018471Y023376D01*
X018522Y023375D01*
X018572Y023370D01*
X018622Y023361D01*
X018670Y023349D01*
X018718Y023332D01*
X018764Y023312D01*
X018809Y023289D01*
X018852Y023262D01*
X018892Y023232D01*
X018930Y023199D01*
X018965Y023163D01*
X018998Y023124D01*
X019027Y023083D01*
X019053Y023040D01*
X019076Y022995D01*
X019095Y022948D01*
X019110Y022900D01*
X019122Y022851D01*
X019130Y022801D01*
X019134Y022751D01*
X019134Y022701D01*
X019130Y022651D01*
X019122Y022601D01*
X019110Y022552D01*
X019095Y022504D01*
X019076Y022457D01*
X019053Y022412D01*
X019027Y022369D01*
X018998Y022328D01*
X018965Y022289D01*
X018930Y022253D01*
X018892Y022220D01*
X018852Y022190D01*
X018809Y022163D01*
X018764Y022140D01*
X018718Y022120D01*
X018670Y022103D01*
X018622Y022091D01*
X018572Y022082D01*
X018522Y022077D01*
X018471Y022076D01*
X018421Y022079D01*
X018371Y022086D01*
X018322Y022097D01*
X018274Y022111D01*
X018227Y022129D01*
X018181Y022151D01*
X018137Y022176D01*
X018096Y022205D01*
X018057Y022236D01*
X018020Y022271D01*
X017986Y022308D01*
X017955Y022348D01*
X017927Y022390D01*
X017903Y022434D01*
X017882Y022480D01*
X017865Y022528D01*
X017852Y022576D01*
X017842Y022626D01*
X017836Y022676D01*
X017834Y022726D01*
X019955Y023605D02*
X019957Y023655D01*
X019963Y023705D01*
X019973Y023755D01*
X019986Y023803D01*
X020003Y023851D01*
X020024Y023897D01*
X020048Y023941D01*
X020076Y023983D01*
X020107Y024023D01*
X020141Y024060D01*
X020178Y024095D01*
X020217Y024126D01*
X020258Y024155D01*
X020302Y024180D01*
X020348Y024202D01*
X020395Y024220D01*
X020443Y024234D01*
X020492Y024245D01*
X020542Y024252D01*
X020592Y024255D01*
X020643Y024254D01*
X020693Y024249D01*
X020743Y024240D01*
X020791Y024228D01*
X020839Y024211D01*
X020885Y024191D01*
X020930Y024168D01*
X020973Y024141D01*
X021013Y024111D01*
X021051Y024078D01*
X021086Y024042D01*
X021119Y024003D01*
X021148Y023962D01*
X021174Y023919D01*
X021197Y023874D01*
X021216Y023827D01*
X021231Y023779D01*
X021243Y023730D01*
X021251Y023680D01*
X021255Y023630D01*
X021255Y023580D01*
X021251Y023530D01*
X021243Y023480D01*
X021231Y023431D01*
X021216Y023383D01*
X021197Y023336D01*
X021174Y023291D01*
X021148Y023248D01*
X021119Y023207D01*
X021086Y023168D01*
X021051Y023132D01*
X021013Y023099D01*
X020973Y023069D01*
X020930Y023042D01*
X020885Y023019D01*
X020839Y022999D01*
X020791Y022982D01*
X020743Y022970D01*
X020693Y022961D01*
X020643Y022956D01*
X020592Y022955D01*
X020542Y022958D01*
X020492Y022965D01*
X020443Y022976D01*
X020395Y022990D01*
X020348Y023008D01*
X020302Y023030D01*
X020258Y023055D01*
X020217Y023084D01*
X020178Y023115D01*
X020141Y023150D01*
X020107Y023187D01*
X020076Y023227D01*
X020048Y023269D01*
X020024Y023313D01*
X020003Y023359D01*
X019986Y023407D01*
X019973Y023455D01*
X019963Y023505D01*
X019957Y023555D01*
X019955Y023605D01*
X022076Y022726D02*
X022078Y022776D01*
X022084Y022826D01*
X022094Y022876D01*
X022107Y022924D01*
X022124Y022972D01*
X022145Y023018D01*
X022169Y023062D01*
X022197Y023104D01*
X022228Y023144D01*
X022262Y023181D01*
X022299Y023216D01*
X022338Y023247D01*
X022379Y023276D01*
X022423Y023301D01*
X022469Y023323D01*
X022516Y023341D01*
X022564Y023355D01*
X022613Y023366D01*
X022663Y023373D01*
X022713Y023376D01*
X022764Y023375D01*
X022814Y023370D01*
X022864Y023361D01*
X022912Y023349D01*
X022960Y023332D01*
X023006Y023312D01*
X023051Y023289D01*
X023094Y023262D01*
X023134Y023232D01*
X023172Y023199D01*
X023207Y023163D01*
X023240Y023124D01*
X023269Y023083D01*
X023295Y023040D01*
X023318Y022995D01*
X023337Y022948D01*
X023352Y022900D01*
X023364Y022851D01*
X023372Y022801D01*
X023376Y022751D01*
X023376Y022701D01*
X023372Y022651D01*
X023364Y022601D01*
X023352Y022552D01*
X023337Y022504D01*
X023318Y022457D01*
X023295Y022412D01*
X023269Y022369D01*
X023240Y022328D01*
X023207Y022289D01*
X023172Y022253D01*
X023134Y022220D01*
X023094Y022190D01*
X023051Y022163D01*
X023006Y022140D01*
X022960Y022120D01*
X022912Y022103D01*
X022864Y022091D01*
X022814Y022082D01*
X022764Y022077D01*
X022713Y022076D01*
X022663Y022079D01*
X022613Y022086D01*
X022564Y022097D01*
X022516Y022111D01*
X022469Y022129D01*
X022423Y022151D01*
X022379Y022176D01*
X022338Y022205D01*
X022299Y022236D01*
X022262Y022271D01*
X022228Y022308D01*
X022197Y022348D01*
X022169Y022390D01*
X022145Y022434D01*
X022124Y022480D01*
X022107Y022528D01*
X022094Y022576D01*
X022084Y022626D01*
X022078Y022676D01*
X022076Y022726D01*
X019955Y020605D02*
X019957Y020655D01*
X019963Y020705D01*
X019973Y020755D01*
X019986Y020803D01*
X020003Y020851D01*
X020024Y020897D01*
X020048Y020941D01*
X020076Y020983D01*
X020107Y021023D01*
X020141Y021060D01*
X020178Y021095D01*
X020217Y021126D01*
X020258Y021155D01*
X020302Y021180D01*
X020348Y021202D01*
X020395Y021220D01*
X020443Y021234D01*
X020492Y021245D01*
X020542Y021252D01*
X020592Y021255D01*
X020643Y021254D01*
X020693Y021249D01*
X020743Y021240D01*
X020791Y021228D01*
X020839Y021211D01*
X020885Y021191D01*
X020930Y021168D01*
X020973Y021141D01*
X021013Y021111D01*
X021051Y021078D01*
X021086Y021042D01*
X021119Y021003D01*
X021148Y020962D01*
X021174Y020919D01*
X021197Y020874D01*
X021216Y020827D01*
X021231Y020779D01*
X021243Y020730D01*
X021251Y020680D01*
X021255Y020630D01*
X021255Y020580D01*
X021251Y020530D01*
X021243Y020480D01*
X021231Y020431D01*
X021216Y020383D01*
X021197Y020336D01*
X021174Y020291D01*
X021148Y020248D01*
X021119Y020207D01*
X021086Y020168D01*
X021051Y020132D01*
X021013Y020099D01*
X020973Y020069D01*
X020930Y020042D01*
X020885Y020019D01*
X020839Y019999D01*
X020791Y019982D01*
X020743Y019970D01*
X020693Y019961D01*
X020643Y019956D01*
X020592Y019955D01*
X020542Y019958D01*
X020492Y019965D01*
X020443Y019976D01*
X020395Y019990D01*
X020348Y020008D01*
X020302Y020030D01*
X020258Y020055D01*
X020217Y020084D01*
X020178Y020115D01*
X020141Y020150D01*
X020107Y020187D01*
X020076Y020227D01*
X020048Y020269D01*
X020024Y020313D01*
X020003Y020359D01*
X019986Y020407D01*
X019973Y020455D01*
X019963Y020505D01*
X019957Y020555D01*
X019955Y020605D01*
X022076Y018484D02*
X022078Y018534D01*
X022084Y018584D01*
X022094Y018634D01*
X022107Y018682D01*
X022124Y018730D01*
X022145Y018776D01*
X022169Y018820D01*
X022197Y018862D01*
X022228Y018902D01*
X022262Y018939D01*
X022299Y018974D01*
X022338Y019005D01*
X022379Y019034D01*
X022423Y019059D01*
X022469Y019081D01*
X022516Y019099D01*
X022564Y019113D01*
X022613Y019124D01*
X022663Y019131D01*
X022713Y019134D01*
X022764Y019133D01*
X022814Y019128D01*
X022864Y019119D01*
X022912Y019107D01*
X022960Y019090D01*
X023006Y019070D01*
X023051Y019047D01*
X023094Y019020D01*
X023134Y018990D01*
X023172Y018957D01*
X023207Y018921D01*
X023240Y018882D01*
X023269Y018841D01*
X023295Y018798D01*
X023318Y018753D01*
X023337Y018706D01*
X023352Y018658D01*
X023364Y018609D01*
X023372Y018559D01*
X023376Y018509D01*
X023376Y018459D01*
X023372Y018409D01*
X023364Y018359D01*
X023352Y018310D01*
X023337Y018262D01*
X023318Y018215D01*
X023295Y018170D01*
X023269Y018127D01*
X023240Y018086D01*
X023207Y018047D01*
X023172Y018011D01*
X023134Y017978D01*
X023094Y017948D01*
X023051Y017921D01*
X023006Y017898D01*
X022960Y017878D01*
X022912Y017861D01*
X022864Y017849D01*
X022814Y017840D01*
X022764Y017835D01*
X022713Y017834D01*
X022663Y017837D01*
X022613Y017844D01*
X022564Y017855D01*
X022516Y017869D01*
X022469Y017887D01*
X022423Y017909D01*
X022379Y017934D01*
X022338Y017963D01*
X022299Y017994D01*
X022262Y018029D01*
X022228Y018066D01*
X022197Y018106D01*
X022169Y018148D01*
X022145Y018192D01*
X022124Y018238D01*
X022107Y018286D01*
X022094Y018334D01*
X022084Y018384D01*
X022078Y018434D01*
X022076Y018484D01*
X019955Y017605D02*
X019957Y017655D01*
X019963Y017705D01*
X019973Y017755D01*
X019986Y017803D01*
X020003Y017851D01*
X020024Y017897D01*
X020048Y017941D01*
X020076Y017983D01*
X020107Y018023D01*
X020141Y018060D01*
X020178Y018095D01*
X020217Y018126D01*
X020258Y018155D01*
X020302Y018180D01*
X020348Y018202D01*
X020395Y018220D01*
X020443Y018234D01*
X020492Y018245D01*
X020542Y018252D01*
X020592Y018255D01*
X020643Y018254D01*
X020693Y018249D01*
X020743Y018240D01*
X020791Y018228D01*
X020839Y018211D01*
X020885Y018191D01*
X020930Y018168D01*
X020973Y018141D01*
X021013Y018111D01*
X021051Y018078D01*
X021086Y018042D01*
X021119Y018003D01*
X021148Y017962D01*
X021174Y017919D01*
X021197Y017874D01*
X021216Y017827D01*
X021231Y017779D01*
X021243Y017730D01*
X021251Y017680D01*
X021255Y017630D01*
X021255Y017580D01*
X021251Y017530D01*
X021243Y017480D01*
X021231Y017431D01*
X021216Y017383D01*
X021197Y017336D01*
X021174Y017291D01*
X021148Y017248D01*
X021119Y017207D01*
X021086Y017168D01*
X021051Y017132D01*
X021013Y017099D01*
X020973Y017069D01*
X020930Y017042D01*
X020885Y017019D01*
X020839Y016999D01*
X020791Y016982D01*
X020743Y016970D01*
X020693Y016961D01*
X020643Y016956D01*
X020592Y016955D01*
X020542Y016958D01*
X020492Y016965D01*
X020443Y016976D01*
X020395Y016990D01*
X020348Y017008D01*
X020302Y017030D01*
X020258Y017055D01*
X020217Y017084D01*
X020178Y017115D01*
X020141Y017150D01*
X020107Y017187D01*
X020076Y017227D01*
X020048Y017269D01*
X020024Y017313D01*
X020003Y017359D01*
X019986Y017407D01*
X019973Y017455D01*
X019963Y017505D01*
X019957Y017555D01*
X019955Y017605D01*
X022955Y020605D02*
X022957Y020655D01*
X022963Y020705D01*
X022973Y020755D01*
X022986Y020803D01*
X023003Y020851D01*
X023024Y020897D01*
X023048Y020941D01*
X023076Y020983D01*
X023107Y021023D01*
X023141Y021060D01*
X023178Y021095D01*
X023217Y021126D01*
X023258Y021155D01*
X023302Y021180D01*
X023348Y021202D01*
X023395Y021220D01*
X023443Y021234D01*
X023492Y021245D01*
X023542Y021252D01*
X023592Y021255D01*
X023643Y021254D01*
X023693Y021249D01*
X023743Y021240D01*
X023791Y021228D01*
X023839Y021211D01*
X023885Y021191D01*
X023930Y021168D01*
X023973Y021141D01*
X024013Y021111D01*
X024051Y021078D01*
X024086Y021042D01*
X024119Y021003D01*
X024148Y020962D01*
X024174Y020919D01*
X024197Y020874D01*
X024216Y020827D01*
X024231Y020779D01*
X024243Y020730D01*
X024251Y020680D01*
X024255Y020630D01*
X024255Y020580D01*
X024251Y020530D01*
X024243Y020480D01*
X024231Y020431D01*
X024216Y020383D01*
X024197Y020336D01*
X024174Y020291D01*
X024148Y020248D01*
X024119Y020207D01*
X024086Y020168D01*
X024051Y020132D01*
X024013Y020099D01*
X023973Y020069D01*
X023930Y020042D01*
X023885Y020019D01*
X023839Y019999D01*
X023791Y019982D01*
X023743Y019970D01*
X023693Y019961D01*
X023643Y019956D01*
X023592Y019955D01*
X023542Y019958D01*
X023492Y019965D01*
X023443Y019976D01*
X023395Y019990D01*
X023348Y020008D01*
X023302Y020030D01*
X023258Y020055D01*
X023217Y020084D01*
X023178Y020115D01*
X023141Y020150D01*
X023107Y020187D01*
X023076Y020227D01*
X023048Y020269D01*
X023024Y020313D01*
X023003Y020359D01*
X022986Y020407D01*
X022973Y020455D01*
X022963Y020505D01*
X022957Y020555D01*
X022955Y020605D01*
X042741Y020014D02*
X042743Y020041D01*
X042749Y020068D01*
X042758Y020094D01*
X042771Y020118D01*
X042787Y020141D01*
X042806Y020160D01*
X042828Y020177D01*
X042852Y020191D01*
X042877Y020201D01*
X042904Y020208D01*
X042931Y020211D01*
X042959Y020210D01*
X042986Y020205D01*
X043012Y020197D01*
X043036Y020185D01*
X043059Y020169D01*
X043080Y020151D01*
X043097Y020130D01*
X043112Y020106D01*
X043123Y020081D01*
X043131Y020055D01*
X043135Y020028D01*
X043135Y020000D01*
X043131Y019973D01*
X043123Y019947D01*
X043112Y019922D01*
X043097Y019898D01*
X043080Y019877D01*
X043059Y019859D01*
X043037Y019843D01*
X043012Y019831D01*
X042986Y019823D01*
X042959Y019818D01*
X042931Y019817D01*
X042904Y019820D01*
X042877Y019827D01*
X042852Y019837D01*
X042828Y019851D01*
X042806Y019868D01*
X042787Y019887D01*
X042771Y019910D01*
X042758Y019934D01*
X042749Y019960D01*
X042743Y019987D01*
X042741Y020014D01*
X042741Y021196D02*
X042743Y021223D01*
X042749Y021250D01*
X042758Y021276D01*
X042771Y021300D01*
X042787Y021323D01*
X042806Y021342D01*
X042828Y021359D01*
X042852Y021373D01*
X042877Y021383D01*
X042904Y021390D01*
X042931Y021393D01*
X042959Y021392D01*
X042986Y021387D01*
X043012Y021379D01*
X043036Y021367D01*
X043059Y021351D01*
X043080Y021333D01*
X043097Y021312D01*
X043112Y021288D01*
X043123Y021263D01*
X043131Y021237D01*
X043135Y021210D01*
X043135Y021182D01*
X043131Y021155D01*
X043123Y021129D01*
X043112Y021104D01*
X043097Y021080D01*
X043080Y021059D01*
X043059Y021041D01*
X043037Y021025D01*
X043012Y021013D01*
X042986Y021005D01*
X042959Y021000D01*
X042931Y020999D01*
X042904Y021002D01*
X042877Y021009D01*
X042852Y021019D01*
X042828Y021033D01*
X042806Y021050D01*
X042787Y021069D01*
X042771Y021092D01*
X042758Y021116D01*
X042749Y021142D01*
X042743Y021169D01*
X042741Y021196D01*
D12*
X042603Y022121D03*
X042603Y019089D03*
D13*
X041698Y020133D03*
X041698Y020448D03*
X041698Y020762D03*
X041698Y021077D03*
D14*
G36*
X040770Y023142D02*
X041157Y023210D01*
X041232Y022786D01*
X040845Y022718D01*
X040770Y023142D01*
G37*
G36*
X040657Y023782D02*
X041044Y023850D01*
X041119Y023426D01*
X040732Y023358D01*
X040657Y023782D01*
G37*
G36*
X040544Y024422D02*
X040931Y024490D01*
X041006Y024066D01*
X040619Y023998D01*
X040544Y024422D01*
G37*
G36*
X041203Y024539D02*
X041590Y024607D01*
X041665Y024183D01*
X041278Y024115D01*
X041203Y024539D01*
G37*
G36*
X041316Y023898D02*
X041703Y023966D01*
X041778Y023542D01*
X041391Y023474D01*
X041316Y023898D01*
G37*
G36*
X041429Y023258D02*
X041816Y023326D01*
X041891Y022902D01*
X041504Y022834D01*
X041429Y023258D01*
G37*
G36*
X040836Y018490D02*
X041223Y018422D01*
X041148Y017998D01*
X040761Y018066D01*
X040836Y018490D01*
G37*
G36*
X041496Y018374D02*
X041883Y018306D01*
X041808Y017882D01*
X041421Y017950D01*
X041496Y018374D01*
G37*
G36*
X041383Y017734D02*
X041770Y017666D01*
X041695Y017242D01*
X041308Y017310D01*
X041383Y017734D01*
G37*
G36*
X040724Y017850D02*
X041111Y017782D01*
X041036Y017358D01*
X040649Y017426D01*
X040724Y017850D01*
G37*
G36*
X040611Y017210D02*
X040998Y017142D01*
X040923Y016718D01*
X040536Y016786D01*
X040611Y017210D01*
G37*
G36*
X041270Y017094D02*
X041657Y017026D01*
X041582Y016602D01*
X041195Y016670D01*
X041270Y017094D01*
G37*
D15*
X041426Y016848D02*
X041555Y017505D01*
X041539Y017488D01*
X041655Y018105D01*
X041652Y018128D01*
X041628Y018128D01*
X041605Y018105D01*
X041605Y018705D01*
X040855Y019455D01*
X040855Y020055D01*
X040933Y020133D01*
X041698Y020133D01*
X041698Y020448D02*
X041062Y020448D01*
X040905Y020605D01*
X040905Y021805D01*
X041605Y022655D01*
X041555Y023055D01*
X041660Y023080D01*
X042830Y023080D01*
X042855Y023055D01*
X042855Y023105D01*
X041660Y023080D02*
X041547Y023720D01*
X041434Y024361D01*
X040775Y024244D02*
X040770Y024234D01*
X040305Y024143D01*
X040755Y024205D02*
X040885Y023619D01*
X040873Y023602D01*
X040888Y023604D01*
X040905Y023555D01*
X040989Y023028D01*
X040977Y023011D01*
X040995Y022998D01*
X041001Y022964D01*
X040755Y024205D02*
X040770Y024234D01*
X040605Y020605D02*
X040605Y020455D01*
X040605Y018405D01*
X040705Y018305D01*
X040905Y018305D01*
X040966Y018244D01*
X040992Y018244D01*
X041005Y018205D01*
X040880Y017604D01*
X040855Y017555D01*
X040767Y016964D01*
X040880Y017604D02*
X040867Y017622D01*
X040880Y017604D02*
X040920Y017632D01*
X040922Y017647D01*
X041539Y017488D02*
X041551Y017470D01*
X041545Y017436D01*
X041664Y018110D02*
X042850Y018110D01*
X042855Y018105D01*
X041664Y018110D02*
X041652Y018128D01*
X040992Y018244D02*
X040975Y018232D01*
X041426Y016848D02*
X041438Y016830D01*
X040345Y020540D02*
X040345Y020605D01*
X040085Y020605D02*
X040085Y020540D01*
X039825Y020540D02*
X039825Y020605D01*
X039565Y020605D02*
X039565Y020540D01*
X039305Y020540D02*
X039305Y020605D01*
X039045Y020605D02*
X039045Y020540D01*
X038785Y020540D02*
X038785Y020605D01*
X038525Y020605D02*
X038525Y020540D01*
X038265Y020540D02*
X038265Y020605D01*
X038005Y020605D02*
X038005Y020540D01*
X037745Y020540D02*
X037745Y020605D01*
X037485Y020605D02*
X037485Y020540D01*
X037225Y020540D02*
X037225Y020605D01*
X036965Y020605D02*
X036965Y020540D01*
X036705Y020540D02*
X036705Y020605D01*
X036445Y020605D02*
X036445Y020540D01*
X036185Y020540D02*
X036185Y020605D01*
X035925Y020605D02*
X035925Y020540D01*
X035665Y020540D02*
X035665Y020605D01*
X035405Y020605D02*
X035405Y020540D01*
X035145Y020540D02*
X035145Y020605D01*
X034885Y020605D02*
X034885Y020540D01*
X034625Y020540D02*
X034625Y020605D01*
X034365Y020605D02*
X034365Y020540D01*
X034105Y020540D02*
X034105Y020605D01*
X033845Y020605D02*
X033845Y020540D01*
X033585Y020540D02*
X033585Y020605D01*
X033325Y020605D02*
X033325Y020540D01*
X033065Y020540D02*
X033065Y020605D01*
X032805Y020605D02*
X032805Y020540D01*
X032545Y020540D02*
X032545Y020605D01*
X032285Y020605D02*
X032285Y020540D01*
X032025Y020540D02*
X032025Y020605D01*
X031765Y020605D02*
X031765Y020540D01*
X031505Y020540D02*
X031505Y020605D01*
X031245Y020605D02*
X031245Y020540D01*
X030985Y020540D02*
X030985Y020605D01*
X030725Y020605D02*
X030725Y020540D01*
X030465Y020540D02*
X030465Y020605D01*
X030205Y020605D02*
X030205Y020540D01*
X029945Y020540D02*
X029945Y020605D01*
X029685Y020605D02*
X029685Y020540D01*
X029425Y020540D02*
X029425Y020605D01*
X029165Y020605D02*
X029165Y020540D01*
X028905Y020540D02*
X028905Y020605D01*
X028645Y020605D02*
X028645Y020540D01*
X028385Y020540D02*
X028385Y020605D01*
X028125Y020605D02*
X028125Y020540D01*
X027865Y020540D02*
X027865Y020605D01*
X027605Y020605D02*
X027605Y020605D01*
X026355Y020605D01*
X026355Y020605D01*
X027105Y020605D01*
X027605Y020605D01*
X027605Y020540D01*
X040605Y020605D02*
X040582Y021553D01*
X040515Y022500D01*
X040402Y023442D01*
X040245Y024378D01*
X040043Y025305D01*
X039798Y026221D01*
X039509Y027125D01*
X039177Y028014D01*
X038804Y028886D01*
X038389Y029740D01*
X037934Y030572D01*
X037440Y031383D01*
X036909Y032168D01*
X036340Y032928D01*
X035736Y033660D01*
X035098Y034362D01*
X034427Y035033D01*
X033725Y035671D01*
X032993Y036275D01*
X032233Y036844D01*
X031448Y037375D01*
X030637Y037869D01*
X029805Y038324D01*
X028951Y038739D01*
X028079Y039112D01*
X027190Y039444D01*
X026286Y039733D01*
X025370Y039978D01*
X024443Y040180D01*
X023507Y040337D01*
X022565Y040450D01*
X021618Y040517D01*
X020670Y040540D01*
X020605Y040540D01*
X020605Y040280D02*
X020670Y040280D01*
X020670Y040020D02*
X020605Y040020D01*
X020605Y039760D02*
X020670Y039760D01*
X020670Y039500D02*
X020605Y039500D01*
X020605Y039240D02*
X020670Y039240D01*
X020670Y038980D02*
X020605Y038980D01*
X020605Y038720D02*
X020670Y038720D01*
X020670Y038460D02*
X020605Y038460D01*
X020605Y038200D02*
X020670Y038200D01*
X020670Y037940D02*
X020605Y037940D01*
X020605Y037680D02*
X020670Y037680D01*
X020670Y037420D02*
X020605Y037420D01*
X020605Y037160D02*
X020670Y037160D01*
X020670Y036900D02*
X020605Y036900D01*
X020605Y036640D02*
X020670Y036640D01*
X020670Y036380D02*
X020605Y036380D01*
X020605Y036120D02*
X020670Y036120D01*
X020670Y035860D02*
X020605Y035860D01*
X020605Y035600D02*
X020670Y035600D01*
X020670Y035340D02*
X020605Y035340D01*
X020605Y035080D02*
X020670Y035080D01*
X020670Y034820D02*
X020605Y034820D01*
X020605Y034560D02*
X020670Y034560D01*
X020670Y034300D02*
X020605Y034300D01*
X020605Y034040D02*
X020670Y034040D01*
X020670Y033780D02*
X020605Y033780D01*
X020605Y033520D02*
X020670Y033520D01*
X020670Y033260D02*
X020605Y033260D01*
X020605Y033000D02*
X020670Y033000D01*
X020670Y032740D02*
X020605Y032740D01*
X020605Y032480D02*
X020670Y032480D01*
X020670Y032220D02*
X020605Y032220D01*
X020605Y031960D02*
X020670Y031960D01*
X020670Y031700D02*
X020605Y031700D01*
X020605Y031440D02*
X020670Y031440D01*
X020670Y031180D02*
X020605Y031180D01*
X020605Y030920D02*
X020670Y030920D01*
X020670Y030660D02*
X020605Y030660D01*
X020605Y030400D02*
X020670Y030400D01*
X020670Y030140D02*
X020605Y030140D01*
X020605Y029880D02*
X020670Y029880D01*
X020670Y029620D02*
X020605Y029620D01*
X020605Y029360D02*
X020670Y029360D01*
X020670Y029100D02*
X020605Y029100D01*
X020605Y028840D02*
X020670Y028840D01*
X020670Y028580D02*
X020605Y028580D01*
X020605Y028320D02*
X020670Y028320D01*
X020670Y028060D02*
X020605Y028060D01*
X020605Y027800D02*
X020670Y027800D01*
X020605Y033260D02*
X020006Y033246D01*
X019408Y033203D01*
X018813Y033132D01*
X018222Y033032D01*
X017637Y032905D01*
X017058Y032750D01*
X016487Y032568D01*
X015926Y032358D01*
X015375Y032122D01*
X014836Y031860D01*
X014310Y031573D01*
X013798Y031261D01*
X013302Y030926D01*
X012822Y030566D01*
X012360Y030185D01*
X011917Y029782D01*
X011493Y029358D01*
X011090Y028915D01*
X010709Y028453D01*
X010349Y027973D01*
X010014Y027477D01*
X009702Y026965D01*
X009415Y026439D01*
X009153Y025900D01*
X008917Y025349D01*
X008707Y024788D01*
X008525Y024217D01*
X008370Y023638D01*
X008243Y023053D01*
X008143Y022462D01*
X008072Y021867D01*
X008029Y021269D01*
X008015Y020670D01*
X008015Y020605D01*
X007755Y020605D02*
X007755Y020670D01*
X007495Y020670D02*
X007495Y020605D01*
X007235Y020605D02*
X007235Y020670D01*
X006975Y020670D02*
X006975Y020605D01*
X006715Y020605D02*
X006715Y020670D01*
X006455Y020670D02*
X006455Y020605D01*
X006195Y020605D02*
X006195Y020670D01*
X005935Y020670D02*
X005935Y020605D01*
X005675Y020605D02*
X005675Y020670D01*
X005415Y020670D02*
X005415Y020605D01*
X005155Y020605D02*
X005155Y020670D01*
X004895Y020670D02*
X004895Y020605D01*
X004635Y020605D02*
X004635Y020670D01*
X004375Y020670D02*
X004375Y020605D01*
X004115Y020605D02*
X004115Y020670D01*
X003855Y020670D02*
X003855Y020605D01*
X003595Y020605D02*
X003595Y020670D01*
X003335Y020670D02*
X003335Y020605D01*
X003075Y020605D02*
X003075Y020670D01*
X002815Y020670D02*
X002815Y020605D01*
X002555Y020605D02*
X002555Y020670D01*
X002295Y020670D02*
X002295Y020605D01*
X002035Y020605D02*
X002035Y020670D01*
X001775Y020670D02*
X001775Y020605D01*
X001515Y020605D02*
X001515Y020670D01*
X001255Y020670D02*
X001255Y020605D01*
X000995Y020605D02*
X000995Y020670D01*
X000735Y020670D02*
X000735Y020605D01*
X008275Y020605D02*
X008275Y020670D01*
X008535Y020670D02*
X008535Y020605D01*
X008795Y020605D02*
X008795Y020670D01*
X009055Y020670D02*
X009055Y020605D01*
X009315Y020605D02*
X009315Y020670D01*
X009575Y020670D02*
X009575Y020605D01*
X009835Y020605D02*
X009835Y020670D01*
X010095Y020670D02*
X010095Y020605D01*
X010355Y020605D02*
X010355Y020670D01*
X010615Y020670D02*
X010615Y020605D01*
X010875Y020605D02*
X010875Y020670D01*
X011135Y020670D02*
X011135Y020605D01*
X011395Y020605D02*
X011395Y020670D01*
X011655Y020670D02*
X011655Y020605D01*
X011915Y020605D02*
X011915Y020670D01*
X012175Y020670D02*
X012175Y020605D01*
X012435Y020605D02*
X012435Y020670D01*
X012695Y020670D02*
X012695Y020605D01*
X012955Y020605D02*
X012955Y020670D01*
X013215Y020670D02*
X013215Y020605D01*
X013475Y020605D02*
X013475Y020670D01*
X004635Y020605D02*
X004653Y019848D01*
X004707Y019093D01*
X004797Y018342D01*
X004922Y017595D01*
X005083Y016855D01*
X005279Y016124D01*
X005510Y015403D01*
X005774Y014694D01*
X006072Y013998D01*
X006403Y013317D01*
X006766Y012653D01*
X007160Y012006D01*
X007584Y011379D01*
X008038Y010773D01*
X008520Y010189D01*
X009029Y009629D01*
X009564Y009094D01*
X010124Y008585D01*
X010708Y008103D01*
X011314Y007649D01*
X011941Y007225D01*
X012588Y006831D01*
X013252Y006468D01*
X013933Y006137D01*
X014629Y005839D01*
X015338Y005575D01*
X016059Y005344D01*
X016790Y005148D01*
X017530Y004987D01*
X018277Y004862D01*
X019028Y004772D01*
X019783Y004718D01*
X020540Y004700D01*
X020605Y004700D01*
X020605Y004440D02*
X020540Y004440D01*
X020540Y004180D02*
X020605Y004180D01*
X020605Y003920D02*
X020540Y003920D01*
X020540Y003660D02*
X020605Y003660D01*
X020605Y003400D02*
X020540Y003400D01*
X020540Y003140D02*
X020605Y003140D01*
X020605Y002880D02*
X020540Y002880D01*
X020540Y002620D02*
X020605Y002620D01*
X020605Y002360D02*
X020540Y002360D01*
X020540Y002100D02*
X020605Y002100D01*
X020605Y001840D02*
X020540Y001840D01*
X020540Y001580D02*
X020605Y001580D01*
X020605Y001320D02*
X020540Y001320D01*
X020540Y001060D02*
X020605Y001060D01*
X020605Y000800D02*
X020540Y000800D01*
X020605Y004960D02*
X020540Y004960D01*
X020540Y005220D02*
X020605Y005220D01*
X020605Y005480D02*
X020540Y005480D01*
X020540Y005740D02*
X020605Y005740D01*
X020605Y006000D02*
X020540Y006000D01*
X020540Y006260D02*
X020605Y006260D01*
X020605Y006520D02*
X020540Y006520D01*
X020540Y006780D02*
X020605Y006780D01*
X020605Y007040D02*
X020540Y007040D01*
X020540Y007300D02*
X020605Y007300D01*
X020605Y007560D02*
X020540Y007560D01*
X020540Y007820D02*
X020605Y007820D01*
X020605Y008080D02*
X020540Y008080D01*
X020540Y008340D02*
X020605Y008340D01*
X020605Y008600D02*
X020540Y008600D01*
X020540Y008860D02*
X020605Y008860D01*
X020605Y009120D02*
X020540Y009120D01*
X020540Y009380D02*
X020605Y009380D01*
X020605Y009640D02*
X020540Y009640D01*
X020540Y009900D02*
X020605Y009900D01*
X020605Y010160D02*
X020540Y010160D01*
X020540Y010420D02*
X020605Y010420D01*
X020605Y010680D02*
X020540Y010680D01*
X020540Y010940D02*
X020605Y010940D01*
X020605Y011200D02*
X020540Y011200D01*
X020540Y011460D02*
X020605Y011460D01*
X020605Y011720D02*
X020540Y011720D01*
X020540Y011980D02*
X020605Y011980D01*
X020605Y012240D02*
X020540Y012240D01*
X020540Y012500D02*
X020605Y012500D01*
X020605Y012760D02*
X020540Y012760D01*
X020540Y013020D02*
X020605Y013020D01*
X020605Y013280D02*
X020540Y013280D01*
X020540Y013540D02*
X020605Y013540D01*
X020605Y001580D02*
X021507Y001601D01*
X022407Y001666D01*
X023303Y001773D01*
X024193Y001923D01*
X025075Y002114D01*
X025947Y002348D01*
X026806Y002623D01*
X027652Y002938D01*
X028481Y003293D01*
X029293Y003688D01*
X030085Y004120D01*
X030856Y004590D01*
X031603Y005096D01*
X032325Y005636D01*
X033021Y006211D01*
X033689Y006818D01*
X034327Y007456D01*
X034934Y008124D01*
X035509Y008820D01*
X036049Y009542D01*
X036555Y010289D01*
X037025Y011060D01*
X037457Y011852D01*
X037852Y012664D01*
X038207Y013493D01*
X038522Y014339D01*
X038797Y015198D01*
X039031Y016070D01*
X039222Y016952D01*
X039372Y017842D01*
X039479Y018738D01*
X039544Y019638D01*
X039565Y020540D01*
X028905Y020605D02*
X028896Y020997D01*
X028868Y021388D01*
X028821Y021777D01*
X028756Y022163D01*
X028673Y022546D01*
X028571Y022925D01*
X028452Y023298D01*
X028315Y023666D01*
X028161Y024026D01*
X027990Y024378D01*
X027802Y024722D01*
X027598Y025057D01*
X027378Y025382D01*
X027143Y025696D01*
X026894Y025998D01*
X026630Y026288D01*
X026353Y026565D01*
X026063Y026829D01*
X025761Y027078D01*
X025447Y027313D01*
X025122Y027533D01*
X024787Y027737D01*
X024443Y027925D01*
X024091Y028096D01*
X023731Y028250D01*
X023363Y028387D01*
X022990Y028506D01*
X022611Y028608D01*
X022228Y028691D01*
X021842Y028756D01*
X021453Y028803D01*
X021062Y028831D01*
X020670Y028840D01*
X020605Y034820D02*
X019932Y034804D01*
X019260Y034756D01*
X018591Y034676D01*
X017927Y034564D01*
X017269Y034421D01*
X016619Y034247D01*
X015977Y034042D01*
X015346Y033806D01*
X014727Y033541D01*
X014121Y033247D01*
X013530Y032924D01*
X012955Y032574D01*
X012397Y032196D01*
X011858Y031793D01*
X011339Y031364D01*
X010840Y030911D01*
X010364Y030435D01*
X009911Y029936D01*
X009482Y029417D01*
X009079Y028878D01*
X008701Y028320D01*
X008351Y027745D01*
X008028Y027154D01*
X007734Y026548D01*
X007469Y025929D01*
X007233Y025298D01*
X007028Y024656D01*
X006854Y024006D01*
X006711Y023348D01*
X006599Y022684D01*
X006519Y022015D01*
X006471Y021343D01*
X006455Y020670D01*
X009315Y020605D02*
X009328Y020071D01*
X009366Y019538D01*
X009429Y019008D01*
X009518Y018481D01*
X009631Y017959D01*
X009770Y017443D01*
X009932Y016934D01*
X010119Y016433D01*
X010329Y015942D01*
X010563Y015461D01*
X010819Y014993D01*
X011097Y014536D01*
X011396Y014094D01*
X011717Y013666D01*
X012057Y013254D01*
X012416Y012859D01*
X012794Y012481D01*
X013189Y012122D01*
X013601Y011782D01*
X014029Y011461D01*
X014471Y011162D01*
X014928Y010884D01*
X015397Y010628D01*
X015877Y010394D01*
X016368Y010184D01*
X016869Y009997D01*
X017378Y009835D01*
X017894Y009696D01*
X018416Y009583D01*
X018943Y009494D01*
X019473Y009431D01*
X020006Y009393D01*
X020540Y009380D01*
X020605Y001840D02*
X021495Y001861D01*
X022382Y001925D01*
X023266Y002030D01*
X024144Y002178D01*
X025014Y002367D01*
X025873Y002597D01*
X026721Y002868D01*
X027555Y003179D01*
X028373Y003530D01*
X029174Y003919D01*
X029955Y004345D01*
X030715Y004809D01*
X031452Y005307D01*
X032165Y005841D01*
X032851Y006407D01*
X033509Y007006D01*
X034139Y007636D01*
X034738Y008294D01*
X035304Y008980D01*
X035838Y009693D01*
X036336Y010430D01*
X036800Y011190D01*
X037226Y011971D01*
X037615Y012772D01*
X037966Y013590D01*
X038277Y014424D01*
X038548Y015272D01*
X038778Y016131D01*
X038967Y017001D01*
X039115Y017879D01*
X039220Y018763D01*
X039284Y019650D01*
X039305Y020540D01*
X039565Y020605D02*
X039544Y021504D01*
X039479Y022401D01*
X039373Y023294D01*
X039224Y024181D01*
X039032Y025060D01*
X038800Y025928D01*
X038526Y026785D01*
X038212Y027628D01*
X037858Y028454D01*
X037465Y029263D01*
X037034Y030052D01*
X036565Y030820D01*
X036061Y031565D01*
X035522Y032285D01*
X034950Y032979D01*
X034345Y033644D01*
X033709Y034280D01*
X033044Y034885D01*
X032350Y035457D01*
X031630Y035996D01*
X030885Y036501D01*
X030117Y036969D01*
X029328Y037400D01*
X028519Y037793D01*
X027692Y038147D01*
X026850Y038461D01*
X025993Y038735D01*
X025125Y038967D01*
X024246Y039159D01*
X023359Y039308D01*
X022466Y039414D01*
X021569Y039479D01*
X020670Y039500D01*
X020605Y039760D02*
X019697Y039738D01*
X018790Y039674D01*
X017888Y039566D01*
X016992Y039415D01*
X016104Y039222D01*
X015227Y038987D01*
X014361Y038710D01*
X013510Y038393D01*
X012675Y038035D01*
X011857Y037638D01*
X011060Y037202D01*
X010284Y036730D01*
X009532Y036220D01*
X008804Y035676D01*
X008104Y035097D01*
X007431Y034486D01*
X006789Y033844D01*
X006178Y033171D01*
X005599Y032471D01*
X005055Y031743D01*
X004545Y030991D01*
X004073Y030215D01*
X003637Y029418D01*
X003240Y028600D01*
X002882Y027765D01*
X002565Y026914D01*
X002288Y026048D01*
X002053Y025171D01*
X001860Y024283D01*
X001709Y023387D01*
X001601Y022485D01*
X001537Y021578D01*
X001515Y020670D01*
X001515Y020605D02*
X001537Y019700D01*
X001601Y018797D01*
X001709Y017898D01*
X001859Y017005D01*
X002051Y016120D01*
X002286Y015245D01*
X002561Y014383D01*
X002878Y013534D01*
X003234Y012702D01*
X003630Y011887D01*
X004064Y011093D01*
X004535Y010319D01*
X005043Y009569D01*
X005585Y008845D01*
X006162Y008146D01*
X006771Y007476D01*
X007411Y006836D01*
X008081Y006227D01*
X008780Y005650D01*
X009504Y005108D01*
X010254Y004600D01*
X011028Y004129D01*
X011822Y003695D01*
X012637Y003299D01*
X013469Y002943D01*
X014318Y002626D01*
X015180Y002351D01*
X016055Y002116D01*
X016940Y001924D01*
X017833Y001774D01*
X018732Y001666D01*
X019635Y001602D01*
X020540Y001580D01*
X020605Y009640D02*
X021124Y009652D01*
X021641Y009689D01*
X022156Y009751D01*
X022668Y009837D01*
X023175Y009947D01*
X023676Y010082D01*
X024170Y010239D01*
X024656Y010421D01*
X025133Y010625D01*
X025600Y010852D01*
X026055Y011100D01*
X026498Y011370D01*
X026928Y011661D01*
X027343Y011972D01*
X027743Y012302D01*
X028127Y012651D01*
X028494Y013018D01*
X028843Y013402D01*
X029173Y013802D01*
X029484Y014217D01*
X029775Y014647D01*
X030045Y015090D01*
X030293Y015545D01*
X030520Y016012D01*
X030724Y016489D01*
X030906Y016975D01*
X031063Y017469D01*
X031198Y017970D01*
X031308Y018477D01*
X031394Y018989D01*
X031456Y019504D01*
X031493Y020021D01*
X031505Y020540D01*
X036445Y020605D02*
X036427Y021355D01*
X036374Y022104D01*
X036284Y022850D01*
X036160Y023590D01*
X036000Y024324D01*
X035806Y025049D01*
X035577Y025764D01*
X035315Y026468D01*
X035019Y027158D01*
X034691Y027833D01*
X034332Y028492D01*
X033941Y029134D01*
X033520Y029755D01*
X033070Y030356D01*
X032592Y030935D01*
X032087Y031491D01*
X031556Y032022D01*
X031000Y032527D01*
X030421Y033005D01*
X029820Y033455D01*
X029199Y033876D01*
X028557Y034267D01*
X027898Y034626D01*
X027223Y034954D01*
X026533Y035250D01*
X025829Y035512D01*
X025114Y035741D01*
X024389Y035935D01*
X023655Y036095D01*
X022915Y036219D01*
X022169Y036309D01*
X021420Y036362D01*
X020670Y036380D01*
X020605Y037680D02*
X019796Y037661D01*
X018988Y037603D01*
X018184Y037507D01*
X017386Y037373D01*
X016595Y037201D01*
X015813Y036991D01*
X015042Y036744D01*
X014283Y036462D01*
X013539Y036143D01*
X012811Y035789D01*
X012100Y035401D01*
X011409Y034980D01*
X010738Y034526D01*
X010090Y034041D01*
X009466Y033525D01*
X008867Y032981D01*
X008294Y032408D01*
X007750Y031809D01*
X007234Y031185D01*
X006749Y030537D01*
X006295Y029866D01*
X005874Y029175D01*
X005486Y028464D01*
X005132Y027736D01*
X004813Y026992D01*
X004531Y026233D01*
X004284Y025462D01*
X004074Y024680D01*
X003902Y023889D01*
X003768Y023091D01*
X003672Y022287D01*
X003614Y021479D01*
X003595Y020670D01*
X001775Y020605D02*
X001796Y019712D01*
X001860Y018821D01*
X001966Y017935D01*
X002114Y017054D01*
X002304Y016181D01*
X002535Y015318D01*
X002807Y014468D01*
X003119Y013631D01*
X003471Y012810D01*
X003861Y012006D01*
X004289Y011223D01*
X004754Y010460D01*
X005254Y009720D01*
X005790Y009005D01*
X006358Y008317D01*
X006959Y007656D01*
X007591Y007024D01*
X008252Y006423D01*
X008940Y005855D01*
X009655Y005319D01*
X010395Y004819D01*
X011158Y004354D01*
X011941Y003926D01*
X012745Y003536D01*
X013566Y003184D01*
X014403Y002872D01*
X015253Y002600D01*
X016116Y002369D01*
X016989Y002179D01*
X017870Y002031D01*
X018756Y001925D01*
X019647Y001861D01*
X020540Y001840D01*
X020605Y011980D02*
X021012Y011990D01*
X021419Y012019D01*
X021823Y012067D01*
X022225Y012135D01*
X022623Y012221D01*
X023017Y012327D01*
X023405Y012451D01*
X023786Y012593D01*
X024161Y012754D01*
X024527Y012932D01*
X024885Y013127D01*
X025233Y013339D01*
X025570Y013567D01*
X025896Y013811D01*
X026211Y014071D01*
X026512Y014345D01*
X026800Y014633D01*
X027074Y014934D01*
X027334Y015249D01*
X027578Y015575D01*
X027806Y015912D01*
X028018Y016260D01*
X028213Y016618D01*
X028391Y016984D01*
X028552Y017359D01*
X028694Y017740D01*
X028818Y018128D01*
X028924Y018522D01*
X029010Y018920D01*
X029078Y019322D01*
X029126Y019726D01*
X029155Y020133D01*
X029165Y020540D01*
X027865Y020605D02*
X027857Y020947D01*
X027832Y021289D01*
X027792Y021629D01*
X027735Y021967D01*
X027662Y022301D01*
X027574Y022632D01*
X027469Y022958D01*
X027350Y023279D01*
X027215Y023594D01*
X027065Y023902D01*
X026901Y024202D01*
X026723Y024495D01*
X026531Y024779D01*
X026326Y025053D01*
X026108Y025317D01*
X025877Y025570D01*
X025635Y025812D01*
X025382Y026043D01*
X025118Y026261D01*
X024843Y026466D01*
X024560Y026658D01*
X024267Y026836D01*
X023967Y027000D01*
X023659Y027150D01*
X023344Y027285D01*
X023023Y027404D01*
X022697Y027509D01*
X022366Y027597D01*
X022032Y027670D01*
X021694Y027727D01*
X021354Y027767D01*
X021012Y027792D01*
X020670Y027800D01*
X020605Y035860D02*
X019882Y035843D01*
X019161Y035791D01*
X018443Y035705D01*
X017730Y035586D01*
X017024Y035432D01*
X016326Y035245D01*
X015637Y035025D01*
X014959Y034772D01*
X014295Y034487D01*
X013645Y034171D01*
X013010Y033825D01*
X012393Y033449D01*
X011794Y033043D01*
X011215Y032610D01*
X010658Y032150D01*
X010123Y031664D01*
X009611Y031152D01*
X009125Y030617D01*
X008665Y030060D01*
X008232Y029481D01*
X007826Y028882D01*
X007450Y028265D01*
X007104Y027630D01*
X006788Y026980D01*
X006503Y026316D01*
X006250Y025638D01*
X006030Y024949D01*
X005843Y024251D01*
X005689Y023545D01*
X005570Y022832D01*
X005484Y022114D01*
X005432Y021393D01*
X005415Y020670D01*
X003595Y020605D02*
X003614Y019799D01*
X003672Y018994D01*
X003767Y018194D01*
X003901Y017398D01*
X004073Y016610D01*
X004281Y015831D01*
X004527Y015063D01*
X004809Y014307D01*
X005126Y013566D01*
X005479Y012840D01*
X005865Y012133D01*
X006285Y011444D01*
X006737Y010776D01*
X007220Y010130D01*
X007734Y009508D01*
X008276Y008912D01*
X008847Y008341D01*
X009443Y007799D01*
X010065Y007285D01*
X010711Y006802D01*
X011379Y006350D01*
X012068Y005930D01*
X012775Y005544D01*
X013501Y005191D01*
X014242Y004874D01*
X014998Y004592D01*
X015766Y004346D01*
X016545Y004138D01*
X017333Y003966D01*
X018129Y003832D01*
X018929Y003737D01*
X019734Y003679D01*
X020540Y003660D01*
X020605Y003140D02*
X021433Y003160D01*
X022259Y003219D01*
X023081Y003317D01*
X023898Y003454D01*
X024707Y003630D01*
X025507Y003845D01*
X026296Y004097D01*
X027072Y004386D01*
X027833Y004712D01*
X028578Y005074D01*
X029305Y005471D01*
X030012Y005902D01*
X030698Y006366D01*
X031361Y006863D01*
X032000Y007390D01*
X032612Y007947D01*
X033198Y008533D01*
X033755Y009145D01*
X034282Y009784D01*
X034779Y010447D01*
X035243Y011133D01*
X035674Y011840D01*
X036071Y012567D01*
X036433Y013312D01*
X036759Y014073D01*
X037048Y014849D01*
X037300Y015638D01*
X037515Y016438D01*
X037691Y017247D01*
X037828Y018064D01*
X037926Y018886D01*
X037985Y019712D01*
X038005Y020540D01*
X035405Y020605D02*
X035388Y021306D01*
X035338Y022006D01*
X035255Y022702D01*
X035139Y023393D01*
X034990Y024079D01*
X034808Y024756D01*
X034595Y025424D01*
X034350Y026081D01*
X034073Y026726D01*
X033767Y027357D01*
X033431Y027972D01*
X033066Y028571D01*
X032673Y029152D01*
X032253Y029714D01*
X031806Y030254D01*
X031334Y030773D01*
X030838Y031269D01*
X030319Y031741D01*
X029779Y032188D01*
X029217Y032608D01*
X028636Y033001D01*
X028037Y033366D01*
X027422Y033702D01*
X026791Y034008D01*
X026146Y034285D01*
X025489Y034530D01*
X024821Y034743D01*
X024144Y034925D01*
X023458Y035074D01*
X022767Y035190D01*
X022071Y035273D01*
X021371Y035323D01*
X020670Y035340D01*
X020605Y028060D02*
X020253Y028052D01*
X019903Y028027D01*
X019553Y027985D01*
X019206Y027926D01*
X018863Y027852D01*
X018523Y027761D01*
X018188Y027654D01*
X017858Y027531D01*
X017535Y027392D01*
X017219Y027239D01*
X016910Y027070D01*
X016610Y026887D01*
X016318Y026690D01*
X016037Y026479D01*
X015766Y026255D01*
X015505Y026018D01*
X015257Y025770D01*
X015020Y025509D01*
X014796Y025238D01*
X014585Y024957D01*
X014388Y024665D01*
X014205Y024365D01*
X014036Y024056D01*
X013883Y023740D01*
X013744Y023417D01*
X013621Y023087D01*
X013514Y022752D01*
X013423Y022412D01*
X013349Y022069D01*
X013290Y021722D01*
X013248Y021372D01*
X013223Y021022D01*
X013215Y020670D01*
X005675Y020605D02*
X005692Y019898D01*
X005742Y019192D01*
X005826Y018490D01*
X005944Y017792D01*
X006094Y017101D01*
X006277Y016417D01*
X006493Y015743D01*
X006740Y015080D01*
X007018Y014430D01*
X007327Y013794D01*
X007667Y013173D01*
X008035Y012568D01*
X008431Y011982D01*
X008855Y011416D01*
X009306Y010870D01*
X009782Y010347D01*
X010282Y009847D01*
X010806Y009371D01*
X011351Y008920D01*
X011918Y008496D01*
X012503Y008100D01*
X013108Y007731D01*
X013729Y007392D01*
X014365Y007083D01*
X015015Y006805D01*
X015678Y006558D01*
X016352Y006342D01*
X017036Y006159D01*
X017727Y006009D01*
X018425Y005891D01*
X019127Y005807D01*
X019833Y005757D01*
X020540Y005740D01*
X020605Y004180D02*
X021383Y004199D01*
X022160Y004254D01*
X022933Y004347D01*
X023701Y004476D01*
X024462Y004641D01*
X025214Y004843D01*
X025956Y005080D01*
X026685Y005352D01*
X027401Y005658D01*
X028102Y005999D01*
X028785Y006372D01*
X029450Y006777D01*
X030095Y007214D01*
X030718Y007680D01*
X031319Y008176D01*
X031895Y008700D01*
X032445Y009250D01*
X032969Y009827D01*
X033465Y010427D01*
X033931Y011050D01*
X034368Y011695D01*
X034773Y012360D01*
X035146Y013043D01*
X035487Y013744D01*
X035793Y014460D01*
X036065Y015189D01*
X036302Y015931D01*
X036504Y016683D01*
X036669Y017444D01*
X036798Y018212D01*
X036891Y018985D01*
X036946Y019762D01*
X036965Y020540D01*
X032545Y020605D02*
X032532Y021170D01*
X032491Y021734D01*
X032424Y022295D01*
X032330Y022852D01*
X032210Y023405D01*
X032064Y023950D01*
X031892Y024489D01*
X031694Y025018D01*
X031472Y025538D01*
X031225Y026046D01*
X030954Y026542D01*
X030660Y027025D01*
X030343Y027493D01*
X030004Y027946D01*
X029645Y028381D01*
X029264Y028800D01*
X028865Y029199D01*
X028446Y029580D01*
X028011Y029939D01*
X027558Y030278D01*
X027090Y030595D01*
X026607Y030889D01*
X026111Y031160D01*
X025603Y031407D01*
X025083Y031629D01*
X024554Y031827D01*
X024015Y031999D01*
X023470Y032145D01*
X022917Y032265D01*
X022360Y032359D01*
X021799Y032426D01*
X021235Y032467D01*
X020670Y032480D01*
X020605Y040540D02*
X019660Y040517D01*
X018716Y040450D01*
X017777Y040338D01*
X016845Y040181D01*
X015920Y039980D01*
X015007Y039735D01*
X014106Y039447D01*
X013220Y039117D01*
X012351Y038744D01*
X011500Y038331D01*
X010670Y037878D01*
X009862Y037386D01*
X009079Y036856D01*
X008322Y036289D01*
X007593Y035687D01*
X006893Y035051D01*
X006224Y034382D01*
X005588Y033682D01*
X004986Y032953D01*
X004419Y032196D01*
X003889Y031413D01*
X003397Y030605D01*
X002944Y029775D01*
X002531Y028924D01*
X002158Y028055D01*
X001828Y027169D01*
X001540Y026268D01*
X001295Y025355D01*
X001094Y024430D01*
X000937Y023498D01*
X000825Y022559D01*
X000758Y021615D01*
X000735Y020670D01*
X002815Y020605D02*
X002835Y019762D01*
X002895Y018920D01*
X002995Y018083D01*
X003135Y017251D01*
X003315Y016426D01*
X003533Y015611D01*
X003790Y014808D01*
X004085Y014017D01*
X004417Y013242D01*
X004785Y012483D01*
X005190Y011743D01*
X005629Y011022D01*
X006102Y010324D01*
X006607Y009648D01*
X007144Y008998D01*
X007712Y008373D01*
X008308Y007777D01*
X008933Y007209D01*
X009583Y006672D01*
X010259Y006167D01*
X010957Y005694D01*
X011678Y005255D01*
X012418Y004850D01*
X013177Y004482D01*
X013952Y004150D01*
X014743Y003855D01*
X015546Y003598D01*
X016361Y003380D01*
X017186Y003200D01*
X018018Y003060D01*
X018855Y002960D01*
X019697Y002900D01*
X020540Y002880D01*
X020605Y003920D02*
X021396Y003939D01*
X022185Y003995D01*
X022970Y004089D01*
X023750Y004220D01*
X024523Y004388D01*
X025287Y004593D01*
X026041Y004834D01*
X026782Y005111D01*
X027509Y005422D01*
X028221Y005768D01*
X028915Y006147D01*
X029590Y006558D01*
X030246Y007002D01*
X030879Y007476D01*
X031489Y007979D01*
X032074Y008512D01*
X032633Y009071D01*
X033166Y009656D01*
X033669Y010266D01*
X034143Y010899D01*
X034587Y011555D01*
X034998Y012230D01*
X035377Y012924D01*
X035723Y013636D01*
X036034Y014363D01*
X036311Y015104D01*
X036552Y015858D01*
X036757Y016622D01*
X036925Y017395D01*
X037056Y018175D01*
X037150Y018960D01*
X037206Y019749D01*
X037225Y020540D01*
X035925Y020605D02*
X035908Y021331D01*
X035856Y022055D01*
X035770Y022776D01*
X035649Y023492D01*
X035495Y024201D01*
X035307Y024903D01*
X035086Y025594D01*
X034832Y026275D01*
X034546Y026942D01*
X034229Y027595D01*
X033881Y028232D01*
X033503Y028852D01*
X033096Y029454D01*
X032661Y030035D01*
X032199Y030595D01*
X031711Y031132D01*
X031197Y031646D01*
X030660Y032134D01*
X030100Y032596D01*
X029519Y033031D01*
X028917Y033438D01*
X028297Y033816D01*
X027660Y034164D01*
X027007Y034481D01*
X026340Y034767D01*
X025659Y035021D01*
X024968Y035242D01*
X024266Y035430D01*
X023557Y035584D01*
X022841Y035705D01*
X022120Y035791D01*
X021396Y035843D01*
X020670Y035860D01*
X020605Y036640D02*
X019845Y036622D01*
X019087Y036568D01*
X018332Y036477D01*
X017583Y036351D01*
X016840Y036190D01*
X016106Y035993D01*
X015382Y035762D01*
X014670Y035496D01*
X013971Y035197D01*
X013287Y034865D01*
X012620Y034500D01*
X011971Y034105D01*
X011341Y033679D01*
X010733Y033223D01*
X010147Y032739D01*
X009584Y032228D01*
X009047Y031691D01*
X008536Y031128D01*
X008052Y030542D01*
X007596Y029933D01*
X007170Y029304D01*
X006775Y028655D01*
X006410Y027988D01*
X006078Y027304D01*
X005779Y026605D01*
X005513Y025893D01*
X005282Y025169D01*
X005085Y024435D01*
X004924Y023692D01*
X004798Y022943D01*
X004707Y022188D01*
X004653Y021430D01*
X004635Y020670D01*
X003855Y020605D02*
X003874Y019811D01*
X003931Y019019D01*
X004025Y018231D01*
X004156Y017447D01*
X004325Y016671D01*
X004531Y015904D01*
X004773Y015148D01*
X005050Y014404D01*
X005363Y013674D01*
X005710Y012960D01*
X006090Y012263D01*
X006504Y011584D01*
X006949Y010927D01*
X007425Y010291D01*
X007930Y009679D01*
X008464Y009091D01*
X009026Y008529D01*
X009614Y007995D01*
X010226Y007490D01*
X010862Y007014D01*
X011519Y006569D01*
X012198Y006155D01*
X012895Y005775D01*
X013609Y005428D01*
X014339Y005115D01*
X015083Y004838D01*
X015839Y004596D01*
X016606Y004390D01*
X017382Y004221D01*
X018166Y004090D01*
X018954Y003996D01*
X019746Y003939D01*
X020540Y003920D01*
X020605Y005740D02*
X021309Y005757D01*
X022012Y005807D01*
X022711Y005891D01*
X023406Y006007D01*
X024094Y006157D01*
X024775Y006339D01*
X025446Y006554D01*
X026106Y006800D01*
X026753Y007077D01*
X027387Y007385D01*
X028005Y007723D01*
X028606Y008089D01*
X029190Y008484D01*
X029754Y008906D01*
X030297Y009355D01*
X030818Y009829D01*
X031316Y010327D01*
X031790Y010848D01*
X032239Y011391D01*
X032661Y011955D01*
X033056Y012539D01*
X033422Y013140D01*
X033760Y013758D01*
X034068Y014392D01*
X034345Y015039D01*
X034591Y015699D01*
X034806Y016370D01*
X034988Y017051D01*
X035138Y017739D01*
X035254Y018434D01*
X035338Y019133D01*
X035388Y019836D01*
X035405Y020540D01*
X032025Y020605D02*
X032012Y021145D01*
X031974Y021684D01*
X031909Y022221D01*
X031820Y022754D01*
X031705Y023282D01*
X031565Y023804D01*
X031401Y024319D01*
X031212Y024825D01*
X030999Y025322D01*
X030763Y025808D01*
X030504Y026282D01*
X030222Y026744D01*
X029920Y027192D01*
X029596Y027624D01*
X029252Y028041D01*
X028888Y028441D01*
X028506Y028823D01*
X028106Y029187D01*
X027689Y029531D01*
X027256Y029855D01*
X026809Y030157D01*
X026347Y030439D01*
X025873Y030698D01*
X025387Y030934D01*
X024890Y031147D01*
X024384Y031336D01*
X023869Y031500D01*
X023347Y031640D01*
X022819Y031755D01*
X022286Y031844D01*
X021749Y031909D01*
X021210Y031947D01*
X020670Y031960D01*
X020605Y033520D02*
X019994Y033505D01*
X019384Y033462D01*
X018776Y033389D01*
X018173Y033288D01*
X017575Y033158D01*
X016985Y032999D01*
X016402Y032813D01*
X015829Y032600D01*
X015267Y032359D01*
X014717Y032092D01*
X014180Y031798D01*
X013658Y031480D01*
X013151Y031137D01*
X012662Y030771D01*
X012190Y030381D01*
X011737Y029970D01*
X011305Y029538D01*
X010894Y029085D01*
X010504Y028613D01*
X010138Y028124D01*
X009795Y027617D01*
X009477Y027095D01*
X009183Y026558D01*
X008916Y026008D01*
X008675Y025446D01*
X008462Y024873D01*
X008276Y024290D01*
X008117Y023699D01*
X007987Y023102D01*
X007886Y022499D01*
X007813Y021891D01*
X007770Y021281D01*
X007755Y020670D01*
X005935Y020605D02*
X005952Y019910D01*
X006001Y019217D01*
X006084Y018527D01*
X006199Y017841D01*
X006347Y017162D01*
X006527Y016490D01*
X006738Y015828D01*
X006981Y015177D01*
X007255Y014538D01*
X007559Y013913D01*
X007892Y013303D01*
X008253Y012709D01*
X008643Y012133D01*
X009060Y011577D01*
X009502Y011041D01*
X009970Y010526D01*
X010461Y010035D01*
X010976Y009567D01*
X011512Y009125D01*
X012068Y008708D01*
X012644Y008318D01*
X013238Y007957D01*
X013848Y007624D01*
X014473Y007320D01*
X015112Y007046D01*
X015763Y006803D01*
X016425Y006592D01*
X017097Y006412D01*
X017776Y006264D01*
X018462Y006149D01*
X019152Y006066D01*
X019845Y006017D01*
X020540Y006000D01*
X020605Y006780D02*
X021260Y006796D01*
X021913Y006842D01*
X022563Y006920D01*
X023209Y007029D01*
X023849Y007168D01*
X024482Y007337D01*
X025105Y007537D01*
X025719Y007766D01*
X026321Y008023D01*
X026910Y008310D01*
X027485Y008623D01*
X028044Y008964D01*
X028587Y009331D01*
X029111Y009724D01*
X029616Y010141D01*
X030101Y010581D01*
X030564Y011045D01*
X031004Y011529D01*
X031421Y012034D01*
X031814Y012558D01*
X032181Y013101D01*
X032522Y013660D01*
X032835Y014235D01*
X033122Y014824D01*
X033379Y015426D01*
X033608Y016040D01*
X033808Y016663D01*
X033977Y017296D01*
X034116Y017936D01*
X034225Y018582D01*
X034303Y019232D01*
X034349Y019885D01*
X034365Y020540D01*
X031505Y020605D02*
X031493Y021120D01*
X031456Y021635D01*
X031395Y022147D01*
X031309Y022655D01*
X031200Y023159D01*
X031066Y023658D01*
X030909Y024149D01*
X030729Y024632D01*
X030526Y025106D01*
X030301Y025570D01*
X030053Y026022D01*
X029785Y026463D01*
X029496Y026890D01*
X029187Y027303D01*
X028859Y027700D01*
X028512Y028082D01*
X028147Y028447D01*
X027765Y028794D01*
X027368Y029122D01*
X026955Y029431D01*
X026528Y029720D01*
X026087Y029988D01*
X025635Y030236D01*
X025171Y030461D01*
X024697Y030664D01*
X024214Y030844D01*
X023722Y031001D01*
X023224Y031135D01*
X022720Y031244D01*
X022212Y031330D01*
X021700Y031391D01*
X021185Y031428D01*
X020670Y031440D01*
X020605Y033000D02*
X020018Y032986D01*
X019433Y032944D01*
X018850Y032874D01*
X018272Y032777D01*
X017698Y032652D01*
X017131Y032501D01*
X016572Y032322D01*
X016022Y032117D01*
X015483Y031886D01*
X014955Y031629D01*
X014440Y031348D01*
X013939Y031043D01*
X013453Y030714D01*
X012983Y030362D01*
X012531Y029988D01*
X012096Y029594D01*
X011681Y029179D01*
X011287Y028744D01*
X010913Y028292D01*
X010561Y027822D01*
X010232Y027336D01*
X009927Y026835D01*
X009646Y026320D01*
X009389Y025792D01*
X009158Y025253D01*
X008953Y024703D01*
X008774Y024144D01*
X008623Y023577D01*
X008498Y023003D01*
X008400Y022425D01*
X008331Y021842D01*
X008289Y021257D01*
X008275Y020670D01*
X004115Y020605D02*
X004134Y019824D01*
X004189Y019044D01*
X004282Y018268D01*
X004412Y017497D01*
X004578Y016733D01*
X004780Y015978D01*
X005018Y015233D01*
X005292Y014501D01*
X005599Y013782D01*
X005941Y013079D01*
X006315Y012393D01*
X006722Y011725D01*
X007161Y011078D01*
X007629Y010452D01*
X008127Y009849D01*
X008653Y009270D01*
X009205Y008718D01*
X009784Y008192D01*
X010387Y007694D01*
X011013Y007226D01*
X011660Y006787D01*
X012328Y006380D01*
X013014Y006006D01*
X013717Y005664D01*
X014436Y005357D01*
X015168Y005083D01*
X015913Y004845D01*
X016668Y004643D01*
X017432Y004477D01*
X018203Y004347D01*
X018979Y004254D01*
X019759Y004199D01*
X020540Y004180D01*
X020605Y008340D02*
X021185Y008354D01*
X021765Y008395D01*
X022341Y008464D01*
X022914Y008560D01*
X023481Y008684D01*
X024042Y008834D01*
X024595Y009011D01*
X025139Y009214D01*
X025673Y009442D01*
X026195Y009696D01*
X026705Y009974D01*
X027201Y010277D01*
X027682Y010602D01*
X028147Y010950D01*
X028594Y011320D01*
X029024Y011710D01*
X029435Y012121D01*
X029825Y012551D01*
X030195Y012998D01*
X030543Y013463D01*
X030868Y013944D01*
X031171Y014440D01*
X031449Y014950D01*
X031703Y015472D01*
X031931Y016006D01*
X032134Y016550D01*
X032311Y017103D01*
X032461Y017664D01*
X032585Y018231D01*
X032681Y018804D01*
X032750Y019380D01*
X032791Y019960D01*
X032805Y020540D01*
X039825Y020605D02*
X039803Y021516D01*
X039738Y022426D01*
X039630Y023331D01*
X039479Y024230D01*
X039285Y025121D01*
X039049Y026002D01*
X038772Y026870D01*
X038453Y027724D01*
X038094Y028562D01*
X037696Y029382D01*
X037259Y030182D01*
X036784Y030961D01*
X036273Y031716D01*
X035727Y032446D01*
X035146Y033149D01*
X034533Y033823D01*
X033888Y034468D01*
X033214Y035081D01*
X032511Y035662D01*
X031781Y036208D01*
X031026Y036719D01*
X030247Y037194D01*
X029447Y037631D01*
X028627Y038029D01*
X027789Y038388D01*
X026935Y038707D01*
X026067Y038984D01*
X025186Y039220D01*
X024295Y039414D01*
X023396Y039565D01*
X022491Y039673D01*
X021581Y039738D01*
X020670Y039760D01*
X020605Y032740D02*
X020013Y032725D01*
X019422Y032682D01*
X018834Y032609D01*
X018250Y032508D01*
X017672Y032378D01*
X017101Y032220D01*
X016539Y032034D01*
X015986Y031821D01*
X015444Y031581D01*
X014915Y031315D01*
X014400Y031023D01*
X013899Y030706D01*
X013415Y030365D01*
X012948Y030000D01*
X012499Y029613D01*
X012070Y029205D01*
X011662Y028776D01*
X011275Y028327D01*
X010910Y027860D01*
X010569Y027376D01*
X010252Y026875D01*
X009960Y026360D01*
X009694Y025831D01*
X009454Y025289D01*
X009241Y024736D01*
X009055Y024174D01*
X008897Y023603D01*
X008767Y023025D01*
X008666Y022441D01*
X008593Y021853D01*
X008550Y021262D01*
X008535Y020670D01*
X007235Y020605D02*
X007250Y019972D01*
X007295Y019340D01*
X007370Y018712D01*
X007475Y018087D01*
X007610Y017468D01*
X007774Y016857D01*
X007967Y016253D01*
X008188Y015660D01*
X008437Y015078D01*
X008714Y014508D01*
X009017Y013953D01*
X009347Y013412D01*
X009702Y012887D01*
X010082Y012380D01*
X010485Y011892D01*
X010911Y011424D01*
X011359Y010976D01*
X011827Y010550D01*
X012315Y010147D01*
X012822Y009767D01*
X013347Y009412D01*
X013888Y009082D01*
X014443Y008779D01*
X015013Y008502D01*
X015595Y008253D01*
X016188Y008032D01*
X016792Y007839D01*
X017403Y007675D01*
X018022Y007540D01*
X018647Y007435D01*
X019275Y007360D01*
X019907Y007315D01*
X020540Y007300D01*
X020605Y002880D02*
X021445Y002900D01*
X022284Y002960D01*
X023118Y003060D01*
X023947Y003199D01*
X024768Y003378D01*
X025580Y003595D01*
X026381Y003851D01*
X027169Y004145D01*
X027941Y004476D01*
X028697Y004843D01*
X029435Y005246D01*
X030153Y005683D01*
X030849Y006155D01*
X031522Y006658D01*
X032170Y007193D01*
X032792Y007759D01*
X033386Y008353D01*
X033952Y008975D01*
X034487Y009623D01*
X034990Y010296D01*
X035462Y010992D01*
X035899Y011710D01*
X036302Y012448D01*
X036669Y013204D01*
X037000Y013976D01*
X037294Y014764D01*
X037550Y015565D01*
X037767Y016377D01*
X037946Y017198D01*
X038085Y018027D01*
X038185Y018861D01*
X038245Y019700D01*
X038265Y020540D01*
X037485Y020605D02*
X037466Y021405D01*
X037409Y022203D01*
X037314Y022998D01*
X037181Y023787D01*
X037011Y024569D01*
X036804Y025342D01*
X036560Y026105D01*
X036281Y026854D01*
X035965Y027590D01*
X035616Y028310D01*
X035232Y029012D01*
X034816Y029696D01*
X034367Y030359D01*
X033887Y030999D01*
X033378Y031616D01*
X032840Y032209D01*
X032274Y032775D01*
X031681Y033313D01*
X031064Y033822D01*
X030424Y034302D01*
X029761Y034751D01*
X029077Y035167D01*
X028375Y035551D01*
X027655Y035900D01*
X026919Y036216D01*
X026170Y036495D01*
X025407Y036739D01*
X024634Y036946D01*
X023852Y037116D01*
X023063Y037249D01*
X022268Y037344D01*
X021470Y037401D01*
X020670Y037420D01*
X020605Y029620D02*
X020179Y029610D01*
X019754Y029579D01*
X019331Y029529D01*
X018911Y029458D01*
X018495Y029368D01*
X018083Y029257D01*
X017678Y029128D01*
X017279Y028979D01*
X016887Y028811D01*
X016504Y028625D01*
X016130Y028421D01*
X015766Y028199D01*
X015413Y027960D01*
X015072Y027705D01*
X014744Y027434D01*
X014429Y027147D01*
X014128Y026846D01*
X013841Y026531D01*
X013570Y026203D01*
X013315Y025861D01*
X013076Y025509D01*
X012854Y025145D01*
X012650Y024771D01*
X012464Y024388D01*
X012296Y023996D01*
X012147Y023597D01*
X012018Y023191D01*
X011907Y022780D01*
X011817Y022364D01*
X011746Y021944D01*
X011696Y021521D01*
X011665Y021096D01*
X011655Y020670D01*
X007755Y020605D02*
X007769Y019997D01*
X007813Y019390D01*
X007885Y018786D01*
X007986Y018186D01*
X008115Y017591D01*
X008273Y017003D01*
X008458Y016424D01*
X008671Y015853D01*
X008910Y015294D01*
X009176Y014747D01*
X009468Y014213D01*
X009785Y013693D01*
X010126Y013189D01*
X010490Y012702D01*
X010878Y012233D01*
X011287Y011782D01*
X011717Y011352D01*
X012168Y010943D01*
X012637Y010555D01*
X013124Y010191D01*
X013628Y009850D01*
X014148Y009533D01*
X014682Y009241D01*
X015229Y008975D01*
X015788Y008736D01*
X016359Y008523D01*
X016938Y008338D01*
X017526Y008180D01*
X018121Y008051D01*
X018721Y007950D01*
X019325Y007878D01*
X019932Y007834D01*
X020540Y007820D01*
X020605Y008860D02*
X021161Y008873D01*
X021715Y008913D01*
X022267Y008979D01*
X022815Y009071D01*
X023359Y009189D01*
X023896Y009333D01*
X024425Y009502D01*
X024946Y009697D01*
X025457Y009915D01*
X025957Y010158D01*
X026445Y010425D01*
X026920Y010714D01*
X027380Y011026D01*
X027825Y011359D01*
X028254Y011713D01*
X028665Y012087D01*
X029058Y012480D01*
X029432Y012891D01*
X029786Y013320D01*
X030119Y013765D01*
X030431Y014225D01*
X030720Y014700D01*
X030987Y015188D01*
X031230Y015688D01*
X031448Y016199D01*
X031643Y016720D01*
X031812Y017249D01*
X031956Y017786D01*
X032074Y018330D01*
X032166Y018878D01*
X032232Y019430D01*
X032272Y019984D01*
X032285Y020540D01*
X033585Y020605D02*
X033570Y021219D01*
X033527Y021833D01*
X033454Y022443D01*
X033352Y023049D01*
X033221Y023650D01*
X033062Y024244D01*
X032875Y024829D01*
X032660Y025405D01*
X032418Y025970D01*
X032149Y026523D01*
X031855Y027062D01*
X031535Y027587D01*
X031190Y028096D01*
X030822Y028589D01*
X030431Y029063D01*
X030017Y029517D01*
X029582Y029952D01*
X029128Y030366D01*
X028654Y030757D01*
X028161Y031125D01*
X027652Y031470D01*
X027127Y031790D01*
X026588Y032084D01*
X026035Y032353D01*
X025470Y032595D01*
X024894Y032810D01*
X024309Y032997D01*
X023715Y033156D01*
X023114Y033287D01*
X022508Y033389D01*
X021898Y033462D01*
X021284Y033505D01*
X020670Y033520D01*
X020605Y029360D02*
X020191Y029350D01*
X019779Y029321D01*
X019368Y029272D01*
X018960Y029203D01*
X018556Y029115D01*
X018157Y029008D01*
X017763Y028882D01*
X017375Y028738D01*
X016995Y028575D01*
X016623Y028394D01*
X016260Y028196D01*
X015907Y027980D01*
X015564Y027749D01*
X015233Y027501D01*
X014914Y027237D01*
X014608Y026959D01*
X014316Y026667D01*
X014038Y026361D01*
X013774Y026042D01*
X013526Y025711D01*
X013294Y025368D01*
X013079Y025015D01*
X012881Y024652D01*
X012700Y024280D01*
X012537Y023900D01*
X012393Y023512D01*
X012267Y023118D01*
X012160Y022719D01*
X012072Y022315D01*
X012003Y021907D01*
X011954Y021496D01*
X011925Y021083D01*
X011915Y020670D01*
X012695Y020605D02*
X012704Y020232D01*
X012731Y019859D01*
X012775Y019489D01*
X012837Y019120D01*
X012916Y018756D01*
X013013Y018395D01*
X013126Y018039D01*
X013257Y017689D01*
X013404Y017346D01*
X013567Y017010D01*
X013746Y016683D01*
X013940Y016364D01*
X014150Y016054D01*
X014373Y015756D01*
X014611Y015468D01*
X014862Y015191D01*
X015126Y014927D01*
X015403Y014676D01*
X015691Y014438D01*
X015989Y014215D01*
X016299Y014005D01*
X016618Y013811D01*
X016945Y013632D01*
X017281Y013469D01*
X017624Y013322D01*
X017974Y013191D01*
X018330Y013078D01*
X018691Y012981D01*
X019055Y012902D01*
X019424Y012840D01*
X019794Y012796D01*
X020167Y012769D01*
X020540Y012760D01*
X020605Y007820D02*
X021210Y007834D01*
X021814Y007878D01*
X022415Y007949D01*
X023012Y008050D01*
X023604Y008179D01*
X024189Y008335D01*
X024765Y008520D01*
X025333Y008731D01*
X025889Y008969D01*
X026434Y009234D01*
X026965Y009524D01*
X027482Y009839D01*
X027983Y010179D01*
X028468Y010541D01*
X028935Y010927D01*
X029383Y011334D01*
X029811Y011762D01*
X030218Y012210D01*
X030604Y012677D01*
X030966Y013162D01*
X031306Y013663D01*
X031621Y014180D01*
X031911Y014711D01*
X032176Y015256D01*
X032414Y015813D01*
X032625Y016380D01*
X032810Y016956D01*
X032966Y017541D01*
X033095Y018133D01*
X033196Y018730D01*
X033267Y019331D01*
X033311Y019935D01*
X033325Y020540D01*
X031765Y020605D02*
X031752Y021133D01*
X031715Y021660D01*
X031652Y022184D01*
X031565Y022705D01*
X031452Y023221D01*
X031316Y023731D01*
X031155Y024234D01*
X030970Y024729D01*
X030762Y025214D01*
X030532Y025689D01*
X030279Y026152D01*
X030004Y026603D01*
X029708Y027041D01*
X029391Y027463D01*
X029055Y027871D01*
X028700Y028261D01*
X028326Y028635D01*
X027936Y028990D01*
X027528Y029326D01*
X027106Y029643D01*
X026668Y029939D01*
X026217Y030214D01*
X025754Y030467D01*
X025279Y030697D01*
X024794Y030905D01*
X024299Y031090D01*
X023796Y031251D01*
X023286Y031387D01*
X022770Y031500D01*
X022249Y031587D01*
X021725Y031650D01*
X021198Y031687D01*
X020670Y031700D01*
X020605Y028840D02*
X020216Y028831D01*
X019828Y028803D01*
X019442Y028757D01*
X019059Y028692D01*
X018679Y028610D01*
X018303Y028509D01*
X017933Y028391D01*
X017568Y028255D01*
X017211Y028102D01*
X016861Y027932D01*
X016520Y027745D01*
X016188Y027543D01*
X015866Y027325D01*
X015555Y027092D01*
X015255Y026844D01*
X014967Y026583D01*
X014692Y026308D01*
X014431Y026020D01*
X014183Y025720D01*
X013950Y025409D01*
X013732Y025087D01*
X013530Y024755D01*
X013343Y024414D01*
X013173Y024064D01*
X013020Y023706D01*
X012884Y023342D01*
X012766Y022972D01*
X012665Y022596D01*
X012583Y022216D01*
X012518Y021833D01*
X012472Y021447D01*
X012444Y021059D01*
X012435Y020670D01*
X012435Y020605D02*
X012444Y020219D01*
X012472Y019835D01*
X012517Y019452D01*
X012581Y019071D01*
X012663Y018694D01*
X012763Y018322D01*
X012881Y017954D01*
X013016Y017593D01*
X013167Y017238D01*
X013336Y016891D01*
X013521Y016553D01*
X013722Y016223D01*
X013938Y015904D01*
X014169Y015595D01*
X014415Y015297D01*
X014674Y015012D01*
X014947Y014739D01*
X015232Y014480D01*
X015530Y014234D01*
X015839Y014003D01*
X016158Y013787D01*
X016488Y013586D01*
X016826Y013401D01*
X017173Y013232D01*
X017528Y013081D01*
X017889Y012946D01*
X018257Y012828D01*
X018629Y012728D01*
X019006Y012646D01*
X019387Y012582D01*
X019770Y012537D01*
X020154Y012509D01*
X020540Y012500D01*
X020605Y012760D02*
X020975Y012769D01*
X021344Y012795D01*
X021712Y012839D01*
X022077Y012901D01*
X022439Y012979D01*
X022797Y013075D01*
X023150Y013188D01*
X023496Y013317D01*
X023837Y013463D01*
X024170Y013625D01*
X024495Y013802D01*
X024811Y013995D01*
X025118Y014203D01*
X025414Y014424D01*
X025700Y014660D01*
X025974Y014909D01*
X026236Y015171D01*
X026485Y015445D01*
X026721Y015731D01*
X026942Y016027D01*
X027150Y016334D01*
X027343Y016650D01*
X027520Y016975D01*
X027682Y017308D01*
X027828Y017649D01*
X027957Y017995D01*
X028070Y018348D01*
X028166Y018706D01*
X028244Y019068D01*
X028306Y019433D01*
X028350Y019801D01*
X028376Y020170D01*
X028385Y020540D01*
X040085Y020605D02*
X040063Y021529D01*
X039997Y022450D01*
X039887Y023368D01*
X039734Y024279D01*
X039538Y025182D01*
X039299Y026075D01*
X039017Y026955D01*
X038694Y027821D01*
X038331Y028670D01*
X037927Y029501D01*
X037484Y030312D01*
X037003Y031101D01*
X036485Y031867D01*
X035931Y032607D01*
X035343Y033319D01*
X034721Y034003D01*
X034068Y034656D01*
X033384Y035278D01*
X032672Y035866D01*
X031932Y036420D01*
X031167Y036938D01*
X030377Y037419D01*
X029566Y037862D01*
X028735Y038266D01*
X027886Y038629D01*
X027020Y038952D01*
X026140Y039234D01*
X025247Y039473D01*
X024344Y039669D01*
X023433Y039822D01*
X022515Y039932D01*
X021594Y039998D01*
X020670Y040020D01*
X020605Y040020D02*
X019684Y039998D01*
X018766Y039932D01*
X017851Y039823D01*
X016943Y039670D01*
X016043Y039475D01*
X015154Y039236D01*
X014276Y038956D01*
X013413Y038634D01*
X012567Y038271D01*
X011738Y037869D01*
X010930Y037428D01*
X010144Y036948D01*
X009381Y036432D01*
X008644Y035880D01*
X007933Y035294D01*
X007252Y034674D01*
X006601Y034023D01*
X005981Y033342D01*
X005395Y032631D01*
X004843Y031894D01*
X004327Y031131D01*
X003847Y030345D01*
X003406Y029537D01*
X003004Y028708D01*
X002641Y027862D01*
X002319Y026999D01*
X002039Y026122D01*
X001800Y025232D01*
X001605Y024332D01*
X001452Y023424D01*
X001343Y022509D01*
X001277Y021591D01*
X001255Y020670D01*
X000735Y020605D02*
X000757Y019663D01*
X000825Y018723D01*
X000937Y017787D01*
X001093Y016857D01*
X001293Y015936D01*
X001537Y015025D01*
X001824Y014128D01*
X002154Y013244D01*
X002525Y012378D01*
X002937Y011530D01*
X003388Y010703D01*
X003879Y009898D01*
X004407Y009117D01*
X004972Y008362D01*
X005572Y007635D01*
X006206Y006938D01*
X006873Y006271D01*
X007570Y005637D01*
X008297Y005037D01*
X009052Y004472D01*
X009833Y003944D01*
X010638Y003453D01*
X011465Y003002D01*
X012313Y002590D01*
X013179Y002219D01*
X014063Y001889D01*
X014960Y001602D01*
X015871Y001358D01*
X016792Y001158D01*
X017722Y001002D01*
X018658Y000890D01*
X019598Y000822D01*
X020540Y000800D01*
X020605Y001060D02*
X021532Y001082D01*
X022457Y001148D01*
X023377Y001258D01*
X024292Y001412D01*
X025198Y001609D01*
X026093Y001849D01*
X026976Y002131D01*
X027845Y002455D01*
X028697Y002820D01*
X029531Y003225D01*
X030345Y003670D01*
X031137Y004152D01*
X031904Y004672D01*
X032647Y005228D01*
X033362Y005818D01*
X034048Y006442D01*
X034703Y007097D01*
X035327Y007783D01*
X035917Y008498D01*
X036473Y009241D01*
X036993Y010008D01*
X037475Y010800D01*
X037920Y011614D01*
X038325Y012448D01*
X038690Y013300D01*
X039014Y014169D01*
X039296Y015052D01*
X039536Y015947D01*
X039733Y016853D01*
X039887Y017768D01*
X039997Y018688D01*
X040063Y019613D01*
X040085Y020540D01*
X035145Y020605D02*
X035129Y021294D01*
X035079Y021981D01*
X034998Y022665D01*
X034883Y023344D01*
X034737Y024018D01*
X034559Y024683D01*
X034349Y025339D01*
X034108Y025985D01*
X033837Y026618D01*
X033536Y027238D01*
X033206Y027842D01*
X032847Y028431D01*
X032461Y029001D01*
X032048Y029553D01*
X031609Y030084D01*
X031146Y030594D01*
X030659Y031081D01*
X030149Y031544D01*
X029618Y031983D01*
X029066Y032396D01*
X028496Y032782D01*
X027907Y033141D01*
X027303Y033471D01*
X026683Y033772D01*
X026050Y034043D01*
X025404Y034284D01*
X024748Y034494D01*
X024083Y034672D01*
X023409Y034818D01*
X022730Y034933D01*
X022046Y035014D01*
X021359Y035064D01*
X020670Y035080D01*
X020605Y039240D02*
X019721Y039219D01*
X018840Y039156D01*
X017962Y039051D01*
X017091Y038904D01*
X016227Y038717D01*
X015373Y038488D01*
X014531Y038219D01*
X013703Y037910D01*
X012891Y037562D01*
X012096Y037176D01*
X011320Y036752D01*
X010565Y036292D01*
X009833Y035797D01*
X009126Y035267D01*
X008444Y034704D01*
X007790Y034110D01*
X007165Y033485D01*
X006571Y032831D01*
X006008Y032149D01*
X005478Y031442D01*
X004983Y030710D01*
X004523Y029955D01*
X004099Y029179D01*
X003713Y028384D01*
X003365Y027572D01*
X003056Y026744D01*
X002787Y025902D01*
X002558Y025048D01*
X002371Y024184D01*
X002224Y023313D01*
X002119Y022435D01*
X002056Y021554D01*
X002035Y020670D01*
X006715Y020605D02*
X006731Y019947D01*
X006778Y019291D01*
X006856Y018638D01*
X006965Y017989D01*
X007105Y017346D01*
X007275Y016710D01*
X007475Y016083D01*
X007705Y015467D01*
X007964Y014862D01*
X008252Y014270D01*
X008567Y013693D01*
X008910Y013131D01*
X009278Y012586D01*
X009673Y012059D01*
X010092Y011552D01*
X010534Y011065D01*
X011000Y010599D01*
X011487Y010157D01*
X011994Y009738D01*
X012521Y009343D01*
X013066Y008975D01*
X013628Y008632D01*
X014205Y008317D01*
X014797Y008029D01*
X015402Y007770D01*
X016018Y007540D01*
X016645Y007340D01*
X017281Y007170D01*
X017924Y007030D01*
X018573Y006921D01*
X019226Y006843D01*
X019882Y006796D01*
X020540Y006780D01*
X020605Y002620D02*
X021458Y002640D01*
X022308Y002701D01*
X023155Y002802D01*
X023996Y002944D01*
X024830Y003125D01*
X025654Y003346D01*
X026466Y003606D01*
X027265Y003904D01*
X028049Y004239D01*
X028816Y004612D01*
X029565Y005021D01*
X030293Y005465D01*
X031000Y005943D01*
X031682Y006454D01*
X032340Y006997D01*
X032971Y007571D01*
X033574Y008174D01*
X034148Y008805D01*
X034691Y009463D01*
X035202Y010145D01*
X035680Y010852D01*
X036124Y011580D01*
X036533Y012329D01*
X036906Y013096D01*
X037241Y013880D01*
X037539Y014679D01*
X037799Y015491D01*
X038020Y016315D01*
X038201Y017149D01*
X038343Y017990D01*
X038444Y018837D01*
X038505Y019687D01*
X038525Y020540D01*
X034625Y020605D02*
X034609Y021269D01*
X034562Y021931D01*
X034483Y022591D01*
X034373Y023246D01*
X034232Y023895D01*
X034060Y024537D01*
X033858Y025169D01*
X033625Y025792D01*
X033364Y026402D01*
X033074Y027000D01*
X032755Y027582D01*
X032410Y028150D01*
X032037Y028700D01*
X031639Y029231D01*
X031216Y029744D01*
X030770Y030235D01*
X030300Y030705D01*
X029809Y031151D01*
X029296Y031574D01*
X028765Y031972D01*
X028215Y032345D01*
X027647Y032690D01*
X027065Y033009D01*
X026467Y033299D01*
X025857Y033560D01*
X025234Y033793D01*
X024602Y033995D01*
X023960Y034167D01*
X023311Y034308D01*
X022656Y034418D01*
X021996Y034497D01*
X021334Y034544D01*
X020670Y034560D01*
X020605Y038980D02*
X019734Y038959D01*
X018865Y038897D01*
X017999Y038794D01*
X017140Y038649D01*
X016288Y038464D01*
X015446Y038238D01*
X014616Y037973D01*
X013800Y037668D01*
X012999Y037325D01*
X012215Y036945D01*
X011450Y036527D01*
X010706Y036073D01*
X009984Y035585D01*
X009287Y035063D01*
X008614Y034508D01*
X007970Y033922D01*
X007353Y033305D01*
X006767Y032661D01*
X006212Y031988D01*
X005690Y031291D01*
X005202Y030569D01*
X004748Y029825D01*
X004330Y029060D01*
X003950Y028276D01*
X003607Y027475D01*
X003302Y026659D01*
X003037Y025829D01*
X002811Y024987D01*
X002626Y024135D01*
X002481Y023276D01*
X002378Y022410D01*
X002316Y021541D01*
X002295Y020670D01*
X008275Y020605D02*
X008289Y020022D01*
X008331Y019439D01*
X008400Y018860D01*
X008497Y018284D01*
X008621Y017714D01*
X008772Y017150D01*
X008950Y016594D01*
X009154Y016047D01*
X009383Y015510D01*
X009638Y014985D01*
X009918Y014473D01*
X010222Y013974D01*
X010549Y013491D01*
X010899Y013023D01*
X011271Y012573D01*
X011663Y012141D01*
X012076Y011728D01*
X012508Y011336D01*
X012958Y010964D01*
X013426Y010614D01*
X013909Y010287D01*
X014408Y009983D01*
X014920Y009703D01*
X015445Y009448D01*
X015982Y009219D01*
X016529Y009015D01*
X017085Y008837D01*
X017649Y008686D01*
X018219Y008562D01*
X018795Y008465D01*
X019374Y008396D01*
X019957Y008354D01*
X020540Y008340D01*
X020605Y004960D02*
X021346Y004978D01*
X022086Y005031D01*
X022822Y005119D01*
X023553Y005242D01*
X024278Y005399D01*
X024994Y005591D01*
X025701Y005817D01*
X026395Y006076D01*
X027077Y006368D01*
X027744Y006692D01*
X028395Y007047D01*
X029028Y007433D01*
X029642Y007849D01*
X030236Y008293D01*
X030808Y008765D01*
X031356Y009264D01*
X031881Y009789D01*
X032380Y010337D01*
X032852Y010909D01*
X033296Y011503D01*
X033712Y012117D01*
X034098Y012750D01*
X034453Y013401D01*
X034777Y014068D01*
X035069Y014750D01*
X035328Y015444D01*
X035554Y016151D01*
X035746Y016867D01*
X035903Y017592D01*
X036026Y018323D01*
X036114Y019059D01*
X036167Y019799D01*
X036185Y020540D01*
X032285Y020605D02*
X032272Y021158D01*
X032232Y021709D01*
X032167Y022258D01*
X032075Y022803D01*
X031958Y023343D01*
X031815Y023877D01*
X031646Y024404D01*
X031453Y024922D01*
X031235Y025430D01*
X030994Y025927D01*
X030729Y026412D01*
X030441Y026885D01*
X030131Y027342D01*
X029800Y027785D01*
X029448Y028211D01*
X029076Y028620D01*
X028685Y029011D01*
X028276Y029383D01*
X027850Y029735D01*
X027407Y030066D01*
X026950Y030376D01*
X026477Y030664D01*
X025992Y030929D01*
X025495Y031170D01*
X024987Y031388D01*
X024469Y031581D01*
X023942Y031750D01*
X023408Y031893D01*
X022868Y032010D01*
X022323Y032102D01*
X021774Y032167D01*
X021223Y032207D01*
X020670Y032220D01*
X020605Y038720D02*
X019746Y038700D01*
X018889Y038638D01*
X018036Y038536D01*
X017189Y038394D01*
X016350Y038211D01*
X015520Y037989D01*
X014701Y037727D01*
X013896Y037427D01*
X013107Y037089D01*
X012334Y036713D01*
X011580Y036302D01*
X010846Y035855D01*
X010135Y035373D01*
X009447Y034858D01*
X008785Y034311D01*
X008149Y033733D01*
X007542Y033126D01*
X006964Y032490D01*
X006417Y031828D01*
X005902Y031140D01*
X005420Y030429D01*
X004973Y029695D01*
X004562Y028941D01*
X004186Y028168D01*
X003848Y027379D01*
X003548Y026574D01*
X003286Y025755D01*
X003064Y024925D01*
X002881Y024086D01*
X002739Y023239D01*
X002637Y022386D01*
X002575Y021529D01*
X002555Y020670D01*
X008535Y020605D02*
X008549Y020034D01*
X008589Y019464D01*
X008657Y018897D01*
X008752Y018333D01*
X008873Y017775D01*
X009021Y017223D01*
X009195Y016679D01*
X009395Y016143D01*
X009620Y015618D01*
X009870Y015104D01*
X010143Y014603D01*
X010441Y014115D01*
X010761Y013641D01*
X011103Y013184D01*
X011467Y012743D01*
X011852Y012321D01*
X012256Y011917D01*
X012678Y011532D01*
X013119Y011168D01*
X013576Y010826D01*
X014050Y010506D01*
X014538Y010208D01*
X015039Y009935D01*
X015553Y009685D01*
X016078Y009460D01*
X016614Y009260D01*
X017158Y009086D01*
X017710Y008938D01*
X018268Y008817D01*
X018832Y008722D01*
X019399Y008654D01*
X019969Y008614D01*
X020540Y008600D01*
X020605Y006520D02*
X021272Y006536D01*
X021938Y006583D01*
X022600Y006663D01*
X023258Y006773D01*
X023910Y006915D01*
X024555Y007088D01*
X025190Y007291D01*
X025816Y007524D01*
X026429Y007787D01*
X027029Y008079D01*
X027615Y008398D01*
X028185Y008746D01*
X028737Y009120D01*
X029272Y009520D01*
X029786Y009944D01*
X030280Y010393D01*
X030752Y010865D01*
X031201Y011359D01*
X031625Y011873D01*
X032025Y012408D01*
X032399Y012960D01*
X032747Y013530D01*
X033066Y014116D01*
X033358Y014716D01*
X033621Y015329D01*
X033854Y015955D01*
X034057Y016590D01*
X034230Y017235D01*
X034372Y017887D01*
X034482Y018545D01*
X034562Y019207D01*
X034609Y019873D01*
X034625Y020540D01*
X030465Y020605D02*
X030454Y021071D01*
X030421Y021536D01*
X030365Y021999D01*
X030288Y022459D01*
X030189Y022914D01*
X030068Y023365D01*
X029926Y023809D01*
X029763Y024245D01*
X029580Y024674D01*
X029376Y025093D01*
X029153Y025502D01*
X028910Y025901D01*
X028649Y026287D01*
X028369Y026660D01*
X028073Y027019D01*
X027759Y027364D01*
X027429Y027694D01*
X027084Y028008D01*
X026725Y028304D01*
X026352Y028584D01*
X025966Y028845D01*
X025567Y029088D01*
X025158Y029311D01*
X024739Y029515D01*
X024310Y029698D01*
X023874Y029861D01*
X023430Y030003D01*
X022979Y030124D01*
X022524Y030223D01*
X022064Y030300D01*
X021601Y030356D01*
X021136Y030389D01*
X020670Y030400D01*
X020605Y037940D02*
X019783Y037920D01*
X018963Y037862D01*
X018147Y037764D01*
X017337Y037628D01*
X016533Y037453D01*
X015739Y037240D01*
X014956Y036990D01*
X014186Y036703D01*
X013431Y036379D01*
X012691Y036020D01*
X011970Y035626D01*
X011268Y035198D01*
X010587Y034738D01*
X009929Y034245D01*
X009296Y033722D01*
X008687Y033169D01*
X008106Y032588D01*
X007553Y031979D01*
X007030Y031346D01*
X006537Y030688D01*
X006077Y030007D01*
X005649Y029305D01*
X005255Y028584D01*
X004896Y027844D01*
X004572Y027089D01*
X004285Y026318D01*
X004035Y025535D01*
X003822Y024742D01*
X003647Y023938D01*
X003511Y023128D01*
X003413Y022312D01*
X003355Y021492D01*
X003335Y020670D01*
X009575Y020605D02*
X009587Y020083D01*
X009625Y019563D01*
X009687Y019045D01*
X009773Y018530D01*
X009884Y018020D01*
X010019Y017516D01*
X010178Y017019D01*
X010360Y016530D01*
X010566Y016050D01*
X010794Y015581D01*
X011044Y015123D01*
X011316Y014677D01*
X011608Y014245D01*
X011921Y013827D01*
X012253Y013424D01*
X012604Y013038D01*
X012973Y012669D01*
X013359Y012318D01*
X013762Y011986D01*
X014180Y011673D01*
X014612Y011381D01*
X015058Y011109D01*
X015516Y010859D01*
X015985Y010631D01*
X016465Y010425D01*
X016954Y010243D01*
X017451Y010084D01*
X017955Y009949D01*
X018465Y009838D01*
X018980Y009752D01*
X019498Y009690D01*
X020018Y009652D01*
X020540Y009640D01*
X020605Y013540D02*
X020938Y013548D01*
X021270Y013572D01*
X021601Y013611D01*
X021930Y013666D01*
X022255Y013737D01*
X022577Y013824D01*
X022894Y013925D01*
X023207Y014041D01*
X023513Y014173D01*
X023813Y014318D01*
X024105Y014478D01*
X024389Y014651D01*
X024665Y014838D01*
X024932Y015038D01*
X025189Y015250D01*
X025436Y015474D01*
X025671Y015709D01*
X025895Y015956D01*
X026107Y016213D01*
X026307Y016480D01*
X026494Y016756D01*
X026667Y017040D01*
X026827Y017332D01*
X026972Y017632D01*
X027104Y017938D01*
X027220Y018251D01*
X027321Y018568D01*
X027408Y018890D01*
X027479Y019215D01*
X027534Y019544D01*
X027573Y019875D01*
X027597Y020207D01*
X027605Y020540D01*
X028125Y020605D02*
X028117Y020960D01*
X028091Y021314D01*
X028049Y021666D01*
X027990Y022016D01*
X027915Y022363D01*
X027823Y022705D01*
X027715Y023043D01*
X027591Y023376D01*
X027451Y023702D01*
X027296Y024021D01*
X027126Y024332D01*
X026942Y024635D01*
X026743Y024929D01*
X026530Y025213D01*
X026304Y025487D01*
X026065Y025750D01*
X025815Y026000D01*
X025552Y026239D01*
X025278Y026465D01*
X024994Y026678D01*
X024700Y026877D01*
X024397Y027061D01*
X024086Y027231D01*
X023767Y027386D01*
X023441Y027526D01*
X023108Y027650D01*
X022770Y027758D01*
X022428Y027850D01*
X022081Y027925D01*
X021731Y027984D01*
X021379Y028026D01*
X021025Y028052D01*
X020670Y028060D01*
X020605Y037160D02*
X019820Y037141D01*
X019038Y037085D01*
X018258Y036992D01*
X017484Y036862D01*
X016717Y036695D01*
X015959Y036492D01*
X015212Y036253D01*
X014476Y035979D01*
X013755Y035670D01*
X013049Y035327D01*
X012360Y034951D01*
X011690Y034542D01*
X011040Y034102D01*
X010412Y033632D01*
X009806Y033132D01*
X009226Y032604D01*
X008671Y032049D01*
X008143Y031469D01*
X007643Y030863D01*
X007173Y030235D01*
X006733Y029585D01*
X006324Y028915D01*
X005948Y028226D01*
X005605Y027520D01*
X005296Y026799D01*
X005022Y026063D01*
X004783Y025316D01*
X004580Y024558D01*
X004413Y023791D01*
X004283Y023017D01*
X004190Y022237D01*
X004134Y021455D01*
X004115Y020670D01*
X009835Y020605D02*
X009847Y020096D01*
X009883Y019588D01*
X009944Y019082D01*
X010028Y018579D01*
X010137Y018081D01*
X010269Y017589D01*
X010424Y017104D01*
X010602Y016626D01*
X010802Y016158D01*
X011025Y015700D01*
X011269Y015253D01*
X011534Y014817D01*
X011820Y014395D01*
X012125Y013988D01*
X012450Y013595D01*
X012792Y013218D01*
X013153Y012857D01*
X013530Y012515D01*
X013923Y012190D01*
X014331Y011885D01*
X014752Y011599D01*
X015188Y011334D01*
X015635Y011090D01*
X016093Y010867D01*
X016561Y010667D01*
X017039Y010489D01*
X017524Y010334D01*
X018016Y010202D01*
X018514Y010093D01*
X019017Y010009D01*
X019523Y009948D01*
X020031Y009912D01*
X020540Y009900D01*
X020605Y002100D02*
X021482Y002121D01*
X022358Y002183D01*
X023229Y002288D01*
X024095Y002433D01*
X024952Y002620D01*
X025800Y002847D01*
X026636Y003114D01*
X027458Y003421D01*
X028265Y003766D01*
X029055Y004150D01*
X029825Y004570D01*
X030574Y005027D01*
X031301Y005519D01*
X032004Y006045D01*
X032681Y006604D01*
X033330Y007194D01*
X033951Y007815D01*
X034541Y008464D01*
X035100Y009141D01*
X035626Y009844D01*
X036118Y010571D01*
X036575Y011320D01*
X036995Y012090D01*
X037379Y012880D01*
X037724Y013687D01*
X038031Y014509D01*
X038298Y015345D01*
X038525Y016193D01*
X038712Y017050D01*
X038857Y017916D01*
X038962Y018787D01*
X039024Y019663D01*
X039045Y020540D01*
X029945Y020605D02*
X029934Y021046D01*
X029903Y021487D01*
X029851Y021925D01*
X029777Y022360D01*
X029684Y022792D01*
X029569Y023218D01*
X029435Y023639D01*
X029281Y024052D01*
X029107Y024458D01*
X028914Y024855D01*
X028702Y025242D01*
X028473Y025619D01*
X028225Y025985D01*
X027961Y026338D01*
X027680Y026679D01*
X027383Y027005D01*
X027070Y027318D01*
X026744Y027615D01*
X026403Y027896D01*
X026050Y028160D01*
X025684Y028408D01*
X025307Y028637D01*
X024920Y028849D01*
X024523Y029042D01*
X024117Y029216D01*
X023704Y029370D01*
X023283Y029504D01*
X022857Y029619D01*
X022425Y029712D01*
X021990Y029786D01*
X021552Y029838D01*
X021111Y029869D01*
X020670Y029880D01*
X020605Y036900D02*
X019833Y036882D01*
X019062Y036827D01*
X018295Y036735D01*
X017533Y036607D01*
X016779Y036443D01*
X016032Y036243D01*
X015297Y036007D01*
X014573Y035737D01*
X013863Y035433D01*
X013168Y035096D01*
X012490Y034726D01*
X011830Y034324D01*
X011191Y033891D01*
X010572Y033428D01*
X009977Y032936D01*
X009405Y032416D01*
X008859Y031870D01*
X008339Y031298D01*
X007847Y030703D01*
X007384Y030084D01*
X006951Y029445D01*
X006549Y028785D01*
X006179Y028107D01*
X005842Y027412D01*
X005538Y026702D01*
X005268Y025978D01*
X005032Y025243D01*
X004832Y024496D01*
X004668Y023742D01*
X004540Y022980D01*
X004448Y022213D01*
X004393Y021442D01*
X004375Y020670D01*
X013475Y020605D02*
X013483Y020269D01*
X013507Y019934D01*
X013547Y019600D01*
X013603Y019268D01*
X013674Y018939D01*
X013761Y018615D01*
X013864Y018294D01*
X013981Y017979D01*
X014113Y017670D01*
X014260Y017368D01*
X014422Y017073D01*
X014597Y016785D01*
X014785Y016507D01*
X014987Y016238D01*
X015201Y015978D01*
X015427Y015730D01*
X015665Y015492D01*
X015913Y015266D01*
X016173Y015052D01*
X016442Y014850D01*
X016720Y014662D01*
X017008Y014486D01*
X017303Y014325D01*
X017605Y014178D01*
X017914Y014046D01*
X018229Y013929D01*
X018550Y013826D01*
X018874Y013739D01*
X019203Y013668D01*
X019535Y013612D01*
X019869Y013572D01*
X020204Y013548D01*
X020540Y013540D01*
X020605Y003400D02*
X021421Y003419D01*
X022234Y003478D01*
X023044Y003574D01*
X023849Y003710D01*
X024646Y003883D01*
X025434Y004094D01*
X026211Y004343D01*
X026975Y004628D01*
X027725Y004949D01*
X028459Y005305D01*
X029175Y005696D01*
X029872Y006121D01*
X030547Y006578D01*
X031200Y007067D01*
X031829Y007586D01*
X032433Y008135D01*
X033010Y008712D01*
X033559Y009316D01*
X034078Y009945D01*
X034567Y010598D01*
X035024Y011273D01*
X035449Y011970D01*
X035840Y012686D01*
X036196Y013420D01*
X036517Y014170D01*
X036802Y014934D01*
X037051Y015711D01*
X037262Y016499D01*
X037435Y017296D01*
X037571Y018101D01*
X037667Y018911D01*
X037726Y019724D01*
X037745Y020540D01*
X038525Y020605D02*
X038505Y021455D01*
X038444Y022302D01*
X038343Y023146D01*
X038202Y023984D01*
X038022Y024814D01*
X037802Y025635D01*
X037543Y026445D01*
X037246Y027241D01*
X036911Y028022D01*
X036540Y028787D01*
X036133Y029532D01*
X035691Y030258D01*
X035214Y030962D01*
X034705Y031642D01*
X034164Y032298D01*
X033592Y032926D01*
X032991Y033527D01*
X032363Y034099D01*
X031707Y034640D01*
X031027Y035149D01*
X030323Y035626D01*
X029597Y036068D01*
X028852Y036475D01*
X028087Y036846D01*
X027306Y037181D01*
X026510Y037478D01*
X025700Y037737D01*
X024879Y037957D01*
X024049Y038137D01*
X023211Y038278D01*
X022367Y038379D01*
X021520Y038440D01*
X020670Y038460D01*
X020605Y035600D02*
X019895Y035583D01*
X019186Y035532D01*
X018480Y035448D01*
X017779Y035330D01*
X017085Y035179D01*
X016399Y034995D01*
X015722Y034779D01*
X015056Y034531D01*
X014403Y034251D01*
X013764Y033940D01*
X013140Y033600D01*
X012533Y033230D01*
X011945Y032832D01*
X011376Y032406D01*
X010828Y031953D01*
X010302Y031475D01*
X009800Y030973D01*
X009322Y030447D01*
X008869Y029899D01*
X008443Y029330D01*
X008045Y028742D01*
X007675Y028135D01*
X007335Y027511D01*
X007024Y026872D01*
X006744Y026219D01*
X006496Y025553D01*
X006280Y024876D01*
X006096Y024190D01*
X005945Y023496D01*
X005827Y022795D01*
X005743Y022089D01*
X005692Y021380D01*
X005675Y020670D01*
X003075Y020605D02*
X003095Y019774D01*
X003154Y018945D01*
X003253Y018120D01*
X003391Y017300D01*
X003567Y016488D01*
X003782Y015685D01*
X004036Y014893D01*
X004326Y014114D01*
X004653Y013350D01*
X005016Y012602D01*
X005415Y011873D01*
X005847Y011163D01*
X006313Y010474D01*
X006812Y009809D01*
X007341Y009168D01*
X007900Y008553D01*
X008488Y007965D01*
X009103Y007406D01*
X009744Y006877D01*
X010409Y006378D01*
X011098Y005912D01*
X011808Y005480D01*
X012537Y005081D01*
X013285Y004718D01*
X014049Y004391D01*
X014828Y004101D01*
X015620Y003847D01*
X016423Y003632D01*
X017235Y003456D01*
X018055Y003318D01*
X018880Y003219D01*
X019709Y003160D01*
X020540Y003140D01*
X020605Y005480D02*
X021322Y005497D01*
X022037Y005548D01*
X022748Y005633D01*
X023455Y005752D01*
X024156Y005905D01*
X024848Y006090D01*
X025531Y006308D01*
X026202Y006559D01*
X026861Y006841D01*
X027506Y007154D01*
X028135Y007498D01*
X028747Y007871D01*
X029341Y008272D01*
X029914Y008702D01*
X030467Y009158D01*
X030998Y009641D01*
X031504Y010147D01*
X031987Y010678D01*
X032443Y011231D01*
X032873Y011804D01*
X033274Y012398D01*
X033647Y013010D01*
X033991Y013639D01*
X034304Y014284D01*
X034586Y014943D01*
X034837Y015614D01*
X035055Y016297D01*
X035240Y016989D01*
X035393Y017690D01*
X035512Y018397D01*
X035597Y019108D01*
X035648Y019823D01*
X035665Y020540D01*
X037225Y020605D02*
X037206Y021393D01*
X037150Y022179D01*
X037057Y022961D01*
X036926Y023738D01*
X036758Y024508D01*
X036554Y025269D01*
X036315Y026020D01*
X036039Y026758D01*
X035729Y027482D01*
X035385Y028191D01*
X035007Y028882D01*
X034597Y029555D01*
X034155Y030208D01*
X033683Y030839D01*
X033181Y031446D01*
X032651Y032029D01*
X032094Y032586D01*
X031511Y033116D01*
X030904Y033618D01*
X030273Y034090D01*
X029620Y034532D01*
X028947Y034942D01*
X028256Y035320D01*
X027547Y035664D01*
X026823Y035974D01*
X026085Y036250D01*
X025334Y036489D01*
X024573Y036693D01*
X023803Y036861D01*
X023026Y036992D01*
X022244Y037085D01*
X021458Y037141D01*
X020670Y037160D01*
X020605Y034300D02*
X019936Y034284D01*
X019269Y034234D01*
X018605Y034152D01*
X017946Y034038D01*
X017293Y033892D01*
X016648Y033713D01*
X016013Y033503D01*
X015389Y033262D01*
X014777Y032991D01*
X014180Y032691D01*
X013598Y032361D01*
X013033Y032003D01*
X012486Y031618D01*
X011958Y031206D01*
X011452Y030769D01*
X010967Y030308D01*
X010506Y029823D01*
X010069Y029317D01*
X009657Y028789D01*
X009272Y028242D01*
X008914Y027677D01*
X008584Y027095D01*
X008284Y026498D01*
X008013Y025886D01*
X007772Y025262D01*
X007562Y024627D01*
X007383Y023982D01*
X007237Y023329D01*
X007123Y022670D01*
X007041Y022006D01*
X006991Y021339D01*
X006975Y020670D01*
X005415Y020605D02*
X005432Y019885D01*
X005483Y019167D01*
X005569Y018453D01*
X005688Y017743D01*
X005841Y017039D01*
X006028Y016344D01*
X006247Y015658D01*
X006498Y014984D01*
X006782Y014322D01*
X007096Y013674D01*
X007441Y013043D01*
X007816Y012428D01*
X008220Y011832D01*
X008651Y011255D01*
X009109Y010700D01*
X009594Y010168D01*
X010103Y009659D01*
X010635Y009174D01*
X011190Y008716D01*
X011767Y008285D01*
X012363Y007881D01*
X012978Y007506D01*
X013609Y007161D01*
X014257Y006847D01*
X014919Y006563D01*
X015593Y006312D01*
X016279Y006093D01*
X016974Y005906D01*
X017678Y005753D01*
X018388Y005634D01*
X019102Y005548D01*
X019820Y005497D01*
X020540Y005480D01*
X020605Y010420D02*
X021086Y010431D01*
X021567Y010466D01*
X022045Y010523D01*
X022520Y010603D01*
X022991Y010705D01*
X023456Y010830D01*
X023915Y010977D01*
X024366Y011145D01*
X024809Y011335D01*
X025242Y011545D01*
X025665Y011776D01*
X026076Y012027D01*
X026475Y012296D01*
X026861Y012585D01*
X027232Y012892D01*
X027589Y013216D01*
X027929Y013556D01*
X028253Y013913D01*
X028560Y014284D01*
X028849Y014670D01*
X029118Y015069D01*
X029369Y015480D01*
X029600Y015903D01*
X029810Y016336D01*
X030000Y016779D01*
X030168Y017230D01*
X030315Y017689D01*
X030440Y018154D01*
X030542Y018625D01*
X030622Y019100D01*
X030679Y019578D01*
X030714Y020059D01*
X030725Y020540D01*
X035665Y020605D02*
X035648Y021318D01*
X035597Y022030D01*
X035512Y022739D01*
X035394Y023443D01*
X035242Y024140D01*
X035058Y024830D01*
X034840Y025509D01*
X034591Y026178D01*
X034310Y026834D01*
X033998Y027476D01*
X033656Y028103D01*
X033285Y028712D01*
X032885Y029303D01*
X032457Y029874D01*
X032002Y030425D01*
X031522Y030953D01*
X031018Y031457D01*
X030490Y031937D01*
X029939Y032392D01*
X029368Y032820D01*
X028777Y033220D01*
X028167Y033591D01*
X027541Y033933D01*
X026899Y034245D01*
X026243Y034526D01*
X025574Y034775D01*
X024895Y034993D01*
X024205Y035177D01*
X023508Y035329D01*
X022804Y035447D01*
X022095Y035532D01*
X021383Y035583D01*
X020670Y035600D01*
X020605Y035080D02*
X019919Y035064D01*
X019235Y035015D01*
X018554Y034933D01*
X017878Y034820D01*
X017208Y034674D01*
X016545Y034496D01*
X015892Y034287D01*
X015249Y034048D01*
X014619Y033778D01*
X014002Y033478D01*
X013400Y033149D01*
X012814Y032792D01*
X012246Y032408D01*
X011697Y031997D01*
X011168Y031560D01*
X010661Y031099D01*
X010176Y030614D01*
X009715Y030107D01*
X009278Y029578D01*
X008867Y029029D01*
X008483Y028461D01*
X008126Y027875D01*
X007797Y027273D01*
X007497Y026656D01*
X007227Y026026D01*
X006988Y025383D01*
X006779Y024730D01*
X006601Y024067D01*
X006455Y023397D01*
X006342Y022721D01*
X006260Y022040D01*
X006211Y021356D01*
X006195Y020670D01*
X013215Y020605D02*
X013223Y020257D01*
X013248Y019909D01*
X013290Y019563D01*
X013347Y019219D01*
X013421Y018878D01*
X013512Y018541D01*
X013618Y018209D01*
X013740Y017883D01*
X013877Y017562D01*
X014029Y017249D01*
X014196Y016943D01*
X014378Y016645D01*
X014573Y016356D01*
X014782Y016077D01*
X015004Y015808D01*
X015239Y015550D01*
X015485Y015304D01*
X015743Y015069D01*
X016012Y014847D01*
X016291Y014638D01*
X016580Y014443D01*
X016878Y014261D01*
X017184Y014094D01*
X017497Y013942D01*
X017818Y013805D01*
X018144Y013683D01*
X018476Y013577D01*
X018813Y013486D01*
X019154Y013412D01*
X019498Y013355D01*
X019844Y013313D01*
X020192Y013288D01*
X020540Y013280D01*
X020605Y010940D02*
X021062Y010951D01*
X021518Y010983D01*
X021971Y011038D01*
X022422Y011113D01*
X022868Y011211D01*
X023310Y011329D01*
X023745Y011468D01*
X024173Y011628D01*
X024593Y011808D01*
X025004Y012007D01*
X025405Y012226D01*
X025795Y012464D01*
X026174Y012720D01*
X026539Y012994D01*
X026892Y013285D01*
X027230Y013592D01*
X027553Y013915D01*
X027860Y014253D01*
X028151Y014606D01*
X028425Y014971D01*
X028681Y015350D01*
X028919Y015740D01*
X029138Y016141D01*
X029337Y016552D01*
X029517Y016972D01*
X029677Y017400D01*
X029816Y017835D01*
X029934Y018277D01*
X030032Y018723D01*
X030107Y019174D01*
X030162Y019627D01*
X030194Y020083D01*
X030205Y020540D01*
X033325Y020605D02*
X033311Y021207D01*
X033268Y021808D01*
X033196Y022406D01*
X033096Y023000D01*
X032968Y023588D01*
X032812Y024170D01*
X032629Y024744D01*
X032419Y025308D01*
X032181Y025862D01*
X031918Y026404D01*
X031630Y026932D01*
X031316Y027447D01*
X030978Y027946D01*
X030618Y028428D01*
X030234Y028892D01*
X029829Y029338D01*
X029403Y029764D01*
X028957Y030169D01*
X028493Y030553D01*
X028011Y030913D01*
X027512Y031251D01*
X026997Y031565D01*
X026469Y031853D01*
X025927Y032116D01*
X025373Y032354D01*
X024809Y032564D01*
X024235Y032747D01*
X023653Y032903D01*
X023065Y033031D01*
X022471Y033131D01*
X021873Y033203D01*
X021272Y033246D01*
X020670Y033260D01*
X020605Y035340D02*
X019907Y035323D01*
X019211Y035274D01*
X018517Y035191D01*
X017829Y035075D01*
X017146Y034926D01*
X016472Y034746D01*
X015807Y034533D01*
X015153Y034289D01*
X014511Y034014D01*
X013883Y033709D01*
X013270Y033375D01*
X012674Y033011D01*
X012096Y032620D01*
X011537Y032201D01*
X010998Y031757D01*
X010482Y031287D01*
X009988Y030793D01*
X009518Y030277D01*
X009074Y029738D01*
X008655Y029179D01*
X008264Y028601D01*
X007900Y028005D01*
X007566Y027392D01*
X007261Y026764D01*
X006986Y026122D01*
X006742Y025468D01*
X006529Y024803D01*
X006349Y024129D01*
X006200Y023446D01*
X006084Y022758D01*
X006001Y022064D01*
X005952Y021368D01*
X005935Y020670D01*
X003335Y020605D02*
X003354Y019786D01*
X003413Y018970D01*
X003510Y018157D01*
X003646Y017349D01*
X003820Y016549D01*
X004032Y015758D01*
X004281Y014978D01*
X004567Y014211D01*
X004890Y013458D01*
X005248Y012721D01*
X005640Y012003D01*
X006066Y011303D01*
X006525Y010625D01*
X007016Y009970D01*
X007537Y009338D01*
X008088Y008732D01*
X008667Y008153D01*
X009273Y007602D01*
X009905Y007081D01*
X010560Y006590D01*
X011238Y006131D01*
X011938Y005705D01*
X012656Y005313D01*
X013393Y004955D01*
X014146Y004632D01*
X014913Y004346D01*
X015693Y004097D01*
X016484Y003885D01*
X017284Y003711D01*
X018092Y003575D01*
X018905Y003478D01*
X019721Y003419D01*
X020540Y003400D01*
X020605Y011720D02*
X021025Y011730D01*
X021443Y011760D01*
X021860Y011810D01*
X022274Y011879D01*
X022684Y011969D01*
X023090Y012077D01*
X023490Y012205D01*
X023883Y012352D01*
X024269Y012517D01*
X024647Y012700D01*
X025015Y012902D01*
X025373Y013120D01*
X025721Y013355D01*
X026057Y013607D01*
X026381Y013874D01*
X026692Y014157D01*
X026988Y014454D01*
X027271Y014764D01*
X027538Y015088D01*
X027790Y015424D01*
X028025Y015772D01*
X028243Y016130D01*
X028445Y016498D01*
X028628Y016876D01*
X028793Y017262D01*
X028940Y017655D01*
X029068Y018055D01*
X029176Y018461D01*
X029266Y018871D01*
X029335Y019285D01*
X029385Y019702D01*
X029415Y020120D01*
X029425Y020540D01*
X030205Y020605D02*
X030194Y021059D01*
X030162Y021511D01*
X030108Y021962D01*
X030033Y022409D01*
X029936Y022853D01*
X029819Y023291D01*
X029681Y023724D01*
X029522Y024149D01*
X029343Y024566D01*
X029145Y024974D01*
X028928Y025372D01*
X028691Y025760D01*
X028437Y026136D01*
X028165Y026499D01*
X027876Y026849D01*
X027571Y027185D01*
X027250Y027506D01*
X026914Y027811D01*
X026564Y028100D01*
X026201Y028372D01*
X025825Y028626D01*
X025437Y028863D01*
X025039Y029080D01*
X024631Y029278D01*
X024214Y029457D01*
X023789Y029616D01*
X023356Y029754D01*
X022918Y029871D01*
X022474Y029968D01*
X022027Y030043D01*
X021576Y030097D01*
X021124Y030129D01*
X020670Y030140D01*
X020605Y034040D02*
X019969Y034025D01*
X019334Y033979D01*
X018702Y033904D01*
X018075Y033798D01*
X017453Y033663D01*
X016838Y033498D01*
X016232Y033305D01*
X015636Y033082D01*
X015051Y032832D01*
X014479Y032554D01*
X013920Y032249D01*
X013377Y031918D01*
X012850Y031561D01*
X012340Y031180D01*
X011850Y030774D01*
X011379Y030346D01*
X010929Y029896D01*
X010501Y029425D01*
X010095Y028935D01*
X009714Y028425D01*
X009357Y027898D01*
X009026Y027355D01*
X008721Y026796D01*
X008443Y026224D01*
X008193Y025639D01*
X007970Y025043D01*
X007777Y024437D01*
X007612Y023822D01*
X007477Y023200D01*
X007371Y022573D01*
X007296Y021941D01*
X007250Y021306D01*
X007235Y020670D01*
X004375Y020605D02*
X004393Y019836D01*
X004448Y019069D01*
X004540Y018305D01*
X004667Y017546D01*
X004831Y016794D01*
X005030Y016051D01*
X005264Y015318D01*
X005533Y014597D01*
X005836Y013890D01*
X006172Y013198D01*
X006541Y012523D01*
X006941Y011866D01*
X007372Y011228D01*
X007833Y010612D01*
X008323Y010019D01*
X008841Y009450D01*
X009385Y008906D01*
X009954Y008388D01*
X010547Y007898D01*
X011163Y007437D01*
X011801Y007006D01*
X012458Y006606D01*
X013133Y006237D01*
X013825Y005901D01*
X014532Y005598D01*
X015253Y005329D01*
X015986Y005095D01*
X016729Y004896D01*
X017481Y004732D01*
X018240Y004605D01*
X019004Y004513D01*
X019771Y004458D01*
X020540Y004440D01*
X020605Y012240D02*
X021000Y012249D01*
X021394Y012278D01*
X021786Y012324D01*
X022176Y012390D01*
X022562Y012474D01*
X022943Y012576D01*
X023320Y012696D01*
X023690Y012835D01*
X024053Y012990D01*
X024408Y013163D01*
X024755Y013352D01*
X025092Y013558D01*
X025419Y013779D01*
X025736Y014016D01*
X026040Y014267D01*
X026333Y014533D01*
X026612Y014812D01*
X026878Y015105D01*
X027129Y015409D01*
X027366Y015726D01*
X027587Y016053D01*
X027793Y016390D01*
X027982Y016737D01*
X028155Y017092D01*
X028310Y017455D01*
X028449Y017825D01*
X028569Y018202D01*
X028671Y018583D01*
X028755Y018969D01*
X028821Y019359D01*
X028867Y019751D01*
X028896Y020145D01*
X028905Y020540D01*
X029165Y020605D02*
X029155Y021009D01*
X029127Y021412D01*
X029079Y021814D01*
X029011Y022213D01*
X028926Y022608D01*
X028821Y022998D01*
X028698Y023383D01*
X028556Y023762D01*
X028397Y024134D01*
X028221Y024498D01*
X028027Y024852D01*
X027816Y025198D01*
X027590Y025533D01*
X027348Y025856D01*
X027090Y026168D01*
X026818Y026467D01*
X026532Y026753D01*
X026233Y027025D01*
X025921Y027283D01*
X025598Y027525D01*
X025263Y027751D01*
X024917Y027962D01*
X024563Y028156D01*
X024199Y028332D01*
X023827Y028492D01*
X023448Y028633D01*
X023063Y028756D01*
X022673Y028861D01*
X022278Y028946D01*
X021879Y029014D01*
X021477Y029062D01*
X021074Y029090D01*
X020670Y029100D01*
X020605Y031960D02*
X020068Y031947D01*
X019532Y031909D01*
X018998Y031845D01*
X018468Y031756D01*
X017943Y031642D01*
X017424Y031503D01*
X016912Y031339D01*
X016409Y031151D01*
X015915Y030940D01*
X015432Y030705D01*
X014960Y030447D01*
X014501Y030168D01*
X014056Y029867D01*
X013626Y029545D01*
X013212Y029202D01*
X012814Y028841D01*
X012434Y028461D01*
X012073Y028063D01*
X011730Y027649D01*
X011408Y027219D01*
X011107Y026774D01*
X010828Y026315D01*
X010570Y025843D01*
X010335Y025360D01*
X010124Y024866D01*
X009936Y024363D01*
X009772Y023851D01*
X009633Y023332D01*
X009519Y022807D01*
X009430Y022277D01*
X009366Y021743D01*
X009328Y021207D01*
X009315Y020670D01*
X006975Y020605D02*
X006990Y019960D01*
X007036Y019316D01*
X007113Y018675D01*
X007220Y018038D01*
X007357Y017407D01*
X007524Y016783D01*
X007721Y016168D01*
X007947Y015563D01*
X008201Y014970D01*
X008483Y014389D01*
X008792Y013823D01*
X009128Y013271D01*
X009490Y012737D01*
X009877Y012220D01*
X010288Y011722D01*
X010723Y011244D01*
X011179Y010788D01*
X011657Y010353D01*
X012155Y009942D01*
X012672Y009555D01*
X013206Y009193D01*
X013758Y008857D01*
X014324Y008548D01*
X014905Y008266D01*
X015498Y008012D01*
X016103Y007786D01*
X016718Y007589D01*
X017342Y007422D01*
X017973Y007285D01*
X018610Y007178D01*
X019251Y007101D01*
X019895Y007055D01*
X020540Y007040D01*
X020605Y013020D02*
X020963Y013029D01*
X021320Y013054D01*
X021675Y013097D01*
X022028Y013156D01*
X022378Y013232D01*
X022724Y013325D01*
X023065Y013434D01*
X023400Y013559D01*
X023729Y013700D01*
X024051Y013856D01*
X024365Y014027D01*
X024671Y014214D01*
X024967Y014414D01*
X025254Y014629D01*
X025530Y014857D01*
X025794Y015098D01*
X026047Y015351D01*
X026288Y015615D01*
X026516Y015891D01*
X026731Y016178D01*
X026931Y016474D01*
X027118Y016780D01*
X027289Y017094D01*
X027445Y017416D01*
X027586Y017745D01*
X027711Y018080D01*
X027820Y018421D01*
X027913Y018767D01*
X027989Y019117D01*
X028048Y019470D01*
X028091Y019825D01*
X028116Y020182D01*
X028125Y020540D01*
X028645Y020605D02*
X028636Y020984D01*
X028609Y021363D01*
X028564Y021740D01*
X028501Y022114D01*
X028420Y022485D01*
X028322Y022852D01*
X028206Y023213D01*
X028074Y023569D01*
X027924Y023918D01*
X027758Y024259D01*
X027577Y024592D01*
X027379Y024917D01*
X027166Y025231D01*
X026939Y025535D01*
X026697Y025828D01*
X026442Y026108D01*
X026173Y026377D01*
X025893Y026632D01*
X025600Y026874D01*
X025296Y027101D01*
X024982Y027314D01*
X024657Y027512D01*
X024324Y027693D01*
X023983Y027859D01*
X023634Y028009D01*
X023278Y028141D01*
X022917Y028257D01*
X022550Y028355D01*
X022179Y028436D01*
X021805Y028499D01*
X021428Y028544D01*
X021049Y028571D01*
X020670Y028580D01*
X020605Y038200D02*
X019745Y038179D01*
X018887Y038116D01*
X018033Y038010D01*
X017185Y037863D01*
X016346Y037675D01*
X015516Y037445D01*
X014699Y037175D01*
X013897Y036866D01*
X013110Y036517D01*
X012341Y036130D01*
X011593Y035706D01*
X010866Y035246D01*
X010162Y034750D01*
X009484Y034221D01*
X008833Y033659D01*
X008209Y033066D01*
X007616Y032442D01*
X007054Y031791D01*
X006525Y031113D01*
X006029Y030409D01*
X005569Y029682D01*
X005145Y028934D01*
X004758Y028165D01*
X004409Y027378D01*
X004100Y026576D01*
X003830Y025759D01*
X003600Y024929D01*
X003412Y024090D01*
X003265Y023242D01*
X003159Y022388D01*
X003096Y021530D01*
X003075Y020670D01*
X008015Y020605D02*
X008029Y020009D01*
X008072Y019415D01*
X008142Y018823D01*
X008241Y018235D01*
X008368Y017652D01*
X008522Y017076D01*
X008704Y016509D01*
X008912Y015950D01*
X009147Y015402D01*
X009407Y014866D01*
X009693Y014343D01*
X010003Y013834D01*
X010337Y013340D01*
X010695Y012863D01*
X011074Y012403D01*
X011475Y011962D01*
X011897Y011540D01*
X012338Y011139D01*
X012798Y010760D01*
X013275Y010402D01*
X013769Y010068D01*
X014278Y009758D01*
X014801Y009472D01*
X015337Y009212D01*
X015885Y008977D01*
X016444Y008769D01*
X017011Y008587D01*
X017587Y008433D01*
X018170Y008306D01*
X018758Y008207D01*
X019350Y008137D01*
X019944Y008094D01*
X020540Y008080D01*
X020605Y002360D02*
X021470Y002381D01*
X022333Y002442D01*
X023192Y002545D01*
X024046Y002689D01*
X024891Y002872D01*
X025727Y003096D01*
X026551Y003360D01*
X027362Y003662D01*
X028157Y004003D01*
X028936Y004381D01*
X029695Y004796D01*
X030434Y005246D01*
X031150Y005731D01*
X031843Y006250D01*
X032510Y006800D01*
X033151Y007383D01*
X033762Y007994D01*
X034345Y008635D01*
X034895Y009302D01*
X035414Y009995D01*
X035899Y010711D01*
X036349Y011450D01*
X036764Y012209D01*
X037142Y012988D01*
X037483Y013783D01*
X037785Y014594D01*
X038049Y015418D01*
X038273Y016254D01*
X038456Y017099D01*
X038600Y017953D01*
X038703Y018812D01*
X038764Y019675D01*
X038785Y020540D01*
X040345Y020605D02*
X040323Y021541D01*
X040256Y022475D01*
X040145Y023405D01*
X039989Y024328D01*
X039790Y025244D01*
X039548Y026148D01*
X039263Y027040D01*
X038936Y027917D01*
X038567Y028778D01*
X038158Y029621D01*
X037709Y030442D01*
X037222Y031242D01*
X036697Y032018D01*
X036136Y032767D01*
X035539Y033489D01*
X034909Y034182D01*
X034247Y034844D01*
X033554Y035474D01*
X032832Y036071D01*
X032083Y036632D01*
X031307Y037157D01*
X030507Y037644D01*
X029686Y038093D01*
X028843Y038502D01*
X027982Y038871D01*
X027105Y039198D01*
X026213Y039483D01*
X025309Y039725D01*
X024393Y039924D01*
X023470Y040080D01*
X022540Y040191D01*
X021606Y040258D01*
X020670Y040280D01*
X020605Y031180D02*
X020105Y031168D01*
X019606Y031132D01*
X019109Y031073D01*
X018616Y030990D01*
X018127Y030884D01*
X017644Y030754D01*
X017168Y030602D01*
X016699Y030427D01*
X016239Y030230D01*
X015789Y030012D01*
X015350Y029772D01*
X014923Y029512D01*
X014509Y029231D01*
X014108Y028931D01*
X013722Y028613D01*
X013352Y028276D01*
X012999Y027923D01*
X012662Y027553D01*
X012344Y027167D01*
X012044Y026766D01*
X011763Y026352D01*
X011503Y025925D01*
X011263Y025486D01*
X011045Y025036D01*
X010848Y024576D01*
X010673Y024107D01*
X010521Y023631D01*
X010391Y023148D01*
X010285Y022659D01*
X010202Y022166D01*
X010143Y021669D01*
X010107Y021170D01*
X010095Y020670D01*
X002035Y020605D02*
X002056Y019725D01*
X002119Y018846D01*
X002223Y017972D01*
X002369Y017103D01*
X002557Y016242D01*
X002785Y015392D01*
X003053Y014553D01*
X003361Y013727D01*
X003707Y012918D01*
X004092Y012126D01*
X004514Y011353D01*
X004973Y010600D01*
X005466Y009871D01*
X005994Y009166D01*
X006555Y008487D01*
X007147Y007835D01*
X007770Y007212D01*
X008422Y006620D01*
X009101Y006059D01*
X009806Y005531D01*
X010535Y005038D01*
X011288Y004579D01*
X012061Y004157D01*
X012853Y003772D01*
X013662Y003426D01*
X014488Y003118D01*
X015327Y002850D01*
X016177Y002622D01*
X017038Y002434D01*
X017907Y002288D01*
X018781Y002184D01*
X019660Y002121D01*
X020540Y002100D01*
X020605Y006000D02*
X021297Y006016D01*
X021987Y006066D01*
X022674Y006148D01*
X023357Y006263D01*
X024033Y006410D01*
X024701Y006589D01*
X025361Y006800D01*
X026009Y007042D01*
X026645Y007314D01*
X027268Y007616D01*
X027875Y007948D01*
X028466Y008308D01*
X029039Y008696D01*
X029593Y009111D01*
X030127Y009551D01*
X030639Y010017D01*
X031128Y010506D01*
X031594Y011018D01*
X032034Y011552D01*
X032449Y012106D01*
X032837Y012679D01*
X033197Y013270D01*
X033529Y013877D01*
X033831Y014500D01*
X034103Y015136D01*
X034345Y015784D01*
X034556Y016444D01*
X034735Y017112D01*
X034882Y017788D01*
X034997Y018471D01*
X035079Y019158D01*
X035129Y019848D01*
X035145Y020540D01*
X039305Y020605D02*
X039284Y021492D01*
X039221Y022376D01*
X039115Y023257D01*
X038968Y024132D01*
X038780Y024998D01*
X038550Y025855D01*
X038280Y026700D01*
X037970Y027531D01*
X037621Y028346D01*
X037233Y029144D01*
X036808Y029922D01*
X036347Y030680D01*
X035850Y031414D01*
X035318Y032124D01*
X034753Y032808D01*
X034157Y033465D01*
X033530Y034092D01*
X032873Y034688D01*
X032189Y035253D01*
X031479Y035785D01*
X030745Y036282D01*
X029987Y036743D01*
X029209Y037168D01*
X028411Y037556D01*
X027596Y037905D01*
X026765Y038215D01*
X025920Y038485D01*
X025063Y038715D01*
X024197Y038903D01*
X023322Y039050D01*
X022441Y039156D01*
X021557Y039219D01*
X020670Y039240D01*
X020605Y030920D02*
X020117Y030908D01*
X019631Y030874D01*
X019146Y030816D01*
X018665Y030735D01*
X018188Y030631D01*
X017717Y030505D01*
X017253Y030356D01*
X016795Y030186D01*
X016347Y029994D01*
X015908Y029781D01*
X015480Y029547D01*
X015063Y029293D01*
X014659Y029019D01*
X014269Y028727D01*
X013893Y028416D01*
X013532Y028088D01*
X013187Y027743D01*
X012859Y027382D01*
X012548Y027006D01*
X012256Y026616D01*
X011982Y026212D01*
X011728Y025795D01*
X011494Y025367D01*
X011281Y024928D01*
X011089Y024480D01*
X010919Y024022D01*
X010770Y023558D01*
X010644Y023087D01*
X010540Y022610D01*
X010459Y022129D01*
X010401Y021644D01*
X010367Y021158D01*
X010355Y020670D01*
X012175Y020605D02*
X012184Y020207D01*
X012213Y019810D01*
X012260Y019415D01*
X012326Y019022D01*
X012411Y018633D01*
X012514Y018248D01*
X012635Y017869D01*
X012774Y017496D01*
X012931Y017130D01*
X013105Y016772D01*
X013296Y016423D01*
X013503Y016083D01*
X013726Y015753D01*
X013965Y015434D01*
X014218Y015127D01*
X014486Y014833D01*
X014767Y014551D01*
X015062Y014283D01*
X015369Y014030D01*
X015688Y013791D01*
X016018Y013568D01*
X016358Y013361D01*
X016707Y013170D01*
X017065Y012996D01*
X017431Y012839D01*
X017804Y012700D01*
X018183Y012579D01*
X018568Y012476D01*
X018957Y012391D01*
X019350Y012325D01*
X019745Y012278D01*
X020142Y012249D01*
X020540Y012240D01*
X020605Y007040D02*
X021247Y007055D01*
X021888Y007101D01*
X022526Y007177D01*
X023160Y007284D01*
X023788Y007421D01*
X024408Y007587D01*
X025020Y007782D01*
X025622Y008007D01*
X026213Y008260D01*
X026791Y008541D01*
X027355Y008849D01*
X027904Y009183D01*
X028436Y009543D01*
X028950Y009928D01*
X029446Y010337D01*
X029921Y010770D01*
X030375Y011224D01*
X030808Y011699D01*
X031217Y012195D01*
X031602Y012709D01*
X031962Y013241D01*
X032296Y013790D01*
X032604Y014354D01*
X032885Y014932D01*
X033138Y015523D01*
X033363Y016125D01*
X033558Y016737D01*
X033724Y017357D01*
X033861Y017985D01*
X033968Y018619D01*
X034044Y019257D01*
X034090Y019898D01*
X034105Y020540D01*
X038785Y020605D02*
X038764Y021467D01*
X038703Y022327D01*
X038601Y023183D01*
X038458Y024033D01*
X038274Y024876D01*
X038051Y025709D01*
X037789Y026530D01*
X037487Y027338D01*
X037148Y028130D01*
X036771Y028906D01*
X036358Y029662D01*
X035909Y030399D01*
X035426Y031113D01*
X034909Y031803D01*
X034360Y032468D01*
X033780Y033106D01*
X033171Y033715D01*
X032533Y034295D01*
X031868Y034844D01*
X031178Y035361D01*
X030464Y035844D01*
X029727Y036293D01*
X028971Y036706D01*
X028195Y037083D01*
X027403Y037422D01*
X026595Y037724D01*
X025774Y037986D01*
X024941Y038209D01*
X024098Y038393D01*
X023248Y038536D01*
X022392Y038638D01*
X021532Y038699D01*
X020670Y038720D01*
X020605Y030400D02*
X020142Y030389D01*
X019680Y030356D01*
X019220Y030301D01*
X018764Y030224D01*
X018311Y030126D01*
X017864Y030006D01*
X017423Y029865D01*
X016989Y029703D01*
X016563Y029521D01*
X016146Y029318D01*
X015740Y029096D01*
X015345Y028855D01*
X014961Y028596D01*
X014590Y028318D01*
X014233Y028023D01*
X013891Y027712D01*
X013563Y027384D01*
X013252Y027042D01*
X012957Y026685D01*
X012679Y026314D01*
X012420Y025930D01*
X012179Y025535D01*
X011957Y025129D01*
X011754Y024712D01*
X011572Y024286D01*
X011410Y023852D01*
X011269Y023411D01*
X011149Y022964D01*
X011051Y022511D01*
X010974Y022055D01*
X010919Y021595D01*
X010886Y021133D01*
X010875Y020670D01*
X008795Y020605D02*
X008808Y020046D01*
X008848Y019489D01*
X008915Y018934D01*
X009007Y018382D01*
X009126Y017836D01*
X009271Y017296D01*
X009441Y016764D01*
X009636Y016240D01*
X009856Y015726D01*
X010101Y015223D01*
X010369Y014733D01*
X010659Y014255D01*
X010973Y013792D01*
X011308Y013345D01*
X011664Y012914D01*
X012040Y012500D01*
X012435Y012105D01*
X012849Y011729D01*
X013280Y011373D01*
X013727Y011038D01*
X014190Y010724D01*
X014668Y010434D01*
X015158Y010166D01*
X015661Y009921D01*
X016175Y009701D01*
X016699Y009506D01*
X017231Y009336D01*
X017771Y009191D01*
X018317Y009072D01*
X018869Y008980D01*
X019424Y008913D01*
X019981Y008873D01*
X020540Y008860D01*
X020605Y007560D02*
X021223Y007575D01*
X021839Y007619D01*
X022452Y007692D01*
X023061Y007795D01*
X023665Y007926D01*
X024262Y008086D01*
X024850Y008274D01*
X025429Y008490D01*
X025997Y008733D01*
X026553Y009003D01*
X027095Y009299D01*
X027622Y009621D01*
X028134Y009967D01*
X028629Y010337D01*
X029105Y010730D01*
X029562Y011146D01*
X029999Y011583D01*
X030415Y012040D01*
X030808Y012516D01*
X031178Y013011D01*
X031524Y013522D01*
X031846Y014050D01*
X032142Y014592D01*
X032412Y015148D01*
X032655Y015716D01*
X032871Y016295D01*
X033059Y016883D01*
X033219Y017480D01*
X033350Y018084D01*
X033453Y018693D01*
X033526Y019306D01*
X033570Y019922D01*
X033585Y020540D01*
X038265Y020605D02*
X038245Y021442D01*
X038185Y022277D01*
X038086Y023109D01*
X037947Y023935D01*
X037769Y024753D01*
X037552Y025562D01*
X037297Y026360D01*
X037005Y027144D01*
X036675Y027914D01*
X036309Y028667D01*
X035908Y029402D01*
X035472Y030118D01*
X035002Y030811D01*
X034501Y031482D01*
X033967Y032127D01*
X033404Y032747D01*
X032812Y033339D01*
X032192Y033902D01*
X031547Y034436D01*
X030876Y034937D01*
X030183Y035407D01*
X029467Y035843D01*
X028732Y036244D01*
X027979Y036610D01*
X027209Y036940D01*
X026425Y037232D01*
X025627Y037487D01*
X024818Y037704D01*
X024000Y037882D01*
X023174Y038021D01*
X022342Y038120D01*
X021507Y038180D01*
X020670Y038200D01*
X020605Y030140D02*
X020154Y030129D01*
X019705Y030097D01*
X019257Y030044D01*
X018813Y029969D01*
X018372Y029873D01*
X017937Y029756D01*
X017508Y029619D01*
X017085Y029462D01*
X016671Y029284D01*
X016266Y029087D01*
X015870Y028871D01*
X015485Y028637D01*
X015112Y028384D01*
X014751Y028114D01*
X014403Y027827D01*
X014070Y027524D01*
X013751Y027205D01*
X013448Y026872D01*
X013161Y026524D01*
X012891Y026163D01*
X012638Y025790D01*
X012404Y025405D01*
X012188Y025009D01*
X011991Y024604D01*
X011813Y024190D01*
X011656Y023767D01*
X011519Y023338D01*
X011402Y022903D01*
X011306Y022462D01*
X011231Y022018D01*
X011178Y021570D01*
X011146Y021121D01*
X011135Y020670D01*
X011915Y020605D02*
X011925Y020195D01*
X011954Y019785D01*
X012003Y019378D01*
X012071Y018973D01*
X012158Y018572D01*
X012264Y018175D01*
X012389Y017784D01*
X012533Y017399D01*
X012694Y017022D01*
X012874Y016653D01*
X013071Y016293D01*
X013284Y015942D01*
X013514Y015602D01*
X013760Y015273D01*
X014022Y014957D01*
X014298Y014653D01*
X014588Y014363D01*
X014892Y014087D01*
X015208Y013825D01*
X015537Y013579D01*
X015877Y013349D01*
X016228Y013136D01*
X016588Y012939D01*
X016957Y012759D01*
X017334Y012598D01*
X017719Y012454D01*
X018110Y012329D01*
X018507Y012223D01*
X018908Y012136D01*
X019313Y012068D01*
X019720Y012019D01*
X020130Y011990D01*
X020540Y011980D01*
X020605Y008080D02*
X021198Y008094D01*
X021789Y008136D01*
X022378Y008207D01*
X022963Y008305D01*
X023543Y008431D01*
X024115Y008585D01*
X024680Y008765D01*
X025236Y008973D01*
X025781Y009206D01*
X026315Y009465D01*
X026835Y009749D01*
X027341Y010058D01*
X027833Y010390D01*
X028307Y010746D01*
X028765Y011123D01*
X029203Y011522D01*
X029623Y011942D01*
X030022Y012380D01*
X030399Y012838D01*
X030755Y013313D01*
X031087Y013804D01*
X031396Y014310D01*
X031680Y014831D01*
X031939Y015364D01*
X032172Y015909D01*
X032380Y016465D01*
X032560Y017030D01*
X032714Y017602D01*
X032840Y018182D01*
X032938Y018767D01*
X033009Y019356D01*
X033051Y019947D01*
X033065Y020540D01*
X038005Y020605D02*
X037985Y021430D01*
X037927Y022253D01*
X037829Y023072D01*
X037692Y023886D01*
X037516Y024692D01*
X037303Y025489D01*
X037052Y026275D01*
X036763Y027048D01*
X036438Y027806D01*
X036078Y028548D01*
X035683Y029273D01*
X035253Y029977D01*
X034791Y030660D01*
X034296Y031321D01*
X033771Y031957D01*
X033216Y032568D01*
X032633Y033151D01*
X032022Y033706D01*
X031386Y034231D01*
X030725Y034726D01*
X030042Y035188D01*
X029337Y035618D01*
X028613Y036013D01*
X027871Y036373D01*
X027113Y036698D01*
X026340Y036987D01*
X025554Y037238D01*
X024757Y037451D01*
X023951Y037627D01*
X023137Y037764D01*
X022318Y037862D01*
X021495Y037920D01*
X020670Y037940D01*
X020605Y029880D02*
X020167Y029870D01*
X019730Y029838D01*
X019294Y029786D01*
X018862Y029714D01*
X018434Y029620D01*
X018010Y029507D01*
X017593Y029373D01*
X017182Y029220D01*
X016779Y029048D01*
X016385Y028856D01*
X016000Y028646D01*
X015626Y028418D01*
X015263Y028172D01*
X014912Y027910D01*
X014574Y027630D01*
X014249Y027336D01*
X013939Y027026D01*
X013645Y026701D01*
X013365Y026363D01*
X013103Y026012D01*
X012857Y025649D01*
X012629Y025275D01*
X012419Y024890D01*
X012227Y024496D01*
X012055Y024093D01*
X011902Y023682D01*
X011768Y023265D01*
X011655Y022841D01*
X011561Y022413D01*
X011489Y021981D01*
X011437Y021545D01*
X011405Y021108D01*
X011395Y020670D01*
X000995Y020605D02*
X001017Y019675D01*
X001083Y018747D01*
X001194Y017824D01*
X001348Y016906D01*
X001546Y015997D01*
X001787Y015099D01*
X002070Y014212D01*
X002395Y013341D01*
X002761Y012486D01*
X003168Y011649D01*
X003614Y010833D01*
X004098Y010038D01*
X004619Y009268D01*
X005177Y008523D01*
X005769Y007806D01*
X006395Y007117D01*
X007052Y006460D01*
X007741Y005834D01*
X008458Y005242D01*
X009203Y004684D01*
X009973Y004163D01*
X010768Y003679D01*
X011584Y003233D01*
X012421Y002826D01*
X013276Y002460D01*
X014147Y002135D01*
X015034Y001852D01*
X015932Y001611D01*
X016841Y001413D01*
X017759Y001259D01*
X018682Y001148D01*
X019610Y001082D01*
X020540Y001060D01*
X020605Y009120D02*
X021148Y009133D01*
X021691Y009172D01*
X022230Y009236D01*
X022766Y009326D01*
X023297Y009442D01*
X023822Y009583D01*
X024340Y009748D01*
X024849Y009938D01*
X025349Y010152D01*
X025838Y010389D01*
X026315Y010650D01*
X026779Y010933D01*
X027229Y011238D01*
X027664Y011563D01*
X028084Y011909D01*
X028486Y012275D01*
X028870Y012659D01*
X029236Y013061D01*
X029582Y013481D01*
X029907Y013916D01*
X030212Y014366D01*
X030495Y014830D01*
X030756Y015307D01*
X030993Y015796D01*
X031207Y016296D01*
X031397Y016805D01*
X031562Y017323D01*
X031703Y017848D01*
X031819Y018379D01*
X031909Y018915D01*
X031973Y019454D01*
X032012Y019997D01*
X032025Y020540D01*
X034885Y020605D02*
X034869Y021281D01*
X034821Y021956D01*
X034740Y022628D01*
X034628Y023295D01*
X034484Y023956D01*
X034309Y024610D01*
X034103Y025254D01*
X033867Y025888D01*
X033600Y026510D01*
X033305Y027119D01*
X032981Y027712D01*
X032628Y028290D01*
X032249Y028851D01*
X031844Y029392D01*
X031413Y029914D01*
X030958Y030414D01*
X030479Y030893D01*
X029979Y031348D01*
X029457Y031779D01*
X028916Y032184D01*
X028355Y032563D01*
X027777Y032916D01*
X027184Y033240D01*
X026575Y033535D01*
X025953Y033802D01*
X025319Y034038D01*
X024675Y034244D01*
X024021Y034419D01*
X023360Y034563D01*
X022693Y034675D01*
X022021Y034756D01*
X021346Y034804D01*
X020670Y034820D01*
X020605Y029100D02*
X020191Y029090D01*
X019779Y029059D01*
X019368Y029009D01*
X018960Y028938D01*
X018557Y028847D01*
X018158Y028737D01*
X017765Y028607D01*
X017379Y028458D01*
X017001Y028291D01*
X016631Y028105D01*
X016271Y027901D01*
X015922Y027679D01*
X015583Y027441D01*
X015257Y027186D01*
X014944Y026916D01*
X014644Y026631D01*
X014359Y026331D01*
X014089Y026018D01*
X013834Y025692D01*
X013596Y025353D01*
X013374Y025004D01*
X013170Y024644D01*
X012984Y024274D01*
X012817Y023896D01*
X012668Y023510D01*
X012538Y023117D01*
X012428Y022718D01*
X012337Y022315D01*
X012266Y021907D01*
X012216Y021496D01*
X012185Y021084D01*
X012175Y020670D01*
X002555Y020605D02*
X002575Y019749D01*
X002636Y018895D01*
X002738Y018046D01*
X002880Y017201D01*
X003062Y016365D01*
X003284Y015538D01*
X003544Y014723D01*
X003843Y013921D01*
X004180Y013134D01*
X004554Y012364D01*
X004965Y011613D01*
X005410Y010882D01*
X005890Y010173D01*
X006403Y009487D01*
X006948Y008827D01*
X007524Y008194D01*
X008129Y007589D01*
X008762Y007013D01*
X009422Y006468D01*
X010108Y005955D01*
X010817Y005475D01*
X011548Y005030D01*
X012299Y004619D01*
X013069Y004245D01*
X013856Y003908D01*
X014658Y003609D01*
X015473Y003349D01*
X016300Y003127D01*
X017136Y002945D01*
X017981Y002803D01*
X018830Y002701D01*
X019684Y002640D01*
X020540Y002620D01*
X020605Y009380D02*
X021136Y009393D01*
X021666Y009431D01*
X022193Y009494D01*
X022717Y009582D01*
X023236Y009695D01*
X023749Y009832D01*
X024255Y009994D01*
X024753Y010179D01*
X025241Y010388D01*
X025719Y010621D01*
X026185Y010875D01*
X026639Y011152D01*
X027078Y011449D01*
X027504Y011768D01*
X027913Y012106D01*
X028306Y012463D01*
X028682Y012839D01*
X029039Y013232D01*
X029377Y013641D01*
X029696Y014067D01*
X029993Y014506D01*
X030270Y014960D01*
X030524Y015426D01*
X030757Y015904D01*
X030966Y016392D01*
X031151Y016890D01*
X031313Y017396D01*
X031450Y017909D01*
X031563Y018428D01*
X031651Y018952D01*
X031714Y019479D01*
X031752Y020009D01*
X031765Y020540D01*
X034365Y020605D02*
X034349Y021257D01*
X034303Y021907D01*
X034226Y022554D01*
X034118Y023197D01*
X033979Y023834D01*
X033810Y024463D01*
X033612Y025084D01*
X033384Y025695D01*
X033127Y026294D01*
X032843Y026880D01*
X032530Y027452D01*
X032191Y028009D01*
X031826Y028549D01*
X031435Y029071D01*
X031020Y029573D01*
X030582Y030056D01*
X030121Y030517D01*
X029638Y030955D01*
X029136Y031370D01*
X028614Y031761D01*
X028074Y032126D01*
X027517Y032465D01*
X026945Y032778D01*
X026359Y033062D01*
X025760Y033319D01*
X025149Y033547D01*
X024528Y033745D01*
X023899Y033914D01*
X023262Y034053D01*
X022619Y034161D01*
X021972Y034238D01*
X021322Y034284D01*
X020670Y034300D01*
X020605Y036120D02*
X019870Y036103D01*
X019136Y036050D01*
X018406Y035963D01*
X017681Y035841D01*
X016963Y035684D01*
X016252Y035494D01*
X015552Y035270D01*
X014863Y035013D01*
X014187Y034724D01*
X013525Y034403D01*
X012880Y034050D01*
X012252Y033667D01*
X011643Y033255D01*
X011054Y032815D01*
X010487Y032346D01*
X009943Y031852D01*
X009423Y031332D01*
X008929Y030788D01*
X008460Y030221D01*
X008020Y029632D01*
X007608Y029023D01*
X007225Y028395D01*
X006872Y027750D01*
X006551Y027088D01*
X006262Y026412D01*
X006005Y025723D01*
X005781Y025023D01*
X005591Y024312D01*
X005434Y023594D01*
X005312Y022869D01*
X005225Y022139D01*
X005172Y021405D01*
X005155Y020670D01*
X010355Y020605D02*
X010367Y020120D01*
X010401Y019637D01*
X010459Y019156D01*
X010539Y018678D01*
X010642Y018204D01*
X010768Y017736D01*
X010915Y017274D01*
X011085Y016820D01*
X011275Y016374D01*
X011487Y015938D01*
X011720Y015513D01*
X011972Y015099D01*
X012244Y014697D01*
X012534Y014309D01*
X012843Y013935D01*
X013169Y013577D01*
X013512Y013234D01*
X013870Y012908D01*
X014244Y012599D01*
X014632Y012309D01*
X015034Y012037D01*
X015448Y011785D01*
X015873Y011552D01*
X016309Y011340D01*
X016755Y011150D01*
X017209Y010980D01*
X017671Y010833D01*
X018139Y010707D01*
X018613Y010604D01*
X019091Y010524D01*
X019572Y010466D01*
X020055Y010432D01*
X020540Y010420D01*
X020605Y011200D02*
X021049Y011211D01*
X021493Y011242D01*
X021934Y011295D01*
X022373Y011369D01*
X022807Y011463D01*
X023236Y011578D01*
X023660Y011714D01*
X024076Y011869D01*
X024485Y012044D01*
X024885Y012238D01*
X025275Y012451D01*
X025655Y012683D01*
X026023Y012932D01*
X026379Y013198D01*
X026721Y013481D01*
X027050Y013780D01*
X027365Y014095D01*
X027664Y014424D01*
X027947Y014766D01*
X028213Y015122D01*
X028462Y015490D01*
X028694Y015870D01*
X028907Y016260D01*
X029101Y016660D01*
X029276Y017069D01*
X029431Y017485D01*
X029567Y017909D01*
X029682Y018338D01*
X029776Y018772D01*
X029850Y019211D01*
X029903Y019652D01*
X029934Y020096D01*
X029945Y020540D01*
X033845Y020605D02*
X033830Y021232D01*
X033785Y021857D01*
X033711Y022480D01*
X033607Y023098D01*
X033474Y023711D01*
X033311Y024317D01*
X033120Y024914D01*
X032901Y025502D01*
X032654Y026078D01*
X032380Y026642D01*
X032080Y027192D01*
X031754Y027728D01*
X031402Y028247D01*
X031026Y028749D01*
X030627Y029233D01*
X030205Y029697D01*
X029762Y030140D01*
X029298Y030562D01*
X028814Y030961D01*
X028312Y031337D01*
X027793Y031689D01*
X027257Y032015D01*
X026707Y032315D01*
X026143Y032589D01*
X025567Y032836D01*
X024979Y033055D01*
X024382Y033246D01*
X023776Y033409D01*
X023163Y033542D01*
X022545Y033646D01*
X021922Y033720D01*
X021297Y033765D01*
X020670Y033780D01*
X020605Y033780D02*
X019981Y033765D01*
X019359Y033721D01*
X018739Y033647D01*
X018124Y033543D01*
X017514Y033410D01*
X016912Y033249D01*
X016317Y033059D01*
X015733Y032841D01*
X015159Y032595D01*
X014598Y032323D01*
X014050Y032024D01*
X013517Y031699D01*
X013000Y031349D01*
X012501Y030975D01*
X012020Y030578D01*
X011558Y030158D01*
X011117Y029717D01*
X010697Y029255D01*
X010300Y028774D01*
X009926Y028275D01*
X009576Y027758D01*
X009251Y027225D01*
X008952Y026677D01*
X008680Y026116D01*
X008434Y025543D01*
X008216Y024958D01*
X008026Y024364D01*
X007865Y023761D01*
X007732Y023151D01*
X007628Y022536D01*
X007554Y021916D01*
X007510Y021294D01*
X007495Y020670D01*
X011655Y020605D02*
X011665Y020182D01*
X011695Y019760D01*
X011745Y019341D01*
X011816Y018924D01*
X011905Y018510D01*
X012015Y018102D01*
X012144Y017699D01*
X012291Y017303D01*
X012458Y016914D01*
X012643Y016534D01*
X012845Y016163D01*
X013065Y015801D01*
X013302Y015451D01*
X013556Y015113D01*
X013825Y014787D01*
X014110Y014474D01*
X014409Y014175D01*
X014722Y013890D01*
X015048Y013621D01*
X015386Y013367D01*
X015736Y013130D01*
X016098Y012910D01*
X016469Y012708D01*
X016849Y012523D01*
X017238Y012356D01*
X017634Y012209D01*
X018037Y012080D01*
X018445Y011970D01*
X018859Y011881D01*
X019276Y011810D01*
X019695Y011760D01*
X020117Y011730D01*
X020540Y011720D01*
X020605Y013280D02*
X020950Y013288D01*
X021295Y013313D01*
X021638Y013354D01*
X021979Y013411D01*
X022317Y013485D01*
X022650Y013574D01*
X022979Y013679D01*
X023303Y013800D01*
X023621Y013936D01*
X023932Y014087D01*
X024235Y014253D01*
X024530Y014432D01*
X024816Y014626D01*
X025093Y014833D01*
X025359Y015053D01*
X025615Y015286D01*
X025859Y015530D01*
X026092Y015786D01*
X026312Y016052D01*
X026519Y016329D01*
X026713Y016615D01*
X026892Y016910D01*
X027058Y017213D01*
X027209Y017524D01*
X027345Y017842D01*
X027466Y018166D01*
X027571Y018495D01*
X027660Y018828D01*
X027734Y019166D01*
X027791Y019507D01*
X027832Y019850D01*
X027857Y020195D01*
X027865Y020540D01*
X039045Y020605D02*
X039024Y021479D01*
X038962Y022352D01*
X038858Y023220D01*
X038713Y024083D01*
X038527Y024937D01*
X038301Y025782D01*
X038034Y026615D01*
X037729Y027434D01*
X037384Y028238D01*
X037002Y029025D01*
X036583Y029793D01*
X036128Y030539D01*
X035638Y031264D01*
X035114Y031964D01*
X034557Y032638D01*
X033969Y033285D01*
X033350Y033904D01*
X032703Y034492D01*
X032029Y035049D01*
X031329Y035573D01*
X030604Y036063D01*
X029857Y036518D01*
X029090Y036937D01*
X028303Y037319D01*
X027499Y037664D01*
X026680Y037969D01*
X025847Y038236D01*
X025002Y038462D01*
X024147Y038648D01*
X023285Y038793D01*
X022417Y038897D01*
X021544Y038959D01*
X020670Y038980D01*
X020605Y032220D02*
X020055Y032207D01*
X019507Y032168D01*
X018961Y032102D01*
X018419Y032011D01*
X017882Y031894D01*
X017351Y031752D01*
X016827Y031585D01*
X016312Y031393D01*
X015807Y031176D01*
X015313Y030936D01*
X014830Y030673D01*
X014361Y030386D01*
X013905Y030078D01*
X013465Y029749D01*
X013041Y029399D01*
X012635Y029029D01*
X012246Y028640D01*
X011876Y028234D01*
X011526Y027810D01*
X011197Y027370D01*
X010889Y026914D01*
X010602Y026445D01*
X010339Y025963D01*
X010099Y025468D01*
X009882Y024963D01*
X009690Y024448D01*
X009523Y023924D01*
X009381Y023393D01*
X009264Y022856D01*
X009173Y022314D01*
X009107Y021768D01*
X009068Y021220D01*
X009055Y020670D01*
X002295Y020605D02*
X002316Y019737D01*
X002378Y018871D01*
X002481Y018009D01*
X002625Y017152D01*
X002809Y016304D01*
X003034Y015465D01*
X003298Y014638D01*
X003602Y013824D01*
X003944Y013026D01*
X004323Y012245D01*
X004739Y011483D01*
X005191Y010741D01*
X005678Y010022D01*
X006198Y009327D01*
X006751Y008657D01*
X007335Y008014D01*
X007950Y007400D01*
X008592Y006816D01*
X009262Y006263D01*
X009957Y005743D01*
X010676Y005256D01*
X011418Y004804D01*
X012180Y004388D01*
X012961Y004009D01*
X013759Y003667D01*
X014573Y003363D01*
X015400Y003099D01*
X016239Y002874D01*
X017087Y002690D01*
X017944Y002546D01*
X018806Y002443D01*
X019672Y002381D01*
X020540Y002360D01*
X020605Y009900D02*
X021111Y009912D01*
X021616Y009948D01*
X022119Y010008D01*
X022619Y010092D01*
X023113Y010200D01*
X023603Y010331D01*
X024085Y010485D01*
X024559Y010662D01*
X025025Y010861D01*
X025480Y011083D01*
X025925Y011325D01*
X026357Y011589D01*
X026777Y011873D01*
X027182Y012176D01*
X027573Y012499D01*
X027947Y012839D01*
X028306Y013198D01*
X028646Y013572D01*
X028969Y013963D01*
X029272Y014368D01*
X029556Y014788D01*
X029820Y015220D01*
X030062Y015664D01*
X030283Y016120D01*
X030483Y016586D01*
X030660Y017060D01*
X030814Y017542D01*
X030945Y018032D01*
X031053Y018526D01*
X031137Y019026D01*
X031197Y019529D01*
X031233Y020034D01*
X031245Y020540D01*
X031245Y020605D02*
X031232Y021124D01*
X031194Y021642D01*
X031131Y022157D01*
X031042Y022668D01*
X030928Y023175D01*
X030790Y023675D01*
X030627Y024168D01*
X030440Y024652D01*
X030230Y025126D01*
X029996Y025590D01*
X029740Y026042D01*
X029463Y026480D01*
X029164Y026905D01*
X028845Y027314D01*
X028506Y027707D01*
X028148Y028083D01*
X027772Y028441D01*
X027379Y028780D01*
X026970Y029099D01*
X026545Y029398D01*
X026107Y029675D01*
X025655Y029931D01*
X025191Y030165D01*
X024717Y030375D01*
X024233Y030562D01*
X023740Y030725D01*
X023239Y030863D01*
X022733Y030977D01*
X022222Y031066D01*
X021707Y031129D01*
X021189Y031167D01*
X020670Y031180D01*
X020605Y031440D02*
X020093Y031428D01*
X019581Y031391D01*
X019072Y031330D01*
X018567Y031245D01*
X018066Y031136D01*
X017571Y031004D01*
X017083Y030848D01*
X016602Y030669D01*
X016131Y030467D01*
X015670Y030243D01*
X015220Y029997D01*
X014782Y029730D01*
X014358Y029443D01*
X013947Y029136D01*
X013552Y028809D01*
X013173Y028465D01*
X012810Y028102D01*
X012466Y027723D01*
X012139Y027328D01*
X011832Y026917D01*
X011545Y026493D01*
X011278Y026055D01*
X011032Y025605D01*
X010808Y025144D01*
X010606Y024673D01*
X010427Y024193D01*
X010271Y023704D01*
X010139Y023209D01*
X010030Y022708D01*
X009945Y022203D01*
X009884Y021694D01*
X009847Y021182D01*
X009835Y020670D01*
X006195Y020605D02*
X006211Y019923D01*
X006260Y019241D01*
X006341Y018564D01*
X006454Y017890D01*
X006599Y017223D01*
X006776Y016564D01*
X006984Y015913D01*
X007223Y015274D01*
X007491Y014646D01*
X007790Y014032D01*
X008117Y013433D01*
X008472Y012850D01*
X008855Y012284D01*
X009264Y011738D01*
X009699Y011211D01*
X010158Y010706D01*
X010641Y010223D01*
X011146Y009764D01*
X011673Y009329D01*
X012219Y008920D01*
X012785Y008537D01*
X013368Y008182D01*
X013967Y007855D01*
X014581Y007556D01*
X015209Y007288D01*
X015848Y007049D01*
X016499Y006841D01*
X017158Y006664D01*
X017825Y006519D01*
X018499Y006406D01*
X019177Y006325D01*
X019858Y006276D01*
X020540Y006260D01*
X020605Y004440D02*
X021395Y004459D01*
X022183Y004518D01*
X022967Y004614D01*
X023746Y004749D01*
X024517Y004923D01*
X025279Y005133D01*
X026029Y005381D01*
X026766Y005666D01*
X027489Y005986D01*
X028195Y006341D01*
X028882Y006731D01*
X029550Y007153D01*
X030196Y007608D01*
X030819Y008095D01*
X031417Y008611D01*
X031989Y009156D01*
X032534Y009728D01*
X033050Y010326D01*
X033537Y010949D01*
X033992Y011595D01*
X034414Y012263D01*
X034804Y012951D01*
X035159Y013656D01*
X035479Y014379D01*
X035764Y015116D01*
X036012Y015866D01*
X036223Y016628D01*
X036396Y017399D01*
X036531Y018178D01*
X036627Y018962D01*
X036686Y019750D01*
X036705Y020540D01*
X029685Y020605D02*
X029675Y021034D01*
X029644Y021462D01*
X029593Y021888D01*
X029522Y022311D01*
X029431Y022730D01*
X029320Y023145D01*
X029189Y023553D01*
X029039Y023956D01*
X028870Y024350D01*
X028683Y024736D01*
X028477Y025112D01*
X028254Y025479D01*
X028013Y025834D01*
X027756Y026178D01*
X027483Y026509D01*
X027194Y026826D01*
X026891Y027129D01*
X026574Y027418D01*
X026243Y027691D01*
X025899Y027948D01*
X025544Y028189D01*
X025178Y028412D01*
X024801Y028618D01*
X024415Y028805D01*
X024021Y028974D01*
X023619Y029124D01*
X023210Y029255D01*
X022795Y029366D01*
X022376Y029457D01*
X021953Y029528D01*
X021527Y029579D01*
X021099Y029610D01*
X020670Y029620D01*
X020605Y031700D02*
X020080Y031688D01*
X019557Y031650D01*
X019035Y031588D01*
X018518Y031501D01*
X018005Y031389D01*
X017497Y031253D01*
X016997Y031093D01*
X016506Y030910D01*
X016023Y030703D01*
X015551Y030474D01*
X015090Y030222D01*
X014642Y029949D01*
X014207Y029655D01*
X013787Y029340D01*
X013382Y029006D01*
X012993Y028653D01*
X012622Y028282D01*
X012269Y027893D01*
X011935Y027488D01*
X011620Y027068D01*
X011326Y026633D01*
X011053Y026185D01*
X010801Y025724D01*
X010572Y025252D01*
X010365Y024769D01*
X010182Y024278D01*
X010022Y023777D01*
X009886Y023270D01*
X009774Y022757D01*
X009687Y022240D01*
X009625Y021718D01*
X009587Y021195D01*
X009575Y020670D01*
X010875Y020605D02*
X010886Y020145D01*
X010919Y019686D01*
X010973Y019230D01*
X011050Y018776D01*
X011147Y018326D01*
X011266Y017882D01*
X011407Y017444D01*
X011567Y017013D01*
X011748Y016590D01*
X011949Y016176D01*
X012170Y015772D01*
X012409Y015380D01*
X012667Y014999D01*
X012943Y014630D01*
X013236Y014276D01*
X013545Y013935D01*
X013870Y013610D01*
X014211Y013301D01*
X014566Y013008D01*
X014934Y012732D01*
X015315Y012474D01*
X015708Y012235D01*
X016111Y012014D01*
X016525Y011813D01*
X016948Y011632D01*
X017379Y011472D01*
X017817Y011331D01*
X018261Y011212D01*
X018711Y011115D01*
X019165Y011038D01*
X019621Y010984D01*
X020080Y010951D01*
X020540Y010940D01*
X020605Y012500D02*
X020988Y012509D01*
X021369Y012536D01*
X021749Y012582D01*
X022127Y012645D01*
X022501Y012727D01*
X022870Y012826D01*
X023235Y012942D01*
X023593Y013076D01*
X023945Y013227D01*
X024289Y013394D01*
X024625Y013577D01*
X024952Y013776D01*
X025269Y013991D01*
X025575Y014220D01*
X025870Y014464D01*
X026153Y014721D01*
X026424Y014992D01*
X026681Y015275D01*
X026925Y015570D01*
X027154Y015876D01*
X027369Y016193D01*
X027568Y016520D01*
X027751Y016856D01*
X027918Y017200D01*
X028069Y017552D01*
X028203Y017910D01*
X028319Y018275D01*
X028418Y018645D01*
X028500Y019018D01*
X028563Y019396D01*
X028609Y019776D01*
X028636Y020157D01*
X028645Y020540D01*
X036705Y020605D02*
X036687Y021368D01*
X036632Y022129D01*
X036542Y022887D01*
X036415Y023640D01*
X036253Y024385D01*
X036055Y025123D01*
X035823Y025850D01*
X035556Y026565D01*
X035256Y027266D01*
X034922Y027953D01*
X034557Y028623D01*
X034160Y029274D01*
X033732Y029906D01*
X033274Y030517D01*
X032788Y031106D01*
X032275Y031670D01*
X031735Y032210D01*
X031171Y032723D01*
X030582Y033209D01*
X029971Y033667D01*
X029339Y034095D01*
X028687Y034492D01*
X028018Y034857D01*
X027331Y035191D01*
X026630Y035491D01*
X025915Y035758D01*
X025188Y035990D01*
X024450Y036188D01*
X023705Y036350D01*
X022952Y036477D01*
X022194Y036567D01*
X021433Y036622D01*
X020670Y036640D01*
X020605Y040280D02*
X019643Y040256D01*
X018683Y040186D01*
X017728Y040068D01*
X016779Y039903D01*
X015840Y039692D01*
X014912Y039436D01*
X013999Y039134D01*
X013101Y038787D01*
X012221Y038397D01*
X011361Y037964D01*
X010523Y037490D01*
X009710Y036975D01*
X008923Y036421D01*
X008165Y035829D01*
X007436Y035200D01*
X006739Y034536D01*
X006075Y033839D01*
X005446Y033110D01*
X004854Y032352D01*
X004300Y031565D01*
X003785Y030752D01*
X003311Y029914D01*
X002878Y029054D01*
X002488Y028174D01*
X002141Y027276D01*
X001839Y026363D01*
X001583Y025435D01*
X001372Y024496D01*
X001207Y023547D01*
X001089Y022592D01*
X001019Y021632D01*
X000995Y020670D01*
X011395Y020605D02*
X011405Y020170D01*
X011436Y019736D01*
X011488Y019304D01*
X011560Y018874D01*
X011653Y018449D01*
X011765Y018029D01*
X011898Y017614D01*
X012050Y017206D01*
X012221Y016806D01*
X012412Y016415D01*
X012620Y016033D01*
X012847Y015661D01*
X013091Y015300D01*
X013352Y014952D01*
X013629Y014616D01*
X013921Y014294D01*
X014229Y013986D01*
X014551Y013694D01*
X014887Y013417D01*
X015235Y013156D01*
X015596Y012912D01*
X015968Y012685D01*
X016350Y012477D01*
X016741Y012286D01*
X017141Y012115D01*
X017549Y011963D01*
X017964Y011830D01*
X018384Y011718D01*
X018809Y011625D01*
X019239Y011553D01*
X019671Y011501D01*
X020105Y011470D01*
X020540Y011460D01*
X020605Y000800D02*
X021544Y000822D01*
X022481Y000889D01*
X023414Y001001D01*
X024341Y001157D01*
X025259Y001356D01*
X026166Y001600D01*
X027061Y001886D01*
X027942Y002214D01*
X028805Y002584D01*
X029650Y002994D01*
X030475Y003445D01*
X031277Y003934D01*
X032055Y004460D01*
X032807Y005023D01*
X033532Y005622D01*
X034227Y006254D01*
X034892Y006918D01*
X035524Y007613D01*
X036122Y008338D01*
X036685Y009090D01*
X037211Y009868D01*
X037700Y010670D01*
X038151Y011495D01*
X038561Y012340D01*
X038931Y013203D01*
X039259Y014084D01*
X039545Y014979D01*
X039789Y015886D01*
X039988Y016804D01*
X040144Y017731D01*
X040256Y018664D01*
X040323Y019601D01*
X040345Y020540D01*
X034105Y020605D02*
X034090Y021244D01*
X034044Y021882D01*
X033968Y022517D01*
X033862Y023148D01*
X033726Y023772D01*
X033561Y024390D01*
X033366Y024999D01*
X033143Y025598D01*
X032891Y026186D01*
X032612Y026761D01*
X032305Y027323D01*
X031972Y027869D01*
X031614Y028398D01*
X031231Y028910D01*
X030823Y029403D01*
X030393Y029876D01*
X029941Y030328D01*
X029468Y030758D01*
X028975Y031166D01*
X028463Y031549D01*
X027934Y031907D01*
X027387Y032240D01*
X026826Y032547D01*
X026251Y032826D01*
X025663Y033078D01*
X025064Y033301D01*
X024455Y033496D01*
X023837Y033661D01*
X023213Y033797D01*
X022582Y033903D01*
X021947Y033979D01*
X021309Y034025D01*
X020670Y034040D01*
X020605Y038460D02*
X019759Y038440D01*
X018914Y038379D01*
X018073Y038279D01*
X017238Y038139D01*
X016411Y037959D01*
X015593Y037739D01*
X014786Y037482D01*
X013993Y037186D01*
X013215Y036852D01*
X012453Y036482D01*
X011710Y036077D01*
X010987Y035636D01*
X010286Y035161D01*
X009608Y034654D01*
X008955Y034115D01*
X008329Y033545D01*
X007730Y032947D01*
X007160Y032320D01*
X006621Y031667D01*
X006114Y030989D01*
X005639Y030288D01*
X005198Y029565D01*
X004793Y028822D01*
X004423Y028060D01*
X004089Y027282D01*
X003793Y026489D01*
X003536Y025682D01*
X003316Y024864D01*
X003136Y024037D01*
X002996Y023202D01*
X002896Y022361D01*
X002835Y021516D01*
X002815Y020670D01*
X011135Y020605D02*
X011146Y020158D01*
X011178Y019711D01*
X011231Y019267D01*
X011305Y018825D01*
X011400Y018388D01*
X011516Y017955D01*
X011652Y017529D01*
X011809Y017110D01*
X011985Y016698D01*
X012180Y016295D01*
X012395Y015903D01*
X012628Y015520D01*
X012879Y015150D01*
X013147Y014791D01*
X013432Y014446D01*
X013733Y014115D01*
X014050Y013798D01*
X014381Y013497D01*
X014726Y013212D01*
X015085Y012944D01*
X015455Y012693D01*
X015838Y012460D01*
X016230Y012245D01*
X016633Y012050D01*
X017045Y011874D01*
X017464Y011717D01*
X017890Y011581D01*
X018323Y011465D01*
X018760Y011370D01*
X019202Y011296D01*
X019646Y011243D01*
X020093Y011211D01*
X020540Y011200D01*
X020605Y001320D02*
X021520Y001342D01*
X022432Y001407D01*
X023340Y001516D01*
X024242Y001667D01*
X025136Y001862D01*
X026020Y002099D01*
X026891Y002377D01*
X027748Y002697D01*
X028589Y003057D01*
X029412Y003457D01*
X030215Y003895D01*
X030996Y004371D01*
X031754Y004884D01*
X032486Y005432D01*
X033191Y006014D01*
X033868Y006630D01*
X034515Y007277D01*
X035131Y007954D01*
X035713Y008659D01*
X036261Y009391D01*
X036774Y010149D01*
X037250Y010930D01*
X037688Y011733D01*
X038088Y012556D01*
X038448Y013397D01*
X038768Y014254D01*
X039046Y015125D01*
X039283Y016009D01*
X039478Y016903D01*
X039629Y017805D01*
X039738Y018713D01*
X039803Y019625D01*
X039825Y020540D01*
X032805Y020605D02*
X032790Y021200D01*
X032747Y021794D01*
X032674Y022386D01*
X032572Y022972D01*
X032441Y023554D01*
X032282Y024128D01*
X032096Y024693D01*
X031881Y025249D01*
X031640Y025793D01*
X031372Y026325D01*
X031079Y026844D01*
X030760Y027347D01*
X030417Y027834D01*
X030050Y028303D01*
X029661Y028754D01*
X029251Y029186D01*
X028819Y029596D01*
X028368Y029985D01*
X027899Y030352D01*
X027412Y030695D01*
X026909Y031014D01*
X026390Y031307D01*
X025858Y031575D01*
X025314Y031816D01*
X024758Y032031D01*
X024193Y032217D01*
X023619Y032376D01*
X023037Y032507D01*
X022451Y032609D01*
X021859Y032682D01*
X021265Y032725D01*
X020670Y032740D01*
X020605Y037420D02*
X019783Y037400D01*
X018963Y037339D01*
X018147Y037239D01*
X017337Y037098D01*
X016535Y036918D01*
X015743Y036699D01*
X014962Y036441D01*
X014195Y036145D01*
X013443Y035812D01*
X012709Y035442D01*
X011994Y035037D01*
X011299Y034597D01*
X010627Y034124D01*
X009979Y033618D01*
X009356Y033081D01*
X008761Y032514D01*
X008194Y031919D01*
X007657Y031296D01*
X007151Y030648D01*
X006678Y029976D01*
X006238Y029281D01*
X005833Y028566D01*
X005463Y027832D01*
X005130Y027080D01*
X004834Y026313D01*
X004576Y025532D01*
X004357Y024740D01*
X004177Y023938D01*
X004036Y023128D01*
X003936Y022312D01*
X003875Y021492D01*
X003855Y020670D01*
X007495Y020605D02*
X007510Y019984D01*
X007554Y019365D01*
X007628Y018749D01*
X007731Y018136D01*
X007863Y017530D01*
X008023Y016930D01*
X008212Y016338D01*
X008429Y015757D01*
X008674Y015186D01*
X008945Y014627D01*
X009243Y014083D01*
X009566Y013552D01*
X009914Y013038D01*
X010286Y012541D01*
X010681Y012062D01*
X011099Y011603D01*
X011538Y011164D01*
X011997Y010746D01*
X012476Y010351D01*
X012973Y009979D01*
X013487Y009631D01*
X014018Y009308D01*
X014562Y009010D01*
X015121Y008739D01*
X015692Y008494D01*
X016273Y008277D01*
X016865Y008088D01*
X017465Y007928D01*
X018071Y007796D01*
X018684Y007693D01*
X019300Y007619D01*
X019919Y007575D01*
X020540Y007560D01*
X020605Y004700D02*
X021359Y004718D01*
X022111Y004772D01*
X022859Y004861D01*
X023603Y004986D01*
X024339Y005147D01*
X025068Y005342D01*
X025786Y005571D01*
X026492Y005835D01*
X027185Y006131D01*
X027863Y006461D01*
X028525Y006822D01*
X029169Y007215D01*
X029793Y007637D01*
X030397Y008089D01*
X030978Y008569D01*
X031536Y009076D01*
X032069Y009609D01*
X032576Y010167D01*
X033056Y010748D01*
X033508Y011352D01*
X033930Y011976D01*
X034323Y012620D01*
X034684Y013282D01*
X035014Y013960D01*
X035310Y014653D01*
X035574Y015359D01*
X035803Y016077D01*
X035999Y016806D01*
X036159Y017542D01*
X036284Y018286D01*
X036373Y019034D01*
X036427Y019786D01*
X036445Y020540D01*
X029425Y020605D02*
X029415Y021022D01*
X029385Y021437D01*
X029336Y021851D01*
X029267Y022262D01*
X029178Y022669D01*
X029070Y023072D01*
X028943Y023468D01*
X028798Y023859D01*
X028634Y024242D01*
X028452Y024617D01*
X028252Y024983D01*
X028035Y025338D01*
X027802Y025683D01*
X027552Y026017D01*
X027287Y026338D01*
X027006Y026647D01*
X026712Y026941D01*
X026403Y027222D01*
X026082Y027487D01*
X025748Y027737D01*
X025403Y027970D01*
X025047Y028187D01*
X024682Y028387D01*
X024307Y028569D01*
X023924Y028733D01*
X023533Y028878D01*
X023137Y029005D01*
X022734Y029113D01*
X022327Y029202D01*
X021916Y029271D01*
X021502Y029320D01*
X021087Y029350D01*
X020670Y029360D01*
X020605Y036380D02*
X019834Y036361D01*
X019065Y036304D01*
X018300Y036210D01*
X017540Y036078D01*
X016788Y035909D01*
X016045Y035704D01*
X015312Y035462D01*
X014593Y035184D01*
X013888Y034872D01*
X013199Y034525D01*
X012528Y034145D01*
X011877Y033732D01*
X011247Y033288D01*
X010639Y032814D01*
X010055Y032310D01*
X009496Y031779D01*
X008965Y031220D01*
X008461Y030636D01*
X007987Y030028D01*
X007543Y029398D01*
X007130Y028747D01*
X006750Y028076D01*
X006403Y027387D01*
X006091Y026682D01*
X005813Y025963D01*
X005571Y025230D01*
X005366Y024487D01*
X005197Y023735D01*
X005065Y022975D01*
X004971Y022210D01*
X004914Y021441D01*
X004895Y020670D01*
X010615Y020605D02*
X010626Y020133D01*
X010660Y019662D01*
X010716Y019193D01*
X010794Y018727D01*
X010895Y018265D01*
X011017Y017809D01*
X011161Y017359D01*
X011326Y016916D01*
X011512Y016482D01*
X011718Y016057D01*
X011945Y015643D01*
X012191Y015239D01*
X012455Y014848D01*
X012738Y014470D01*
X013039Y014106D01*
X013357Y013756D01*
X013691Y013422D01*
X014040Y013104D01*
X014405Y012803D01*
X014783Y012520D01*
X015174Y012256D01*
X015578Y012010D01*
X015992Y011783D01*
X016417Y011577D01*
X016851Y011391D01*
X017294Y011226D01*
X017744Y011082D01*
X018200Y010960D01*
X018662Y010859D01*
X019128Y010781D01*
X019597Y010725D01*
X020068Y010691D01*
X020540Y010680D01*
X020605Y005220D02*
X021334Y005237D01*
X022061Y005289D01*
X022785Y005376D01*
X023504Y005497D01*
X024217Y005652D01*
X024921Y005841D01*
X025616Y006063D01*
X026299Y006317D01*
X026969Y006604D01*
X027625Y006923D01*
X028265Y007272D01*
X028888Y007652D01*
X029491Y008061D01*
X030075Y008498D01*
X030637Y008962D01*
X031177Y009452D01*
X031693Y009968D01*
X032183Y010508D01*
X032647Y011070D01*
X033084Y011654D01*
X033493Y012257D01*
X033873Y012880D01*
X034222Y013520D01*
X034541Y014176D01*
X034828Y014846D01*
X035082Y015529D01*
X035304Y016224D01*
X035493Y016928D01*
X035648Y017641D01*
X035769Y018360D01*
X035856Y019084D01*
X035908Y019811D01*
X035925Y020540D01*
X028385Y020605D02*
X028376Y020972D01*
X028350Y021338D01*
X028306Y021703D01*
X028246Y022065D01*
X028168Y022424D01*
X028072Y022779D01*
X027961Y023128D01*
X027832Y023472D01*
X027688Y023810D01*
X027527Y024140D01*
X027351Y024463D01*
X027160Y024776D01*
X026954Y025080D01*
X026734Y025374D01*
X026501Y025657D01*
X026254Y025929D01*
X025994Y026189D01*
X025722Y026436D01*
X025439Y026669D01*
X025145Y026889D01*
X024841Y027095D01*
X024527Y027286D01*
X024205Y027462D01*
X023875Y027623D01*
X023537Y027767D01*
X023193Y027896D01*
X022844Y028007D01*
X022489Y028103D01*
X022130Y028181D01*
X021768Y028241D01*
X021403Y028285D01*
X021037Y028311D01*
X020670Y028320D01*
X020605Y032480D02*
X020025Y032466D01*
X019447Y032423D01*
X018872Y032352D01*
X018301Y032253D01*
X017735Y032126D01*
X017177Y031971D01*
X016626Y031790D01*
X016085Y031581D01*
X015556Y031346D01*
X015038Y031085D01*
X014533Y030800D01*
X014044Y030490D01*
X013570Y030156D01*
X013113Y029799D01*
X012674Y029421D01*
X012254Y029021D01*
X011854Y028601D01*
X011476Y028162D01*
X011119Y027705D01*
X010785Y027231D01*
X010475Y026742D01*
X010190Y026237D01*
X009929Y025719D01*
X009694Y025190D01*
X009485Y024649D01*
X009304Y024098D01*
X009149Y023540D01*
X009022Y022974D01*
X008923Y022403D01*
X008852Y021828D01*
X008809Y021250D01*
X008795Y020670D01*
X006455Y020605D02*
X006471Y019935D01*
X006519Y019266D01*
X006598Y018601D01*
X006710Y017939D01*
X006852Y017284D01*
X007026Y016637D01*
X007230Y015998D01*
X007464Y015370D01*
X007728Y014754D01*
X008021Y014151D01*
X008342Y013563D01*
X008691Y012990D01*
X009067Y012435D01*
X009468Y011898D01*
X009895Y011381D01*
X010346Y010885D01*
X010820Y010411D01*
X011316Y009960D01*
X011833Y009533D01*
X012370Y009132D01*
X012925Y008756D01*
X013498Y008407D01*
X014086Y008086D01*
X014689Y007793D01*
X015305Y007529D01*
X015933Y007295D01*
X016572Y007091D01*
X017219Y006917D01*
X017874Y006775D01*
X018536Y006663D01*
X019201Y006584D01*
X019870Y006536D01*
X020540Y006520D01*
X020605Y006260D02*
X021284Y006276D01*
X021962Y006325D01*
X022637Y006405D01*
X023308Y006518D01*
X023972Y006663D01*
X024628Y006838D01*
X025276Y007045D01*
X025912Y007283D01*
X026537Y007550D01*
X027148Y007847D01*
X027745Y008173D01*
X028325Y008527D01*
X028888Y008908D01*
X029432Y009315D01*
X029956Y009748D01*
X030459Y010205D01*
X030940Y010686D01*
X031397Y011189D01*
X031830Y011713D01*
X032237Y012257D01*
X032618Y012820D01*
X032972Y013400D01*
X033298Y013997D01*
X033595Y014608D01*
X033862Y015233D01*
X034100Y015869D01*
X034307Y016517D01*
X034482Y017173D01*
X034627Y017837D01*
X034740Y018508D01*
X034820Y019183D01*
X034869Y019861D01*
X034885Y020540D01*
X030985Y020605D02*
X030973Y021111D01*
X030935Y021616D01*
X030873Y022119D01*
X030787Y022617D01*
X030676Y023111D01*
X030541Y023599D01*
X030382Y024080D01*
X030200Y024552D01*
X029995Y025015D01*
X029767Y025467D01*
X029517Y025908D01*
X029247Y026336D01*
X028955Y026750D01*
X028644Y027149D01*
X028313Y027532D01*
X027964Y027899D01*
X027597Y028248D01*
X027214Y028579D01*
X026815Y028890D01*
X026401Y029182D01*
X025973Y029452D01*
X025532Y029702D01*
X025080Y029930D01*
X024617Y030135D01*
X024145Y030317D01*
X023664Y030476D01*
X023176Y030611D01*
X022682Y030722D01*
X022184Y030808D01*
X021681Y030870D01*
X021176Y030908D01*
X020670Y030920D01*
X020605Y030660D02*
X020130Y030649D01*
X019655Y030615D01*
X019183Y030558D01*
X018714Y030479D01*
X018250Y030378D01*
X017790Y030255D01*
X017338Y030111D01*
X016892Y029944D01*
X016455Y029757D01*
X016027Y029549D01*
X015610Y029322D01*
X015204Y029074D01*
X014810Y028808D01*
X014430Y028523D01*
X014063Y028220D01*
X013711Y027900D01*
X013375Y027564D01*
X013055Y027212D01*
X012752Y026845D01*
X012467Y026465D01*
X012201Y026071D01*
X011953Y025665D01*
X011726Y025248D01*
X011518Y024820D01*
X011331Y024383D01*
X011164Y023937D01*
X011020Y023485D01*
X010897Y023025D01*
X010796Y022561D01*
X010717Y022092D01*
X010660Y021620D01*
X010626Y021145D01*
X010615Y020670D01*
X005155Y020605D02*
X005172Y019873D01*
X005225Y019143D01*
X005312Y018416D01*
X005433Y017693D01*
X005589Y016978D01*
X005778Y016271D01*
X006001Y015573D01*
X006257Y014887D01*
X006545Y014214D01*
X006865Y013555D01*
X007216Y012913D01*
X007597Y012287D01*
X008008Y011681D01*
X008447Y011095D01*
X008913Y010530D01*
X009405Y009988D01*
X009923Y009470D01*
X010465Y008978D01*
X011030Y008512D01*
X011616Y008073D01*
X012222Y007662D01*
X012848Y007281D01*
X013490Y006930D01*
X014149Y006610D01*
X014822Y006322D01*
X015508Y006066D01*
X016206Y005843D01*
X016913Y005654D01*
X017628Y005498D01*
X018351Y005377D01*
X019078Y005290D01*
X019808Y005237D01*
X020540Y005220D01*
X020605Y007300D02*
X021235Y007315D01*
X021864Y007360D01*
X022489Y007435D01*
X023111Y007539D01*
X023726Y007673D01*
X024335Y007836D01*
X024935Y008028D01*
X025526Y008248D01*
X026105Y008496D01*
X026672Y008772D01*
X027225Y009074D01*
X027763Y009402D01*
X028285Y009755D01*
X028789Y010133D01*
X029275Y010534D01*
X029742Y010958D01*
X030187Y011403D01*
X030611Y011870D01*
X031012Y012356D01*
X031390Y012860D01*
X031743Y013382D01*
X032071Y013920D01*
X032373Y014473D01*
X032649Y015040D01*
X032897Y015619D01*
X033117Y016210D01*
X033309Y016810D01*
X033472Y017419D01*
X033606Y018034D01*
X033710Y018656D01*
X033785Y019281D01*
X033830Y019910D01*
X033845Y020540D01*
X036185Y020605D02*
X036166Y021366D01*
X036110Y022126D01*
X036017Y022882D01*
X035887Y023632D01*
X035720Y024375D01*
X035517Y025109D01*
X035278Y025832D01*
X035004Y026542D01*
X034695Y027238D01*
X034353Y027919D01*
X033978Y028581D01*
X033570Y029225D01*
X033132Y029847D01*
X032663Y030448D01*
X032166Y031024D01*
X031641Y031576D01*
X031089Y032101D01*
X030513Y032598D01*
X029912Y033067D01*
X029290Y033505D01*
X028646Y033913D01*
X027984Y034288D01*
X027304Y034630D01*
X026607Y034939D01*
X025897Y035213D01*
X025174Y035452D01*
X024440Y035655D01*
X023697Y035822D01*
X022947Y035952D01*
X022191Y036045D01*
X021431Y036101D01*
X020670Y036120D01*
X020605Y028580D02*
X020217Y028570D01*
X019830Y028542D01*
X019444Y028494D01*
X019062Y028428D01*
X018683Y028343D01*
X018309Y028239D01*
X017940Y028118D01*
X017578Y027978D01*
X017223Y027821D01*
X016876Y027646D01*
X016538Y027455D01*
X016210Y027247D01*
X015893Y027023D01*
X015587Y026785D01*
X015293Y026531D01*
X015012Y026263D01*
X014744Y025982D01*
X014490Y025688D01*
X014252Y025382D01*
X014028Y025065D01*
X013820Y024737D01*
X013629Y024399D01*
X013454Y024052D01*
X013297Y023697D01*
X013157Y023335D01*
X013036Y022966D01*
X012932Y022592D01*
X012847Y022213D01*
X012781Y021831D01*
X012733Y021445D01*
X012705Y021058D01*
X012695Y020670D01*
X004895Y020605D02*
X004913Y019861D01*
X004966Y019118D01*
X005054Y018378D01*
X005178Y017644D01*
X005336Y016917D01*
X005529Y016197D01*
X005755Y015488D01*
X006016Y014790D01*
X006309Y014106D01*
X006634Y013436D01*
X006991Y012783D01*
X007379Y012147D01*
X007796Y011530D01*
X008242Y010934D01*
X008716Y010360D01*
X009217Y009809D01*
X009744Y009282D01*
X010295Y008781D01*
X010869Y008307D01*
X011465Y007861D01*
X012082Y007444D01*
X012717Y007056D01*
X013371Y006699D01*
X014041Y006374D01*
X014725Y006081D01*
X015423Y005820D01*
X016132Y005594D01*
X016852Y005401D01*
X017579Y005243D01*
X018313Y005119D01*
X019053Y005031D01*
X019796Y004978D01*
X020540Y004960D01*
X020605Y008600D02*
X021173Y008614D01*
X021740Y008654D01*
X022304Y008722D01*
X022865Y008816D01*
X023420Y008937D01*
X023969Y009084D01*
X024510Y009257D01*
X025043Y009455D01*
X025565Y009679D01*
X026076Y009927D01*
X026575Y010200D01*
X027060Y010495D01*
X027531Y010814D01*
X027986Y011155D01*
X028424Y011516D01*
X028845Y011899D01*
X029246Y012300D01*
X029629Y012721D01*
X029990Y013159D01*
X030331Y013614D01*
X030650Y014085D01*
X030945Y014570D01*
X031218Y015069D01*
X031466Y015580D01*
X031690Y016102D01*
X031888Y016635D01*
X032061Y017176D01*
X032208Y017725D01*
X032329Y018280D01*
X032423Y018841D01*
X032491Y019405D01*
X032531Y019972D01*
X032545Y020540D01*
X037745Y020605D02*
X037724Y021443D01*
X037663Y022279D01*
X037560Y023110D01*
X037417Y023936D01*
X037233Y024754D01*
X037010Y025562D01*
X036747Y026357D01*
X036445Y027139D01*
X036106Y027905D01*
X035729Y028654D01*
X035316Y029383D01*
X034867Y030091D01*
X034385Y030777D01*
X033869Y031437D01*
X033322Y032072D01*
X032744Y032679D01*
X032137Y033257D01*
X031502Y033804D01*
X030842Y034320D01*
X030156Y034802D01*
X029448Y035251D01*
X028719Y035664D01*
X027971Y036041D01*
X027204Y036380D01*
X026422Y036682D01*
X025627Y036945D01*
X024819Y037168D01*
X024001Y037352D01*
X023175Y037495D01*
X022344Y037598D01*
X021508Y037659D01*
X020670Y037680D01*
X020605Y027800D02*
X020255Y027791D01*
X019906Y027766D01*
X019559Y027723D01*
X019214Y027663D01*
X018873Y027586D01*
X018535Y027493D01*
X018203Y027383D01*
X017876Y027257D01*
X017557Y027115D01*
X017244Y026958D01*
X016939Y026786D01*
X016644Y026598D01*
X016358Y026397D01*
X016082Y026182D01*
X015817Y025953D01*
X015563Y025712D01*
X015322Y025458D01*
X015093Y025193D01*
X014878Y024917D01*
X014677Y024631D01*
X014489Y024336D01*
X014317Y024031D01*
X014160Y023718D01*
X014018Y023399D01*
X013892Y023072D01*
X013782Y022740D01*
X013689Y022402D01*
X013612Y022061D01*
X013552Y021716D01*
X013509Y021369D01*
X013484Y021020D01*
X013475Y020670D01*
X012955Y020605D02*
X012964Y020244D01*
X012989Y019884D01*
X013032Y019526D01*
X013092Y019170D01*
X013169Y018817D01*
X013262Y018468D01*
X013372Y018124D01*
X013498Y017786D01*
X013640Y017454D01*
X013798Y017129D01*
X013971Y016813D01*
X014159Y016504D01*
X014361Y016205D01*
X014578Y015916D01*
X014808Y015638D01*
X015050Y015371D01*
X015306Y015115D01*
X015573Y014873D01*
X015851Y014643D01*
X016140Y014426D01*
X016439Y014224D01*
X016748Y014036D01*
X017064Y013863D01*
X017389Y013705D01*
X017721Y013563D01*
X018059Y013437D01*
X018403Y013327D01*
X018752Y013234D01*
X019105Y013157D01*
X019461Y013097D01*
X019819Y013054D01*
X020179Y013029D01*
X020540Y013020D01*
X020605Y010160D02*
X021099Y010172D01*
X021592Y010207D01*
X022082Y010266D01*
X022569Y010348D01*
X023052Y010453D01*
X023529Y010580D01*
X024000Y010731D01*
X024463Y010904D01*
X024917Y011098D01*
X025361Y011314D01*
X025795Y011551D01*
X026217Y011808D01*
X026626Y012085D01*
X027021Y012381D01*
X027402Y012695D01*
X027768Y013028D01*
X028117Y013377D01*
X028450Y013743D01*
X028764Y014124D01*
X029060Y014519D01*
X029337Y014928D01*
X029594Y015350D01*
X029831Y015784D01*
X030047Y016228D01*
X030241Y016682D01*
X030414Y017145D01*
X030565Y017616D01*
X030692Y018093D01*
X030797Y018576D01*
X030879Y019063D01*
X030938Y019553D01*
X030973Y020046D01*
X030985Y020540D01*
X036965Y020605D02*
X036947Y021380D01*
X036891Y022154D01*
X036799Y022924D01*
X036671Y023689D01*
X036506Y024447D01*
X036305Y025196D01*
X036069Y025935D01*
X035798Y026661D01*
X035492Y027374D01*
X035154Y028072D01*
X034782Y028753D01*
X034378Y029415D01*
X033944Y030057D01*
X033479Y030678D01*
X032985Y031276D01*
X032463Y031850D01*
X031915Y032398D01*
X031341Y032920D01*
X030743Y033414D01*
X030122Y033879D01*
X029480Y034313D01*
X028817Y034717D01*
X028137Y035089D01*
X027439Y035427D01*
X026726Y035733D01*
X026000Y036004D01*
X025261Y036240D01*
X024512Y036441D01*
X023754Y036606D01*
X022989Y036734D01*
X022219Y036826D01*
X021445Y036882D01*
X020670Y036900D01*
X020605Y039500D02*
X019681Y039477D01*
X018759Y039409D01*
X017842Y039296D01*
X016931Y039138D01*
X016030Y038936D01*
X015139Y038689D01*
X014261Y038399D01*
X013399Y038067D01*
X012554Y037692D01*
X011729Y037277D01*
X010924Y036821D01*
X010144Y036327D01*
X009388Y035794D01*
X008659Y035226D01*
X007960Y034622D01*
X007290Y033985D01*
X006653Y033315D01*
X006049Y032616D01*
X005481Y031887D01*
X004948Y031131D01*
X004454Y030351D01*
X003998Y029546D01*
X003583Y028721D01*
X003208Y027876D01*
X002876Y027014D01*
X002586Y026136D01*
X002339Y025245D01*
X002137Y024344D01*
X001979Y023433D01*
X001866Y022516D01*
X001798Y021594D01*
X001775Y020670D01*
X001255Y020605D02*
X001277Y019687D01*
X001342Y018772D01*
X001451Y017860D01*
X001603Y016955D01*
X001799Y016058D01*
X002036Y015172D01*
X002316Y014298D01*
X002636Y013438D01*
X002998Y012594D01*
X003399Y011768D01*
X003839Y010963D01*
X004316Y010179D01*
X004831Y009419D01*
X005381Y008684D01*
X005965Y007976D01*
X006583Y007297D01*
X007232Y006648D01*
X007911Y006030D01*
X008619Y005446D01*
X009354Y004896D01*
X010114Y004381D01*
X010897Y003904D01*
X011703Y003464D01*
X012529Y003063D01*
X013372Y002701D01*
X014232Y002381D01*
X015107Y002101D01*
X015993Y001864D01*
X016890Y001669D01*
X017795Y001516D01*
X018707Y001407D01*
X019622Y001342D01*
X020540Y001320D01*
X020605Y010680D02*
X021074Y010691D01*
X021542Y010725D01*
X022008Y010780D01*
X022471Y010858D01*
X022930Y010958D01*
X023383Y011079D01*
X023830Y011222D01*
X024270Y011386D01*
X024701Y011571D01*
X025123Y011776D01*
X025535Y012001D01*
X025936Y012245D01*
X026324Y012508D01*
X026700Y012790D01*
X027062Y013088D01*
X027409Y013404D01*
X027741Y013736D01*
X028057Y014083D01*
X028355Y014445D01*
X028637Y014821D01*
X028900Y015209D01*
X029144Y015610D01*
X029369Y016022D01*
X029574Y016444D01*
X029759Y016875D01*
X029923Y017315D01*
X030066Y017762D01*
X030187Y018215D01*
X030287Y018674D01*
X030365Y019137D01*
X030420Y019603D01*
X030454Y020071D01*
X030465Y020540D01*
X033065Y020605D02*
X033051Y021195D01*
X033009Y021783D01*
X032939Y022369D01*
X032841Y022951D01*
X032716Y023527D01*
X032563Y024097D01*
X032383Y024659D01*
X032177Y025212D01*
X031945Y025754D01*
X031687Y026285D01*
X031404Y026803D01*
X031097Y027306D01*
X030767Y027795D01*
X030413Y028267D01*
X030038Y028722D01*
X029641Y029159D01*
X029224Y029576D01*
X028787Y029973D01*
X028332Y030348D01*
X027860Y030702D01*
X027371Y031032D01*
X026867Y031339D01*
X026350Y031622D01*
X025819Y031880D01*
X025277Y032112D01*
X024724Y032318D01*
X024162Y032498D01*
X023592Y032651D01*
X023016Y032776D01*
X022434Y032874D01*
X021848Y032944D01*
X021260Y032986D01*
X020670Y033000D01*
X020605Y028320D02*
X020230Y028311D01*
X019855Y028283D01*
X019482Y028237D01*
X019113Y028173D01*
X018746Y028091D01*
X018384Y027991D01*
X018028Y027873D01*
X017677Y027738D01*
X017334Y027586D01*
X016999Y027417D01*
X016672Y027232D01*
X016355Y027031D01*
X016048Y026815D01*
X015752Y026584D01*
X015468Y026338D01*
X015196Y026079D01*
X014937Y025807D01*
X014691Y025523D01*
X014460Y025227D01*
X014244Y024920D01*
X014043Y024603D01*
X013858Y024276D01*
X013689Y023941D01*
X013537Y023598D01*
X013402Y023247D01*
X013284Y022891D01*
X013184Y022529D01*
X013102Y022162D01*
X013038Y021793D01*
X012992Y021420D01*
X012964Y021045D01*
X012955Y020670D01*
X009055Y020605D02*
X009068Y020059D01*
X009107Y019513D01*
X009172Y018971D01*
X009263Y018431D01*
X009379Y017897D01*
X009520Y017369D01*
X009687Y016849D01*
X009878Y016336D01*
X010093Y015834D01*
X010332Y015342D01*
X010594Y014863D01*
X010878Y014396D01*
X011185Y013943D01*
X011512Y013505D01*
X011860Y013084D01*
X012228Y012679D01*
X012614Y012293D01*
X013019Y011925D01*
X013440Y011577D01*
X013878Y011250D01*
X014331Y010943D01*
X014797Y010659D01*
X015277Y010397D01*
X015769Y010158D01*
X016271Y009943D01*
X016784Y009752D01*
X017304Y009585D01*
X017832Y009444D01*
X018366Y009328D01*
X018906Y009237D01*
X019448Y009172D01*
X019994Y009133D01*
X020540Y009120D01*
X020605Y003660D02*
X021433Y003680D01*
X022260Y003741D01*
X023082Y003843D01*
X023898Y003984D01*
X024706Y004166D01*
X025505Y004387D01*
X026292Y004647D01*
X027065Y004945D01*
X027822Y005281D01*
X028562Y005653D01*
X029283Y006062D01*
X029983Y006505D01*
X030660Y006982D01*
X031314Y007492D01*
X031941Y008033D01*
X032541Y008604D01*
X033112Y009204D01*
X033653Y009831D01*
X034163Y010485D01*
X034640Y011162D01*
X035083Y011862D01*
X035492Y012583D01*
X035864Y013323D01*
X036200Y014080D01*
X036498Y014853D01*
X036758Y015640D01*
X036979Y016438D01*
X037161Y017247D01*
X037302Y018063D01*
X037404Y018885D01*
X037465Y019712D01*
X037485Y020540D01*
X030725Y020605D02*
X030713Y021098D01*
X030677Y021591D01*
X030616Y022080D01*
X030532Y022567D01*
X030424Y023048D01*
X030292Y023524D01*
X030137Y023992D01*
X029960Y024453D01*
X029760Y024904D01*
X029538Y025345D01*
X029294Y025774D01*
X029030Y026191D01*
X028746Y026595D01*
X028443Y026984D01*
X028120Y027358D01*
X027780Y027715D01*
X027423Y028055D01*
X027049Y028378D01*
X026660Y028681D01*
X026256Y028965D01*
X025839Y029229D01*
X025410Y029473D01*
X024969Y029695D01*
X024518Y029895D01*
X024057Y030072D01*
X023589Y030227D01*
X023113Y030359D01*
X022632Y030467D01*
X022145Y030551D01*
X021656Y030612D01*
X021163Y030648D01*
X020670Y030660D01*
X020605Y034560D02*
X019923Y034543D01*
X019244Y034493D01*
X018567Y034410D01*
X017895Y034293D01*
X017230Y034144D01*
X016573Y033962D01*
X015926Y033748D01*
X015290Y033503D01*
X014666Y033226D01*
X014057Y032920D01*
X013464Y032584D01*
X012888Y032219D01*
X012331Y031827D01*
X011793Y031407D01*
X011277Y030962D01*
X010783Y030492D01*
X010313Y029998D01*
X009868Y029482D01*
X009448Y028944D01*
X009056Y028387D01*
X008691Y027811D01*
X008355Y027218D01*
X008049Y026609D01*
X007772Y025985D01*
X007527Y025349D01*
X007313Y024702D01*
X007131Y024045D01*
X006982Y023380D01*
X006865Y022708D01*
X006782Y022031D01*
X006732Y021352D01*
X006715Y020670D01*
X010095Y020605D02*
X010108Y020092D01*
X010145Y019581D01*
X010208Y019072D01*
X010296Y018567D01*
X010408Y018067D01*
X010545Y017573D01*
X010706Y017086D01*
X010890Y016608D01*
X011098Y016139D01*
X011328Y015681D01*
X011581Y015235D01*
X011855Y014802D01*
X012150Y014383D01*
X012466Y013979D01*
X012801Y013591D01*
X013154Y013219D01*
X013526Y012866D01*
X013914Y012531D01*
X014318Y012216D01*
X014737Y011920D01*
X015170Y011646D01*
X015616Y011393D01*
X016074Y011163D01*
X016543Y010955D01*
X017021Y010771D01*
X017508Y010610D01*
X018002Y010473D01*
X018502Y010361D01*
X019007Y010273D01*
X019516Y010210D01*
X020027Y010173D01*
X020540Y010160D01*
X020605Y011460D02*
X021037Y011470D01*
X021468Y011501D01*
X021897Y011552D01*
X022323Y011624D01*
X022746Y011716D01*
X023163Y011828D01*
X023575Y011959D01*
X023980Y012110D01*
X024377Y012281D01*
X024766Y012469D01*
X025145Y012676D01*
X025514Y012901D01*
X025872Y013144D01*
X026218Y013403D01*
X026551Y013678D01*
X026871Y013968D01*
X027176Y014274D01*
X027467Y014594D01*
X027742Y014927D01*
X028001Y015273D01*
X028244Y015631D01*
X028469Y016000D01*
X028676Y016379D01*
X028864Y016768D01*
X029035Y017165D01*
X029186Y017570D01*
X029317Y017982D01*
X029429Y018399D01*
X029521Y018822D01*
X029593Y019248D01*
X029644Y019677D01*
X029675Y020108D01*
X029685Y020540D01*
D16*
X042855Y018105D03*
X042855Y023105D03*
D17*
X027105Y020605D03*
X026355Y020605D03*
M02*
