%
M48
M72
T01C0.0157
T02C0.0354
T03C0.0394
T04C0.0450
T05C0.0630
T06C0.0787
%
T01
X7850Y14705
X5150Y12655
X10000Y12005
X11200Y13605
X6400Y2755
X8550Y3255
X10350Y5005
X16450Y12355
X17400Y12455
X16450Y9605
X8050Y9405
X10150Y8105
X10500Y1655
X11400Y1105
X12250Y505
X13450Y6655
X17050Y6705
X16100Y4755
X13550Y3055
X26950Y11555
X29450Y6805
X31050Y7655
X15950Y13105
X7800Y6155
X3400Y6305
X27650Y2255
X29450Y2305
X25150Y2255
X17400Y805
X19400Y2255
X13000Y15055
X22200Y6405
X20750Y3055
X22650Y4855
X4600Y18355
X11150Y19455
X9350Y17905
X1200Y18055
X2300Y18005
X2200Y16855
X2150Y9405
X3550Y11155
X3250Y8355
X3300Y7305
X4800Y4005
X4700Y1855
X6500Y3605
X13050Y3055
X13450Y2605
X12550Y6505
X11750Y7605
X13100Y11005
X15950Y3255
X26450Y705
X29800Y9755
X29450Y11555
X29600Y12605
X29400Y14305
X22800Y13405
X24200Y14805
X26650Y14655
X16150Y16105
X19200Y5255
X18250Y5355
X19250Y4355
X7450Y1455
X9050Y9955
X9700Y15005
X10700Y15005
X13500Y15005
X1500Y17655
X2700Y3155
X22450Y1405
X23650Y1405
X23050Y2005
X23050Y805
X10950Y17705
X12150Y17705
X11550Y17105
X11550Y18305
X19350Y11055
X15950Y19755
X11200Y19805
X22950Y19255
X29500Y19405
X31150Y17355
X31250Y13855
X31900Y13855
X31950Y9155
X32050Y5055
X31800Y3655
X19500Y805
X22150Y12505
X20850Y13355
X13900Y12805
X22900Y9155
X11974Y18129
X11974Y17281
X11126Y17281
X11126Y18129
X23474Y981
X23474Y1829
X22626Y1829
X22626Y981
X6100Y8405
X2150Y17455
X2550Y17355
X4450Y16605
X30550Y15955
X31150Y4405
X30250Y11905
X5000Y17105
X4550Y17005
X30150Y15755
X31100Y5055
X31150Y11905
X12900Y18005
X24750Y16605
X24600Y15105
X27900Y15105
X26700Y3255
X27850Y6955
X27900Y8855
X24600Y8205
X6600Y17455
X14050Y17355
X14050Y14855
X5900Y4805
X4900Y16005
X6100Y10255
X12000Y1455
X9700Y3355
X8900Y10505
X7950Y15555
X7400Y18605
X16400Y4055
X28600Y3605
X24600Y7005
X31250Y5755
X26900Y16705
X26900Y5555
X26600Y6305
X27500Y5005
X24150Y4105
X20700Y5255
X24550Y5755
X22350Y5605
X22400Y6755
X22250Y5205
X22800Y7905
X6550Y10255
X6700Y5005
X13850Y5505
X10250Y3305
X9050Y5605
X10750Y1255
X10300Y11105
X12600Y3305
X6150Y10855
X10550Y12805
X10750Y8505
X11400Y2555
X8850Y1355
X8150Y3955
X11550Y4305
X12000Y4305
X13050Y6555
X18700Y16155
X18700Y2205
X18300Y3655
X18950Y7155
X14750Y6505
X14750Y6905
X15600Y1805
X14100Y2905
X20400Y7055
X25650Y6705
X21600Y7905
X25450Y3255
X25950Y5505
X25900Y7555
X16000Y8505
X26300Y5255
X26100Y7905
X16500Y7405
X16450Y8555
X16900Y15205
X30200Y14455
X29200Y5505
X13550Y11205
X17600Y11355
X8050Y10255
X6600Y4355
X13350Y4305
X12600Y14655
X16900Y13855
X16850Y12855
X24200Y12755
X25100Y6005
X20150Y6655
X20550Y2405
X20500Y4505
X17750Y6605
X17150Y2455
X17750Y4255
X2650Y14155
X7050Y13155
X3300Y14155
X4050Y16305
X3900Y14155
X9150Y14905
X4800Y15005
X4000Y9305
X4950Y13055
X10900Y1805
X26300Y3355
X26950Y8155
X11550Y14005
X12300Y11855
X13100Y8455
X23750Y9005
X25050Y8205
X12150Y10155
X13450Y8155
X25750Y8205
X12750Y10255
X25000Y9705
X8900Y9355
X12350Y7905
X13550Y6255
X13700Y12105
X5350Y13055
X16450Y5905
X16200Y14355
X7950Y14305
X14100Y6305
X14050Y13305
X9900Y13055
X6200Y15205
X7600Y13155
X16100Y6255
X15650Y17855
X10450Y17655
X6900Y14755
X7550Y15555
X6500Y2305
X6000Y1205
X25350Y6405
X7800Y5055
X4850Y5755
X8100Y5805
X8050Y8905
X2150Y2155
X900Y12255
X12850Y11905
X3700Y7655
X3300Y1955
X3550Y10405
X1700Y7055
X4300Y3605
X5550Y8055
X5850Y5355
X9000Y5105
X2300Y3855
X5400Y12005
X26900Y9855
X9650Y10105
X28450Y4205
X28300Y9555
X22600Y9655
X24900Y5405
X29200Y4805
X28550Y13805
X23900Y13605
X23600Y4055
X29250Y3605
X28700Y15355
X21150Y15355
X21100Y11055
X25600Y9605
X22100Y9605
X22250Y3305
X25900Y9905
X25950Y14705
X21850Y15105
X20950Y3955
X21000Y6755
X21500Y9605
X17700Y9155
X20600Y6505
X20950Y9205
X16850Y8405
X17650Y10755
X23100Y11005
X23150Y8155
X20450Y3355
X23100Y3255
X24450Y7405
X17100Y5855
X16300Y16505
X5600Y15555
X17050Y4955
X17750Y15555
X8350Y15405
X4550Y14105
X7300Y14305
X1400Y14205
X10750Y13755
X23000Y4255
X24900Y4955
X26950Y5055
X31950Y6155
X31200Y13355
X25000Y13505
X6900Y18455
X8900Y19455
X11500Y14855
X26900Y12105
X26700Y7205
X28350Y11305
X7100Y18105
X10550Y19455
X25350Y5655
X31100Y6155
X31100Y10605
X20650Y11405
T02
X2880Y18022
X2880Y16644
T03
X1917Y10046
X1917Y8864
T04
X29950Y18455
X29950Y17455
X28950Y18455
X28950Y17455
X27950Y18455
X27950Y17455
X26950Y18455
X26950Y17455
X25950Y18455
X25950Y17455
X24950Y18455
X24950Y17455
X23950Y18455
X23950Y17455
X22950Y18455
X22950Y17455
X21950Y18455
X21950Y17455
X20950Y18455
X20950Y17455
X17400Y18955
X16400Y18955
X15400Y18955
X14400Y18955
X13400Y18955
X12400Y18955
T05
X20115Y15140
T06
X23050Y1405
X11550Y17705
M30
