G75*
G70*
%OFA0B0*%
%FSLAX24Y24*%
%IPPOS*%
%LPD*%
%AMOC8*
5,1,8,0,0,1.08239X$1,22.5*
%
%ADD10C,0.0010*%
%ADD11C,0.0080*%
%ADD12C,0.0050*%
%ADD13C,0.0118*%
%ADD14C,0.0000*%
%ADD15C,0.0090*%
%ADD16C,0.0100*%
%ADD17C,0.0110*%
%ADD18C,0.0030*%
%ADD19C,0.0070*%
%ADD20C,0.0079*%
%ADD21C,0.0040*%
%ADD22C,0.0059*%
%ADD23C,0.0120*%
%ADD24C,0.0060*%
D10*
X000450Y000105D02*
X032450Y000105D01*
X032450Y020305D01*
X000450Y020305D01*
X000450Y000105D01*
D11*
X007130Y003575D02*
X007130Y004735D01*
X007670Y004735D01*
X007670Y003575D01*
X007130Y003575D01*
X008570Y003075D02*
X008570Y002535D01*
X009730Y002535D01*
X009730Y003075D01*
X008570Y003075D01*
X008570Y002425D02*
X008570Y001885D01*
X009730Y001885D01*
X009730Y002425D01*
X008570Y002425D01*
X009120Y001775D02*
X010280Y001775D01*
X010280Y001235D01*
X009120Y001235D01*
X009120Y001775D01*
X009820Y001885D02*
X009820Y002425D01*
X010980Y002425D01*
X010980Y001885D01*
X009820Y001885D01*
X009820Y002535D02*
X009820Y003075D01*
X010980Y003075D01*
X010980Y002535D01*
X009820Y002535D01*
X011080Y002435D02*
X011620Y002435D01*
X011620Y001275D01*
X011080Y001275D01*
X011080Y002435D01*
X011730Y002785D02*
X012270Y002785D01*
X012270Y001625D01*
X011730Y001625D01*
X011730Y002785D01*
X012380Y003475D02*
X012920Y003475D01*
X012920Y004635D01*
X012380Y004635D01*
X012380Y003475D01*
X013570Y003385D02*
X013570Y003925D01*
X014730Y003925D01*
X014730Y003385D01*
X013570Y003385D01*
X013570Y004035D02*
X013570Y004575D01*
X014730Y004575D01*
X014730Y004035D01*
X013570Y004035D01*
X013620Y004685D02*
X013620Y005225D01*
X014780Y005225D01*
X014780Y004685D01*
X013620Y004685D01*
X013520Y004775D02*
X012980Y004775D01*
X012980Y005935D01*
X013520Y005935D01*
X013520Y004775D01*
X012920Y004775D02*
X012380Y004775D01*
X012380Y005935D01*
X012920Y005935D01*
X012920Y004775D01*
X011287Y004826D02*
X011287Y004966D01*
X011217Y005036D01*
X011147Y005036D01*
X011077Y004966D01*
X011077Y004756D01*
X011217Y004756D01*
X011287Y004826D01*
X011077Y004756D02*
X010936Y004896D01*
X010866Y005036D01*
X010936Y004576D02*
X010866Y004506D01*
X010866Y004366D01*
X010936Y004296D01*
X011217Y004296D01*
X011287Y004366D01*
X011287Y004506D01*
X011217Y004576D01*
X011287Y004129D02*
X011287Y003989D01*
X011287Y004059D02*
X010866Y004059D01*
X010866Y003989D02*
X010866Y004129D01*
X010170Y003575D02*
X010170Y004735D01*
X009630Y004735D01*
X009630Y003575D01*
X010170Y003575D01*
X009870Y005075D02*
X009330Y005075D01*
X009330Y006235D01*
X009870Y006235D01*
X009870Y005075D01*
X009870Y006325D02*
X009330Y006325D01*
X009330Y007485D01*
X009870Y007485D01*
X009870Y006325D01*
X009980Y006325D02*
X010520Y006325D01*
X010520Y007485D01*
X009980Y007485D01*
X009980Y006325D01*
X010630Y006325D02*
X011170Y006325D01*
X011170Y007485D01*
X010630Y007485D01*
X010630Y006325D01*
X009220Y006325D02*
X008680Y006325D01*
X008680Y007485D01*
X009220Y007485D01*
X009220Y006325D01*
X008570Y006325D02*
X008030Y006325D01*
X008030Y007485D01*
X008570Y007485D01*
X008570Y006325D01*
X007920Y006325D02*
X007380Y006325D01*
X007380Y007485D01*
X007920Y007485D01*
X007920Y006325D01*
X007270Y006325D02*
X006730Y006325D01*
X006730Y007485D01*
X007270Y007485D01*
X007270Y006325D01*
X007070Y007585D02*
X007070Y008125D01*
X008230Y008125D01*
X008230Y007585D01*
X007070Y007585D01*
X006880Y007585D02*
X005720Y007585D01*
X005720Y008125D01*
X006880Y008125D01*
X006880Y007585D01*
X006070Y008575D02*
X005530Y008575D01*
X005530Y009735D01*
X006070Y009735D01*
X006070Y008575D01*
X005380Y009035D02*
X004220Y009035D01*
X004220Y009575D01*
X005380Y009575D01*
X005380Y009035D01*
X005380Y009685D02*
X004220Y009685D01*
X004220Y010225D01*
X005380Y010225D01*
X005380Y009685D01*
X005380Y010385D02*
X004220Y010385D01*
X004220Y010925D01*
X005380Y010925D01*
X005380Y010385D01*
X005380Y011035D02*
X004220Y011035D01*
X004220Y011575D01*
X005380Y011575D01*
X005380Y011035D01*
X006030Y011725D02*
X006570Y011725D01*
X006570Y012885D01*
X006030Y012885D01*
X006030Y011725D01*
X006380Y011635D02*
X006920Y011635D01*
X006920Y010475D01*
X006380Y010475D01*
X006380Y011635D01*
X006680Y011725D02*
X006680Y012885D01*
X007220Y012885D01*
X007220Y011725D01*
X006680Y011725D01*
X007030Y011635D02*
X007570Y011635D01*
X007570Y010475D01*
X007030Y010475D01*
X007030Y011635D01*
X007330Y011725D02*
X007330Y012885D01*
X007870Y012885D01*
X007870Y011725D01*
X007330Y011725D01*
X007680Y011635D02*
X008220Y011635D01*
X008220Y010475D01*
X007680Y010475D01*
X007680Y011635D01*
X008720Y011175D02*
X008720Y010635D01*
X009880Y010635D01*
X009880Y011175D01*
X008720Y011175D01*
X010480Y009885D02*
X011020Y009885D01*
X011020Y008725D01*
X010480Y008725D01*
X010480Y009885D01*
X011480Y009735D02*
X012020Y009735D01*
X012020Y008575D01*
X011480Y008575D01*
X011480Y009735D01*
X011230Y010475D02*
X011230Y011635D01*
X011770Y011635D01*
X011770Y010475D01*
X011230Y010475D01*
X011880Y010475D02*
X011880Y011635D01*
X012420Y011635D01*
X012420Y010475D01*
X011880Y010475D01*
X009920Y009035D02*
X009380Y009035D01*
X009380Y007875D01*
X009920Y007875D01*
X009920Y009035D01*
X009270Y009035D02*
X009270Y007875D01*
X008730Y007875D01*
X008730Y009035D01*
X009270Y009035D01*
X010658Y008242D02*
X010798Y008242D01*
X010728Y008242D02*
X010728Y007822D01*
X010658Y007822D02*
X010798Y007822D01*
X010965Y007892D02*
X011035Y007822D01*
X011175Y007822D01*
X011245Y007892D01*
X011426Y007822D02*
X011706Y007822D01*
X011566Y007822D02*
X011566Y008242D01*
X011426Y008102D01*
X011245Y008172D02*
X011175Y008242D01*
X011035Y008242D01*
X010965Y008172D01*
X010965Y007892D01*
X011886Y007822D02*
X012166Y007822D01*
X012026Y007822D02*
X012026Y008242D01*
X011886Y008102D01*
X016880Y009175D02*
X017420Y009175D01*
X017420Y010335D01*
X016880Y010335D01*
X016880Y009175D01*
X018203Y011142D02*
X018343Y011142D01*
X018273Y011142D02*
X018273Y011562D01*
X018203Y011562D02*
X018343Y011562D01*
X018510Y011492D02*
X018510Y011212D01*
X018580Y011142D01*
X018720Y011142D01*
X018790Y011212D01*
X018970Y011212D02*
X018970Y011282D01*
X019040Y011352D01*
X019180Y011352D01*
X019250Y011282D01*
X019250Y011212D01*
X019180Y011142D01*
X019040Y011142D01*
X018970Y011212D01*
X019040Y011352D02*
X018970Y011422D01*
X018970Y011492D01*
X019040Y011562D01*
X019180Y011562D01*
X019250Y011492D01*
X019250Y011422D01*
X019180Y011352D01*
X018790Y011492D02*
X018720Y011562D01*
X018580Y011562D01*
X018510Y011492D01*
X018980Y012685D02*
X017820Y012685D01*
X017820Y013225D01*
X018980Y013225D01*
X018980Y012685D01*
X019070Y012685D02*
X019070Y013225D01*
X020230Y013225D01*
X020230Y012685D01*
X019070Y012685D01*
X019070Y013435D02*
X019070Y013975D01*
X020230Y013975D01*
X020230Y013435D01*
X019070Y013435D01*
X018980Y013435D02*
X017820Y013435D01*
X017820Y013975D01*
X018980Y013975D01*
X018980Y013435D01*
X017670Y013935D02*
X017670Y012775D01*
X017130Y012775D01*
X017130Y013935D01*
X017670Y013935D01*
X016680Y013725D02*
X016680Y013185D01*
X015520Y013185D01*
X015520Y013725D01*
X016680Y013725D01*
X016650Y014560D02*
X016650Y014840D01*
X016510Y014700D02*
X016790Y014700D01*
X015126Y015615D02*
X015126Y015755D01*
X015056Y015825D01*
X015056Y016005D02*
X015126Y016075D01*
X015126Y016215D01*
X015056Y016286D01*
X014986Y016286D01*
X014916Y016215D01*
X014916Y016145D01*
X014916Y016215D02*
X014846Y016286D01*
X014775Y016286D01*
X014705Y016215D01*
X014705Y016075D01*
X014775Y016005D01*
X014775Y015825D02*
X014705Y015755D01*
X014705Y015615D01*
X014775Y015545D01*
X015056Y015545D01*
X015126Y015615D01*
X015056Y016466D02*
X014986Y016466D01*
X014916Y016536D01*
X014916Y016676D01*
X014986Y016746D01*
X015056Y016746D01*
X015126Y016676D01*
X015126Y016536D01*
X015056Y016466D01*
X014916Y016536D02*
X014846Y016466D01*
X014775Y016466D01*
X014705Y016536D01*
X014705Y016676D01*
X014775Y016746D01*
X014846Y016746D01*
X014916Y016676D01*
X018090Y018440D02*
X018090Y018654D01*
X018090Y018547D02*
X018410Y018547D01*
X018410Y018808D02*
X018090Y018808D01*
X018196Y018915D01*
X018090Y019022D01*
X018410Y019022D01*
X018357Y019177D02*
X018410Y019230D01*
X018410Y019337D01*
X018357Y019390D01*
X018303Y019390D01*
X018250Y019337D01*
X018250Y019230D01*
X018196Y019177D01*
X018143Y019177D01*
X018090Y019230D01*
X018090Y019337D01*
X018143Y019390D01*
X011710Y019385D02*
X011657Y019332D01*
X011550Y019332D01*
X011496Y019385D01*
X011496Y019545D01*
X011390Y019545D02*
X011710Y019545D01*
X011710Y019385D01*
X011710Y019177D02*
X011390Y019177D01*
X011496Y019177D02*
X011496Y019017D01*
X011550Y018963D01*
X011657Y018963D01*
X011710Y019017D01*
X011710Y019177D01*
X011603Y018809D02*
X011390Y018809D01*
X011603Y018809D02*
X011710Y018702D01*
X011603Y018595D01*
X011390Y018595D01*
X010280Y019185D02*
X009120Y019185D01*
X009120Y019725D01*
X010280Y019725D01*
X010280Y019185D01*
X008075Y017622D02*
X008075Y017515D01*
X008022Y017462D01*
X007915Y017568D02*
X007915Y017622D01*
X007968Y017675D01*
X008022Y017675D01*
X008075Y017622D01*
X007915Y017622D02*
X007862Y017675D01*
X007808Y017675D01*
X007755Y017622D01*
X007755Y017515D01*
X007808Y017462D01*
X007808Y017307D02*
X007755Y017253D01*
X007755Y017147D01*
X007808Y017093D01*
X008022Y017093D01*
X008075Y017147D01*
X008075Y017253D01*
X008022Y017307D01*
X008075Y016954D02*
X008075Y016848D01*
X008075Y016901D02*
X007755Y016901D01*
X007755Y016848D02*
X007755Y016954D01*
X006780Y017225D02*
X006780Y016685D01*
X005620Y016685D01*
X005620Y017225D01*
X006780Y017225D01*
X005470Y018325D02*
X004930Y018325D01*
X004930Y019485D01*
X005470Y019485D01*
X005470Y018325D01*
X006730Y018725D02*
X006730Y019885D01*
X007270Y019885D01*
X007270Y018725D01*
X006730Y018725D01*
X005477Y019645D02*
X005264Y019645D01*
X005477Y019859D01*
X005477Y019912D01*
X005424Y019965D01*
X005317Y019965D01*
X005264Y019912D01*
X005109Y019912D02*
X005109Y019698D01*
X005055Y019645D01*
X004949Y019645D01*
X004895Y019698D01*
X004895Y019912D01*
X004949Y019965D01*
X005055Y019965D01*
X005109Y019912D01*
X005002Y019752D02*
X005109Y019645D01*
X004820Y013985D02*
X004280Y013985D01*
X004280Y012825D01*
X004820Y012825D01*
X004820Y013985D01*
X004170Y013985D02*
X003630Y013985D01*
X003630Y012825D01*
X004170Y012825D01*
X004170Y013985D01*
X003520Y013985D02*
X002980Y013985D01*
X002980Y012825D01*
X003520Y012825D01*
X003520Y013985D01*
X002870Y013985D02*
X002330Y013985D01*
X002330Y012825D01*
X002870Y012825D01*
X002870Y013985D01*
X002220Y013985D02*
X001680Y013985D01*
X001680Y012825D01*
X002220Y012825D01*
X002220Y013985D01*
X001570Y013985D02*
X001030Y013985D01*
X001030Y012825D01*
X001570Y012825D01*
X001570Y013985D01*
X011170Y013275D02*
X011170Y012735D01*
X012330Y012735D01*
X012330Y013275D01*
X011170Y013275D01*
X011170Y012625D02*
X011170Y012085D01*
X012330Y012085D01*
X012330Y012625D01*
X011170Y012625D01*
X012420Y012775D02*
X012420Y012235D01*
X013580Y012235D01*
X013580Y012775D01*
X012420Y012775D01*
X012420Y012885D02*
X012420Y013425D01*
X013580Y013425D01*
X013580Y012885D01*
X012420Y012885D01*
X020670Y013075D02*
X020670Y012535D01*
X021830Y012535D01*
X021830Y013075D01*
X020670Y013075D01*
X021380Y012235D02*
X021920Y012235D01*
X021920Y011075D01*
X021380Y011075D01*
X021380Y012235D01*
X022330Y012235D02*
X022870Y012235D01*
X022870Y011075D01*
X022330Y011075D01*
X022330Y012235D01*
X023280Y012235D02*
X023820Y012235D01*
X023820Y011075D01*
X023280Y011075D01*
X023280Y012235D01*
X022335Y013255D02*
X022055Y013255D01*
X022195Y013395D02*
X022195Y013115D01*
X025370Y013285D02*
X025370Y013825D01*
X026530Y013825D01*
X026530Y013285D01*
X025370Y013285D01*
X025370Y013935D02*
X025370Y014475D01*
X026530Y014475D01*
X026530Y013935D01*
X025370Y013935D01*
X026680Y013835D02*
X027220Y013835D01*
X027220Y012675D01*
X026680Y012675D01*
X026680Y013835D01*
X026230Y015335D02*
X025070Y015335D01*
X025070Y015875D01*
X026230Y015875D01*
X026230Y015335D01*
X027580Y011735D02*
X028120Y011735D01*
X028120Y010575D01*
X027580Y010575D01*
X027580Y011735D01*
X027220Y011235D02*
X026680Y011235D01*
X026680Y010075D01*
X027220Y010075D01*
X027220Y011235D01*
X026520Y011235D02*
X026520Y010075D01*
X025980Y010075D01*
X025980Y011235D01*
X026520Y011235D01*
X028280Y011085D02*
X028280Y009925D01*
X028820Y009925D01*
X028820Y011085D01*
X028280Y011085D01*
X028930Y011085D02*
X029470Y011085D01*
X029470Y009925D01*
X028930Y009925D01*
X028930Y011085D01*
X028930Y009785D02*
X029470Y009785D01*
X029470Y008625D01*
X028930Y008625D01*
X028930Y009785D01*
X023820Y009825D02*
X023280Y009825D01*
X023280Y010985D01*
X023820Y010985D01*
X023820Y009825D01*
X022870Y009825D02*
X022330Y009825D01*
X022330Y010985D01*
X022870Y010985D01*
X022870Y009825D01*
X022680Y009225D02*
X022680Y008685D01*
X021520Y008685D01*
X021520Y009225D01*
X022680Y009225D01*
X021920Y009825D02*
X021380Y009825D01*
X021380Y010985D01*
X021920Y010985D01*
X021920Y009825D01*
X021880Y008535D02*
X022420Y008535D01*
X022420Y007375D01*
X021880Y007375D01*
X021880Y008535D01*
X022230Y004685D02*
X022770Y004685D01*
X022770Y003525D01*
X022230Y003525D01*
X022230Y004685D01*
X024920Y003025D02*
X024920Y002485D01*
X026080Y002485D01*
X026080Y003025D01*
X024920Y003025D01*
X026420Y003025D02*
X026420Y002485D01*
X027580Y002485D01*
X027580Y003025D01*
X026420Y003025D01*
X027870Y002025D02*
X029030Y002025D01*
X029030Y001485D01*
X027870Y001485D01*
X027870Y002025D01*
X027220Y001885D02*
X026680Y001885D01*
X026680Y000725D01*
X027220Y000725D01*
X027220Y001885D01*
X027870Y001325D02*
X027870Y000785D01*
X029030Y000785D01*
X029030Y001325D01*
X027870Y001325D01*
X031080Y000875D02*
X031620Y000875D01*
X031620Y002035D01*
X031080Y002035D01*
X031080Y000875D01*
X031080Y002225D02*
X031620Y002225D01*
X031620Y003385D01*
X031080Y003385D01*
X031080Y002225D01*
X030830Y004185D02*
X029670Y004185D01*
X029670Y004725D01*
X030830Y004725D01*
X030830Y004185D01*
X030830Y004835D02*
X029670Y004835D01*
X029670Y005375D01*
X030830Y005375D01*
X030830Y004835D01*
X030830Y005485D02*
X029670Y005485D01*
X029670Y006025D01*
X030830Y006025D01*
X030830Y005485D01*
X018880Y001025D02*
X018880Y000485D01*
X017720Y000485D01*
X017720Y001025D01*
X018880Y001025D01*
X016230Y001125D02*
X016230Y000585D01*
X015070Y000585D01*
X015070Y001125D01*
X016230Y001125D01*
X014820Y000575D02*
X014820Y001735D01*
X014280Y001735D01*
X014280Y000575D01*
X014820Y000575D01*
X014170Y000575D02*
X013630Y000575D01*
X013630Y001735D01*
X014170Y001735D01*
X014170Y000575D01*
X013520Y000575D02*
X012980Y000575D01*
X012980Y001735D01*
X013520Y001735D01*
X013520Y000575D01*
X012870Y000575D02*
X012330Y000575D01*
X012330Y001735D01*
X012870Y001735D01*
X012870Y000575D01*
X010280Y000585D02*
X010280Y001125D01*
X009120Y001125D01*
X009120Y000585D01*
X010280Y000585D01*
X003020Y005775D02*
X002480Y005775D01*
X002480Y006935D01*
X003020Y006935D01*
X003020Y005775D01*
D12*
X004332Y006329D02*
X004568Y006329D01*
X004844Y006566D02*
X004844Y006999D01*
X004686Y006999D01*
X004214Y006999D02*
X004056Y006999D01*
X004056Y006566D01*
X005474Y006737D02*
X005474Y006973D01*
X005711Y007249D02*
X006144Y007249D01*
X006144Y007091D01*
X006144Y006619D02*
X006144Y006461D01*
X005711Y006461D01*
X006656Y005999D02*
X006656Y005841D01*
X006656Y005999D02*
X007089Y005999D01*
X007326Y005723D02*
X007326Y005487D01*
X007089Y005211D02*
X006656Y005211D01*
X006656Y005369D01*
X008456Y004444D02*
X008456Y004011D01*
X008614Y004011D01*
X009086Y004011D02*
X009244Y004011D01*
X009244Y004444D01*
X008968Y004681D02*
X008732Y004681D01*
X010382Y003870D02*
X010500Y003870D01*
X010500Y005642D01*
X010618Y005642D01*
X010618Y003870D01*
X010500Y003870D01*
X010461Y003909D02*
X010461Y005602D01*
X010421Y005602D02*
X010421Y003909D01*
X010382Y003870D02*
X010382Y005642D01*
X010500Y005642D01*
X010539Y005602D02*
X010539Y003909D01*
X010579Y003909D02*
X010579Y005602D01*
X010618Y005642D02*
X012154Y005642D01*
X012154Y003870D01*
X010618Y003870D01*
X007594Y002894D02*
X007594Y002461D01*
X007436Y002461D01*
X006964Y002461D02*
X006806Y002461D01*
X006806Y002894D01*
X007082Y003131D02*
X007318Y003131D01*
X007294Y001399D02*
X007136Y001399D01*
X007294Y001399D02*
X007294Y000966D01*
X007018Y000729D02*
X006782Y000729D01*
X006506Y000966D02*
X006506Y001399D01*
X006664Y001399D01*
X007906Y001399D02*
X007906Y000966D01*
X008182Y000729D02*
X008418Y000729D01*
X008694Y000966D02*
X008694Y001399D01*
X008536Y001399D01*
X008064Y001399D02*
X007906Y001399D01*
X012182Y007520D02*
X012300Y007520D01*
X012300Y009292D01*
X012418Y009292D01*
X012418Y007520D01*
X012300Y007520D01*
X012261Y007559D02*
X012261Y009252D01*
X012221Y009252D02*
X012221Y007559D01*
X012182Y007520D02*
X012182Y009292D01*
X012300Y009292D01*
X012339Y009252D02*
X012339Y007559D01*
X012379Y007559D02*
X012379Y009252D01*
X012418Y009292D02*
X013954Y009292D01*
X013954Y007520D01*
X012418Y007520D01*
X015162Y010778D02*
X015516Y010778D01*
X015516Y011801D01*
X015162Y011801D01*
X015162Y010778D01*
X010464Y011398D02*
X010385Y011319D01*
X009125Y011319D01*
X009046Y011398D01*
X009046Y012500D01*
X009125Y012579D01*
X010385Y012579D01*
X010464Y012500D01*
X010464Y011398D01*
X010149Y011555D02*
X010151Y011573D01*
X010157Y011589D01*
X010166Y011604D01*
X010179Y011617D01*
X010194Y011626D01*
X010210Y011632D01*
X010228Y011634D01*
X010246Y011632D01*
X010262Y011626D01*
X010277Y011617D01*
X010290Y011604D01*
X010299Y011589D01*
X010305Y011573D01*
X010307Y011555D01*
X010305Y011537D01*
X010299Y011521D01*
X010290Y011506D01*
X010277Y011493D01*
X010262Y011484D01*
X010246Y011478D01*
X010228Y011476D01*
X010210Y011478D01*
X010194Y011484D01*
X010179Y011493D01*
X010166Y011506D01*
X010157Y011521D01*
X010151Y011537D01*
X010149Y011555D01*
X010312Y014059D02*
X008186Y014059D01*
X008186Y015752D01*
X010312Y015752D01*
X010312Y014059D01*
X008186Y014059D02*
X008107Y014059D01*
X008107Y015752D01*
X008186Y015752D01*
X008107Y015752D02*
X008029Y015752D01*
X008029Y014059D01*
X007950Y014059D01*
X007950Y015752D01*
X008029Y015752D01*
X007950Y015752D02*
X007871Y015752D01*
X007871Y014059D01*
X007950Y014059D01*
X008029Y014059D02*
X008107Y014059D01*
X007612Y014059D02*
X005486Y014059D01*
X005486Y015752D01*
X007612Y015752D01*
X007612Y014059D01*
X005486Y014059D02*
X005407Y014059D01*
X005407Y015752D01*
X005486Y015752D01*
X005407Y015752D02*
X005329Y015752D01*
X005329Y014059D01*
X005250Y014059D01*
X005250Y015752D01*
X005329Y015752D01*
X005250Y015752D02*
X005171Y015752D01*
X005171Y014059D01*
X005250Y014059D01*
X005329Y014059D02*
X005407Y014059D01*
X007734Y016759D02*
X008088Y016759D01*
X008088Y017782D01*
X007734Y017782D01*
X007734Y016759D01*
X000518Y016132D02*
X000518Y014714D01*
X000518Y016132D02*
X000518Y019951D01*
X000500Y010872D02*
X001169Y010872D01*
X001169Y010715D01*
X000500Y010872D02*
X000500Y008038D01*
X001169Y008038D01*
X001169Y008195D01*
X023674Y003223D02*
X023674Y002987D01*
X023911Y002711D02*
X024344Y002711D01*
X024344Y002869D01*
X024344Y003341D02*
X024344Y003499D01*
X023911Y003499D01*
X028283Y003505D02*
X030645Y003505D01*
X030645Y002205D02*
X028283Y002205D01*
X029691Y001889D02*
X029691Y001811D01*
X029691Y001889D02*
X030321Y001889D01*
X030321Y001811D01*
X029691Y001456D02*
X029691Y001141D01*
X029691Y001062D01*
X029691Y000748D02*
X029691Y000708D01*
X030321Y000708D01*
X030321Y000748D01*
X029750Y006488D02*
X029750Y008850D01*
X031050Y008850D02*
X031050Y006488D01*
X030994Y010611D02*
X030836Y010611D01*
X030994Y010611D02*
X030994Y011044D01*
X030718Y011281D02*
X030482Y011281D01*
X030206Y011044D02*
X030206Y010611D01*
X030364Y010611D01*
D13*
X001699Y016132D02*
X001699Y018533D01*
X000518Y018533D02*
X000518Y016132D01*
D14*
X002703Y016644D02*
X002705Y016670D01*
X002711Y016696D01*
X002721Y016721D01*
X002734Y016744D01*
X002750Y016764D01*
X002770Y016782D01*
X002792Y016797D01*
X002815Y016809D01*
X002841Y016817D01*
X002867Y016821D01*
X002893Y016821D01*
X002919Y016817D01*
X002945Y016809D01*
X002969Y016797D01*
X002990Y016782D01*
X003010Y016764D01*
X003026Y016744D01*
X003039Y016721D01*
X003049Y016696D01*
X003055Y016670D01*
X003057Y016644D01*
X003055Y016618D01*
X003049Y016592D01*
X003039Y016567D01*
X003026Y016544D01*
X003010Y016524D01*
X002990Y016506D01*
X002968Y016491D01*
X002945Y016479D01*
X002919Y016471D01*
X002893Y016467D01*
X002867Y016467D01*
X002841Y016471D01*
X002815Y016479D01*
X002791Y016491D01*
X002770Y016506D01*
X002750Y016524D01*
X002734Y016544D01*
X002721Y016567D01*
X002711Y016592D01*
X002705Y016618D01*
X002703Y016644D01*
X002703Y018022D02*
X002705Y018048D01*
X002711Y018074D01*
X002721Y018099D01*
X002734Y018122D01*
X002750Y018142D01*
X002770Y018160D01*
X002792Y018175D01*
X002815Y018187D01*
X002841Y018195D01*
X002867Y018199D01*
X002893Y018199D01*
X002919Y018195D01*
X002945Y018187D01*
X002969Y018175D01*
X002990Y018160D01*
X003010Y018142D01*
X003026Y018122D01*
X003039Y018099D01*
X003049Y018074D01*
X003055Y018048D01*
X003057Y018022D01*
X003055Y017996D01*
X003049Y017970D01*
X003039Y017945D01*
X003026Y017922D01*
X003010Y017902D01*
X002990Y017884D01*
X002968Y017869D01*
X002945Y017857D01*
X002919Y017849D01*
X002893Y017845D01*
X002867Y017845D01*
X002841Y017849D01*
X002815Y017857D01*
X002791Y017869D01*
X002770Y017884D01*
X002750Y017902D01*
X002734Y017922D01*
X002721Y017945D01*
X002711Y017970D01*
X002705Y017996D01*
X002703Y018022D01*
X001720Y010046D02*
X001722Y010073D01*
X001728Y010100D01*
X001737Y010126D01*
X001750Y010150D01*
X001766Y010173D01*
X001785Y010192D01*
X001807Y010209D01*
X001831Y010223D01*
X001856Y010233D01*
X001883Y010240D01*
X001910Y010243D01*
X001938Y010242D01*
X001965Y010237D01*
X001991Y010229D01*
X002015Y010217D01*
X002038Y010201D01*
X002059Y010183D01*
X002076Y010162D01*
X002091Y010138D01*
X002102Y010113D01*
X002110Y010087D01*
X002114Y010060D01*
X002114Y010032D01*
X002110Y010005D01*
X002102Y009979D01*
X002091Y009954D01*
X002076Y009930D01*
X002059Y009909D01*
X002038Y009891D01*
X002016Y009875D01*
X001991Y009863D01*
X001965Y009855D01*
X001938Y009850D01*
X001910Y009849D01*
X001883Y009852D01*
X001856Y009859D01*
X001831Y009869D01*
X001807Y009883D01*
X001785Y009900D01*
X001766Y009919D01*
X001750Y009942D01*
X001737Y009966D01*
X001728Y009992D01*
X001722Y010019D01*
X001720Y010046D01*
X001720Y008864D02*
X001722Y008891D01*
X001728Y008918D01*
X001737Y008944D01*
X001750Y008968D01*
X001766Y008991D01*
X001785Y009010D01*
X001807Y009027D01*
X001831Y009041D01*
X001856Y009051D01*
X001883Y009058D01*
X001910Y009061D01*
X001938Y009060D01*
X001965Y009055D01*
X001991Y009047D01*
X002015Y009035D01*
X002038Y009019D01*
X002059Y009001D01*
X002076Y008980D01*
X002091Y008956D01*
X002102Y008931D01*
X002110Y008905D01*
X002114Y008878D01*
X002114Y008850D01*
X002110Y008823D01*
X002102Y008797D01*
X002091Y008772D01*
X002076Y008748D01*
X002059Y008727D01*
X002038Y008709D01*
X002016Y008693D01*
X001991Y008681D01*
X001965Y008673D01*
X001938Y008668D01*
X001910Y008667D01*
X001883Y008670D01*
X001856Y008677D01*
X001831Y008687D01*
X001807Y008701D01*
X001785Y008718D01*
X001766Y008737D01*
X001750Y008760D01*
X001737Y008784D01*
X001728Y008810D01*
X001722Y008837D01*
X001720Y008864D01*
D15*
X001355Y003763D02*
X001355Y003490D01*
X001355Y003626D02*
X000945Y003626D01*
X001081Y003490D01*
X001013Y003303D02*
X000945Y003303D01*
X001013Y003303D02*
X001150Y003166D01*
X001355Y003166D01*
X001150Y003166D02*
X001013Y003029D01*
X000945Y003029D01*
X001355Y002842D02*
X001355Y002569D01*
X000945Y002569D01*
X001013Y002382D02*
X001150Y002382D01*
X001218Y002314D01*
X001218Y002108D01*
X001355Y002108D02*
X000945Y002108D01*
X000945Y002314D01*
X001013Y002382D01*
X001218Y002245D02*
X001355Y002382D01*
X014538Y011925D02*
X014674Y011925D01*
X014606Y011925D02*
X014606Y012335D01*
X014538Y012335D02*
X014674Y012335D01*
X014845Y012267D02*
X014845Y011993D01*
X014913Y011925D01*
X015050Y011925D01*
X015118Y011993D01*
X015305Y011925D02*
X015579Y011925D01*
X015442Y011925D02*
X015442Y012335D01*
X015305Y012198D01*
X015118Y012267D02*
X015050Y012335D01*
X014913Y012335D01*
X014845Y012267D01*
X015765Y012267D02*
X015834Y012335D01*
X015971Y012335D01*
X016039Y012267D01*
X016039Y012198D01*
X015971Y012130D01*
X016039Y012062D01*
X016039Y011993D01*
X015971Y011925D01*
X015834Y011925D01*
X015765Y011993D01*
X015902Y012130D02*
X015971Y012130D01*
X011555Y015158D02*
X011555Y015295D01*
X011555Y015226D02*
X011145Y015226D01*
X011145Y015158D02*
X011145Y015295D01*
X011213Y015465D02*
X011487Y015465D01*
X011555Y015533D01*
X011555Y015670D01*
X011487Y015739D01*
X011555Y015925D02*
X011555Y016199D01*
X011555Y016062D02*
X011145Y016062D01*
X011281Y015925D01*
X011213Y015739D02*
X011145Y015670D01*
X011145Y015533D01*
X011213Y015465D01*
X011213Y016386D02*
X011145Y016454D01*
X011145Y016591D01*
X011213Y016659D01*
X011281Y016659D01*
X011555Y016386D01*
X011555Y016659D01*
X009743Y014598D02*
X009811Y014529D01*
X009538Y014256D01*
X009606Y014187D01*
X009743Y014187D01*
X009811Y014256D01*
X009811Y014529D01*
X009743Y014598D02*
X009606Y014598D01*
X009538Y014529D01*
X009538Y014256D01*
X009351Y014187D02*
X009077Y014187D01*
X009214Y014187D02*
X009214Y014598D01*
X009077Y014461D01*
X008890Y014529D02*
X008822Y014598D01*
X008685Y014598D01*
X008617Y014529D01*
X008617Y014256D01*
X008685Y014187D01*
X008822Y014187D01*
X008890Y014256D01*
X008447Y014187D02*
X008310Y014187D01*
X008378Y014187D02*
X008378Y014598D01*
X008310Y014598D02*
X008447Y014598D01*
X006651Y014529D02*
X006651Y014256D01*
X006582Y014187D01*
X006446Y014187D01*
X006377Y014256D01*
X006446Y014393D02*
X006651Y014393D01*
X006651Y014529D02*
X006582Y014598D01*
X006446Y014598D01*
X006377Y014529D01*
X006377Y014461D01*
X006446Y014393D01*
X006190Y014529D02*
X006122Y014598D01*
X005985Y014598D01*
X005917Y014529D01*
X005917Y014256D01*
X005985Y014187D01*
X006122Y014187D01*
X006190Y014256D01*
X005747Y014187D02*
X005610Y014187D01*
X005678Y014187D02*
X005678Y014598D01*
X005610Y014598D02*
X005747Y014598D01*
X001220Y016283D02*
X001151Y016215D01*
X001220Y016283D02*
X001220Y016420D01*
X001151Y016488D01*
X001083Y016488D01*
X001014Y016420D01*
X001014Y016283D01*
X000946Y016215D01*
X000878Y016215D01*
X000809Y016283D01*
X000809Y016420D01*
X000878Y016488D01*
X000809Y016675D02*
X001083Y016675D01*
X001220Y016812D01*
X001083Y016949D01*
X000809Y016949D01*
X000946Y017135D02*
X000809Y017272D01*
X001220Y017272D01*
X001220Y017135D02*
X001220Y017409D01*
X022895Y015276D02*
X022895Y015003D01*
X022963Y014934D01*
X023100Y014934D01*
X023168Y015003D01*
X023355Y015003D02*
X023424Y014934D01*
X023560Y014934D01*
X023629Y015003D01*
X023629Y015071D01*
X023560Y015139D01*
X023492Y015139D01*
X023560Y015139D02*
X023629Y015208D01*
X023629Y015276D01*
X023560Y015345D01*
X023424Y015345D01*
X023355Y015276D01*
X023168Y015276D02*
X023100Y015345D01*
X022963Y015345D01*
X022895Y015276D01*
X023816Y015345D02*
X024089Y015345D01*
X024089Y015276D01*
X023816Y015003D01*
X023816Y014934D01*
X031245Y017937D02*
X031313Y017869D01*
X031381Y017869D01*
X031450Y017937D01*
X031450Y018074D01*
X031518Y018142D01*
X031587Y018142D01*
X031655Y018074D01*
X031655Y017937D01*
X031587Y017869D01*
X031245Y017937D02*
X031245Y018074D01*
X031313Y018142D01*
X031245Y018329D02*
X031518Y018329D01*
X031655Y018466D01*
X031518Y018603D01*
X031245Y018603D01*
X031313Y018790D02*
X031245Y018858D01*
X031245Y018995D01*
X031313Y019063D01*
X031381Y019063D01*
X031450Y018995D01*
X031518Y019063D01*
X031587Y019063D01*
X031655Y018995D01*
X031655Y018858D01*
X031587Y018790D01*
X031450Y018926D02*
X031450Y018995D01*
D16*
X031950Y019755D02*
X018950Y019755D01*
X018950Y016155D01*
X031950Y016155D01*
X031950Y019755D01*
X026475Y013155D02*
X025900Y013155D01*
X025500Y013155D02*
X024925Y013155D01*
X024925Y012255D01*
X025500Y012255D01*
X025900Y012255D02*
X026475Y012255D01*
X026475Y013155D01*
X020761Y011771D02*
X020761Y010039D01*
X017848Y010039D01*
X017848Y011771D01*
X017946Y011771D01*
X017946Y010039D01*
X017848Y010039D02*
X017749Y010039D01*
X017749Y011771D01*
X017848Y011771D01*
X017946Y011771D02*
X020761Y011771D01*
X017749Y011771D02*
X017651Y011771D01*
X017651Y010039D01*
X017749Y010039D01*
X017450Y010730D02*
X016550Y010730D01*
X016550Y011305D01*
X016550Y011705D02*
X016550Y012280D01*
X017450Y012280D01*
X017450Y011705D01*
X017450Y011305D02*
X017450Y010730D01*
X015694Y007511D02*
X021206Y007511D01*
X021206Y001999D01*
X015694Y001999D01*
X015694Y007511D01*
X016087Y002786D02*
X016089Y002825D01*
X016095Y002864D01*
X016105Y002902D01*
X016118Y002939D01*
X016135Y002974D01*
X016155Y003008D01*
X016179Y003039D01*
X016206Y003068D01*
X016235Y003094D01*
X016267Y003117D01*
X016301Y003137D01*
X016337Y003153D01*
X016374Y003165D01*
X016413Y003174D01*
X016452Y003179D01*
X016491Y003180D01*
X016530Y003177D01*
X016569Y003170D01*
X016606Y003159D01*
X016643Y003145D01*
X016678Y003127D01*
X016711Y003106D01*
X016742Y003081D01*
X016770Y003054D01*
X016795Y003024D01*
X016817Y002991D01*
X016836Y002957D01*
X016851Y002921D01*
X016863Y002883D01*
X016871Y002845D01*
X016875Y002806D01*
X016875Y002766D01*
X016871Y002727D01*
X016863Y002689D01*
X016851Y002651D01*
X016836Y002615D01*
X016817Y002581D01*
X016795Y002548D01*
X016770Y002518D01*
X016742Y002491D01*
X016711Y002466D01*
X016678Y002445D01*
X016643Y002427D01*
X016606Y002413D01*
X016569Y002402D01*
X016530Y002395D01*
X016491Y002392D01*
X016452Y002393D01*
X016413Y002398D01*
X016374Y002407D01*
X016337Y002419D01*
X016301Y002435D01*
X016267Y002455D01*
X016235Y002478D01*
X016206Y002504D01*
X016179Y002533D01*
X016155Y002564D01*
X016135Y002598D01*
X016118Y002633D01*
X016105Y002670D01*
X016095Y002708D01*
X016089Y002747D01*
X016087Y002786D01*
X024625Y001505D02*
X024625Y000605D01*
X025200Y000605D01*
X025600Y000605D02*
X026175Y000605D01*
X026175Y001505D01*
X025600Y001505D01*
X025200Y001505D02*
X024625Y001505D01*
X007891Y008614D02*
X007891Y009796D01*
X007000Y009405D02*
X007000Y009005D01*
X006900Y009005D01*
X006800Y009005D01*
X006800Y009305D01*
X006900Y009305D01*
X006900Y009405D01*
X007000Y009405D01*
X006900Y009405D02*
X006900Y009005D01*
X006900Y009405D02*
X006800Y009405D01*
X006789Y009796D02*
X006789Y008614D01*
X006780Y008605D02*
X006680Y008605D01*
X006680Y009805D01*
X006780Y009805D01*
X006689Y009796D02*
X006689Y008614D01*
X005325Y008605D02*
X005325Y007705D01*
X004750Y007705D01*
X004350Y007705D02*
X003775Y007705D01*
X003775Y008605D01*
X004350Y008605D01*
X004750Y008605D02*
X005325Y008605D01*
X002225Y006805D02*
X002225Y005905D01*
X001650Y005905D01*
X001250Y005905D02*
X000675Y005905D01*
X000675Y006805D01*
X001250Y006805D01*
X001650Y006805D02*
X002225Y006805D01*
X000644Y005503D02*
X000644Y000307D01*
X006156Y000307D01*
X006156Y005503D01*
X000644Y005503D01*
X004975Y003692D02*
X004975Y002118D01*
X005762Y002118D01*
X005762Y003692D01*
X004975Y003692D01*
X004825Y011805D02*
X004250Y011805D01*
X003850Y011805D02*
X003275Y011805D01*
X003275Y012705D01*
X003850Y012705D01*
X004250Y012705D02*
X004825Y012705D01*
X004825Y011805D01*
X002875Y011805D02*
X002875Y012705D01*
X002300Y012705D01*
X001900Y012705D02*
X001325Y012705D01*
X001325Y011805D01*
X001900Y011805D01*
X002300Y011805D02*
X002875Y011805D01*
X011750Y014455D02*
X011850Y014455D01*
X011850Y015455D01*
X011750Y015455D01*
X011750Y014455D01*
X011850Y014455D02*
X011950Y014455D01*
X012050Y014455D01*
X013750Y014455D01*
X013750Y015455D01*
X012150Y015455D01*
X012050Y015455D01*
X011950Y015455D01*
X011850Y015455D01*
X007700Y018005D02*
X006700Y018005D01*
X006700Y019705D01*
X006700Y019805D01*
X006700Y019905D01*
X007700Y019905D01*
X007700Y020005D01*
X006700Y020005D01*
X006700Y019905D01*
X007700Y019905D02*
X007700Y019805D01*
X007700Y019705D01*
X007700Y019605D01*
X007700Y018005D01*
X006150Y018015D02*
X006150Y017295D01*
X004850Y017295D01*
X004850Y018015D01*
X006150Y018015D01*
X011900Y018494D02*
X011900Y019416D01*
X017900Y019416D01*
X017900Y018494D01*
X011900Y018494D01*
X019690Y014716D02*
X019726Y014751D01*
X019490Y015140D02*
X019492Y015190D01*
X019498Y015239D01*
X019508Y015288D01*
X019521Y015335D01*
X019539Y015382D01*
X019560Y015427D01*
X019584Y015470D01*
X019612Y015511D01*
X019643Y015550D01*
X019677Y015586D01*
X019714Y015620D01*
X019754Y015650D01*
X019795Y015677D01*
X019839Y015701D01*
X019884Y015721D01*
X019931Y015737D01*
X019979Y015750D01*
X020028Y015759D01*
X020078Y015764D01*
X020127Y015765D01*
X020177Y015762D01*
X020226Y015755D01*
X020275Y015744D01*
X020322Y015730D01*
X020368Y015711D01*
X020413Y015689D01*
X020456Y015664D01*
X020496Y015635D01*
X020534Y015603D01*
X020570Y015569D01*
X020603Y015531D01*
X020632Y015491D01*
X020658Y015449D01*
X020681Y015405D01*
X020700Y015359D01*
X020716Y015312D01*
X020728Y015263D01*
X020736Y015214D01*
X020740Y015165D01*
X020740Y015115D01*
X020736Y015066D01*
X020728Y015017D01*
X020716Y014968D01*
X020700Y014921D01*
X020681Y014875D01*
X020658Y014831D01*
X020632Y014789D01*
X020603Y014749D01*
X020570Y014711D01*
X020534Y014677D01*
X020496Y014645D01*
X020456Y014616D01*
X020413Y014591D01*
X020368Y014569D01*
X020322Y014550D01*
X020275Y014536D01*
X020226Y014525D01*
X020177Y014518D01*
X020127Y014515D01*
X020078Y014516D01*
X020028Y014521D01*
X019979Y014530D01*
X019931Y014543D01*
X019884Y014559D01*
X019839Y014579D01*
X019795Y014603D01*
X019754Y014630D01*
X019714Y014660D01*
X019677Y014694D01*
X019643Y014730D01*
X019612Y014769D01*
X019584Y014810D01*
X019560Y014853D01*
X019539Y014898D01*
X019521Y014945D01*
X019508Y014992D01*
X019498Y015041D01*
X019492Y015090D01*
X019490Y015140D01*
X020504Y015529D02*
X020539Y015565D01*
D17*
X017505Y017825D02*
X017440Y017760D01*
X017310Y017760D01*
X017245Y017825D01*
X017245Y017955D02*
X017375Y018020D01*
X017440Y018020D01*
X017505Y017955D01*
X017505Y017825D01*
X017245Y017955D02*
X017245Y018150D01*
X017505Y018150D01*
X017044Y018150D02*
X017044Y017890D01*
X016914Y017760D01*
X016784Y017890D01*
X016784Y018150D01*
X016584Y018085D02*
X016519Y018150D01*
X016389Y018150D01*
X016324Y018085D01*
X016324Y018020D01*
X016389Y017955D01*
X016519Y017955D01*
X016584Y017890D01*
X016584Y017825D01*
X016519Y017760D01*
X016389Y017760D01*
X016324Y017825D01*
X019880Y007356D02*
X019880Y006922D01*
X019880Y007139D02*
X019229Y007139D01*
X019446Y006922D01*
X019338Y006656D02*
X019229Y006548D01*
X019229Y006331D01*
X019338Y006223D01*
X019771Y006223D01*
X019880Y006331D01*
X019880Y006548D01*
X019771Y006656D01*
X019880Y005973D02*
X019880Y005756D01*
X019880Y005865D02*
X019229Y005865D01*
X019229Y005973D02*
X019229Y005756D01*
D18*
X029245Y003292D02*
X029616Y003292D01*
X029616Y003169D02*
X029616Y003415D01*
X029369Y003169D02*
X029245Y003292D01*
X029245Y003047D02*
X029245Y002800D01*
X029245Y002679D02*
X029616Y002432D01*
X029616Y002679D02*
X029245Y002432D01*
X029245Y002924D02*
X029616Y002924D01*
X029848Y007551D02*
X030095Y007921D01*
X030216Y007921D02*
X030463Y007921D01*
X030340Y007921D02*
X030340Y007551D01*
X030585Y007551D02*
X030832Y007798D01*
X030832Y007859D01*
X030770Y007921D01*
X030646Y007921D01*
X030585Y007859D01*
X030585Y007551D02*
X030832Y007551D01*
X030095Y007551D02*
X029848Y007921D01*
D19*
X030007Y010354D02*
X029677Y010354D01*
X029677Y010519D01*
X029732Y010574D01*
X029952Y010574D01*
X030007Y010519D01*
X030007Y010354D01*
X029952Y010722D02*
X029897Y010722D01*
X029842Y010777D01*
X029842Y010887D01*
X029897Y010942D01*
X029952Y010942D01*
X030007Y010887D01*
X030007Y010777D01*
X029952Y010722D01*
X029842Y010777D02*
X029787Y010722D01*
X029732Y010722D01*
X029677Y010777D01*
X029677Y010887D01*
X029732Y010942D01*
X029787Y010942D01*
X029842Y010887D01*
X030156Y012709D02*
X030228Y012709D01*
X030300Y012781D01*
X030300Y012924D01*
X030372Y012996D01*
X030443Y012996D01*
X030515Y012924D01*
X030515Y012781D01*
X030443Y012709D01*
X030156Y012709D02*
X030085Y012781D01*
X030085Y012924D01*
X030156Y012996D01*
X030085Y013169D02*
X030515Y013169D01*
X030372Y013313D01*
X030515Y013456D01*
X030085Y013456D01*
X030228Y013630D02*
X030085Y013773D01*
X030515Y013773D01*
X030515Y013630D02*
X030515Y013917D01*
X025702Y014700D02*
X025482Y014700D01*
X025592Y014810D02*
X025592Y014590D01*
X023055Y011407D02*
X023055Y011187D01*
X022945Y011297D02*
X023165Y011297D01*
X022215Y011297D02*
X021995Y011297D01*
X022105Y011187D02*
X022105Y011407D01*
X021265Y011297D02*
X021045Y011297D01*
X021155Y011187D02*
X021155Y011407D01*
X009626Y012858D02*
X009406Y012858D01*
X009571Y013023D01*
X009571Y012692D01*
X009258Y012692D02*
X009038Y012692D01*
X009148Y012692D02*
X009148Y013023D01*
X009038Y012913D01*
X008890Y012968D02*
X008835Y013023D01*
X008725Y013023D01*
X008670Y012968D01*
X008670Y012747D01*
X008725Y012692D01*
X008835Y012692D01*
X008890Y012747D01*
X008534Y012692D02*
X008424Y012692D01*
X008479Y012692D02*
X008479Y013023D01*
X008424Y013023D02*
X008534Y013023D01*
X006460Y009574D02*
X006350Y009574D01*
X006295Y009519D01*
X006295Y009464D01*
X006350Y009354D01*
X006185Y009354D01*
X006185Y009574D01*
X006460Y009574D02*
X006515Y009519D01*
X006515Y009409D01*
X006460Y009354D01*
X006460Y009206D02*
X006515Y009151D01*
X006515Y009041D01*
X006460Y008986D01*
X006240Y008986D01*
X006185Y009041D01*
X006185Y009151D01*
X006240Y009206D01*
X006185Y008850D02*
X006185Y008740D01*
X006185Y008795D02*
X006515Y008795D01*
X006515Y008740D02*
X006515Y008850D01*
X003923Y007173D02*
X003923Y007063D01*
X003868Y007008D01*
X003868Y006860D02*
X003647Y006860D01*
X003592Y006805D01*
X003592Y006640D01*
X003923Y006640D01*
X003923Y006805D01*
X003868Y006860D01*
X003647Y007008D02*
X003592Y007063D01*
X003592Y007173D01*
X003647Y007228D01*
X003703Y007228D01*
X003758Y007173D01*
X003813Y007228D01*
X003868Y007228D01*
X003923Y007173D01*
X003758Y007173D02*
X003758Y007118D01*
X005180Y005878D02*
X005346Y005878D01*
X005401Y005823D01*
X005401Y005603D01*
X005346Y005548D01*
X005180Y005548D01*
X005180Y005878D01*
X005549Y005768D02*
X005659Y005878D01*
X005659Y005548D01*
X005549Y005548D02*
X005769Y005548D01*
X005917Y005603D02*
X006137Y005823D01*
X006137Y005603D01*
X006082Y005548D01*
X005972Y005548D01*
X005917Y005603D01*
X005917Y005823D01*
X005972Y005878D01*
X006082Y005878D01*
X006137Y005823D01*
X006117Y006048D02*
X006337Y006268D01*
X006337Y006323D01*
X006282Y006378D01*
X006172Y006378D01*
X006117Y006323D01*
X005969Y006323D02*
X005914Y006378D01*
X005749Y006378D01*
X005749Y006048D01*
X005914Y006048D01*
X005969Y006103D01*
X005969Y006323D01*
X006117Y006048D02*
X006337Y006048D01*
X008294Y005468D02*
X008624Y005468D01*
X008624Y005358D02*
X008624Y005578D01*
X008404Y005358D02*
X008294Y005468D01*
X008349Y005210D02*
X008294Y005155D01*
X008294Y004990D01*
X008624Y004990D01*
X008624Y005155D01*
X008569Y005210D01*
X008349Y005210D01*
X023935Y002513D02*
X024045Y002513D01*
X023990Y002513D02*
X023990Y002182D01*
X023935Y002182D02*
X024045Y002182D01*
X024180Y002237D02*
X024235Y002182D01*
X024345Y002182D01*
X024400Y002237D01*
X024548Y002237D02*
X024548Y002182D01*
X024548Y002237D02*
X024769Y002458D01*
X024769Y002513D01*
X024548Y002513D01*
X024400Y002458D02*
X024345Y002513D01*
X024235Y002513D01*
X024180Y002458D01*
X024180Y002237D01*
X030935Y000735D02*
X031045Y000735D01*
X030990Y000735D02*
X030990Y000405D01*
X030935Y000405D02*
X031045Y000405D01*
X031181Y000460D02*
X031236Y000405D01*
X031346Y000405D01*
X031401Y000460D01*
X031549Y000570D02*
X031769Y000570D01*
X031714Y000405D02*
X031714Y000735D01*
X031549Y000570D01*
X031401Y000680D02*
X031346Y000735D01*
X031236Y000735D01*
X031181Y000680D01*
X031181Y000460D01*
D20*
X028289Y004327D02*
X027698Y004327D01*
X028289Y004327D02*
X028289Y004918D01*
X024549Y004327D02*
X023958Y004327D01*
X023958Y004918D01*
X023958Y008068D02*
X023958Y008658D01*
X024549Y008658D01*
X027698Y008658D02*
X028289Y008658D01*
X028289Y008068D01*
X027586Y008145D02*
X027588Y008169D01*
X027594Y008193D01*
X027603Y008215D01*
X027616Y008235D01*
X027632Y008253D01*
X027651Y008268D01*
X027672Y008281D01*
X027694Y008289D01*
X027718Y008294D01*
X027742Y008295D01*
X027766Y008292D01*
X027789Y008285D01*
X027811Y008275D01*
X027831Y008261D01*
X027848Y008244D01*
X027863Y008225D01*
X027874Y008204D01*
X027882Y008181D01*
X027886Y008157D01*
X027886Y008133D01*
X027882Y008109D01*
X027874Y008086D01*
X027863Y008065D01*
X027848Y008046D01*
X027831Y008029D01*
X027811Y008015D01*
X027789Y008005D01*
X027766Y007998D01*
X027742Y007995D01*
X027718Y007996D01*
X027694Y008001D01*
X027672Y008009D01*
X027651Y008022D01*
X027632Y008037D01*
X027616Y008055D01*
X027603Y008075D01*
X027594Y008097D01*
X027588Y008121D01*
X027586Y008145D01*
D21*
X027255Y007808D02*
X026948Y007808D01*
X027101Y007808D02*
X027101Y008269D01*
X026948Y008115D01*
X027101Y007465D02*
X027024Y007388D01*
X027024Y007235D01*
X027101Y007158D01*
X027101Y007004D02*
X027024Y006928D01*
X027024Y006774D01*
X027101Y006698D01*
X027408Y006698D01*
X027484Y006774D01*
X027484Y006928D01*
X027408Y007004D01*
X027484Y007158D02*
X027177Y007465D01*
X027101Y007465D01*
X027484Y007465D02*
X027484Y007158D01*
X027484Y006544D02*
X027484Y006391D01*
X027484Y006467D02*
X027024Y006467D01*
X027024Y006391D02*
X027024Y006544D01*
X001098Y009270D02*
X001021Y009193D01*
X001098Y009270D02*
X001098Y009423D01*
X001021Y009500D01*
X000945Y009500D01*
X000868Y009423D01*
X000868Y009270D01*
X000791Y009193D01*
X000714Y009193D01*
X000638Y009270D01*
X000638Y009423D01*
X000714Y009500D01*
X000638Y009653D02*
X000945Y009653D01*
X001098Y009807D01*
X000945Y009960D01*
X000638Y009960D01*
X000714Y010114D02*
X000638Y010190D01*
X000638Y010344D01*
X000714Y010421D01*
X000791Y010421D01*
X001098Y010114D01*
X001098Y010421D01*
D22*
X031430Y008735D02*
X031430Y007575D01*
X031970Y007575D01*
X031970Y008735D01*
X031430Y008735D01*
X031430Y007585D02*
X031970Y007585D01*
X031970Y006425D01*
X031430Y006425D01*
X031430Y007585D01*
D23*
X025850Y010135D02*
X024540Y010135D01*
X024540Y012075D01*
X025850Y012075D01*
X025850Y010135D01*
X027781Y011932D02*
X031719Y011932D01*
X031719Y012345D01*
X031719Y013089D02*
X031719Y014133D01*
X031719Y014865D02*
X031719Y015278D01*
X027781Y015278D01*
X027781Y014865D01*
X027781Y014133D02*
X027781Y013089D01*
X027781Y012345D02*
X027781Y011932D01*
X024617Y012956D02*
X024617Y013861D01*
X024617Y014649D02*
X024617Y015554D01*
X022255Y015554D01*
X022216Y015554D02*
X021783Y015239D01*
X021783Y014649D01*
X021783Y013861D02*
X021783Y013271D01*
X022255Y012956D01*
X024617Y012956D01*
X018410Y014585D02*
X018410Y016525D01*
X017100Y016525D01*
X017100Y014585D01*
X018410Y014585D01*
X016949Y014760D02*
X016634Y014288D01*
X016044Y014288D01*
X015256Y014288D02*
X014666Y014288D01*
X014351Y014721D01*
X014351Y014760D02*
X014351Y017122D01*
X015256Y017122D01*
X016044Y017122D02*
X016949Y017122D01*
X016949Y014760D01*
X010210Y016985D02*
X010210Y018925D01*
X008900Y018925D01*
X008900Y016985D01*
X010210Y016985D01*
X014430Y010615D02*
X014430Y009305D01*
X016370Y009305D01*
X016370Y010615D01*
X014430Y010615D01*
D24*
X007028Y004000D02*
X007028Y003807D01*
X007028Y003904D02*
X006737Y003904D01*
X006834Y003807D01*
X006786Y003678D02*
X006979Y003678D01*
X007028Y003630D01*
X007028Y003533D01*
X006979Y003485D01*
X006786Y003485D01*
X006737Y003533D01*
X006737Y003630D01*
X006786Y003678D01*
X006931Y003581D02*
X007028Y003678D01*
X007887Y002676D02*
X008178Y002676D01*
X008178Y002579D02*
X008178Y002773D01*
X007984Y002579D02*
X007887Y002676D01*
X008178Y002450D02*
X008178Y002257D01*
X008178Y002354D02*
X007887Y002354D01*
X007984Y002257D01*
X007936Y002128D02*
X007887Y002080D01*
X007887Y001935D01*
X008178Y001935D01*
X008178Y002080D01*
X008129Y002128D01*
X007936Y002128D01*
X007695Y001968D02*
X007695Y001919D01*
X007502Y001726D01*
X007502Y001677D01*
X007373Y001726D02*
X007325Y001677D01*
X007180Y001677D01*
X007180Y001968D01*
X007325Y001968D01*
X007373Y001919D01*
X007373Y001726D01*
X007502Y001968D02*
X007695Y001968D01*
M02*
