G75*
G70*
%OFA0B0*%
%FSLAX24Y24*%
%IPPOS*%
%LPD*%
%AMOC8*
5,1,8,0,0,1.08239X$1,22.5*
%
%ADD10C,0.0010*%
%ADD11C,0.0000*%
D10*
X000450Y000105D02*
X032450Y000105D01*
X032450Y020305D01*
X000450Y020305D01*
X000450Y000105D01*
D11*
X001720Y008864D02*
X001722Y008891D01*
X001728Y008918D01*
X001737Y008944D01*
X001750Y008968D01*
X001766Y008991D01*
X001785Y009010D01*
X001807Y009027D01*
X001831Y009041D01*
X001856Y009051D01*
X001883Y009058D01*
X001910Y009061D01*
X001938Y009060D01*
X001965Y009055D01*
X001991Y009047D01*
X002015Y009035D01*
X002038Y009019D01*
X002059Y009001D01*
X002076Y008980D01*
X002091Y008956D01*
X002102Y008931D01*
X002110Y008905D01*
X002114Y008878D01*
X002114Y008850D01*
X002110Y008823D01*
X002102Y008797D01*
X002091Y008772D01*
X002076Y008748D01*
X002059Y008727D01*
X002038Y008709D01*
X002016Y008693D01*
X001991Y008681D01*
X001965Y008673D01*
X001938Y008668D01*
X001910Y008667D01*
X001883Y008670D01*
X001856Y008677D01*
X001831Y008687D01*
X001807Y008701D01*
X001785Y008718D01*
X001766Y008737D01*
X001750Y008760D01*
X001737Y008784D01*
X001728Y008810D01*
X001722Y008837D01*
X001720Y008864D01*
X001720Y010046D02*
X001722Y010073D01*
X001728Y010100D01*
X001737Y010126D01*
X001750Y010150D01*
X001766Y010173D01*
X001785Y010192D01*
X001807Y010209D01*
X001831Y010223D01*
X001856Y010233D01*
X001883Y010240D01*
X001910Y010243D01*
X001938Y010242D01*
X001965Y010237D01*
X001991Y010229D01*
X002015Y010217D01*
X002038Y010201D01*
X002059Y010183D01*
X002076Y010162D01*
X002091Y010138D01*
X002102Y010113D01*
X002110Y010087D01*
X002114Y010060D01*
X002114Y010032D01*
X002110Y010005D01*
X002102Y009979D01*
X002091Y009954D01*
X002076Y009930D01*
X002059Y009909D01*
X002038Y009891D01*
X002016Y009875D01*
X001991Y009863D01*
X001965Y009855D01*
X001938Y009850D01*
X001910Y009849D01*
X001883Y009852D01*
X001856Y009859D01*
X001831Y009869D01*
X001807Y009883D01*
X001785Y009900D01*
X001766Y009919D01*
X001750Y009942D01*
X001737Y009966D01*
X001728Y009992D01*
X001722Y010019D01*
X001720Y010046D01*
X002703Y016644D02*
X002705Y016670D01*
X002711Y016696D01*
X002721Y016721D01*
X002734Y016744D01*
X002750Y016764D01*
X002770Y016782D01*
X002792Y016797D01*
X002815Y016809D01*
X002841Y016817D01*
X002867Y016821D01*
X002893Y016821D01*
X002919Y016817D01*
X002945Y016809D01*
X002969Y016797D01*
X002990Y016782D01*
X003010Y016764D01*
X003026Y016744D01*
X003039Y016721D01*
X003049Y016696D01*
X003055Y016670D01*
X003057Y016644D01*
X003055Y016618D01*
X003049Y016592D01*
X003039Y016567D01*
X003026Y016544D01*
X003010Y016524D01*
X002990Y016506D01*
X002968Y016491D01*
X002945Y016479D01*
X002919Y016471D01*
X002893Y016467D01*
X002867Y016467D01*
X002841Y016471D01*
X002815Y016479D01*
X002791Y016491D01*
X002770Y016506D01*
X002750Y016524D01*
X002734Y016544D01*
X002721Y016567D01*
X002711Y016592D01*
X002705Y016618D01*
X002703Y016644D01*
X002703Y018022D02*
X002705Y018048D01*
X002711Y018074D01*
X002721Y018099D01*
X002734Y018122D01*
X002750Y018142D01*
X002770Y018160D01*
X002792Y018175D01*
X002815Y018187D01*
X002841Y018195D01*
X002867Y018199D01*
X002893Y018199D01*
X002919Y018195D01*
X002945Y018187D01*
X002969Y018175D01*
X002990Y018160D01*
X003010Y018142D01*
X003026Y018122D01*
X003039Y018099D01*
X003049Y018074D01*
X003055Y018048D01*
X003057Y018022D01*
X003055Y017996D01*
X003049Y017970D01*
X003039Y017945D01*
X003026Y017922D01*
X003010Y017902D01*
X002990Y017884D01*
X002968Y017869D01*
X002945Y017857D01*
X002919Y017849D01*
X002893Y017845D01*
X002867Y017845D01*
X002841Y017849D01*
X002815Y017857D01*
X002791Y017869D01*
X002770Y017884D01*
X002750Y017902D01*
X002734Y017922D01*
X002721Y017945D01*
X002711Y017970D01*
X002705Y017996D01*
X002703Y018022D01*
M02*
