G75*
G70*
%OFA0B0*%
%FSLAX24Y24*%
%IPPOS*%
%LPD*%
%AMOC8*
5,1,8,0,0,1.08239X$1,22.5*
%
%ADD10C,0.0010*%
%ADD11C,0.0090*%
%ADD12C,0.0110*%
%ADD13C,0.0000*%
%ADD14C,0.0675*%
%ADD15C,0.0945*%
%ADD16C,0.0080*%
%ADD17C,0.0317*%
%ADD18C,0.1181*%
D10*
X000450Y000105D02*
X032450Y000105D01*
X032450Y020305D01*
X000450Y020305D01*
X000450Y000105D01*
D11*
X020213Y019050D02*
X020213Y019324D01*
X020213Y019187D02*
X020350Y019324D01*
X020418Y019324D01*
X020596Y019255D02*
X020665Y019324D01*
X020802Y019324D01*
X020870Y019255D01*
X020870Y019118D01*
X020802Y019050D01*
X020665Y019050D01*
X020596Y019118D01*
X020596Y019255D01*
X021057Y019324D02*
X021057Y019118D01*
X021125Y019050D01*
X021330Y019050D01*
X021330Y019324D01*
X021517Y019324D02*
X021654Y019324D01*
X021586Y019392D02*
X021586Y019118D01*
X021654Y019050D01*
X021824Y019118D02*
X021824Y019255D01*
X021893Y019324D01*
X022029Y019324D01*
X022098Y019255D01*
X022098Y019187D01*
X021824Y019187D01*
X021824Y019118D02*
X021893Y019050D01*
X022029Y019050D01*
X022285Y019050D02*
X022558Y019324D01*
X022558Y019392D01*
X022490Y019460D01*
X022353Y019460D01*
X022285Y019392D01*
X022285Y019050D02*
X022558Y019050D01*
D12*
X035505Y022160D02*
X035702Y022160D01*
X035603Y022160D02*
X035603Y022751D01*
X035505Y022751D02*
X035702Y022751D01*
X035935Y022751D02*
X036328Y022160D01*
X036328Y022751D01*
X036579Y022554D02*
X036776Y022751D01*
X036776Y022160D01*
X036579Y022160D02*
X036973Y022160D01*
X035935Y022160D02*
X035935Y022751D01*
D13*
X002703Y018022D02*
X002705Y018048D01*
X002711Y018074D01*
X002721Y018099D01*
X002734Y018122D01*
X002750Y018142D01*
X002770Y018160D01*
X002792Y018175D01*
X002815Y018187D01*
X002841Y018195D01*
X002867Y018199D01*
X002893Y018199D01*
X002919Y018195D01*
X002945Y018187D01*
X002969Y018175D01*
X002990Y018160D01*
X003010Y018142D01*
X003026Y018122D01*
X003039Y018099D01*
X003049Y018074D01*
X003055Y018048D01*
X003057Y018022D01*
X003055Y017996D01*
X003049Y017970D01*
X003039Y017945D01*
X003026Y017922D01*
X003010Y017902D01*
X002990Y017884D01*
X002968Y017869D01*
X002945Y017857D01*
X002919Y017849D01*
X002893Y017845D01*
X002867Y017845D01*
X002841Y017849D01*
X002815Y017857D01*
X002791Y017869D01*
X002770Y017884D01*
X002750Y017902D01*
X002734Y017922D01*
X002721Y017945D01*
X002711Y017970D01*
X002705Y017996D01*
X002703Y018022D01*
X002703Y016644D02*
X002705Y016670D01*
X002711Y016696D01*
X002721Y016721D01*
X002734Y016744D01*
X002750Y016764D01*
X002770Y016782D01*
X002792Y016797D01*
X002815Y016809D01*
X002841Y016817D01*
X002867Y016821D01*
X002893Y016821D01*
X002919Y016817D01*
X002945Y016809D01*
X002969Y016797D01*
X002990Y016782D01*
X003010Y016764D01*
X003026Y016744D01*
X003039Y016721D01*
X003049Y016696D01*
X003055Y016670D01*
X003057Y016644D01*
X003055Y016618D01*
X003049Y016592D01*
X003039Y016567D01*
X003026Y016544D01*
X003010Y016524D01*
X002990Y016506D01*
X002968Y016491D01*
X002945Y016479D01*
X002919Y016471D01*
X002893Y016467D01*
X002867Y016467D01*
X002841Y016471D01*
X002815Y016479D01*
X002791Y016491D01*
X002770Y016506D01*
X002750Y016524D01*
X002734Y016544D01*
X002721Y016567D01*
X002711Y016592D01*
X002705Y016618D01*
X002703Y016644D01*
X001720Y010046D02*
X001722Y010073D01*
X001728Y010100D01*
X001737Y010126D01*
X001750Y010150D01*
X001766Y010173D01*
X001785Y010192D01*
X001807Y010209D01*
X001831Y010223D01*
X001856Y010233D01*
X001883Y010240D01*
X001910Y010243D01*
X001938Y010242D01*
X001965Y010237D01*
X001991Y010229D01*
X002015Y010217D01*
X002038Y010201D01*
X002059Y010183D01*
X002076Y010162D01*
X002091Y010138D01*
X002102Y010113D01*
X002110Y010087D01*
X002114Y010060D01*
X002114Y010032D01*
X002110Y010005D01*
X002102Y009979D01*
X002091Y009954D01*
X002076Y009930D01*
X002059Y009909D01*
X002038Y009891D01*
X002016Y009875D01*
X001991Y009863D01*
X001965Y009855D01*
X001938Y009850D01*
X001910Y009849D01*
X001883Y009852D01*
X001856Y009859D01*
X001831Y009869D01*
X001807Y009883D01*
X001785Y009900D01*
X001766Y009919D01*
X001750Y009942D01*
X001737Y009966D01*
X001728Y009992D01*
X001722Y010019D01*
X001720Y010046D01*
X001720Y008864D02*
X001722Y008891D01*
X001728Y008918D01*
X001737Y008944D01*
X001750Y008968D01*
X001766Y008991D01*
X001785Y009010D01*
X001807Y009027D01*
X001831Y009041D01*
X001856Y009051D01*
X001883Y009058D01*
X001910Y009061D01*
X001938Y009060D01*
X001965Y009055D01*
X001991Y009047D01*
X002015Y009035D01*
X002038Y009019D01*
X002059Y009001D01*
X002076Y008980D01*
X002091Y008956D01*
X002102Y008931D01*
X002110Y008905D01*
X002114Y008878D01*
X002114Y008850D01*
X002110Y008823D01*
X002102Y008797D01*
X002091Y008772D01*
X002076Y008748D01*
X002059Y008727D01*
X002038Y008709D01*
X002016Y008693D01*
X001991Y008681D01*
X001965Y008673D01*
X001938Y008668D01*
X001910Y008667D01*
X001883Y008670D01*
X001856Y008677D01*
X001831Y008687D01*
X001807Y008701D01*
X001785Y008718D01*
X001766Y008737D01*
X001750Y008760D01*
X001737Y008784D01*
X001728Y008810D01*
X001722Y008837D01*
X001720Y008864D01*
D14*
X012400Y018955D03*
X013400Y018955D03*
X014400Y018955D03*
X015400Y018955D03*
X016400Y018955D03*
X017400Y018955D03*
X020950Y018455D03*
X021950Y018455D03*
X022950Y018455D03*
X023950Y018455D03*
X024950Y018455D03*
X025950Y018455D03*
X026950Y018455D03*
X027950Y018455D03*
X028950Y018455D03*
X029950Y018455D03*
X029950Y017455D03*
X028950Y017455D03*
X027950Y017455D03*
X026950Y017455D03*
X025950Y017455D03*
X024950Y017455D03*
X023950Y017455D03*
X022950Y017455D03*
X021950Y017455D03*
X020950Y017455D03*
D15*
X020115Y015140D03*
D16*
X020134Y015177D02*
X020208Y015177D01*
X020171Y015140D02*
X020115Y015197D01*
X020519Y015602D01*
X020514Y015608D01*
X020436Y015664D01*
X020350Y015708D01*
X020258Y015738D01*
X020163Y015753D01*
X020066Y015753D01*
X019971Y015738D01*
X019879Y015708D01*
X019794Y015664D01*
X019716Y015608D01*
X019710Y015602D01*
X020115Y015197D01*
X020058Y015140D01*
X020115Y015084D01*
X020171Y015140D01*
X020576Y014736D01*
X020582Y014741D01*
X020638Y014819D01*
X020682Y014905D01*
X020712Y014997D01*
X020727Y015092D01*
X020727Y015189D01*
X020712Y015284D01*
X020682Y015375D01*
X020638Y015461D01*
X020582Y015539D01*
X020576Y015545D01*
X020171Y015140D01*
X020129Y015099D02*
X020213Y015099D01*
X020178Y015020D02*
X020291Y015020D01*
X020257Y014942D02*
X020370Y014942D01*
X020335Y014863D02*
X020448Y014863D01*
X020414Y014785D02*
X020527Y014785D01*
X020613Y014785D02*
X021607Y014785D01*
X021624Y014767D02*
X021771Y014706D01*
X021929Y014706D01*
X022076Y014767D01*
X022188Y014879D01*
X022249Y015026D01*
X022249Y015184D01*
X022188Y015331D01*
X022076Y015443D01*
X021929Y015504D01*
X021771Y015504D01*
X021624Y015443D01*
X021549Y015368D01*
X021549Y015434D01*
X021488Y015581D01*
X021376Y015693D01*
X021229Y015754D01*
X021071Y015754D01*
X020924Y015693D01*
X020812Y015581D01*
X020751Y015434D01*
X020751Y015276D01*
X020812Y015129D01*
X020924Y015017D01*
X021071Y014956D01*
X021229Y014956D01*
X021376Y015017D01*
X021451Y015092D01*
X021451Y015026D01*
X021512Y014879D01*
X021624Y014767D01*
X021528Y014863D02*
X020661Y014863D01*
X020694Y014942D02*
X021486Y014942D01*
X021454Y015020D02*
X021379Y015020D01*
X021549Y015413D02*
X021594Y015413D01*
X021525Y015491D02*
X021740Y015491D01*
X021960Y015491D02*
X024490Y015491D01*
X024521Y015504D02*
X024374Y015443D01*
X024262Y015331D01*
X024201Y015184D01*
X024201Y015026D01*
X024262Y014879D01*
X024374Y014767D01*
X024521Y014706D01*
X024679Y014706D01*
X024826Y014767D01*
X024938Y014879D01*
X024999Y015026D01*
X024999Y015184D01*
X024938Y015331D01*
X024826Y015443D01*
X024679Y015504D01*
X024521Y015504D01*
X024710Y015491D02*
X027790Y015491D01*
X027821Y015504D02*
X027674Y015443D01*
X027562Y015331D01*
X027501Y015184D01*
X027501Y015026D01*
X027562Y014879D01*
X027674Y014767D01*
X027821Y014706D01*
X027979Y014706D01*
X028126Y014767D01*
X028238Y014879D01*
X028299Y015026D01*
X028299Y015184D01*
X028238Y015331D01*
X028126Y015443D01*
X027979Y015504D01*
X027821Y015504D01*
X028010Y015491D02*
X028325Y015491D01*
X028301Y015434D02*
X028362Y015581D01*
X028474Y015693D01*
X028621Y015754D01*
X028779Y015754D01*
X028926Y015693D01*
X029038Y015581D01*
X029099Y015434D01*
X029099Y015276D01*
X029038Y015129D01*
X028926Y015017D01*
X028779Y014956D01*
X028621Y014956D01*
X028474Y015017D01*
X028362Y015129D01*
X028301Y015276D01*
X028301Y015434D01*
X028301Y015413D02*
X028156Y015413D01*
X028235Y015334D02*
X028301Y015334D01*
X028310Y015256D02*
X028269Y015256D01*
X028299Y015177D02*
X028342Y015177D01*
X028299Y015099D02*
X028393Y015099D01*
X028471Y015020D02*
X028296Y015020D01*
X028264Y014942D02*
X032200Y014942D01*
X032200Y015020D02*
X028929Y015020D01*
X029007Y015099D02*
X032200Y015099D01*
X032200Y015177D02*
X029058Y015177D01*
X029090Y015256D02*
X032200Y015256D01*
X032200Y015334D02*
X029099Y015334D01*
X029099Y015413D02*
X029935Y015413D01*
X029924Y015417D02*
X030071Y015356D01*
X030229Y015356D01*
X030376Y015417D01*
X030488Y015529D01*
X030499Y015556D01*
X030629Y015556D01*
X030776Y015617D01*
X030888Y015729D01*
X030949Y015876D01*
X030949Y016034D01*
X030888Y016181D01*
X030776Y016293D01*
X030629Y016354D01*
X030471Y016354D01*
X030324Y016293D01*
X030212Y016181D01*
X030201Y016154D01*
X030071Y016154D01*
X029924Y016093D01*
X029812Y015981D01*
X029751Y015834D01*
X029751Y015676D01*
X029812Y015529D01*
X029924Y015417D01*
X029850Y015491D02*
X029075Y015491D01*
X029043Y015570D02*
X029795Y015570D01*
X029763Y015648D02*
X028971Y015648D01*
X028845Y015727D02*
X029751Y015727D01*
X029751Y015805D02*
X018897Y015805D01*
X018926Y015817D02*
X019038Y015929D01*
X019099Y016076D01*
X019099Y016234D01*
X019038Y016381D01*
X018926Y016493D01*
X018779Y016554D01*
X018621Y016554D01*
X018474Y016493D01*
X018362Y016381D01*
X018301Y016234D01*
X018301Y016076D01*
X018362Y015929D01*
X018474Y015817D01*
X018621Y015756D01*
X018779Y015756D01*
X018926Y015817D01*
X018992Y015884D02*
X029772Y015884D01*
X029804Y015962D02*
X019052Y015962D01*
X019084Y016041D02*
X029872Y016041D01*
X029987Y016119D02*
X019099Y016119D01*
X019099Y016198D02*
X030229Y016198D01*
X030307Y016276D02*
X024985Y016276D01*
X024976Y016267D02*
X025088Y016379D01*
X025149Y016526D01*
X025149Y016684D01*
X025088Y016831D01*
X024976Y016943D01*
X024880Y016983D01*
X024910Y016978D01*
X024910Y017415D01*
X024990Y017415D01*
X024990Y017495D01*
X025427Y017495D01*
X025416Y017567D01*
X025393Y017638D01*
X025358Y017705D01*
X025314Y017766D01*
X025261Y017819D01*
X025200Y017863D01*
X025133Y017898D01*
X025122Y017901D01*
X025277Y017965D01*
X025440Y018128D01*
X025450Y018153D01*
X025460Y018128D01*
X025623Y017965D01*
X025778Y017901D01*
X025767Y017898D01*
X025700Y017863D01*
X025639Y017819D01*
X025586Y017766D01*
X025542Y017705D01*
X025507Y017638D01*
X025484Y017567D01*
X025473Y017495D01*
X025910Y017495D01*
X025910Y017415D01*
X025990Y017415D01*
X025990Y017495D01*
X026427Y017495D01*
X026416Y017567D01*
X026393Y017638D01*
X026358Y017705D01*
X026314Y017766D01*
X026261Y017819D01*
X026200Y017863D01*
X026133Y017898D01*
X026122Y017901D01*
X026277Y017965D01*
X026440Y018128D01*
X026450Y018153D01*
X026460Y018128D01*
X026623Y017965D01*
X026778Y017901D01*
X026767Y017898D01*
X026700Y017863D01*
X026639Y017819D01*
X026586Y017766D01*
X026542Y017705D01*
X026507Y017638D01*
X026484Y017567D01*
X026473Y017495D01*
X026910Y017495D01*
X026910Y017415D01*
X026473Y017415D01*
X026484Y017343D01*
X026507Y017272D01*
X026542Y017205D01*
X026586Y017144D01*
X026639Y017091D01*
X026694Y017051D01*
X026674Y017043D01*
X026562Y016931D01*
X026501Y016784D01*
X026501Y016626D01*
X026562Y016479D01*
X026674Y016367D01*
X026821Y016306D01*
X026979Y016306D01*
X027126Y016367D01*
X027238Y016479D01*
X027299Y016626D01*
X027299Y016784D01*
X027238Y016931D01*
X027149Y017020D01*
X027200Y017047D01*
X027261Y017091D01*
X027314Y017144D01*
X027358Y017205D01*
X027393Y017272D01*
X027416Y017343D01*
X027427Y017415D01*
X026990Y017415D01*
X026990Y017495D01*
X027427Y017495D01*
X027416Y017567D01*
X027393Y017638D01*
X027358Y017705D01*
X027314Y017766D01*
X027261Y017819D01*
X027200Y017863D01*
X027133Y017898D01*
X027122Y017901D01*
X027277Y017965D01*
X027440Y018128D01*
X027450Y018153D01*
X027460Y018128D01*
X027623Y017965D01*
X027778Y017901D01*
X027767Y017898D01*
X027700Y017863D01*
X027639Y017819D01*
X027586Y017766D01*
X027542Y017705D01*
X027507Y017638D01*
X027484Y017567D01*
X027473Y017495D01*
X027910Y017495D01*
X027910Y017415D01*
X027990Y017415D01*
X027990Y017495D01*
X028427Y017495D01*
X028416Y017567D01*
X028393Y017638D01*
X028358Y017705D01*
X028314Y017766D01*
X028261Y017819D01*
X028200Y017863D01*
X028133Y017898D01*
X028122Y017901D01*
X028277Y017965D01*
X028440Y018128D01*
X028450Y018153D01*
X028460Y018128D01*
X028623Y017965D01*
X028778Y017901D01*
X028767Y017898D01*
X028700Y017863D01*
X028639Y017819D01*
X028586Y017766D01*
X028542Y017705D01*
X028507Y017638D01*
X028484Y017567D01*
X028473Y017495D01*
X028910Y017495D01*
X028910Y017415D01*
X028990Y017415D01*
X028990Y016978D01*
X029062Y016989D01*
X029133Y017012D01*
X029200Y017047D01*
X029261Y017091D01*
X029314Y017144D01*
X029358Y017205D01*
X029393Y017272D01*
X029396Y017283D01*
X029460Y017128D01*
X029623Y016965D01*
X029835Y016878D01*
X030065Y016878D01*
X030277Y016965D01*
X030440Y017128D01*
X030527Y017340D01*
X030527Y017570D01*
X030440Y017782D01*
X030277Y017945D01*
X030252Y017955D01*
X030277Y017965D01*
X030440Y018128D01*
X030527Y018340D01*
X030527Y018570D01*
X030440Y018782D01*
X030277Y018945D01*
X030065Y019032D01*
X029835Y019032D01*
X029623Y018945D01*
X029460Y018782D01*
X029450Y018757D01*
X029440Y018782D01*
X029277Y018945D01*
X029065Y019032D01*
X028835Y019032D01*
X028623Y018945D01*
X028460Y018782D01*
X028450Y018757D01*
X028440Y018782D01*
X028277Y018945D01*
X028065Y019032D01*
X027835Y019032D01*
X027623Y018945D01*
X027460Y018782D01*
X027450Y018757D01*
X027440Y018782D01*
X027277Y018945D01*
X027065Y019032D01*
X026835Y019032D01*
X026623Y018945D01*
X026460Y018782D01*
X026450Y018757D01*
X026440Y018782D01*
X026277Y018945D01*
X026065Y019032D01*
X025835Y019032D01*
X025623Y018945D01*
X025460Y018782D01*
X025450Y018757D01*
X025440Y018782D01*
X025277Y018945D01*
X025065Y019032D01*
X024835Y019032D01*
X024623Y018945D01*
X024460Y018782D01*
X024450Y018757D01*
X024440Y018782D01*
X024277Y018945D01*
X024065Y019032D01*
X023835Y019032D01*
X023623Y018945D01*
X023460Y018782D01*
X023450Y018757D01*
X023440Y018782D01*
X023277Y018945D01*
X023065Y019032D01*
X022843Y019032D01*
X022843Y019107D01*
X022810Y019187D01*
X022843Y019267D01*
X022843Y019449D01*
X022800Y019553D01*
X022731Y019622D01*
X022651Y019702D01*
X022546Y019745D01*
X022296Y019745D01*
X022203Y019707D01*
X022192Y019702D01*
X022192Y019702D01*
X022116Y019627D01*
X022111Y019622D01*
X022095Y019605D01*
X022086Y019609D01*
X021836Y019609D01*
X021791Y019590D01*
X021747Y019634D01*
X021642Y019677D01*
X021529Y019677D01*
X021424Y019634D01*
X021396Y019605D01*
X021387Y019609D01*
X021274Y019609D01*
X021194Y019575D01*
X021114Y019609D01*
X021000Y019609D01*
X020929Y019579D01*
X020858Y019609D01*
X020608Y019609D01*
X020541Y019581D01*
X020475Y019609D01*
X020293Y019609D01*
X020281Y019604D01*
X020270Y019609D01*
X020156Y019609D01*
X020051Y019565D01*
X019971Y019485D01*
X019928Y019380D01*
X019928Y018993D01*
X019971Y018889D01*
X020051Y018808D01*
X020156Y018765D01*
X020270Y018765D01*
X020374Y018808D01*
X020439Y018873D01*
X020495Y018817D01*
X020460Y018782D01*
X020373Y018570D01*
X020373Y018340D01*
X020460Y018128D01*
X020623Y017965D01*
X020778Y017901D01*
X020767Y017898D01*
X020700Y017863D01*
X020639Y017819D01*
X020586Y017766D01*
X020542Y017705D01*
X020507Y017638D01*
X020484Y017567D01*
X020473Y017495D01*
X020910Y017495D01*
X020910Y017415D01*
X020473Y017415D01*
X020484Y017343D01*
X020507Y017272D01*
X020542Y017205D01*
X020586Y017144D01*
X020639Y017091D01*
X020700Y017047D01*
X020767Y017012D01*
X020838Y016989D01*
X020910Y016978D01*
X020910Y017415D01*
X020990Y017415D01*
X020990Y017495D01*
X021427Y017495D01*
X021416Y017567D01*
X021393Y017638D01*
X021358Y017705D01*
X021314Y017766D01*
X021261Y017819D01*
X021200Y017863D01*
X021133Y017898D01*
X021122Y017901D01*
X021277Y017965D01*
X021440Y018128D01*
X021450Y018153D01*
X021460Y018128D01*
X021623Y017965D01*
X021778Y017901D01*
X021767Y017898D01*
X021700Y017863D01*
X021639Y017819D01*
X021586Y017766D01*
X021542Y017705D01*
X021507Y017638D01*
X021484Y017567D01*
X021473Y017495D01*
X021910Y017495D01*
X021910Y017415D01*
X021990Y017415D01*
X021990Y017495D01*
X022427Y017495D01*
X022416Y017567D01*
X022393Y017638D01*
X022358Y017705D01*
X022314Y017766D01*
X022261Y017819D01*
X022200Y017863D01*
X022133Y017898D01*
X022122Y017901D01*
X022277Y017965D01*
X022440Y018128D01*
X022450Y018153D01*
X022460Y018128D01*
X022623Y017965D01*
X022778Y017901D01*
X022767Y017898D01*
X022700Y017863D01*
X022639Y017819D01*
X022586Y017766D01*
X022542Y017705D01*
X022507Y017638D01*
X022484Y017567D01*
X022473Y017495D01*
X022910Y017495D01*
X022910Y017415D01*
X022990Y017415D01*
X022990Y017495D01*
X023427Y017495D01*
X023416Y017567D01*
X023393Y017638D01*
X023358Y017705D01*
X023314Y017766D01*
X023261Y017819D01*
X023200Y017863D01*
X023133Y017898D01*
X023122Y017901D01*
X023277Y017965D01*
X023440Y018128D01*
X023450Y018153D01*
X023460Y018128D01*
X023623Y017965D01*
X023778Y017901D01*
X023767Y017898D01*
X023700Y017863D01*
X023639Y017819D01*
X023586Y017766D01*
X023542Y017705D01*
X023507Y017638D01*
X023484Y017567D01*
X023473Y017495D01*
X023910Y017495D01*
X023910Y017415D01*
X023990Y017415D01*
X023990Y017495D01*
X024427Y017495D01*
X024416Y017567D01*
X024393Y017638D01*
X024358Y017705D01*
X024314Y017766D01*
X024261Y017819D01*
X024200Y017863D01*
X024133Y017898D01*
X024122Y017901D01*
X024277Y017965D01*
X024440Y018128D01*
X024450Y018153D01*
X024460Y018128D01*
X024623Y017965D01*
X024778Y017901D01*
X024767Y017898D01*
X024700Y017863D01*
X024639Y017819D01*
X024586Y017766D01*
X024542Y017705D01*
X024507Y017638D01*
X024484Y017567D01*
X024473Y017495D01*
X024910Y017495D01*
X024910Y017415D01*
X024473Y017415D01*
X024484Y017343D01*
X024507Y017272D01*
X024542Y017205D01*
X024586Y017144D01*
X024639Y017091D01*
X024700Y017047D01*
X024767Y017012D01*
X024794Y017004D01*
X024671Y017004D01*
X024524Y016943D01*
X024412Y016831D01*
X024351Y016684D01*
X024351Y016526D01*
X024412Y016379D01*
X024524Y016267D01*
X024671Y016206D01*
X024829Y016206D01*
X024976Y016267D01*
X025063Y016355D02*
X026704Y016355D01*
X026608Y016433D02*
X025110Y016433D01*
X025143Y016512D02*
X026549Y016512D01*
X026516Y016590D02*
X025149Y016590D01*
X025149Y016669D02*
X026501Y016669D01*
X026501Y016747D02*
X025123Y016747D01*
X025090Y016826D02*
X026518Y016826D01*
X026551Y016904D02*
X025015Y016904D01*
X024990Y016978D02*
X025062Y016989D01*
X025133Y017012D01*
X025200Y017047D01*
X025261Y017091D01*
X025314Y017144D01*
X025358Y017205D01*
X025393Y017272D01*
X025416Y017343D01*
X025427Y017415D01*
X024990Y017415D01*
X024990Y016978D01*
X024990Y016983D02*
X024910Y016983D01*
X024881Y016983D02*
X024880Y016983D01*
X024910Y017061D02*
X024990Y017061D01*
X024990Y017140D02*
X024910Y017140D01*
X024910Y017218D02*
X024990Y017218D01*
X024990Y017297D02*
X024910Y017297D01*
X024910Y017375D02*
X024990Y017375D01*
X024990Y017454D02*
X025910Y017454D01*
X025910Y017415D02*
X025473Y017415D01*
X025484Y017343D01*
X025507Y017272D01*
X025542Y017205D01*
X025586Y017144D01*
X025639Y017091D01*
X025700Y017047D01*
X025767Y017012D01*
X025838Y016989D01*
X025910Y016978D01*
X025910Y017415D01*
X025910Y017375D02*
X025990Y017375D01*
X025990Y017415D02*
X025990Y016978D01*
X026062Y016989D01*
X026133Y017012D01*
X026200Y017047D01*
X026261Y017091D01*
X026314Y017144D01*
X026358Y017205D01*
X026393Y017272D01*
X026416Y017343D01*
X026427Y017415D01*
X025990Y017415D01*
X025990Y017454D02*
X026910Y017454D01*
X026990Y017454D02*
X027910Y017454D01*
X027910Y017415D02*
X027473Y017415D01*
X027484Y017343D01*
X027507Y017272D01*
X027542Y017205D01*
X027586Y017144D01*
X027639Y017091D01*
X027700Y017047D01*
X027767Y017012D01*
X027838Y016989D01*
X027910Y016978D01*
X027910Y017415D01*
X027910Y017375D02*
X027990Y017375D01*
X027990Y017415D02*
X027990Y016978D01*
X028062Y016989D01*
X028133Y017012D01*
X028200Y017047D01*
X028261Y017091D01*
X028314Y017144D01*
X028358Y017205D01*
X028393Y017272D01*
X028416Y017343D01*
X028427Y017415D01*
X027990Y017415D01*
X027990Y017454D02*
X028910Y017454D01*
X028910Y017415D02*
X028473Y017415D01*
X028484Y017343D01*
X028507Y017272D01*
X028542Y017205D01*
X028586Y017144D01*
X028639Y017091D01*
X028700Y017047D01*
X028767Y017012D01*
X028838Y016989D01*
X028910Y016978D01*
X028910Y017415D01*
X028910Y017375D02*
X028990Y017375D01*
X028990Y017297D02*
X028910Y017297D01*
X028910Y017218D02*
X028990Y017218D01*
X028990Y017140D02*
X028910Y017140D01*
X028910Y017061D02*
X028990Y017061D01*
X028990Y016983D02*
X028910Y016983D01*
X028881Y016983D02*
X028019Y016983D01*
X027990Y016983D02*
X027910Y016983D01*
X027881Y016983D02*
X027186Y016983D01*
X027220Y017061D02*
X027680Y017061D01*
X027590Y017140D02*
X027310Y017140D01*
X027365Y017218D02*
X027535Y017218D01*
X027499Y017297D02*
X027401Y017297D01*
X027421Y017375D02*
X027479Y017375D01*
X027479Y017532D02*
X027421Y017532D01*
X027402Y017611D02*
X027498Y017611D01*
X027533Y017689D02*
X027367Y017689D01*
X027313Y017768D02*
X027587Y017768D01*
X027676Y017846D02*
X027224Y017846D01*
X027178Y017925D02*
X027722Y017925D01*
X027585Y018003D02*
X027315Y018003D01*
X027393Y018082D02*
X027507Y018082D01*
X028178Y017925D02*
X028722Y017925D01*
X028676Y017846D02*
X028224Y017846D01*
X028313Y017768D02*
X028587Y017768D01*
X028533Y017689D02*
X028367Y017689D01*
X028402Y017611D02*
X028498Y017611D01*
X028479Y017532D02*
X028421Y017532D01*
X028421Y017375D02*
X028479Y017375D01*
X028499Y017297D02*
X028401Y017297D01*
X028365Y017218D02*
X028535Y017218D01*
X028590Y017140D02*
X028310Y017140D01*
X028220Y017061D02*
X028680Y017061D01*
X029019Y016983D02*
X029606Y016983D01*
X029527Y017061D02*
X029220Y017061D01*
X029310Y017140D02*
X029456Y017140D01*
X029423Y017218D02*
X029365Y017218D01*
X029771Y016904D02*
X027249Y016904D01*
X027282Y016826D02*
X032200Y016826D01*
X032200Y016904D02*
X030129Y016904D01*
X030294Y016983D02*
X032200Y016983D01*
X032200Y017061D02*
X030373Y017061D01*
X030444Y017140D02*
X032200Y017140D01*
X032200Y017218D02*
X030477Y017218D01*
X030509Y017297D02*
X032200Y017297D01*
X032200Y017375D02*
X030527Y017375D01*
X030527Y017454D02*
X032200Y017454D01*
X032200Y017532D02*
X030527Y017532D01*
X030511Y017611D02*
X032200Y017611D01*
X032200Y017689D02*
X030478Y017689D01*
X030446Y017768D02*
X032200Y017768D01*
X032200Y017846D02*
X030376Y017846D01*
X030297Y017925D02*
X032200Y017925D01*
X032200Y018003D02*
X030315Y018003D01*
X030393Y018082D02*
X032200Y018082D01*
X032200Y018160D02*
X030453Y018160D01*
X030485Y018239D02*
X032200Y018239D01*
X032200Y018317D02*
X030518Y018317D01*
X030527Y018396D02*
X032200Y018396D01*
X032200Y018474D02*
X030527Y018474D01*
X030527Y018553D02*
X032200Y018553D01*
X032200Y018631D02*
X030502Y018631D01*
X030470Y018710D02*
X032200Y018710D01*
X032200Y018788D02*
X030434Y018788D01*
X030355Y018867D02*
X032200Y018867D01*
X032200Y018945D02*
X030276Y018945D01*
X030086Y019024D02*
X032200Y019024D01*
X032200Y019102D02*
X022843Y019102D01*
X022813Y019181D02*
X032200Y019181D01*
X032200Y019259D02*
X022840Y019259D01*
X022843Y019338D02*
X032200Y019338D01*
X032200Y019416D02*
X022843Y019416D01*
X022824Y019495D02*
X032200Y019495D01*
X032200Y019573D02*
X022780Y019573D01*
X022702Y019652D02*
X032200Y019652D01*
X032200Y019730D02*
X022583Y019730D01*
X022259Y019730D02*
X010839Y019730D01*
X010888Y019681D02*
X010776Y019793D01*
X010629Y019854D01*
X010471Y019854D01*
X010324Y019793D01*
X010212Y019681D01*
X010151Y019534D01*
X010151Y019376D01*
X010212Y019229D01*
X010324Y019117D01*
X010471Y019056D01*
X010629Y019056D01*
X010776Y019117D01*
X010888Y019229D01*
X010949Y019376D01*
X010949Y019534D01*
X010888Y019681D01*
X010900Y019652D02*
X021468Y019652D01*
X021704Y019652D02*
X022141Y019652D01*
X023086Y019024D02*
X023814Y019024D01*
X023624Y018945D02*
X023276Y018945D01*
X023355Y018867D02*
X023545Y018867D01*
X023466Y018788D02*
X023434Y018788D01*
X024086Y019024D02*
X024814Y019024D01*
X024624Y018945D02*
X024276Y018945D01*
X024355Y018867D02*
X024545Y018867D01*
X024466Y018788D02*
X024434Y018788D01*
X025086Y019024D02*
X025814Y019024D01*
X025624Y018945D02*
X025276Y018945D01*
X025355Y018867D02*
X025545Y018867D01*
X025466Y018788D02*
X025434Y018788D01*
X026086Y019024D02*
X026814Y019024D01*
X026624Y018945D02*
X026276Y018945D01*
X026355Y018867D02*
X026545Y018867D01*
X026466Y018788D02*
X026434Y018788D01*
X027086Y019024D02*
X027814Y019024D01*
X027624Y018945D02*
X027276Y018945D01*
X027355Y018867D02*
X027545Y018867D01*
X027466Y018788D02*
X027434Y018788D01*
X028086Y019024D02*
X028814Y019024D01*
X028624Y018945D02*
X028276Y018945D01*
X028355Y018867D02*
X028545Y018867D01*
X028466Y018788D02*
X028434Y018788D01*
X029086Y019024D02*
X029814Y019024D01*
X029624Y018945D02*
X029276Y018945D01*
X029355Y018867D02*
X029545Y018867D01*
X029466Y018788D02*
X029434Y018788D01*
X028585Y018003D02*
X028315Y018003D01*
X028393Y018082D02*
X028507Y018082D01*
X027990Y017297D02*
X027910Y017297D01*
X027910Y017218D02*
X027990Y017218D01*
X027990Y017140D02*
X027910Y017140D01*
X027910Y017061D02*
X027990Y017061D01*
X027299Y016747D02*
X032200Y016747D01*
X032200Y016669D02*
X027299Y016669D01*
X027284Y016590D02*
X032200Y016590D01*
X032200Y016512D02*
X027251Y016512D01*
X027192Y016433D02*
X032200Y016433D01*
X032200Y016355D02*
X027096Y016355D01*
X026614Y016983D02*
X026019Y016983D01*
X025990Y016983D02*
X025910Y016983D01*
X025881Y016983D02*
X025019Y016983D01*
X025220Y017061D02*
X025680Y017061D01*
X025590Y017140D02*
X025310Y017140D01*
X025365Y017218D02*
X025535Y017218D01*
X025499Y017297D02*
X025401Y017297D01*
X025421Y017375D02*
X025479Y017375D01*
X025479Y017532D02*
X025421Y017532D01*
X025402Y017611D02*
X025498Y017611D01*
X025533Y017689D02*
X025367Y017689D01*
X025313Y017768D02*
X025587Y017768D01*
X025676Y017846D02*
X025224Y017846D01*
X025178Y017925D02*
X025722Y017925D01*
X025585Y018003D02*
X025315Y018003D01*
X025393Y018082D02*
X025507Y018082D01*
X026178Y017925D02*
X026722Y017925D01*
X026676Y017846D02*
X026224Y017846D01*
X026313Y017768D02*
X026587Y017768D01*
X026533Y017689D02*
X026367Y017689D01*
X026402Y017611D02*
X026498Y017611D01*
X026479Y017532D02*
X026421Y017532D01*
X026421Y017375D02*
X026479Y017375D01*
X026499Y017297D02*
X026401Y017297D01*
X026365Y017218D02*
X026535Y017218D01*
X026590Y017140D02*
X026310Y017140D01*
X026220Y017061D02*
X026680Y017061D01*
X025990Y017061D02*
X025910Y017061D01*
X025910Y017140D02*
X025990Y017140D01*
X025990Y017218D02*
X025910Y017218D01*
X025910Y017297D02*
X025990Y017297D01*
X026315Y018003D02*
X026585Y018003D01*
X026507Y018082D02*
X026393Y018082D01*
X024910Y017454D02*
X023990Y017454D01*
X023990Y017415D02*
X024427Y017415D01*
X024416Y017343D01*
X024393Y017272D01*
X024358Y017205D01*
X024314Y017144D01*
X024261Y017091D01*
X024200Y017047D01*
X024133Y017012D01*
X024062Y016989D01*
X023990Y016978D01*
X023990Y017415D01*
X023990Y017375D02*
X023910Y017375D01*
X023910Y017415D02*
X023910Y016978D01*
X023838Y016989D01*
X023767Y017012D01*
X023700Y017047D01*
X023639Y017091D01*
X023586Y017144D01*
X023542Y017205D01*
X023507Y017272D01*
X023484Y017343D01*
X023473Y017415D01*
X023910Y017415D01*
X023910Y017454D02*
X022990Y017454D01*
X022990Y017415D02*
X023427Y017415D01*
X023416Y017343D01*
X023393Y017272D01*
X023358Y017205D01*
X023314Y017144D01*
X023261Y017091D01*
X023200Y017047D01*
X023133Y017012D01*
X023062Y016989D01*
X022990Y016978D01*
X022990Y017415D01*
X022990Y017375D02*
X022910Y017375D01*
X022910Y017415D02*
X022910Y016978D01*
X022838Y016989D01*
X022767Y017012D01*
X022700Y017047D01*
X022639Y017091D01*
X022586Y017144D01*
X022542Y017205D01*
X022507Y017272D01*
X022484Y017343D01*
X022473Y017415D01*
X022910Y017415D01*
X022910Y017454D02*
X021990Y017454D01*
X021990Y017415D02*
X022427Y017415D01*
X022416Y017343D01*
X022393Y017272D01*
X022358Y017205D01*
X022314Y017144D01*
X022261Y017091D01*
X022200Y017047D01*
X022133Y017012D01*
X022062Y016989D01*
X021990Y016978D01*
X021990Y017415D01*
X021990Y017375D02*
X021910Y017375D01*
X021910Y017415D02*
X021910Y016978D01*
X021838Y016989D01*
X021767Y017012D01*
X021700Y017047D01*
X021639Y017091D01*
X021586Y017144D01*
X021542Y017205D01*
X021507Y017272D01*
X021484Y017343D01*
X021473Y017415D01*
X021910Y017415D01*
X021910Y017454D02*
X020990Y017454D01*
X020990Y017415D02*
X021427Y017415D01*
X021416Y017343D01*
X021393Y017272D01*
X021358Y017205D01*
X021314Y017144D01*
X021261Y017091D01*
X021200Y017047D01*
X021133Y017012D01*
X021062Y016989D01*
X020990Y016978D01*
X020990Y017415D01*
X020990Y017375D02*
X020910Y017375D01*
X020910Y017297D02*
X020990Y017297D01*
X020990Y017218D02*
X020910Y017218D01*
X020910Y017140D02*
X020990Y017140D01*
X020990Y017061D02*
X020910Y017061D01*
X020910Y016983D02*
X020990Y016983D01*
X021019Y016983D02*
X021881Y016983D01*
X021910Y016983D02*
X021990Y016983D01*
X022019Y016983D02*
X022881Y016983D01*
X022910Y016983D02*
X022990Y016983D01*
X023019Y016983D02*
X023881Y016983D01*
X023910Y016983D02*
X023990Y016983D01*
X024019Y016983D02*
X024620Y016983D01*
X024680Y017061D02*
X024220Y017061D01*
X024310Y017140D02*
X024590Y017140D01*
X024535Y017218D02*
X024365Y017218D01*
X024401Y017297D02*
X024499Y017297D01*
X024479Y017375D02*
X024421Y017375D01*
X024421Y017532D02*
X024479Y017532D01*
X024498Y017611D02*
X024402Y017611D01*
X024367Y017689D02*
X024533Y017689D01*
X024587Y017768D02*
X024313Y017768D01*
X024224Y017846D02*
X024676Y017846D01*
X024722Y017925D02*
X024178Y017925D01*
X024315Y018003D02*
X024585Y018003D01*
X024507Y018082D02*
X024393Y018082D01*
X023722Y017925D02*
X023178Y017925D01*
X023224Y017846D02*
X023676Y017846D01*
X023587Y017768D02*
X023313Y017768D01*
X023367Y017689D02*
X023533Y017689D01*
X023498Y017611D02*
X023402Y017611D01*
X023421Y017532D02*
X023479Y017532D01*
X023479Y017375D02*
X023421Y017375D01*
X023401Y017297D02*
X023499Y017297D01*
X023535Y017218D02*
X023365Y017218D01*
X023310Y017140D02*
X023590Y017140D01*
X023680Y017061D02*
X023220Y017061D01*
X022990Y017061D02*
X022910Y017061D01*
X022910Y017140D02*
X022990Y017140D01*
X022990Y017218D02*
X022910Y017218D01*
X022910Y017297D02*
X022990Y017297D01*
X022680Y017061D02*
X022220Y017061D01*
X022310Y017140D02*
X022590Y017140D01*
X022535Y017218D02*
X022365Y017218D01*
X022401Y017297D02*
X022499Y017297D01*
X022479Y017375D02*
X022421Y017375D01*
X022421Y017532D02*
X022479Y017532D01*
X022498Y017611D02*
X022402Y017611D01*
X022367Y017689D02*
X022533Y017689D01*
X022587Y017768D02*
X022313Y017768D01*
X022224Y017846D02*
X022676Y017846D01*
X022722Y017925D02*
X022178Y017925D01*
X022315Y018003D02*
X022585Y018003D01*
X022507Y018082D02*
X022393Y018082D01*
X021722Y017925D02*
X021178Y017925D01*
X021224Y017846D02*
X021676Y017846D01*
X021587Y017768D02*
X021313Y017768D01*
X021367Y017689D02*
X021533Y017689D01*
X021498Y017611D02*
X021402Y017611D01*
X021421Y017532D02*
X021479Y017532D01*
X021479Y017375D02*
X021421Y017375D01*
X021401Y017297D02*
X021499Y017297D01*
X021535Y017218D02*
X021365Y017218D01*
X021310Y017140D02*
X021590Y017140D01*
X021680Y017061D02*
X021220Y017061D01*
X020881Y016983D02*
X014193Y016983D01*
X014129Y016956D02*
X014276Y017017D01*
X014388Y017129D01*
X014449Y017276D01*
X014449Y017434D01*
X014388Y017581D01*
X014276Y017693D01*
X014129Y017754D01*
X013971Y017754D01*
X013824Y017693D01*
X013712Y017581D01*
X013651Y017434D01*
X013651Y017276D01*
X013712Y017129D01*
X013824Y017017D01*
X013971Y016956D01*
X014129Y016956D01*
X014320Y017061D02*
X020680Y017061D01*
X020590Y017140D02*
X014392Y017140D01*
X014425Y017218D02*
X020535Y017218D01*
X020499Y017297D02*
X014449Y017297D01*
X014449Y017375D02*
X020479Y017375D01*
X020479Y017532D02*
X015891Y017532D01*
X015876Y017517D02*
X015988Y017629D01*
X016049Y017776D01*
X016049Y017934D01*
X015988Y018081D01*
X015876Y018193D01*
X015729Y018254D01*
X015571Y018254D01*
X015424Y018193D01*
X015312Y018081D01*
X015251Y017934D01*
X015251Y017776D01*
X015312Y017629D01*
X015424Y017517D01*
X015571Y017456D01*
X015729Y017456D01*
X015876Y017517D01*
X015969Y017611D02*
X020498Y017611D01*
X020533Y017689D02*
X016013Y017689D01*
X016045Y017768D02*
X020587Y017768D01*
X020676Y017846D02*
X016049Y017846D01*
X016049Y017925D02*
X020722Y017925D01*
X020585Y018003D02*
X016020Y018003D01*
X015987Y018082D02*
X020507Y018082D01*
X020447Y018160D02*
X015909Y018160D01*
X015766Y018239D02*
X020415Y018239D01*
X020382Y018317D02*
X013152Y018317D01*
X013126Y018343D02*
X013238Y018231D01*
X013299Y018084D01*
X013299Y017926D01*
X013238Y017779D01*
X013126Y017667D01*
X012979Y017606D01*
X012821Y017606D01*
X012674Y017667D01*
X012562Y017779D01*
X012501Y017926D01*
X012501Y018084D01*
X012562Y018231D01*
X012674Y018343D01*
X012821Y018404D01*
X012979Y018404D01*
X013126Y018343D01*
X012999Y018396D02*
X014242Y018396D01*
X014285Y018378D02*
X014515Y018378D01*
X014727Y018465D01*
X014890Y018628D01*
X014900Y018653D01*
X014910Y018628D01*
X015073Y018465D01*
X015285Y018378D01*
X015515Y018378D01*
X015727Y018465D01*
X015890Y018628D01*
X015900Y018653D01*
X015910Y018628D01*
X016073Y018465D01*
X016285Y018378D01*
X016515Y018378D01*
X016727Y018465D01*
X016890Y018628D01*
X016900Y018653D01*
X016910Y018628D01*
X017073Y018465D01*
X017285Y018378D01*
X017515Y018378D01*
X017727Y018465D01*
X017890Y018628D01*
X017977Y018840D01*
X017977Y019070D01*
X017890Y019282D01*
X017727Y019445D01*
X017515Y019532D01*
X017285Y019532D01*
X017073Y019445D01*
X016910Y019282D01*
X016900Y019257D01*
X016890Y019282D01*
X016727Y019445D01*
X016515Y019532D01*
X016285Y019532D01*
X016073Y019445D01*
X015910Y019282D01*
X015900Y019257D01*
X015890Y019282D01*
X015727Y019445D01*
X015515Y019532D01*
X015285Y019532D01*
X015073Y019445D01*
X014910Y019282D01*
X014900Y019257D01*
X014890Y019282D01*
X014727Y019445D01*
X014515Y019532D01*
X014285Y019532D01*
X014073Y019445D01*
X013910Y019282D01*
X013846Y019127D01*
X013843Y019138D01*
X013808Y019205D01*
X013764Y019266D01*
X013711Y019319D01*
X013650Y019363D01*
X013583Y019398D01*
X013512Y019421D01*
X013440Y019432D01*
X013440Y018995D01*
X013360Y018995D01*
X013360Y019432D01*
X013288Y019421D01*
X013217Y019398D01*
X013150Y019363D01*
X013089Y019319D01*
X013036Y019266D01*
X012992Y019205D01*
X012957Y019138D01*
X012954Y019127D01*
X012890Y019282D01*
X012727Y019445D01*
X012515Y019532D01*
X012285Y019532D01*
X012073Y019445D01*
X011910Y019282D01*
X011823Y019070D01*
X011823Y018840D01*
X011910Y018628D01*
X012073Y018465D01*
X012285Y018378D01*
X012515Y018378D01*
X012727Y018465D01*
X012890Y018628D01*
X012954Y018783D01*
X012957Y018772D01*
X012992Y018705D01*
X013036Y018644D01*
X013089Y018591D01*
X013150Y018547D01*
X013217Y018512D01*
X013288Y018489D01*
X013360Y018478D01*
X013360Y018915D01*
X013440Y018915D01*
X013440Y018478D01*
X013512Y018489D01*
X013583Y018512D01*
X013650Y018547D01*
X013711Y018591D01*
X013764Y018644D01*
X013808Y018705D01*
X013843Y018772D01*
X013846Y018783D01*
X013910Y018628D01*
X014073Y018465D01*
X014285Y018378D01*
X014064Y018474D02*
X012736Y018474D01*
X012801Y018396D02*
X012558Y018396D01*
X012648Y018317D02*
X007676Y018317D01*
X007626Y018267D02*
X007738Y018379D01*
X007799Y018526D01*
X007799Y018684D01*
X007738Y018831D01*
X007626Y018943D01*
X007479Y019004D01*
X007321Y019004D01*
X007174Y018943D01*
X007062Y018831D01*
X007058Y018821D01*
X006979Y018854D01*
X006821Y018854D01*
X006674Y018793D01*
X006562Y018681D01*
X006501Y018534D01*
X006501Y018376D01*
X006562Y018229D01*
X006674Y018117D01*
X006701Y018106D01*
X006701Y018026D01*
X006762Y017879D01*
X006874Y017767D01*
X007021Y017706D01*
X007179Y017706D01*
X007326Y017767D01*
X007438Y017879D01*
X007499Y018026D01*
X007499Y018184D01*
X007488Y018210D01*
X007626Y018267D01*
X007557Y018239D02*
X012570Y018239D01*
X012533Y018160D02*
X007499Y018160D01*
X007499Y018082D02*
X012501Y018082D01*
X012501Y018003D02*
X010652Y018003D01*
X010676Y017993D02*
X010529Y018054D01*
X010371Y018054D01*
X010224Y017993D01*
X010112Y017881D01*
X010051Y017734D01*
X010051Y017576D01*
X010112Y017429D01*
X010224Y017317D01*
X010371Y017256D01*
X010529Y017256D01*
X010676Y017317D01*
X010788Y017429D01*
X010849Y017576D01*
X010849Y017734D01*
X010788Y017881D01*
X010676Y017993D01*
X010744Y017925D02*
X012502Y017925D01*
X012534Y017846D02*
X010802Y017846D01*
X010835Y017768D02*
X012574Y017768D01*
X012652Y017689D02*
X010849Y017689D01*
X010849Y017611D02*
X012810Y017611D01*
X012990Y017611D02*
X013742Y017611D01*
X013692Y017532D02*
X010831Y017532D01*
X010798Y017454D02*
X013659Y017454D01*
X013651Y017375D02*
X010734Y017375D01*
X010627Y017297D02*
X013651Y017297D01*
X013675Y017218D02*
X006927Y017218D01*
X006938Y017229D02*
X006999Y017376D01*
X006999Y017534D01*
X006938Y017681D01*
X006826Y017793D01*
X006679Y017854D01*
X006521Y017854D01*
X006374Y017793D01*
X006262Y017681D01*
X006201Y017534D01*
X006201Y017376D01*
X006262Y017229D01*
X006374Y017117D01*
X006521Y017056D01*
X006679Y017056D01*
X006826Y017117D01*
X006938Y017229D01*
X006966Y017297D02*
X010273Y017297D01*
X010166Y017375D02*
X006998Y017375D01*
X006999Y017454D02*
X010102Y017454D01*
X010069Y017532D02*
X006999Y017532D01*
X006967Y017611D02*
X010051Y017611D01*
X010051Y017689D02*
X006930Y017689D01*
X006874Y017768D02*
X006851Y017768D01*
X006795Y017846D02*
X006698Y017846D01*
X006743Y017925D02*
X003292Y017925D01*
X003297Y017939D02*
X003234Y017785D01*
X003117Y017668D01*
X002963Y017604D01*
X002797Y017604D01*
X002644Y017668D01*
X002527Y017785D01*
X002463Y017939D01*
X002463Y018105D01*
X002527Y018258D01*
X002644Y018375D01*
X002797Y018439D01*
X002963Y018439D01*
X003117Y018375D01*
X003234Y018258D01*
X003297Y018105D01*
X003297Y017939D01*
X003297Y018003D02*
X006711Y018003D01*
X006701Y018082D02*
X003297Y018082D01*
X003274Y018160D02*
X006631Y018160D01*
X006558Y018239D02*
X003242Y018239D01*
X003175Y018317D02*
X006526Y018317D01*
X006501Y018396D02*
X003067Y018396D01*
X002693Y018396D02*
X000700Y018396D01*
X000700Y018474D02*
X006501Y018474D01*
X006509Y018553D02*
X000700Y018553D01*
X000700Y018631D02*
X006541Y018631D01*
X006591Y018710D02*
X000700Y018710D01*
X000700Y018788D02*
X006669Y018788D01*
X007098Y018867D02*
X000700Y018867D01*
X000700Y018945D02*
X007179Y018945D01*
X007621Y018945D02*
X011823Y018945D01*
X011823Y018867D02*
X007702Y018867D01*
X007756Y018788D02*
X011844Y018788D01*
X011877Y018710D02*
X007788Y018710D01*
X007799Y018631D02*
X011909Y018631D01*
X011986Y018553D02*
X007799Y018553D01*
X007777Y018474D02*
X012064Y018474D01*
X012242Y018396D02*
X007745Y018396D01*
X007489Y018003D02*
X010248Y018003D01*
X010156Y017925D02*
X007457Y017925D01*
X007405Y017846D02*
X010098Y017846D01*
X010065Y017768D02*
X007326Y017768D01*
X006848Y017140D02*
X013708Y017140D01*
X013780Y017061D02*
X006691Y017061D01*
X006509Y017061D02*
X005399Y017061D01*
X005399Y017026D02*
X005338Y016879D01*
X005226Y016767D01*
X005079Y016706D01*
X004921Y016706D01*
X004846Y016737D01*
X004776Y016667D01*
X004629Y016606D01*
X004471Y016606D01*
X004324Y016667D01*
X004212Y016779D01*
X004151Y016926D01*
X004151Y017084D01*
X004212Y017231D01*
X004324Y017343D01*
X004471Y017404D01*
X004629Y017404D01*
X004704Y017373D01*
X004774Y017443D01*
X004921Y017504D01*
X005079Y017504D01*
X005226Y017443D01*
X005338Y017331D01*
X005399Y017184D01*
X005399Y017026D01*
X005381Y016983D02*
X013907Y016983D01*
X014441Y017454D02*
X020910Y017454D01*
X021315Y018003D02*
X021585Y018003D01*
X021507Y018082D02*
X021393Y018082D01*
X020373Y018396D02*
X017558Y018396D01*
X017736Y018474D02*
X020373Y018474D01*
X020373Y018553D02*
X017814Y018553D01*
X017891Y018631D02*
X020398Y018631D01*
X020430Y018710D02*
X017923Y018710D01*
X017956Y018788D02*
X020100Y018788D01*
X019993Y018867D02*
X017977Y018867D01*
X017977Y018945D02*
X019948Y018945D01*
X019928Y019024D02*
X017977Y019024D01*
X017964Y019102D02*
X019928Y019102D01*
X019928Y019181D02*
X017932Y019181D01*
X017899Y019259D02*
X019928Y019259D01*
X019928Y019338D02*
X017834Y019338D01*
X017756Y019416D02*
X019943Y019416D01*
X019981Y019495D02*
X017606Y019495D01*
X017194Y019495D02*
X016606Y019495D01*
X016756Y019416D02*
X017044Y019416D01*
X016966Y019338D02*
X016834Y019338D01*
X016899Y019259D02*
X016901Y019259D01*
X016891Y018631D02*
X016909Y018631D01*
X016986Y018553D02*
X016814Y018553D01*
X016736Y018474D02*
X017064Y018474D01*
X017242Y018396D02*
X016558Y018396D01*
X016242Y018396D02*
X015558Y018396D01*
X015534Y018239D02*
X013230Y018239D01*
X013267Y018160D02*
X015391Y018160D01*
X015313Y018082D02*
X013299Y018082D01*
X013299Y018003D02*
X015280Y018003D01*
X015251Y017925D02*
X013298Y017925D01*
X013266Y017846D02*
X015251Y017846D01*
X015255Y017768D02*
X013226Y017768D01*
X013148Y017689D02*
X013820Y017689D01*
X014280Y017689D02*
X015287Y017689D01*
X015331Y017611D02*
X014358Y017611D01*
X014408Y017532D02*
X015409Y017532D01*
X016074Y016843D02*
X016221Y016904D01*
X016379Y016904D01*
X016526Y016843D01*
X016638Y016731D01*
X016699Y016584D01*
X016699Y016426D01*
X016638Y016279D01*
X016526Y016167D01*
X016379Y016106D01*
X016221Y016106D01*
X016074Y016167D01*
X015962Y016279D01*
X015901Y016426D01*
X015901Y016584D01*
X015962Y016731D01*
X016074Y016843D01*
X016057Y016826D02*
X005284Y016826D01*
X005348Y016904D02*
X024485Y016904D01*
X024410Y016826D02*
X016543Y016826D01*
X016622Y016747D02*
X024377Y016747D01*
X024351Y016669D02*
X016664Y016669D01*
X016696Y016590D02*
X024351Y016590D01*
X024357Y016512D02*
X018881Y016512D01*
X018986Y016433D02*
X024390Y016433D01*
X024437Y016355D02*
X019049Y016355D01*
X019081Y016276D02*
X024515Y016276D01*
X023990Y017061D02*
X023910Y017061D01*
X023910Y017140D02*
X023990Y017140D01*
X023990Y017218D02*
X023910Y017218D01*
X023910Y017297D02*
X023990Y017297D01*
X023585Y018003D02*
X023315Y018003D01*
X023393Y018082D02*
X023507Y018082D01*
X021990Y017297D02*
X021910Y017297D01*
X021910Y017218D02*
X021990Y017218D01*
X021990Y017140D02*
X021910Y017140D01*
X021910Y017061D02*
X021990Y017061D01*
X021295Y015727D02*
X028555Y015727D01*
X028429Y015648D02*
X021421Y015648D01*
X021493Y015570D02*
X028357Y015570D01*
X027644Y015413D02*
X024856Y015413D01*
X024935Y015334D02*
X027565Y015334D01*
X027531Y015256D02*
X024969Y015256D01*
X024999Y015177D02*
X027501Y015177D01*
X027501Y015099D02*
X026042Y015099D01*
X026029Y015104D02*
X025871Y015104D01*
X025724Y015043D01*
X025612Y014931D01*
X025551Y014784D01*
X025551Y014626D01*
X025612Y014479D01*
X025724Y014367D01*
X025871Y014306D01*
X026029Y014306D01*
X026176Y014367D01*
X026288Y014479D01*
X026349Y014626D01*
X026349Y014784D01*
X026288Y014931D01*
X026176Y015043D01*
X026029Y015104D01*
X025858Y015099D02*
X024999Y015099D01*
X024996Y015020D02*
X025701Y015020D01*
X025623Y014942D02*
X024964Y014942D01*
X024922Y014863D02*
X025584Y014863D01*
X025551Y014785D02*
X024843Y014785D01*
X024357Y014785D02*
X022093Y014785D01*
X022172Y014863D02*
X024278Y014863D01*
X024236Y014942D02*
X022214Y014942D01*
X022246Y015020D02*
X024204Y015020D01*
X024201Y015099D02*
X022249Y015099D01*
X022249Y015177D02*
X024201Y015177D01*
X024231Y015256D02*
X022219Y015256D01*
X022185Y015334D02*
X024265Y015334D01*
X024344Y015413D02*
X022106Y015413D01*
X021005Y015727D02*
X020293Y015727D01*
X020458Y015648D02*
X020879Y015648D01*
X020807Y015570D02*
X020487Y015570D01*
X020522Y015491D02*
X020409Y015491D01*
X020443Y015413D02*
X020330Y015413D01*
X020365Y015334D02*
X020252Y015334D01*
X020286Y015256D02*
X020173Y015256D01*
X020095Y015177D02*
X020021Y015177D01*
X020058Y015140D02*
X019653Y015545D01*
X019647Y015539D01*
X019591Y015461D01*
X019547Y015375D01*
X019517Y015284D01*
X019502Y015189D01*
X019502Y015092D01*
X019517Y014997D01*
X019547Y014905D01*
X019591Y014819D01*
X019647Y014741D01*
X019653Y014736D01*
X020058Y015140D01*
X020016Y015099D02*
X020100Y015099D01*
X020115Y015084D02*
X019710Y014679D01*
X019716Y014673D01*
X019794Y014616D01*
X019879Y014573D01*
X019971Y014543D01*
X020066Y014528D01*
X020163Y014528D01*
X020258Y014543D01*
X020350Y014573D01*
X020436Y014616D01*
X020514Y014673D01*
X020519Y014679D01*
X020115Y015084D01*
X020051Y015020D02*
X019938Y015020D01*
X019972Y014942D02*
X019859Y014942D01*
X019894Y014863D02*
X019781Y014863D01*
X019815Y014785D02*
X019702Y014785D01*
X019616Y014785D02*
X014449Y014785D01*
X014449Y014776D02*
X014388Y014629D01*
X014276Y014517D01*
X014129Y014456D01*
X013971Y014456D01*
X013824Y014517D01*
X013712Y014629D01*
X013651Y014776D01*
X013651Y014934D01*
X013712Y015081D01*
X013824Y015193D01*
X013971Y015254D01*
X014129Y015254D01*
X014276Y015193D01*
X014388Y015081D01*
X014449Y014934D01*
X014449Y014776D01*
X014420Y014706D02*
X016006Y014706D01*
X015974Y014693D02*
X015862Y014581D01*
X015801Y014434D01*
X015801Y014276D01*
X015862Y014129D01*
X015974Y014017D01*
X016121Y013956D01*
X016279Y013956D01*
X016426Y014017D01*
X016538Y014129D01*
X016599Y014276D01*
X016599Y014434D01*
X016538Y014581D01*
X016426Y014693D01*
X016279Y014754D01*
X016121Y014754D01*
X015974Y014693D01*
X015909Y014628D02*
X014386Y014628D01*
X014308Y014549D02*
X015849Y014549D01*
X015816Y014471D02*
X014164Y014471D01*
X013936Y014471D02*
X012955Y014471D01*
X012938Y014429D02*
X012999Y014576D01*
X012999Y014734D01*
X012938Y014881D01*
X012826Y014993D01*
X012679Y015054D01*
X012521Y015054D01*
X012374Y014993D01*
X012262Y014881D01*
X012201Y014734D01*
X012201Y014576D01*
X012262Y014429D01*
X012374Y014317D01*
X012521Y014256D01*
X012679Y014256D01*
X012826Y014317D01*
X012938Y014429D01*
X012901Y014392D02*
X015801Y014392D01*
X015801Y014314D02*
X012818Y014314D01*
X012988Y014549D02*
X013792Y014549D01*
X013714Y014628D02*
X012999Y014628D01*
X012999Y014706D02*
X013680Y014706D01*
X013651Y014785D02*
X012978Y014785D01*
X012945Y014863D02*
X013651Y014863D01*
X013654Y014942D02*
X012877Y014942D01*
X012761Y015020D02*
X013687Y015020D01*
X013730Y015099D02*
X011820Y015099D01*
X011838Y015081D02*
X011726Y015193D01*
X011579Y015254D01*
X011421Y015254D01*
X011274Y015193D01*
X011162Y015081D01*
X011101Y014934D01*
X011101Y014776D01*
X011162Y014629D01*
X011274Y014517D01*
X011421Y014456D01*
X011579Y014456D01*
X011726Y014517D01*
X011838Y014629D01*
X011899Y014776D01*
X011899Y014934D01*
X011838Y015081D01*
X011863Y015020D02*
X012439Y015020D01*
X012323Y014942D02*
X011896Y014942D01*
X011899Y014863D02*
X012255Y014863D01*
X012222Y014785D02*
X011899Y014785D01*
X011870Y014706D02*
X012201Y014706D01*
X012201Y014628D02*
X011836Y014628D01*
X011758Y014549D02*
X012212Y014549D01*
X012245Y014471D02*
X011614Y014471D01*
X011629Y014404D02*
X011471Y014404D01*
X011324Y014343D01*
X011212Y014231D01*
X011151Y014084D01*
X011151Y013926D01*
X011212Y013779D01*
X011324Y013667D01*
X011471Y013606D01*
X011629Y013606D01*
X011776Y013667D01*
X011888Y013779D01*
X011949Y013926D01*
X011949Y014084D01*
X011888Y014231D01*
X011776Y014343D01*
X011629Y014404D01*
X011658Y014392D02*
X012299Y014392D01*
X012382Y014314D02*
X011805Y014314D01*
X011884Y014235D02*
X015818Y014235D01*
X015851Y014157D02*
X011919Y014157D01*
X011949Y014078D02*
X015913Y014078D01*
X016016Y014000D02*
X011949Y014000D01*
X011947Y013921D02*
X016501Y013921D01*
X016501Y013934D02*
X016501Y013776D01*
X016562Y013629D01*
X016674Y013517D01*
X016821Y013456D01*
X016979Y013456D01*
X017126Y013517D01*
X017238Y013629D01*
X017299Y013776D01*
X017299Y013934D01*
X017238Y014081D01*
X017126Y014193D01*
X016979Y014254D01*
X016821Y014254D01*
X016674Y014193D01*
X016562Y014081D01*
X016501Y013934D01*
X016528Y014000D02*
X016384Y014000D01*
X016487Y014078D02*
X016561Y014078D01*
X016549Y014157D02*
X016638Y014157D01*
X016582Y014235D02*
X016776Y014235D01*
X016599Y014314D02*
X025853Y014314D01*
X025699Y014392D02*
X016599Y014392D01*
X016584Y014471D02*
X025621Y014471D01*
X025583Y014549D02*
X020277Y014549D01*
X020451Y014628D02*
X025551Y014628D01*
X025551Y014706D02*
X020492Y014706D01*
X019952Y014549D02*
X016551Y014549D01*
X016491Y014628D02*
X019778Y014628D01*
X019737Y014706D02*
X016394Y014706D01*
X016600Y014942D02*
X014446Y014942D01*
X014449Y014863D02*
X016684Y014863D01*
X016674Y014867D02*
X016821Y014806D01*
X016979Y014806D01*
X017126Y014867D01*
X017238Y014979D01*
X017299Y015126D01*
X017299Y015284D01*
X017238Y015431D01*
X017126Y015543D01*
X016979Y015604D01*
X016821Y015604D01*
X016674Y015543D01*
X016562Y015431D01*
X016501Y015284D01*
X016501Y015126D01*
X016562Y014979D01*
X016674Y014867D01*
X016545Y015020D02*
X014413Y015020D01*
X014370Y015099D02*
X016513Y015099D01*
X016501Y015177D02*
X014292Y015177D01*
X013808Y015177D02*
X011742Y015177D01*
X011258Y015177D02*
X009442Y015177D01*
X009488Y015131D02*
X009376Y015243D01*
X009229Y015304D01*
X009071Y015304D01*
X008924Y015243D01*
X008812Y015131D01*
X008751Y014984D01*
X008751Y014826D01*
X008812Y014679D01*
X008924Y014567D01*
X009071Y014506D01*
X009229Y014506D01*
X009376Y014567D01*
X009488Y014679D01*
X009549Y014826D01*
X009549Y014984D01*
X009488Y015131D01*
X009501Y015099D02*
X011180Y015099D01*
X011137Y015020D02*
X009534Y015020D01*
X009549Y014942D02*
X011104Y014942D01*
X011101Y014863D02*
X009549Y014863D01*
X009532Y014785D02*
X011101Y014785D01*
X011130Y014706D02*
X009499Y014706D01*
X009436Y014628D02*
X011164Y014628D01*
X011242Y014549D02*
X009333Y014549D01*
X008967Y014549D02*
X008270Y014549D01*
X008288Y014531D02*
X008176Y014643D01*
X008029Y014704D01*
X007871Y014704D01*
X007724Y014643D01*
X007625Y014544D01*
X007526Y014643D01*
X007379Y014704D01*
X007299Y014704D01*
X007299Y014834D01*
X007238Y014981D01*
X007126Y015093D01*
X006979Y015154D01*
X006821Y015154D01*
X006674Y015093D01*
X006562Y014981D01*
X006501Y014834D01*
X006501Y014676D01*
X006562Y014529D01*
X006674Y014417D01*
X006821Y014356D01*
X006901Y014356D01*
X006901Y014226D01*
X006962Y014079D01*
X007074Y013967D01*
X007221Y013906D01*
X007379Y013906D01*
X007526Y013967D01*
X007625Y014066D01*
X007724Y013967D01*
X007871Y013906D01*
X008029Y013906D01*
X008176Y013967D01*
X008288Y014079D01*
X008349Y014226D01*
X008349Y014384D01*
X008288Y014531D01*
X008313Y014471D02*
X011386Y014471D01*
X011442Y014392D02*
X008346Y014392D01*
X008349Y014314D02*
X011295Y014314D01*
X011216Y014235D02*
X008349Y014235D01*
X008320Y014157D02*
X011181Y014157D01*
X011151Y014078D02*
X010991Y014078D01*
X010976Y014093D02*
X010829Y014154D01*
X010671Y014154D01*
X010524Y014093D01*
X010412Y013981D01*
X010351Y013834D01*
X010351Y013676D01*
X010412Y013529D01*
X010524Y013417D01*
X010671Y013356D01*
X010829Y013356D01*
X010976Y013417D01*
X011088Y013529D01*
X011149Y013676D01*
X011149Y013834D01*
X011088Y013981D01*
X010976Y014093D01*
X011069Y014000D02*
X011151Y014000D01*
X011153Y013921D02*
X011113Y013921D01*
X011145Y013843D02*
X011186Y013843D01*
X011149Y013764D02*
X011227Y013764D01*
X011149Y013686D02*
X011306Y013686D01*
X011469Y013607D02*
X011120Y013607D01*
X011087Y013529D02*
X013711Y013529D01*
X013712Y013531D02*
X013651Y013384D01*
X013651Y013226D01*
X013712Y013079D01*
X013824Y012967D01*
X013971Y012906D01*
X014129Y012906D01*
X014276Y012967D01*
X014388Y013079D01*
X014449Y013226D01*
X014449Y013384D01*
X014388Y013531D01*
X014276Y013643D01*
X014129Y013704D01*
X013971Y013704D01*
X013824Y013643D01*
X013712Y013531D01*
X013678Y013450D02*
X011009Y013450D01*
X010866Y013372D02*
X013651Y013372D01*
X013651Y013293D02*
X010226Y013293D01*
X010238Y013281D02*
X010126Y013393D01*
X009979Y013454D01*
X009821Y013454D01*
X009674Y013393D01*
X009562Y013281D01*
X009501Y013134D01*
X009501Y012976D01*
X009562Y012829D01*
X009674Y012717D01*
X009821Y012656D01*
X009979Y012656D01*
X010126Y012717D01*
X010151Y012742D01*
X010151Y012726D01*
X010212Y012579D01*
X010324Y012467D01*
X010471Y012406D01*
X010629Y012406D01*
X010776Y012467D01*
X010888Y012579D01*
X010949Y012726D01*
X010949Y012884D01*
X010888Y013031D01*
X010776Y013143D01*
X010629Y013204D01*
X010471Y013204D01*
X010324Y013143D01*
X010299Y013118D01*
X010299Y013134D01*
X010238Y013281D01*
X010266Y013215D02*
X013656Y013215D01*
X013688Y013136D02*
X010783Y013136D01*
X010861Y013058D02*
X013734Y013058D01*
X013812Y012979D02*
X010910Y012979D01*
X010942Y012901D02*
X016451Y012901D01*
X016451Y012934D02*
X016451Y012776D01*
X016512Y012629D01*
X016624Y012517D01*
X016771Y012456D01*
X016929Y012456D01*
X017076Y012517D01*
X017188Y012629D01*
X017249Y012776D01*
X017249Y012934D01*
X017188Y013081D01*
X017076Y013193D01*
X016929Y013254D01*
X016771Y013254D01*
X016624Y013193D01*
X016512Y013081D01*
X016451Y012934D01*
X016470Y012979D02*
X014288Y012979D01*
X014366Y013058D02*
X016502Y013058D01*
X016567Y013136D02*
X014412Y013136D01*
X014444Y013215D02*
X016676Y013215D01*
X017024Y013215D02*
X023801Y013215D01*
X023821Y013206D02*
X023979Y013206D01*
X024126Y013267D01*
X024238Y013379D01*
X024299Y013526D01*
X024299Y013684D01*
X024238Y013831D01*
X024126Y013943D01*
X023979Y014004D01*
X023821Y014004D01*
X023674Y013943D01*
X023562Y013831D01*
X023501Y013684D01*
X023501Y013526D01*
X023562Y013379D01*
X023674Y013267D01*
X023821Y013206D01*
X023999Y013215D02*
X024727Y013215D01*
X024774Y013167D02*
X024921Y013106D01*
X025079Y013106D01*
X025226Y013167D01*
X025338Y013279D01*
X025399Y013426D01*
X025399Y013584D01*
X025338Y013731D01*
X025226Y013843D01*
X025079Y013904D01*
X024921Y013904D01*
X024774Y013843D01*
X024662Y013731D01*
X024601Y013584D01*
X024601Y013426D01*
X024662Y013279D01*
X024774Y013167D01*
X024849Y013136D02*
X024322Y013136D01*
X024279Y013154D02*
X024121Y013154D01*
X023974Y013093D01*
X023862Y012981D01*
X023801Y012834D01*
X023801Y012676D01*
X023862Y012529D01*
X023974Y012417D01*
X024121Y012356D01*
X024279Y012356D01*
X024426Y012417D01*
X024538Y012529D01*
X024599Y012676D01*
X024599Y012834D01*
X024538Y012981D01*
X024426Y013093D01*
X024279Y013154D01*
X024152Y013293D02*
X024656Y013293D01*
X024624Y013372D02*
X024230Y013372D01*
X024267Y013450D02*
X024601Y013450D01*
X024601Y013529D02*
X024299Y013529D01*
X024299Y013607D02*
X024611Y013607D01*
X024643Y013686D02*
X024298Y013686D01*
X024266Y013764D02*
X024695Y013764D01*
X024774Y013843D02*
X024226Y013843D01*
X024148Y013921D02*
X028166Y013921D01*
X028151Y013884D02*
X028151Y013726D01*
X028212Y013579D01*
X028324Y013467D01*
X028471Y013406D01*
X028629Y013406D01*
X028776Y013467D01*
X028888Y013579D01*
X028949Y013726D01*
X028949Y013884D01*
X028888Y014031D01*
X028776Y014143D01*
X028629Y014204D01*
X028471Y014204D01*
X028324Y014143D01*
X028212Y014031D01*
X028151Y013884D01*
X028151Y013843D02*
X025226Y013843D01*
X025305Y013764D02*
X028151Y013764D01*
X028168Y013686D02*
X025357Y013686D01*
X025389Y013607D02*
X028200Y013607D01*
X028263Y013529D02*
X025399Y013529D01*
X025399Y013450D02*
X028365Y013450D01*
X028735Y013450D02*
X030808Y013450D01*
X030801Y013434D02*
X030801Y013276D01*
X030862Y013129D01*
X030974Y013017D01*
X031121Y012956D01*
X031279Y012956D01*
X031426Y013017D01*
X031538Y013129D01*
X031599Y013276D01*
X031599Y013434D01*
X031538Y013581D01*
X031426Y013693D01*
X031279Y013754D01*
X031121Y013754D01*
X030974Y013693D01*
X030862Y013581D01*
X030801Y013434D01*
X030801Y013372D02*
X025376Y013372D01*
X025344Y013293D02*
X030801Y013293D01*
X030827Y013215D02*
X025273Y013215D01*
X025151Y013136D02*
X030859Y013136D01*
X030934Y013058D02*
X024461Y013058D01*
X024539Y012979D02*
X031066Y012979D01*
X031334Y012979D02*
X032200Y012979D01*
X032200Y012901D02*
X024571Y012901D01*
X024599Y012822D02*
X032200Y012822D01*
X032200Y012744D02*
X024599Y012744D01*
X024594Y012665D02*
X032200Y012665D01*
X032200Y012587D02*
X024562Y012587D01*
X024517Y012508D02*
X032200Y012508D01*
X032200Y012430D02*
X027139Y012430D01*
X027126Y012443D02*
X026979Y012504D01*
X026821Y012504D01*
X026674Y012443D01*
X026562Y012331D01*
X026501Y012184D01*
X026501Y012026D01*
X026562Y011879D01*
X026674Y011767D01*
X026821Y011706D01*
X026979Y011706D01*
X027126Y011767D01*
X027238Y011879D01*
X027299Y012026D01*
X027299Y012184D01*
X027238Y012331D01*
X027126Y012443D01*
X027218Y012351D02*
X032200Y012351D01*
X032200Y012273D02*
X031305Y012273D01*
X031376Y012243D02*
X031229Y012304D01*
X031071Y012304D01*
X030924Y012243D01*
X030812Y012131D01*
X030751Y011984D01*
X030751Y011826D01*
X030812Y011679D01*
X030924Y011567D01*
X031071Y011506D01*
X031229Y011506D01*
X031376Y011567D01*
X031488Y011679D01*
X031549Y011826D01*
X031549Y011984D01*
X031488Y012131D01*
X031376Y012243D01*
X031425Y012194D02*
X032200Y012194D01*
X032200Y012116D02*
X031494Y012116D01*
X031527Y012037D02*
X032200Y012037D01*
X032200Y011959D02*
X031549Y011959D01*
X031549Y011880D02*
X032200Y011880D01*
X032200Y011802D02*
X031539Y011802D01*
X031506Y011723D02*
X032200Y011723D01*
X032200Y011645D02*
X031453Y011645D01*
X031374Y011566D02*
X032200Y011566D01*
X032200Y011488D02*
X028706Y011488D01*
X028688Y011531D02*
X028576Y011643D01*
X028429Y011704D01*
X028271Y011704D01*
X028124Y011643D01*
X028012Y011531D01*
X027951Y011384D01*
X027951Y011226D01*
X028012Y011079D01*
X028124Y010967D01*
X028271Y010906D01*
X028429Y010906D01*
X028576Y010967D01*
X028688Y011079D01*
X028749Y011226D01*
X028749Y011384D01*
X028688Y011531D01*
X028653Y011566D02*
X030026Y011566D01*
X030024Y011567D02*
X030171Y011506D01*
X030329Y011506D01*
X030476Y011567D01*
X030588Y011679D01*
X030649Y011826D01*
X030649Y011984D01*
X030588Y012131D01*
X030476Y012243D01*
X030329Y012304D01*
X030171Y012304D01*
X030024Y012243D01*
X029912Y012131D01*
X029851Y011984D01*
X029851Y011826D01*
X029912Y011679D01*
X030024Y011567D01*
X029947Y011645D02*
X028572Y011645D01*
X028739Y011409D02*
X032200Y011409D01*
X032200Y011331D02*
X028749Y011331D01*
X028749Y011252D02*
X032200Y011252D01*
X032200Y011174D02*
X028727Y011174D01*
X028695Y011095D02*
X032200Y011095D01*
X032200Y011017D02*
X028625Y011017D01*
X028506Y010938D02*
X030869Y010938D01*
X030874Y010943D02*
X030762Y010831D01*
X030701Y010684D01*
X030701Y010526D01*
X030762Y010379D01*
X030874Y010267D01*
X031021Y010206D01*
X031179Y010206D01*
X031326Y010267D01*
X031438Y010379D01*
X031499Y010526D01*
X031499Y010684D01*
X031438Y010831D01*
X031326Y010943D01*
X031179Y011004D01*
X031021Y011004D01*
X030874Y010943D01*
X030791Y010860D02*
X023471Y010860D01*
X023499Y010926D02*
X023438Y010779D01*
X023326Y010667D01*
X023179Y010606D01*
X023021Y010606D01*
X022874Y010667D01*
X022762Y010779D01*
X022701Y010926D01*
X022701Y011084D01*
X022762Y011231D01*
X022874Y011343D01*
X023021Y011404D01*
X023179Y011404D01*
X023326Y011343D01*
X023438Y011231D01*
X023499Y011084D01*
X023499Y010926D01*
X023499Y010938D02*
X028194Y010938D01*
X028075Y011017D02*
X023499Y011017D01*
X023494Y011095D02*
X028005Y011095D01*
X027973Y011174D02*
X023462Y011174D01*
X023417Y011252D02*
X027951Y011252D01*
X027951Y011331D02*
X023338Y011331D01*
X022862Y011331D02*
X021388Y011331D01*
X021438Y011281D02*
X021326Y011393D01*
X021179Y011454D01*
X021049Y011454D01*
X021049Y011484D01*
X020988Y011631D01*
X020876Y011743D01*
X020729Y011804D01*
X020571Y011804D01*
X020424Y011743D01*
X020312Y011631D01*
X020251Y011484D01*
X020251Y011326D01*
X020312Y011179D01*
X020424Y011067D01*
X020571Y011006D01*
X020701Y011006D01*
X020701Y010976D01*
X020762Y010829D01*
X020874Y010717D01*
X021021Y010656D01*
X021179Y010656D01*
X021326Y010717D01*
X021438Y010829D01*
X021499Y010976D01*
X021499Y011134D01*
X021438Y011281D01*
X021450Y011252D02*
X022783Y011252D01*
X022738Y011174D02*
X021482Y011174D01*
X021499Y011095D02*
X022706Y011095D01*
X022701Y011017D02*
X021499Y011017D01*
X021483Y010938D02*
X022701Y010938D01*
X022729Y010860D02*
X021451Y010860D01*
X021390Y010781D02*
X022761Y010781D01*
X022839Y010703D02*
X021291Y010703D01*
X020909Y010703D02*
X018049Y010703D01*
X018049Y010676D02*
X018049Y010834D01*
X017988Y010981D01*
X017889Y011080D01*
X017938Y011129D01*
X017999Y011276D01*
X017999Y011434D01*
X017938Y011581D01*
X017826Y011693D01*
X017679Y011754D01*
X017521Y011754D01*
X017374Y011693D01*
X017262Y011581D01*
X017201Y011434D01*
X017201Y011276D01*
X017262Y011129D01*
X017361Y011030D01*
X017312Y010981D01*
X017251Y010834D01*
X017251Y010676D01*
X017312Y010529D01*
X017424Y010417D01*
X017571Y010356D01*
X017729Y010356D01*
X017876Y010417D01*
X017988Y010529D01*
X018049Y010676D01*
X018027Y010624D02*
X022978Y010624D01*
X023222Y010624D02*
X030701Y010624D01*
X030701Y010546D02*
X017995Y010546D01*
X017926Y010467D02*
X030726Y010467D01*
X030758Y010389D02*
X017807Y010389D01*
X017493Y010389D02*
X013126Y010389D01*
X013149Y010334D02*
X013088Y010481D01*
X012976Y010593D01*
X012829Y010654D01*
X012671Y010654D01*
X012524Y010593D01*
X012412Y010481D01*
X012405Y010464D01*
X012376Y010493D01*
X012229Y010554D01*
X012071Y010554D01*
X011924Y010493D01*
X011812Y010381D01*
X011751Y010234D01*
X011751Y010076D01*
X011812Y009929D01*
X011924Y009817D01*
X012071Y009756D01*
X012229Y009756D01*
X012376Y009817D01*
X012488Y009929D01*
X012495Y009946D01*
X012524Y009917D01*
X012671Y009856D01*
X012829Y009856D01*
X012976Y009917D01*
X013088Y010029D01*
X013149Y010176D01*
X013149Y010334D01*
X013149Y010310D02*
X030831Y010310D01*
X030960Y010232D02*
X027033Y010232D01*
X026979Y010254D02*
X026821Y010254D01*
X026674Y010193D01*
X026562Y010081D01*
X026501Y009934D01*
X026501Y009776D01*
X026562Y009629D01*
X026674Y009517D01*
X026821Y009456D01*
X026979Y009456D01*
X027126Y009517D01*
X027238Y009629D01*
X027299Y009776D01*
X027299Y009934D01*
X027238Y010081D01*
X027126Y010193D01*
X026979Y010254D01*
X027166Y010153D02*
X032200Y010153D01*
X032200Y010075D02*
X027241Y010075D01*
X027273Y009996D02*
X032200Y009996D01*
X032200Y009918D02*
X028467Y009918D01*
X028526Y009893D02*
X028379Y009954D01*
X028221Y009954D01*
X028074Y009893D01*
X027962Y009781D01*
X027901Y009634D01*
X027901Y009476D01*
X027962Y009329D01*
X028074Y009217D01*
X028221Y009156D01*
X028379Y009156D01*
X028526Y009217D01*
X028638Y009329D01*
X028699Y009476D01*
X028699Y009634D01*
X028638Y009781D01*
X028526Y009893D01*
X028580Y009839D02*
X032200Y009839D01*
X032200Y009761D02*
X028646Y009761D01*
X028679Y009682D02*
X032200Y009682D01*
X032200Y009604D02*
X028699Y009604D01*
X028699Y009525D02*
X032200Y009525D01*
X032200Y009447D02*
X028687Y009447D01*
X028654Y009368D02*
X032200Y009368D01*
X032200Y009290D02*
X028598Y009290D01*
X028512Y009211D02*
X032200Y009211D01*
X032200Y009133D02*
X028186Y009133D01*
X028238Y009081D02*
X028126Y009193D01*
X027979Y009254D01*
X027821Y009254D01*
X027674Y009193D01*
X027562Y009081D01*
X027501Y008934D01*
X027501Y008776D01*
X027562Y008629D01*
X027674Y008517D01*
X027821Y008456D01*
X027979Y008456D01*
X028126Y008517D01*
X028238Y008629D01*
X028299Y008776D01*
X028299Y008934D01*
X028238Y009081D01*
X028249Y009054D02*
X032200Y009054D01*
X032200Y008976D02*
X028282Y008976D01*
X028299Y008897D02*
X032200Y008897D01*
X032200Y008819D02*
X028299Y008819D01*
X028284Y008740D02*
X032200Y008740D01*
X032200Y008662D02*
X028251Y008662D01*
X028192Y008583D02*
X032200Y008583D01*
X032200Y008505D02*
X028096Y008505D01*
X027704Y008505D02*
X027148Y008505D01*
X027176Y008493D02*
X027029Y008554D01*
X026871Y008554D01*
X026724Y008493D01*
X026612Y008381D01*
X026551Y008234D01*
X026551Y008076D01*
X026612Y007929D01*
X026724Y007817D01*
X026871Y007756D01*
X027029Y007756D01*
X027176Y007817D01*
X027288Y007929D01*
X027349Y008076D01*
X027349Y008234D01*
X027288Y008381D01*
X027176Y008493D01*
X027243Y008426D02*
X032200Y008426D01*
X032200Y008348D02*
X027302Y008348D01*
X027334Y008269D02*
X032200Y008269D01*
X032200Y008191D02*
X027349Y008191D01*
X027349Y008112D02*
X032200Y008112D01*
X032200Y008034D02*
X027331Y008034D01*
X027299Y007955D02*
X032200Y007955D01*
X032200Y007877D02*
X027235Y007877D01*
X027130Y007798D02*
X032200Y007798D01*
X032200Y007720D02*
X026455Y007720D01*
X026438Y007679D02*
X026499Y007826D01*
X026499Y007984D01*
X026438Y008131D01*
X026326Y008243D01*
X026179Y008304D01*
X026141Y008304D01*
X026088Y008431D01*
X025976Y008543D01*
X025829Y008604D01*
X025671Y008604D01*
X025524Y008543D01*
X025412Y008431D01*
X025400Y008402D01*
X025388Y008431D01*
X025276Y008543D01*
X025129Y008604D01*
X024971Y008604D01*
X024825Y008543D01*
X024679Y008604D01*
X024521Y008604D01*
X024374Y008543D01*
X024262Y008431D01*
X024201Y008284D01*
X024201Y008126D01*
X024262Y007979D01*
X024374Y007867D01*
X024521Y007806D01*
X024679Y007806D01*
X024825Y007867D01*
X024971Y007806D01*
X025129Y007806D01*
X025276Y007867D01*
X025388Y007979D01*
X025400Y008008D01*
X025412Y007979D01*
X025524Y007867D01*
X025612Y007831D01*
X025562Y007781D01*
X025501Y007634D01*
X025501Y007476D01*
X025562Y007329D01*
X025674Y007217D01*
X025821Y007156D01*
X025979Y007156D01*
X026126Y007217D01*
X026238Y007329D01*
X026299Y007476D01*
X026299Y007556D01*
X026326Y007567D01*
X026438Y007679D01*
X026400Y007641D02*
X032200Y007641D01*
X032200Y007563D02*
X026879Y007563D01*
X026926Y007543D02*
X026779Y007604D01*
X026621Y007604D01*
X026474Y007543D01*
X026362Y007431D01*
X026301Y007284D01*
X026301Y007126D01*
X026362Y006979D01*
X026474Y006867D01*
X026621Y006806D01*
X026779Y006806D01*
X026926Y006867D01*
X027038Y006979D01*
X027099Y007126D01*
X027099Y007284D01*
X027038Y007431D01*
X026926Y007543D01*
X026985Y007484D02*
X032200Y007484D01*
X032200Y007406D02*
X027049Y007406D01*
X027081Y007327D02*
X027706Y007327D01*
X027771Y007354D02*
X027624Y007293D01*
X027512Y007181D01*
X027451Y007034D01*
X027451Y006876D01*
X027512Y006729D01*
X027624Y006617D01*
X027771Y006556D01*
X027929Y006556D01*
X028076Y006617D01*
X028188Y006729D01*
X028249Y006876D01*
X028249Y007034D01*
X028188Y007181D01*
X028076Y007293D01*
X027929Y007354D01*
X027771Y007354D01*
X027580Y007249D02*
X027099Y007249D01*
X027099Y007170D02*
X027507Y007170D01*
X027475Y007092D02*
X027085Y007092D01*
X027052Y007013D02*
X027451Y007013D01*
X027451Y006935D02*
X026993Y006935D01*
X026899Y006856D02*
X027459Y006856D01*
X027492Y006778D02*
X026049Y006778D01*
X026049Y006784D02*
X025988Y006931D01*
X025876Y007043D01*
X025729Y007104D01*
X025571Y007104D01*
X025424Y007043D01*
X025312Y006931D01*
X025257Y006798D01*
X025124Y006743D01*
X025012Y006631D01*
X024951Y006484D01*
X024951Y006375D01*
X024874Y006343D01*
X024762Y006231D01*
X024715Y006118D01*
X024629Y006154D01*
X024471Y006154D01*
X024324Y006093D01*
X024212Y005981D01*
X024151Y005834D01*
X024151Y005676D01*
X024212Y005529D01*
X024324Y005417D01*
X024471Y005356D01*
X024501Y005356D01*
X024501Y005326D01*
X024562Y005180D01*
X024501Y005034D01*
X024501Y004876D01*
X024562Y004729D01*
X024674Y004617D01*
X024821Y004556D01*
X024979Y004556D01*
X025126Y004617D01*
X025238Y004729D01*
X025299Y004876D01*
X025299Y005034D01*
X025238Y005180D01*
X025270Y005257D01*
X025271Y005256D01*
X025429Y005256D01*
X025576Y005317D01*
X025590Y005331D01*
X025612Y005279D01*
X025724Y005167D01*
X025871Y005106D01*
X025930Y005106D01*
X025962Y005029D01*
X026074Y004917D01*
X026221Y004856D01*
X026379Y004856D01*
X026526Y004917D01*
X026561Y004952D01*
X026612Y004829D01*
X026724Y004717D01*
X026871Y004656D01*
X027029Y004656D01*
X027176Y004717D01*
X027200Y004741D01*
X027274Y004667D01*
X027421Y004606D01*
X027579Y004606D01*
X027726Y004667D01*
X027838Y004779D01*
X027899Y004926D01*
X027899Y005084D01*
X027838Y005231D01*
X027726Y005343D01*
X027579Y005404D01*
X027421Y005404D01*
X027274Y005343D01*
X027250Y005319D01*
X027239Y005330D01*
X027299Y005476D01*
X027299Y005634D01*
X027238Y005781D01*
X027126Y005893D01*
X026979Y005954D01*
X026821Y005954D01*
X026674Y005893D01*
X026562Y005781D01*
X026501Y005634D01*
X026501Y005603D01*
X026379Y005654D01*
X026320Y005654D01*
X026288Y005731D01*
X026176Y005843D01*
X026029Y005904D01*
X025871Y005904D01*
X025724Y005843D01*
X025710Y005829D01*
X025688Y005881D01*
X025576Y005993D01*
X025499Y006025D01*
X025499Y006035D01*
X025576Y006067D01*
X025688Y006179D01*
X025743Y006312D01*
X025876Y006367D01*
X025988Y006479D01*
X026049Y006626D01*
X026049Y006784D01*
X026019Y006856D02*
X026501Y006856D01*
X026407Y006935D02*
X025984Y006935D01*
X025906Y007013D02*
X026348Y007013D01*
X026315Y007092D02*
X025759Y007092D01*
X025787Y007170D02*
X024963Y007170D01*
X024938Y007231D02*
X024847Y007322D01*
X024849Y007326D01*
X024849Y007484D01*
X025501Y007484D01*
X025501Y007563D02*
X024816Y007563D01*
X024788Y007631D02*
X024676Y007743D01*
X024529Y007804D01*
X024371Y007804D01*
X024224Y007743D01*
X024112Y007631D01*
X024051Y007484D01*
X019185Y007484D01*
X019176Y007493D02*
X019029Y007554D01*
X018871Y007554D01*
X018724Y007493D01*
X018612Y007381D01*
X018551Y007234D01*
X018551Y007076D01*
X018612Y006929D01*
X018724Y006817D01*
X018871Y006756D01*
X019029Y006756D01*
X019176Y006817D01*
X019288Y006929D01*
X019349Y007076D01*
X019349Y007234D01*
X019288Y007381D01*
X019176Y007493D01*
X019263Y007406D02*
X020204Y007406D01*
X020174Y007393D02*
X020062Y007281D01*
X020001Y007134D01*
X020001Y007025D01*
X019924Y006993D01*
X019812Y006881D01*
X019751Y006734D01*
X019751Y006576D01*
X019812Y006429D01*
X019924Y006317D01*
X020071Y006256D01*
X020229Y006256D01*
X020269Y006273D01*
X020374Y006167D01*
X020521Y006106D01*
X020679Y006106D01*
X020826Y006167D01*
X020938Y006279D01*
X020970Y006356D01*
X021079Y006356D01*
X021226Y006417D01*
X021338Y006529D01*
X021399Y006676D01*
X021399Y006834D01*
X021338Y006981D01*
X021226Y007093D01*
X021079Y007154D01*
X020921Y007154D01*
X020799Y007103D01*
X020799Y007134D01*
X020738Y007281D01*
X020626Y007393D01*
X020479Y007454D01*
X020321Y007454D01*
X020174Y007393D01*
X020108Y007327D02*
X019310Y007327D01*
X019343Y007249D02*
X020049Y007249D01*
X020016Y007170D02*
X019349Y007170D01*
X019349Y007092D02*
X020001Y007092D01*
X019972Y007013D02*
X019323Y007013D01*
X019290Y006935D02*
X019866Y006935D01*
X019802Y006856D02*
X019215Y006856D01*
X019081Y006778D02*
X019769Y006778D01*
X019751Y006699D02*
X018143Y006699D01*
X018149Y006684D02*
X018088Y006831D01*
X017976Y006943D01*
X017829Y007004D01*
X017671Y007004D01*
X017524Y006943D01*
X017412Y006831D01*
X017351Y006684D01*
X017351Y006526D01*
X017412Y006379D01*
X017524Y006267D01*
X017671Y006206D01*
X017829Y006206D01*
X017976Y006267D01*
X018088Y006379D01*
X018149Y006526D01*
X018149Y006684D01*
X018149Y006621D02*
X019751Y006621D01*
X019765Y006542D02*
X018149Y006542D01*
X018123Y006464D02*
X019798Y006464D01*
X019856Y006385D02*
X018090Y006385D01*
X018015Y006307D02*
X019949Y006307D01*
X020313Y006228D02*
X017882Y006228D01*
X017618Y006228D02*
X017241Y006228D01*
X017179Y006254D02*
X017021Y006254D01*
X016874Y006193D01*
X016795Y006114D01*
X016788Y006131D01*
X016676Y006243D01*
X016529Y006304D01*
X016499Y006304D01*
X016499Y006334D01*
X016438Y006481D01*
X016326Y006593D01*
X016179Y006654D01*
X016021Y006654D01*
X015874Y006593D01*
X015762Y006481D01*
X015701Y006334D01*
X015701Y006176D01*
X015762Y006029D01*
X015874Y005917D01*
X016021Y005856D01*
X016051Y005856D01*
X016051Y005826D01*
X016112Y005679D01*
X016224Y005567D01*
X016371Y005506D01*
X016529Y005506D01*
X016676Y005567D01*
X016755Y005646D01*
X016762Y005629D01*
X016874Y005517D01*
X017021Y005456D01*
X017179Y005456D01*
X017326Y005517D01*
X017438Y005629D01*
X017499Y005776D01*
X017499Y005934D01*
X017438Y006081D01*
X017326Y006193D01*
X017179Y006254D01*
X017369Y006150D02*
X020416Y006150D01*
X020784Y006150D02*
X024460Y006150D01*
X024302Y006071D02*
X017442Y006071D01*
X017475Y005993D02*
X022244Y005993D01*
X022271Y006004D02*
X022124Y005943D01*
X022012Y005831D01*
X021951Y005684D01*
X021951Y005526D01*
X021968Y005486D01*
X021912Y005431D01*
X021851Y005284D01*
X021851Y005126D01*
X021912Y004979D01*
X022024Y004867D01*
X022171Y004806D01*
X022329Y004806D01*
X022476Y004867D01*
X022588Y004979D01*
X022649Y005126D01*
X022649Y005284D01*
X022632Y005324D01*
X022688Y005379D01*
X022749Y005526D01*
X022749Y005684D01*
X022688Y005831D01*
X022576Y005943D01*
X022429Y006004D01*
X022271Y006004D01*
X022456Y005993D02*
X024224Y005993D01*
X024184Y005914D02*
X022605Y005914D01*
X022683Y005836D02*
X024152Y005836D01*
X024151Y005757D02*
X022719Y005757D01*
X022749Y005679D02*
X024151Y005679D01*
X024183Y005600D02*
X022749Y005600D01*
X022747Y005522D02*
X024220Y005522D01*
X024298Y005443D02*
X022714Y005443D01*
X022673Y005365D02*
X024451Y005365D01*
X024518Y005286D02*
X022648Y005286D01*
X022649Y005208D02*
X024550Y005208D01*
X024540Y005129D02*
X022649Y005129D01*
X022618Y005051D02*
X024508Y005051D01*
X024501Y004972D02*
X022581Y004972D01*
X022502Y004894D02*
X024501Y004894D01*
X024526Y004815D02*
X022350Y004815D01*
X022150Y004815D02*
X020754Y004815D01*
X020726Y004843D02*
X020838Y004731D01*
X020899Y004584D01*
X020899Y004426D01*
X020869Y004353D01*
X020871Y004354D01*
X021029Y004354D01*
X021176Y004293D01*
X021288Y004181D01*
X021349Y004034D01*
X021349Y003876D01*
X021288Y003729D01*
X021176Y003617D01*
X021029Y003556D01*
X020871Y003556D01*
X020772Y003597D01*
X020788Y003581D01*
X020849Y003434D01*
X020849Y003276D01*
X020788Y003129D01*
X020676Y003017D01*
X020529Y002956D01*
X020371Y002956D01*
X020224Y003017D01*
X020112Y003129D01*
X020051Y003276D01*
X020051Y003434D01*
X020112Y003581D01*
X020224Y003693D01*
X020371Y003754D01*
X020529Y003754D01*
X020628Y003713D01*
X020612Y003729D01*
X020551Y003876D01*
X020551Y004034D01*
X020581Y004107D01*
X020579Y004106D01*
X020421Y004106D01*
X020274Y004167D01*
X020162Y004279D01*
X020101Y004426D01*
X020101Y004584D01*
X020162Y004731D01*
X020274Y004843D01*
X020421Y004904D01*
X020506Y004904D01*
X020474Y004917D01*
X020362Y005029D01*
X020301Y005176D01*
X020301Y005334D01*
X020362Y005481D01*
X020474Y005593D01*
X020621Y005654D01*
X020779Y005654D01*
X020926Y005593D01*
X021038Y005481D01*
X021099Y005334D01*
X021099Y005176D01*
X021038Y005029D01*
X020926Y004917D01*
X020779Y004856D01*
X020694Y004856D01*
X020726Y004843D01*
X020832Y004737D02*
X024559Y004737D01*
X024633Y004658D02*
X020868Y004658D01*
X020899Y004580D02*
X022761Y004580D01*
X022774Y004593D02*
X022662Y004481D01*
X022601Y004334D01*
X022601Y004176D01*
X022662Y004029D01*
X022774Y003917D01*
X022921Y003856D01*
X023079Y003856D01*
X023226Y003917D01*
X023262Y003829D01*
X023374Y003717D01*
X023521Y003656D01*
X023679Y003656D01*
X023826Y003717D01*
X023900Y003791D01*
X023924Y003767D01*
X024071Y003706D01*
X024229Y003706D01*
X024376Y003767D01*
X024488Y003879D01*
X024549Y004026D01*
X024549Y004184D01*
X024488Y004331D01*
X024376Y004443D01*
X024229Y004504D01*
X024071Y004504D01*
X023924Y004443D01*
X023850Y004369D01*
X023826Y004393D01*
X023679Y004454D01*
X023521Y004454D01*
X023374Y004393D01*
X023338Y004481D01*
X023226Y004593D01*
X023079Y004654D01*
X022921Y004654D01*
X022774Y004593D01*
X022682Y004501D02*
X020899Y004501D01*
X020897Y004423D02*
X022638Y004423D01*
X022605Y004344D02*
X021053Y004344D01*
X021203Y004266D02*
X022601Y004266D01*
X022601Y004187D02*
X021282Y004187D01*
X021318Y004109D02*
X022629Y004109D01*
X022662Y004030D02*
X021349Y004030D01*
X021349Y003952D02*
X022740Y003952D01*
X022880Y003873D02*
X021348Y003873D01*
X021315Y003795D02*
X023297Y003795D01*
X023244Y003873D02*
X023120Y003873D01*
X023179Y003654D02*
X023021Y003654D01*
X022874Y003593D01*
X022762Y003481D01*
X022701Y003334D01*
X022701Y003176D01*
X022762Y003029D01*
X022874Y002917D01*
X023021Y002856D01*
X023179Y002856D01*
X023326Y002917D01*
X023438Y003029D01*
X023499Y003176D01*
X023499Y003334D01*
X023438Y003481D01*
X023326Y003593D01*
X023179Y003654D01*
X023218Y003638D02*
X025332Y003638D01*
X025371Y003654D02*
X025224Y003593D01*
X025112Y003481D01*
X025051Y003334D01*
X025051Y003176D01*
X025112Y003029D01*
X025224Y002917D01*
X025371Y002856D01*
X025529Y002856D01*
X025676Y002917D01*
X025788Y003029D01*
X025849Y003176D01*
X025849Y003334D01*
X025788Y003481D01*
X025676Y003593D01*
X025529Y003654D01*
X025371Y003654D01*
X025568Y003638D02*
X026019Y003638D01*
X026074Y003693D02*
X025962Y003581D01*
X025901Y003434D01*
X025901Y003276D01*
X025962Y003129D01*
X026074Y003017D01*
X026221Y002956D01*
X026379Y002956D01*
X026419Y002973D01*
X026474Y002917D01*
X026621Y002856D01*
X026779Y002856D01*
X026926Y002917D01*
X027038Y003029D01*
X027099Y003176D01*
X027099Y003334D01*
X027038Y003481D01*
X026926Y003593D01*
X026779Y003654D01*
X026621Y003654D01*
X026581Y003637D01*
X026526Y003693D01*
X026379Y003754D01*
X026221Y003754D01*
X026074Y003693D01*
X026130Y003716D02*
X024253Y003716D01*
X024403Y003795D02*
X028247Y003795D01*
X028262Y003831D02*
X028201Y003684D01*
X028201Y003526D01*
X028262Y003379D01*
X028374Y003267D01*
X028521Y003206D01*
X028679Y003206D01*
X028826Y003267D01*
X028925Y003366D01*
X029024Y003267D01*
X029171Y003206D01*
X029329Y003206D01*
X029476Y003267D01*
X029588Y003379D01*
X029649Y003526D01*
X029649Y003684D01*
X029588Y003831D01*
X029476Y003943D01*
X029329Y004004D01*
X029171Y004004D01*
X029024Y003943D01*
X028925Y003844D01*
X028826Y003943D01*
X028774Y003965D01*
X028788Y003979D01*
X028849Y004126D01*
X028849Y004284D01*
X028788Y004431D01*
X028676Y004543D01*
X028529Y004604D01*
X028371Y004604D01*
X028224Y004543D01*
X028112Y004431D01*
X028051Y004284D01*
X028051Y004126D01*
X028112Y003979D01*
X028224Y003867D01*
X028276Y003845D01*
X028262Y003831D01*
X028218Y003873D02*
X024482Y003873D01*
X024518Y003952D02*
X028140Y003952D01*
X028091Y004030D02*
X024549Y004030D01*
X024549Y004109D02*
X028058Y004109D01*
X028051Y004187D02*
X024548Y004187D01*
X024515Y004266D02*
X028051Y004266D01*
X028076Y004344D02*
X024475Y004344D01*
X024396Y004423D02*
X028109Y004423D01*
X028182Y004501D02*
X024236Y004501D01*
X024064Y004501D02*
X023318Y004501D01*
X023362Y004423D02*
X023445Y004423D01*
X023239Y004580D02*
X024765Y004580D01*
X025035Y004580D02*
X028312Y004580D01*
X028588Y004580D02*
X028862Y004580D01*
X028862Y004579D02*
X028974Y004467D01*
X029121Y004406D01*
X029279Y004406D01*
X029426Y004467D01*
X029538Y004579D01*
X029599Y004726D01*
X029599Y004884D01*
X029538Y005031D01*
X029426Y005143D01*
X029397Y005155D01*
X029426Y005167D01*
X029538Y005279D01*
X029599Y005426D01*
X029599Y005584D01*
X029538Y005731D01*
X029426Y005843D01*
X029279Y005904D01*
X029121Y005904D01*
X028974Y005843D01*
X028862Y005731D01*
X028801Y005584D01*
X028801Y005426D01*
X028862Y005279D01*
X028974Y005167D01*
X029003Y005155D01*
X028974Y005143D01*
X028862Y005031D01*
X028801Y004884D01*
X028801Y004726D01*
X028862Y004579D01*
X028829Y004658D02*
X027704Y004658D01*
X027795Y004737D02*
X028801Y004737D01*
X028801Y004815D02*
X027853Y004815D01*
X027885Y004894D02*
X028805Y004894D01*
X028838Y004972D02*
X027899Y004972D01*
X027899Y005051D02*
X028882Y005051D01*
X028960Y005129D02*
X027880Y005129D01*
X027848Y005208D02*
X028934Y005208D01*
X028859Y005286D02*
X027783Y005286D01*
X027674Y005365D02*
X028827Y005365D01*
X028801Y005443D02*
X027285Y005443D01*
X027299Y005522D02*
X028801Y005522D01*
X028808Y005600D02*
X027299Y005600D01*
X027280Y005679D02*
X028840Y005679D01*
X028888Y005757D02*
X027248Y005757D01*
X027183Y005836D02*
X028967Y005836D01*
X029433Y005836D02*
X030852Y005836D01*
X030851Y005834D02*
X030851Y005676D01*
X030912Y005529D01*
X030997Y005444D01*
X030874Y005393D01*
X030762Y005281D01*
X030701Y005134D01*
X030701Y004976D01*
X030762Y004829D01*
X030874Y004717D01*
X030891Y004710D01*
X030812Y004631D01*
X030751Y004484D01*
X030751Y004326D01*
X030812Y004179D01*
X030924Y004067D01*
X031071Y004006D01*
X031229Y004006D01*
X031376Y004067D01*
X031488Y004179D01*
X031549Y004326D01*
X031549Y004484D01*
X031488Y004631D01*
X031376Y004743D01*
X031359Y004750D01*
X031438Y004829D01*
X031499Y004976D01*
X031499Y005134D01*
X031438Y005281D01*
X031353Y005366D01*
X031476Y005417D01*
X031588Y005529D01*
X031649Y005676D01*
X031649Y005834D01*
X031588Y005981D01*
X031497Y006072D01*
X031499Y006076D01*
X031499Y006234D01*
X031438Y006381D01*
X031326Y006493D01*
X031179Y006554D01*
X031021Y006554D01*
X030874Y006493D01*
X030762Y006381D01*
X030701Y006234D01*
X030701Y006076D01*
X030762Y005929D01*
X030853Y005838D01*
X030851Y005834D01*
X030851Y005757D02*
X029512Y005757D01*
X029560Y005679D02*
X030851Y005679D01*
X030883Y005600D02*
X029592Y005600D01*
X029599Y005522D02*
X030920Y005522D01*
X030995Y005443D02*
X029599Y005443D01*
X029573Y005365D02*
X030846Y005365D01*
X030767Y005286D02*
X029541Y005286D01*
X029466Y005208D02*
X030732Y005208D01*
X030701Y005129D02*
X029440Y005129D01*
X029518Y005051D02*
X030701Y005051D01*
X030703Y004972D02*
X029562Y004972D01*
X029595Y004894D02*
X030735Y004894D01*
X030776Y004815D02*
X029599Y004815D01*
X029599Y004737D02*
X030855Y004737D01*
X030839Y004658D02*
X029571Y004658D01*
X029538Y004580D02*
X030791Y004580D01*
X030758Y004501D02*
X029460Y004501D01*
X029319Y004423D02*
X030751Y004423D01*
X030751Y004344D02*
X028824Y004344D01*
X028849Y004266D02*
X030776Y004266D01*
X030809Y004187D02*
X028849Y004187D01*
X028842Y004109D02*
X030883Y004109D01*
X031013Y004030D02*
X028809Y004030D01*
X028805Y003952D02*
X029045Y003952D01*
X028954Y003873D02*
X028896Y003873D01*
X028791Y004423D02*
X029081Y004423D01*
X028940Y004501D02*
X028718Y004501D01*
X029455Y003952D02*
X032200Y003952D01*
X032200Y004030D02*
X031287Y004030D01*
X031417Y004109D02*
X032200Y004109D01*
X032200Y004187D02*
X031491Y004187D01*
X031524Y004266D02*
X032200Y004266D01*
X032200Y004344D02*
X031549Y004344D01*
X031549Y004423D02*
X032200Y004423D01*
X032200Y004501D02*
X031542Y004501D01*
X031509Y004580D02*
X032200Y004580D01*
X032200Y004658D02*
X031461Y004658D01*
X031382Y004737D02*
X032200Y004737D01*
X032200Y004815D02*
X031424Y004815D01*
X031465Y004894D02*
X032200Y004894D01*
X032200Y004972D02*
X031497Y004972D01*
X031499Y005051D02*
X032200Y005051D01*
X032200Y005129D02*
X031499Y005129D01*
X031468Y005208D02*
X032200Y005208D01*
X032200Y005286D02*
X031433Y005286D01*
X031354Y005365D02*
X032200Y005365D01*
X032200Y005443D02*
X031502Y005443D01*
X031580Y005522D02*
X032200Y005522D01*
X032200Y005600D02*
X031617Y005600D01*
X031649Y005679D02*
X032200Y005679D01*
X032200Y005757D02*
X032031Y005757D01*
X032029Y005756D02*
X032176Y005817D01*
X032200Y005841D01*
X032200Y000355D01*
X000700Y000355D01*
X000700Y011906D01*
X000821Y011856D01*
X000979Y011856D01*
X001126Y011917D01*
X001238Y012029D01*
X001299Y012176D01*
X001299Y012334D01*
X001238Y012481D01*
X001126Y012593D01*
X000979Y012654D01*
X000821Y012654D01*
X000700Y012604D01*
X000700Y020055D01*
X032200Y020055D01*
X032200Y006469D01*
X032176Y006493D01*
X032029Y006554D01*
X031871Y006554D01*
X031724Y006493D01*
X031612Y006381D01*
X031551Y006234D01*
X031551Y006076D01*
X031612Y005929D01*
X031724Y005817D01*
X031871Y005756D01*
X032029Y005756D01*
X031869Y005757D02*
X031649Y005757D01*
X031648Y005836D02*
X031706Y005836D01*
X031627Y005914D02*
X031616Y005914D01*
X031586Y005993D02*
X031576Y005993D01*
X031553Y006071D02*
X031498Y006071D01*
X031499Y006150D02*
X031551Y006150D01*
X031551Y006228D02*
X031499Y006228D01*
X031469Y006307D02*
X031581Y006307D01*
X031616Y006385D02*
X031434Y006385D01*
X031355Y006464D02*
X031695Y006464D01*
X031842Y006542D02*
X031208Y006542D01*
X030992Y006542D02*
X026927Y006542D01*
X026938Y006531D02*
X026826Y006643D01*
X026679Y006704D01*
X026521Y006704D01*
X026374Y006643D01*
X026262Y006531D01*
X026201Y006384D01*
X026201Y006226D01*
X026262Y006079D01*
X026374Y005967D01*
X026521Y005906D01*
X026679Y005906D01*
X026826Y005967D01*
X026938Y006079D01*
X026999Y006226D01*
X026999Y006384D01*
X026938Y006531D01*
X026966Y006464D02*
X030845Y006464D01*
X030766Y006385D02*
X026998Y006385D01*
X026999Y006307D02*
X030731Y006307D01*
X030701Y006228D02*
X026999Y006228D01*
X026967Y006150D02*
X030701Y006150D01*
X030703Y006071D02*
X026930Y006071D01*
X026851Y005993D02*
X030736Y005993D01*
X030777Y005914D02*
X027075Y005914D01*
X026725Y005914D02*
X026698Y005914D01*
X026617Y005836D02*
X026183Y005836D01*
X026262Y005757D02*
X026552Y005757D01*
X026520Y005679D02*
X026310Y005679D01*
X026502Y005914D02*
X025655Y005914D01*
X025707Y005836D02*
X025717Y005836D01*
X025576Y005993D02*
X026349Y005993D01*
X026270Y006071D02*
X025580Y006071D01*
X025658Y006150D02*
X026233Y006150D01*
X026201Y006228D02*
X025708Y006228D01*
X025741Y006307D02*
X026201Y006307D01*
X026202Y006385D02*
X025894Y006385D01*
X025972Y006464D02*
X026234Y006464D01*
X026273Y006542D02*
X026014Y006542D01*
X026047Y006621D02*
X026352Y006621D01*
X026509Y006699D02*
X026049Y006699D01*
X026013Y007170D02*
X026301Y007170D01*
X026301Y007249D02*
X026157Y007249D01*
X026236Y007327D02*
X026319Y007327D01*
X026351Y007406D02*
X026270Y007406D01*
X026299Y007484D02*
X026415Y007484D01*
X026315Y007563D02*
X026521Y007563D01*
X026487Y007798D02*
X026770Y007798D01*
X026665Y007877D02*
X026499Y007877D01*
X026499Y007955D02*
X026601Y007955D01*
X026569Y008034D02*
X026478Y008034D01*
X026446Y008112D02*
X026551Y008112D01*
X026551Y008191D02*
X026378Y008191D01*
X026263Y008269D02*
X026566Y008269D01*
X026598Y008348D02*
X026123Y008348D01*
X026090Y008426D02*
X026657Y008426D01*
X026752Y008505D02*
X026014Y008505D01*
X025879Y008583D02*
X027608Y008583D01*
X027549Y008662D02*
X023963Y008662D01*
X023976Y008667D02*
X024088Y008779D01*
X024149Y008926D01*
X024149Y009084D01*
X024088Y009231D01*
X023976Y009343D01*
X023829Y009404D01*
X023671Y009404D01*
X023524Y009343D01*
X023412Y009231D01*
X023351Y009084D01*
X023351Y008926D01*
X023412Y008779D01*
X023524Y008667D01*
X023671Y008606D01*
X023829Y008606D01*
X023976Y008667D01*
X024049Y008740D02*
X027516Y008740D01*
X027501Y008819D02*
X024104Y008819D01*
X024137Y008897D02*
X027501Y008897D01*
X027518Y008976D02*
X024149Y008976D01*
X024149Y009054D02*
X027551Y009054D01*
X027614Y009133D02*
X024129Y009133D01*
X024096Y009211D02*
X025509Y009211D01*
X025521Y009206D02*
X025679Y009206D01*
X025826Y009267D01*
X025938Y009379D01*
X025993Y009512D01*
X026126Y009567D01*
X026238Y009679D01*
X026299Y009826D01*
X026299Y009984D01*
X026238Y010131D01*
X026126Y010243D01*
X025979Y010304D01*
X025821Y010304D01*
X025674Y010243D01*
X025562Y010131D01*
X025507Y009998D01*
X025374Y009943D01*
X025345Y009914D01*
X025338Y009931D01*
X025226Y010043D01*
X025079Y010104D01*
X024921Y010104D01*
X024774Y010043D01*
X024662Y009931D01*
X024601Y009784D01*
X024601Y009626D01*
X024662Y009479D01*
X024774Y009367D01*
X024921Y009306D01*
X025079Y009306D01*
X025226Y009367D01*
X025255Y009396D01*
X025262Y009379D01*
X025374Y009267D01*
X025521Y009206D01*
X025691Y009211D02*
X027718Y009211D01*
X027946Y009368D02*
X025927Y009368D01*
X025966Y009447D02*
X027913Y009447D01*
X027901Y009525D02*
X027134Y009525D01*
X027212Y009604D02*
X027901Y009604D01*
X027921Y009682D02*
X027260Y009682D01*
X027292Y009761D02*
X027954Y009761D01*
X028020Y009839D02*
X027299Y009839D01*
X027299Y009918D02*
X028133Y009918D01*
X028002Y009290D02*
X025848Y009290D01*
X026025Y009525D02*
X026666Y009525D01*
X026588Y009604D02*
X026162Y009604D01*
X026239Y009682D02*
X026540Y009682D01*
X026508Y009761D02*
X026272Y009761D01*
X026299Y009839D02*
X026501Y009839D01*
X026501Y009918D02*
X026299Y009918D01*
X026294Y009996D02*
X026527Y009996D01*
X026559Y010075D02*
X026261Y010075D01*
X026216Y010153D02*
X026634Y010153D01*
X026767Y010232D02*
X026137Y010232D01*
X025663Y010232D02*
X013149Y010232D01*
X013139Y010153D02*
X025584Y010153D01*
X025539Y010075D02*
X025150Y010075D01*
X025273Y009996D02*
X025502Y009996D01*
X025349Y009918D02*
X025344Y009918D01*
X024850Y010075D02*
X013107Y010075D01*
X013055Y009996D02*
X021402Y009996D01*
X021421Y010004D02*
X021274Y009943D01*
X021162Y009831D01*
X021101Y009684D01*
X021101Y009574D01*
X021029Y009604D01*
X020871Y009604D01*
X020724Y009543D01*
X020612Y009431D01*
X020551Y009284D01*
X020551Y009126D01*
X020612Y008979D01*
X020724Y008867D01*
X020871Y008806D01*
X021029Y008806D01*
X021176Y008867D01*
X021288Y008979D01*
X021349Y009126D01*
X021349Y009236D01*
X021421Y009206D01*
X021579Y009206D01*
X021726Y009267D01*
X021800Y009341D01*
X021874Y009267D01*
X022021Y009206D01*
X022179Y009206D01*
X022326Y009267D01*
X022375Y009316D01*
X022521Y009256D01*
X022679Y009256D01*
X022826Y009317D01*
X022938Y009429D01*
X022999Y009576D01*
X022999Y009734D01*
X022938Y009881D01*
X022826Y009993D01*
X022679Y010054D01*
X022521Y010054D01*
X022374Y009993D01*
X022325Y009944D01*
X022179Y010004D01*
X022021Y010004D01*
X021874Y009943D01*
X021800Y009869D01*
X021726Y009943D01*
X021579Y010004D01*
X021421Y010004D01*
X021598Y009996D02*
X022002Y009996D01*
X021849Y009918D02*
X021751Y009918D01*
X022198Y009996D02*
X022381Y009996D01*
X022819Y009996D02*
X024727Y009996D01*
X024656Y009918D02*
X022901Y009918D01*
X022955Y009839D02*
X024624Y009839D01*
X024601Y009761D02*
X022988Y009761D01*
X022999Y009682D02*
X024601Y009682D01*
X024610Y009604D02*
X022999Y009604D01*
X022978Y009525D02*
X024643Y009525D01*
X024695Y009447D02*
X022945Y009447D01*
X022877Y009368D02*
X023584Y009368D01*
X023471Y009290D02*
X022760Y009290D01*
X022440Y009290D02*
X022348Y009290D01*
X022191Y009211D02*
X023404Y009211D01*
X023371Y009133D02*
X021349Y009133D01*
X021349Y009211D02*
X021409Y009211D01*
X021319Y009054D02*
X023351Y009054D01*
X023351Y008976D02*
X021284Y008976D01*
X021206Y008897D02*
X023363Y008897D01*
X023396Y008819D02*
X021059Y008819D01*
X020841Y008819D02*
X017927Y008819D01*
X017926Y008817D02*
X018038Y008929D01*
X018099Y009076D01*
X018099Y009234D01*
X018038Y009381D01*
X017926Y009493D01*
X017779Y009554D01*
X017621Y009554D01*
X017474Y009493D01*
X017362Y009381D01*
X017301Y009234D01*
X017301Y009076D01*
X017362Y008929D01*
X017474Y008817D01*
X017621Y008756D01*
X017779Y008756D01*
X017926Y008817D01*
X018006Y008897D02*
X020694Y008897D01*
X020616Y008976D02*
X018057Y008976D01*
X018090Y009054D02*
X020581Y009054D01*
X020551Y009133D02*
X018099Y009133D01*
X018099Y009211D02*
X020551Y009211D01*
X020553Y009290D02*
X018076Y009290D01*
X018043Y009368D02*
X020586Y009368D01*
X020628Y009447D02*
X017972Y009447D01*
X017849Y009525D02*
X020706Y009525D01*
X020870Y009604D02*
X009215Y009604D01*
X009238Y009581D02*
X009126Y009693D01*
X008979Y009754D01*
X008821Y009754D01*
X008674Y009693D01*
X008562Y009581D01*
X008501Y009434D01*
X008501Y009276D01*
X008562Y009129D01*
X008674Y009017D01*
X008821Y008956D01*
X008979Y008956D01*
X009126Y009017D01*
X009238Y009129D01*
X009299Y009276D01*
X009299Y009434D01*
X009238Y009581D01*
X009261Y009525D02*
X017551Y009525D01*
X017428Y009447D02*
X009294Y009447D01*
X009299Y009368D02*
X017357Y009368D01*
X017324Y009290D02*
X009299Y009290D01*
X009272Y009211D02*
X017301Y009211D01*
X017301Y009133D02*
X009239Y009133D01*
X009163Y009054D02*
X017310Y009054D01*
X017343Y008976D02*
X009026Y008976D01*
X008774Y008976D02*
X008449Y008976D01*
X008449Y008984D02*
X008388Y009131D01*
X008276Y009243D01*
X008129Y009304D01*
X007971Y009304D01*
X007824Y009243D01*
X007712Y009131D01*
X007651Y008984D01*
X007651Y008826D01*
X007712Y008679D01*
X007824Y008567D01*
X007971Y008506D01*
X008129Y008506D01*
X008276Y008567D01*
X008388Y008679D01*
X008449Y008826D01*
X008449Y008984D01*
X008420Y009054D02*
X008637Y009054D01*
X008561Y009133D02*
X008386Y009133D01*
X008308Y009211D02*
X008528Y009211D01*
X008501Y009290D02*
X008164Y009290D01*
X007936Y009290D02*
X004399Y009290D01*
X004399Y009226D02*
X004338Y009079D01*
X004226Y008967D01*
X004079Y008906D01*
X003921Y008906D01*
X003774Y008967D01*
X003662Y009079D01*
X003601Y009226D01*
X003601Y009384D01*
X003662Y009531D01*
X003774Y009643D01*
X003921Y009704D01*
X004079Y009704D01*
X004226Y009643D01*
X004338Y009531D01*
X004399Y009384D01*
X004399Y009226D01*
X004393Y009211D02*
X007792Y009211D01*
X007714Y009133D02*
X004360Y009133D01*
X004313Y009054D02*
X007680Y009054D01*
X007651Y008976D02*
X004234Y008976D01*
X004399Y009368D02*
X008501Y009368D01*
X008506Y009447D02*
X004373Y009447D01*
X004340Y009525D02*
X008539Y009525D01*
X008585Y009604D02*
X004265Y009604D01*
X004132Y009682D02*
X008663Y009682D01*
X008355Y009996D02*
X009264Y009996D01*
X009251Y010026D02*
X009312Y009879D01*
X009424Y009767D01*
X009571Y009706D01*
X009729Y009706D01*
X009876Y009767D01*
X009988Y009879D01*
X010049Y010026D01*
X010049Y010184D01*
X009988Y010331D01*
X009876Y010443D01*
X009729Y010504D01*
X009571Y010504D01*
X009424Y010443D01*
X009312Y010331D01*
X009251Y010184D01*
X009251Y010026D01*
X009251Y010075D02*
X008407Y010075D01*
X008388Y010029D02*
X008449Y010176D01*
X008449Y010334D01*
X008388Y010481D01*
X008276Y010593D01*
X008129Y010654D01*
X007971Y010654D01*
X007824Y010593D01*
X007712Y010481D01*
X007651Y010334D01*
X007651Y010176D01*
X007712Y010029D01*
X007824Y009917D01*
X007971Y009856D01*
X008129Y009856D01*
X008276Y009917D01*
X008388Y010029D01*
X008439Y010153D02*
X008708Y010153D01*
X008674Y010167D02*
X008821Y010106D01*
X008979Y010106D01*
X009126Y010167D01*
X009238Y010279D01*
X009299Y010426D01*
X009299Y010584D01*
X009238Y010731D01*
X009126Y010843D01*
X008979Y010904D01*
X008821Y010904D01*
X008674Y010843D01*
X008562Y010731D01*
X008501Y010584D01*
X008501Y010426D01*
X008562Y010279D01*
X008674Y010167D01*
X008610Y010232D02*
X008449Y010232D01*
X008449Y010310D02*
X008549Y010310D01*
X008517Y010389D02*
X008426Y010389D01*
X008394Y010467D02*
X008501Y010467D01*
X008501Y010546D02*
X008323Y010546D01*
X008201Y010624D02*
X008518Y010624D01*
X008550Y010703D02*
X006518Y010703D01*
X006498Y010654D02*
X006549Y010776D01*
X006549Y010934D01*
X006488Y011081D01*
X006376Y011193D01*
X006229Y011254D01*
X006071Y011254D01*
X005924Y011193D01*
X005812Y011081D01*
X005751Y010934D01*
X005751Y010776D01*
X005812Y010629D01*
X005861Y010580D01*
X005762Y010481D01*
X005701Y010334D01*
X005701Y010176D01*
X005762Y010029D01*
X005874Y009917D01*
X006021Y009856D01*
X006179Y009856D01*
X006325Y009917D01*
X006471Y009856D01*
X006629Y009856D01*
X006776Y009917D01*
X006888Y010029D01*
X006949Y010176D01*
X006949Y010334D01*
X006888Y010481D01*
X006776Y010593D01*
X006629Y010654D01*
X006498Y010654D01*
X006549Y010781D02*
X008612Y010781D01*
X008714Y010860D02*
X006549Y010860D01*
X006547Y010938D02*
X009938Y010938D01*
X009962Y010879D02*
X009901Y011026D01*
X009901Y011184D01*
X009962Y011331D01*
X010074Y011443D01*
X010221Y011504D01*
X010379Y011504D01*
X010526Y011443D01*
X010638Y011331D01*
X010699Y011184D01*
X010699Y011026D01*
X010638Y010879D01*
X010526Y010767D01*
X010379Y010706D01*
X010221Y010706D01*
X010074Y010767D01*
X009962Y010879D01*
X009982Y010860D02*
X009086Y010860D01*
X009188Y010781D02*
X010060Y010781D01*
X009905Y011017D02*
X006515Y011017D01*
X006474Y011095D02*
X009901Y011095D01*
X009901Y011174D02*
X006395Y011174D01*
X006233Y011252D02*
X009929Y011252D01*
X009962Y011331D02*
X000700Y011331D01*
X000700Y011409D02*
X010040Y011409D01*
X010182Y011488D02*
X000700Y011488D01*
X000700Y011566D02*
X012025Y011566D01*
X012074Y011517D02*
X012221Y011456D01*
X012379Y011456D01*
X012526Y011517D01*
X012600Y011591D01*
X012624Y011567D01*
X012771Y011506D01*
X012929Y011506D01*
X013076Y011567D01*
X013188Y011679D01*
X013249Y011826D01*
X013249Y011984D01*
X013188Y012131D01*
X013076Y012243D01*
X012929Y012304D01*
X012771Y012304D01*
X012624Y012243D01*
X012550Y012169D01*
X012526Y012193D01*
X012379Y012254D01*
X012221Y012254D01*
X012074Y012193D01*
X011962Y012081D01*
X011901Y011934D01*
X011901Y011776D01*
X011962Y011629D01*
X012074Y011517D01*
X012145Y011488D02*
X010418Y011488D01*
X010560Y011409D02*
X013203Y011409D01*
X013212Y011431D02*
X013151Y011284D01*
X013151Y011126D01*
X013212Y010979D01*
X013324Y010867D01*
X013471Y010806D01*
X013629Y010806D01*
X013776Y010867D01*
X013888Y010979D01*
X013949Y011126D01*
X013949Y011284D01*
X013888Y011431D01*
X013776Y011543D01*
X013629Y011604D01*
X013471Y011604D01*
X013324Y011543D01*
X013212Y011431D01*
X013269Y011488D02*
X012455Y011488D01*
X012575Y011566D02*
X012626Y011566D01*
X013074Y011566D02*
X013380Y011566D01*
X013474Y011767D02*
X013621Y011706D01*
X013779Y011706D01*
X013926Y011767D01*
X014038Y011879D01*
X014099Y012026D01*
X014099Y012184D01*
X014038Y012331D01*
X013926Y012443D01*
X013779Y012504D01*
X013621Y012504D01*
X013474Y012443D01*
X013362Y012331D01*
X013301Y012184D01*
X013301Y012026D01*
X013362Y011879D01*
X013474Y011767D01*
X013440Y011802D02*
X013239Y011802D01*
X013249Y011880D02*
X013362Y011880D01*
X013329Y011959D02*
X013249Y011959D01*
X013227Y012037D02*
X013301Y012037D01*
X013301Y012116D02*
X013194Y012116D01*
X013125Y012194D02*
X013305Y012194D01*
X013338Y012273D02*
X013005Y012273D01*
X012695Y012273D02*
X005696Y012273D01*
X005738Y012231D02*
X005626Y012343D01*
X005479Y012404D01*
X005321Y012404D01*
X005174Y012343D01*
X005062Y012231D01*
X005001Y012084D01*
X005001Y011926D01*
X005062Y011779D01*
X005174Y011667D01*
X005321Y011606D01*
X005479Y011606D01*
X005626Y011667D01*
X005738Y011779D01*
X005799Y011926D01*
X005799Y012084D01*
X005738Y012231D01*
X005753Y012194D02*
X012077Y012194D01*
X011997Y012116D02*
X005786Y012116D01*
X005799Y012037D02*
X011944Y012037D01*
X011911Y011959D02*
X005799Y011959D01*
X005780Y011880D02*
X011901Y011880D01*
X011901Y011802D02*
X005747Y011802D01*
X005682Y011723D02*
X011923Y011723D01*
X011956Y011645D02*
X005572Y011645D01*
X005228Y011645D02*
X000700Y011645D01*
X000700Y011723D02*
X005118Y011723D01*
X005053Y011802D02*
X000700Y011802D01*
X000700Y011880D02*
X000763Y011880D01*
X001037Y011880D02*
X005020Y011880D01*
X005001Y011959D02*
X001167Y011959D01*
X001241Y012037D02*
X005001Y012037D01*
X005014Y012116D02*
X001274Y012116D01*
X001299Y012194D02*
X005047Y012194D01*
X005104Y012273D02*
X001299Y012273D01*
X001292Y012351D02*
X005193Y012351D01*
X005271Y012656D02*
X005150Y012706D01*
X005029Y012656D01*
X004871Y012656D01*
X004724Y012717D01*
X004612Y012829D01*
X004551Y012976D01*
X004551Y013134D01*
X004612Y013281D01*
X004724Y013393D01*
X004871Y013454D01*
X005029Y013454D01*
X005150Y013404D01*
X005271Y013454D01*
X005429Y013454D01*
X005576Y013393D01*
X005688Y013281D01*
X005749Y013134D01*
X005749Y012976D01*
X005688Y012829D01*
X005576Y012717D01*
X005429Y012656D01*
X005271Y012656D01*
X005249Y012665D02*
X005051Y012665D01*
X004849Y012665D02*
X000700Y012665D01*
X000700Y012744D02*
X004698Y012744D01*
X004619Y012822D02*
X000700Y012822D01*
X000700Y012901D02*
X004582Y012901D01*
X004551Y012979D02*
X000700Y012979D01*
X000700Y013058D02*
X004551Y013058D01*
X004552Y013136D02*
X000700Y013136D01*
X000700Y013215D02*
X004584Y013215D01*
X004624Y013293D02*
X000700Y013293D01*
X000700Y013372D02*
X004703Y013372D01*
X004862Y013450D02*
X000700Y013450D01*
X000700Y013529D02*
X006910Y013529D01*
X006971Y013554D02*
X006824Y013493D01*
X006712Y013381D01*
X006651Y013234D01*
X006651Y013076D01*
X006712Y012929D01*
X006824Y012817D01*
X006971Y012756D01*
X007129Y012756D01*
X007276Y012817D01*
X007325Y012866D01*
X007374Y012817D01*
X007521Y012756D01*
X007679Y012756D01*
X007826Y012817D01*
X007938Y012929D01*
X007999Y013076D01*
X007999Y013234D01*
X007938Y013381D01*
X007826Y013493D01*
X007679Y013554D01*
X007521Y013554D01*
X007374Y013493D01*
X007325Y013444D01*
X007276Y013493D01*
X007129Y013554D01*
X006971Y013554D01*
X006781Y013450D02*
X005438Y013450D01*
X005262Y013450D02*
X005038Y013450D01*
X004776Y013767D02*
X004629Y013706D01*
X004471Y013706D01*
X004324Y013767D01*
X004212Y013879D01*
X004205Y013896D01*
X004126Y013817D01*
X003979Y013756D01*
X003821Y013756D01*
X003674Y013817D01*
X003600Y013891D01*
X003526Y013817D01*
X003379Y013756D01*
X003221Y013756D01*
X003074Y013817D01*
X002975Y013916D01*
X002876Y013817D01*
X002729Y013756D01*
X002571Y013756D01*
X002424Y013817D01*
X002312Y013929D01*
X002251Y014076D01*
X002251Y014234D01*
X002312Y014381D01*
X002424Y014493D01*
X002571Y014554D01*
X002729Y014554D01*
X002876Y014493D01*
X002975Y014394D01*
X003074Y014493D01*
X003221Y014554D01*
X003379Y014554D01*
X003526Y014493D01*
X003600Y014419D01*
X003674Y014493D01*
X003821Y014554D01*
X003979Y014554D01*
X004126Y014493D01*
X004238Y014381D01*
X004245Y014364D01*
X004324Y014443D01*
X004471Y014504D01*
X004629Y014504D01*
X004776Y014443D01*
X004888Y014331D01*
X004949Y014184D01*
X004949Y014026D01*
X004888Y013879D01*
X004776Y013767D01*
X004769Y013764D02*
X010351Y013764D01*
X010351Y013686D02*
X000700Y013686D01*
X000700Y013764D02*
X002552Y013764D01*
X002399Y013843D02*
X001567Y013843D01*
X001626Y013867D02*
X001479Y013806D01*
X001321Y013806D01*
X001174Y013867D01*
X001062Y013979D01*
X001001Y014126D01*
X001001Y014284D01*
X001062Y014431D01*
X001174Y014543D01*
X001321Y014604D01*
X001479Y014604D01*
X001626Y014543D01*
X001738Y014431D01*
X001799Y014284D01*
X001799Y014126D01*
X001738Y013979D01*
X001626Y013867D01*
X001680Y013921D02*
X002320Y013921D01*
X002283Y014000D02*
X001746Y014000D01*
X001779Y014078D02*
X002251Y014078D01*
X002251Y014157D02*
X001799Y014157D01*
X001799Y014235D02*
X002252Y014235D01*
X002284Y014314D02*
X001787Y014314D01*
X001754Y014392D02*
X002323Y014392D01*
X002402Y014471D02*
X001698Y014471D01*
X001611Y014549D02*
X002559Y014549D01*
X002741Y014549D02*
X003209Y014549D01*
X003052Y014471D02*
X002898Y014471D01*
X003391Y014549D02*
X003809Y014549D01*
X003652Y014471D02*
X003548Y014471D01*
X003991Y014549D02*
X006554Y014549D01*
X006521Y014628D02*
X004931Y014628D01*
X004879Y014606D02*
X005026Y014667D01*
X005138Y014779D01*
X005199Y014926D01*
X005199Y015084D01*
X005138Y015231D01*
X005026Y015343D01*
X004879Y015404D01*
X004721Y015404D01*
X004574Y015343D01*
X004462Y015231D01*
X004401Y015084D01*
X004401Y014926D01*
X004462Y014779D01*
X004574Y014667D01*
X004721Y014606D01*
X004879Y014606D01*
X004669Y014628D02*
X000700Y014628D01*
X000700Y014706D02*
X004535Y014706D01*
X004460Y014785D02*
X000700Y014785D01*
X000700Y014863D02*
X004427Y014863D01*
X004401Y014942D02*
X000700Y014942D01*
X000700Y015020D02*
X004401Y015020D01*
X004407Y015099D02*
X000700Y015099D01*
X000700Y015177D02*
X004440Y015177D01*
X004487Y015256D02*
X000700Y015256D01*
X000700Y015334D02*
X004565Y015334D01*
X004720Y015648D02*
X000700Y015648D01*
X000700Y015570D02*
X005201Y015570D01*
X005201Y015634D02*
X005201Y015476D01*
X005262Y015329D01*
X005374Y015217D01*
X005521Y015156D01*
X005679Y015156D01*
X005801Y015207D01*
X005801Y015126D01*
X005862Y014979D01*
X005974Y014867D01*
X006121Y014806D01*
X006279Y014806D01*
X006426Y014867D01*
X006538Y014979D01*
X006599Y015126D01*
X006599Y015284D01*
X006538Y015431D01*
X006426Y015543D01*
X006279Y015604D01*
X006121Y015604D01*
X005999Y015553D01*
X005999Y015634D01*
X005938Y015781D01*
X005826Y015893D01*
X005679Y015954D01*
X005521Y015954D01*
X005374Y015893D01*
X005262Y015781D01*
X005201Y015634D01*
X005207Y015648D02*
X005080Y015648D01*
X005126Y015667D02*
X005238Y015779D01*
X005299Y015926D01*
X005299Y016084D01*
X005238Y016231D01*
X005126Y016343D01*
X004979Y016404D01*
X004821Y016404D01*
X004674Y016343D01*
X004562Y016231D01*
X004501Y016084D01*
X004501Y015926D01*
X004562Y015779D01*
X004674Y015667D01*
X004821Y015606D01*
X004979Y015606D01*
X005126Y015667D01*
X005185Y015727D02*
X005239Y015727D01*
X005249Y015805D02*
X005286Y015805D01*
X005281Y015884D02*
X005365Y015884D01*
X005299Y015962D02*
X018348Y015962D01*
X018316Y016041D02*
X005299Y016041D01*
X005284Y016119D02*
X016190Y016119D01*
X016044Y016198D02*
X005252Y016198D01*
X005193Y016276D02*
X015965Y016276D01*
X015931Y016355D02*
X005098Y016355D01*
X004702Y016355D02*
X004449Y016355D01*
X004449Y016384D02*
X004388Y016531D01*
X004276Y016643D01*
X004129Y016704D01*
X003971Y016704D01*
X003824Y016643D01*
X003712Y016531D01*
X003651Y016384D01*
X003651Y016226D01*
X003712Y016079D01*
X003824Y015967D01*
X003971Y015906D01*
X004129Y015906D01*
X004276Y015967D01*
X004388Y016079D01*
X004449Y016226D01*
X004449Y016384D01*
X004429Y016433D02*
X015901Y016433D01*
X015901Y016512D02*
X004396Y016512D01*
X004329Y016590D02*
X015904Y016590D01*
X015936Y016669D02*
X004777Y016669D01*
X005178Y016747D02*
X015978Y016747D01*
X016699Y016512D02*
X018519Y016512D01*
X018414Y016433D02*
X016699Y016433D01*
X016669Y016355D02*
X018351Y016355D01*
X018319Y016276D02*
X016635Y016276D01*
X016556Y016198D02*
X018301Y016198D01*
X018301Y016119D02*
X016410Y016119D01*
X016738Y015570D02*
X008713Y015570D01*
X008688Y015631D02*
X008576Y015743D01*
X008429Y015804D01*
X008271Y015804D01*
X008267Y015802D01*
X008176Y015893D01*
X008029Y015954D01*
X007871Y015954D01*
X007750Y015904D01*
X007629Y015954D01*
X007471Y015954D01*
X007324Y015893D01*
X007212Y015781D01*
X007151Y015634D01*
X007151Y015476D01*
X007212Y015329D01*
X007324Y015217D01*
X007471Y015156D01*
X007629Y015156D01*
X007750Y015206D01*
X007871Y015156D01*
X008029Y015156D01*
X008033Y015158D01*
X008124Y015067D01*
X008271Y015006D01*
X008429Y015006D01*
X008576Y015067D01*
X008688Y015179D01*
X008749Y015326D01*
X008749Y015484D01*
X008688Y015631D01*
X008671Y015648D02*
X017357Y015648D01*
X017351Y015634D02*
X017351Y015476D01*
X017412Y015329D01*
X017524Y015217D01*
X017671Y015156D01*
X017829Y015156D01*
X017976Y015217D01*
X018088Y015329D01*
X018149Y015476D01*
X018149Y015634D01*
X018088Y015781D01*
X017976Y015893D01*
X017829Y015954D01*
X017671Y015954D01*
X017524Y015893D01*
X017412Y015781D01*
X017351Y015634D01*
X017351Y015570D02*
X017062Y015570D01*
X017178Y015491D02*
X017351Y015491D01*
X017377Y015413D02*
X017246Y015413D01*
X017278Y015334D02*
X017410Y015334D01*
X017486Y015256D02*
X017299Y015256D01*
X017299Y015177D02*
X017620Y015177D01*
X017879Y015177D02*
X019502Y015177D01*
X019502Y015099D02*
X017287Y015099D01*
X017255Y015020D02*
X019514Y015020D01*
X019535Y014942D02*
X017200Y014942D01*
X017116Y014863D02*
X019568Y014863D01*
X019513Y015256D02*
X018014Y015256D01*
X018090Y015334D02*
X019534Y015334D01*
X019566Y015413D02*
X018123Y015413D01*
X018149Y015491D02*
X019612Y015491D01*
X019707Y015491D02*
X019820Y015491D01*
X019786Y015413D02*
X019899Y015413D01*
X019864Y015334D02*
X019977Y015334D01*
X019943Y015256D02*
X020056Y015256D01*
X019742Y015570D02*
X018149Y015570D01*
X018143Y015648D02*
X019771Y015648D01*
X019937Y015727D02*
X018111Y015727D01*
X018064Y015805D02*
X018503Y015805D01*
X018408Y015884D02*
X017985Y015884D01*
X017515Y015884D02*
X008185Y015884D01*
X008264Y015805D02*
X017436Y015805D01*
X017389Y015727D02*
X008592Y015727D01*
X008746Y015491D02*
X016622Y015491D01*
X016554Y015413D02*
X008749Y015413D01*
X008749Y015334D02*
X016522Y015334D01*
X016501Y015256D02*
X009346Y015256D01*
X008954Y015256D02*
X008720Y015256D01*
X008686Y015177D02*
X008858Y015177D01*
X008799Y015099D02*
X008607Y015099D01*
X008463Y015020D02*
X008766Y015020D01*
X008751Y014942D02*
X007254Y014942D01*
X007287Y014863D02*
X008751Y014863D01*
X008768Y014785D02*
X007299Y014785D01*
X007299Y014706D02*
X008801Y014706D01*
X008864Y014628D02*
X008191Y014628D01*
X007709Y014628D02*
X007541Y014628D01*
X007620Y014549D02*
X007630Y014549D01*
X007679Y015177D02*
X007821Y015177D01*
X008093Y015099D02*
X007113Y015099D01*
X007199Y015020D02*
X008237Y015020D01*
X007420Y015177D02*
X006599Y015177D01*
X006599Y015256D02*
X007286Y015256D01*
X007210Y015334D02*
X006578Y015334D01*
X006546Y015413D02*
X007177Y015413D01*
X007151Y015491D02*
X006478Y015491D01*
X006362Y015570D02*
X007151Y015570D01*
X007157Y015648D02*
X005993Y015648D01*
X005999Y015570D02*
X006038Y015570D01*
X005961Y015727D02*
X007189Y015727D01*
X007236Y015805D02*
X005914Y015805D01*
X005835Y015884D02*
X007315Y015884D01*
X006687Y015099D02*
X006587Y015099D01*
X006601Y015020D02*
X006555Y015020D01*
X006546Y014942D02*
X006500Y014942D01*
X006513Y014863D02*
X006416Y014863D01*
X006501Y014785D02*
X005140Y014785D01*
X005173Y014863D02*
X005984Y014863D01*
X005900Y014942D02*
X005199Y014942D01*
X005199Y015020D02*
X005845Y015020D01*
X005813Y015099D02*
X005193Y015099D01*
X005160Y015177D02*
X005470Y015177D01*
X005336Y015256D02*
X005113Y015256D01*
X005035Y015334D02*
X005260Y015334D01*
X005227Y015413D02*
X000700Y015413D01*
X000700Y015491D02*
X005201Y015491D01*
X005729Y015177D02*
X005801Y015177D01*
X006501Y014706D02*
X005065Y014706D01*
X004827Y014392D02*
X006734Y014392D01*
X006621Y014471D02*
X004709Y014471D01*
X004895Y014314D02*
X006901Y014314D01*
X006901Y014235D02*
X004928Y014235D01*
X004949Y014157D02*
X006930Y014157D01*
X006963Y014078D02*
X004949Y014078D01*
X004938Y014000D02*
X007042Y014000D01*
X007185Y013921D02*
X004905Y013921D01*
X004851Y013843D02*
X010355Y013843D01*
X010387Y013921D02*
X008065Y013921D01*
X008208Y014000D02*
X010431Y014000D01*
X010509Y014078D02*
X008287Y014078D01*
X007835Y013921D02*
X007415Y013921D01*
X007558Y014000D02*
X007692Y014000D01*
X007740Y013529D02*
X010413Y013529D01*
X010380Y013607D02*
X000700Y013607D01*
X000700Y013843D02*
X001233Y013843D01*
X001120Y013921D02*
X000700Y013921D01*
X000700Y014000D02*
X001054Y014000D01*
X001021Y014078D02*
X000700Y014078D01*
X000700Y014157D02*
X001001Y014157D01*
X001001Y014235D02*
X000700Y014235D01*
X000700Y014314D02*
X001013Y014314D01*
X001046Y014392D02*
X000700Y014392D01*
X000700Y014471D02*
X001102Y014471D01*
X001189Y014549D02*
X000700Y014549D01*
X000700Y015727D02*
X004615Y015727D01*
X004551Y015805D02*
X000700Y015805D01*
X000700Y015884D02*
X004519Y015884D01*
X004501Y015962D02*
X004264Y015962D01*
X004349Y016041D02*
X004501Y016041D01*
X004516Y016119D02*
X004405Y016119D01*
X004437Y016198D02*
X004548Y016198D01*
X004607Y016276D02*
X004449Y016276D01*
X004323Y016669D02*
X004214Y016669D01*
X004244Y016747D02*
X003289Y016747D01*
X003297Y016727D02*
X003234Y016880D01*
X003117Y016997D01*
X002963Y017061D01*
X002797Y017061D01*
X002644Y016997D01*
X002527Y016880D01*
X002463Y016727D01*
X002463Y016561D01*
X002527Y016407D01*
X002644Y016290D01*
X002797Y016226D01*
X002963Y016226D01*
X003117Y016290D01*
X003234Y016407D01*
X003297Y016561D01*
X003297Y016727D01*
X003297Y016669D02*
X003886Y016669D01*
X003771Y016590D02*
X003297Y016590D01*
X003277Y016512D02*
X003704Y016512D01*
X003671Y016433D02*
X003245Y016433D01*
X003181Y016355D02*
X003651Y016355D01*
X003651Y016276D02*
X003083Y016276D01*
X002678Y016276D02*
X000700Y016276D01*
X000700Y016198D02*
X003663Y016198D01*
X003695Y016119D02*
X000700Y016119D01*
X000700Y016041D02*
X003751Y016041D01*
X003836Y015962D02*
X000700Y015962D01*
X000700Y016355D02*
X002579Y016355D01*
X002516Y016433D02*
X000700Y016433D01*
X000700Y016512D02*
X002483Y016512D01*
X002463Y016590D02*
X000700Y016590D01*
X000700Y016669D02*
X002463Y016669D01*
X002472Y016747D02*
X000700Y016747D01*
X000700Y016826D02*
X002504Y016826D01*
X002551Y016904D02*
X000700Y016904D01*
X000700Y016983D02*
X002629Y016983D01*
X003131Y016983D02*
X004151Y016983D01*
X004151Y017061D02*
X000700Y017061D01*
X000700Y017140D02*
X004174Y017140D01*
X004207Y017218D02*
X000700Y017218D01*
X000700Y017297D02*
X004278Y017297D01*
X004401Y017375D02*
X000700Y017375D01*
X000700Y017454D02*
X004800Y017454D01*
X004706Y017375D02*
X004699Y017375D01*
X004160Y016904D02*
X003210Y016904D01*
X003256Y016826D02*
X004193Y016826D01*
X005200Y017454D02*
X006201Y017454D01*
X006201Y017532D02*
X000700Y017532D01*
X000700Y017611D02*
X002782Y017611D01*
X002623Y017689D02*
X000700Y017689D01*
X000700Y017768D02*
X002544Y017768D01*
X002501Y017846D02*
X000700Y017846D01*
X000700Y017925D02*
X002469Y017925D01*
X002463Y018003D02*
X000700Y018003D01*
X000700Y018082D02*
X002463Y018082D01*
X002486Y018160D02*
X000700Y018160D01*
X000700Y018239D02*
X002519Y018239D01*
X002586Y018317D02*
X000700Y018317D01*
X000700Y019024D02*
X011823Y019024D01*
X011836Y019102D02*
X010740Y019102D01*
X010839Y019181D02*
X011868Y019181D01*
X011901Y019259D02*
X010900Y019259D01*
X010933Y019338D02*
X011966Y019338D01*
X012044Y019416D02*
X010949Y019416D01*
X010949Y019495D02*
X012194Y019495D01*
X012606Y019495D02*
X014194Y019495D01*
X014044Y019416D02*
X013526Y019416D01*
X013440Y019416D02*
X013360Y019416D01*
X013360Y019338D02*
X013440Y019338D01*
X013440Y019259D02*
X013360Y019259D01*
X013360Y019181D02*
X013440Y019181D01*
X013440Y019102D02*
X013360Y019102D01*
X013360Y019024D02*
X013440Y019024D01*
X013440Y018867D02*
X013360Y018867D01*
X013360Y018788D02*
X013440Y018788D01*
X013440Y018710D02*
X013360Y018710D01*
X013360Y018631D02*
X013440Y018631D01*
X013440Y018553D02*
X013360Y018553D01*
X013142Y018553D02*
X012814Y018553D01*
X012891Y018631D02*
X013049Y018631D01*
X012989Y018710D02*
X012923Y018710D01*
X012932Y019181D02*
X012979Y019181D01*
X013031Y019259D02*
X012899Y019259D01*
X012834Y019338D02*
X013114Y019338D01*
X013274Y019416D02*
X012756Y019416D01*
X013686Y019338D02*
X013966Y019338D01*
X013901Y019259D02*
X013769Y019259D01*
X013821Y019181D02*
X013868Y019181D01*
X013877Y018710D02*
X013811Y018710D01*
X013751Y018631D02*
X013909Y018631D01*
X013986Y018553D02*
X013658Y018553D01*
X014558Y018396D02*
X015242Y018396D01*
X015064Y018474D02*
X014736Y018474D01*
X014814Y018553D02*
X014986Y018553D01*
X014909Y018631D02*
X014891Y018631D01*
X014899Y019259D02*
X014901Y019259D01*
X014966Y019338D02*
X014834Y019338D01*
X014756Y019416D02*
X015044Y019416D01*
X015194Y019495D02*
X014606Y019495D01*
X015606Y019495D02*
X016194Y019495D01*
X016044Y019416D02*
X015756Y019416D01*
X015834Y019338D02*
X015966Y019338D01*
X015901Y019259D02*
X015899Y019259D01*
X015891Y018631D02*
X015909Y018631D01*
X015986Y018553D02*
X015814Y018553D01*
X015736Y018474D02*
X016064Y018474D01*
X020070Y019573D02*
X010933Y019573D01*
X010738Y019809D02*
X032200Y019809D01*
X032200Y019887D02*
X000700Y019887D01*
X000700Y019809D02*
X008712Y019809D01*
X008674Y019793D02*
X008562Y019681D01*
X008501Y019534D01*
X008501Y019376D01*
X008562Y019229D01*
X008674Y019117D01*
X008821Y019056D01*
X008979Y019056D01*
X009126Y019117D01*
X009238Y019229D01*
X009299Y019376D01*
X009299Y019534D01*
X009238Y019681D01*
X009126Y019793D01*
X008979Y019854D01*
X008821Y019854D01*
X008674Y019793D01*
X008611Y019730D02*
X000700Y019730D01*
X000700Y019652D02*
X008550Y019652D01*
X008517Y019573D02*
X000700Y019573D01*
X000700Y019495D02*
X008501Y019495D01*
X008501Y019416D02*
X000700Y019416D01*
X000700Y019338D02*
X008517Y019338D01*
X008550Y019259D02*
X000700Y019259D01*
X000700Y019181D02*
X008611Y019181D01*
X008710Y019102D02*
X000700Y019102D01*
X000700Y019966D02*
X032200Y019966D01*
X032200Y020044D02*
X000700Y020044D01*
X003259Y017846D02*
X006502Y017846D01*
X006349Y017768D02*
X003216Y017768D01*
X003138Y017689D02*
X006270Y017689D01*
X006233Y017611D02*
X002978Y017611D01*
X005294Y017375D02*
X006202Y017375D01*
X006234Y017297D02*
X005352Y017297D01*
X005385Y017218D02*
X006273Y017218D01*
X006352Y017140D02*
X005399Y017140D01*
X009090Y019102D02*
X010360Y019102D01*
X010261Y019181D02*
X009189Y019181D01*
X009250Y019259D02*
X010200Y019259D01*
X010167Y019338D02*
X009283Y019338D01*
X009299Y019416D02*
X010151Y019416D01*
X010151Y019495D02*
X009299Y019495D01*
X009283Y019573D02*
X010167Y019573D01*
X010200Y019652D02*
X009250Y019652D01*
X009189Y019730D02*
X010261Y019730D01*
X010362Y019809D02*
X009088Y019809D01*
X004391Y014471D02*
X004148Y014471D01*
X004227Y014392D02*
X004273Y014392D01*
X004249Y013843D02*
X004151Y013843D01*
X003998Y013764D02*
X004331Y013764D01*
X003802Y013764D02*
X003398Y013764D01*
X003551Y013843D02*
X003649Y013843D01*
X003202Y013764D02*
X002748Y013764D01*
X002901Y013843D02*
X003049Y013843D01*
X001132Y012587D02*
X010209Y012587D01*
X010176Y012665D02*
X010001Y012665D01*
X009799Y012665D02*
X005451Y012665D01*
X005602Y012744D02*
X009648Y012744D01*
X009569Y012822D02*
X007831Y012822D01*
X007909Y012901D02*
X009532Y012901D01*
X009501Y012979D02*
X007959Y012979D01*
X007991Y013058D02*
X009501Y013058D01*
X009502Y013136D02*
X007999Y013136D01*
X007999Y013215D02*
X009534Y013215D01*
X009574Y013293D02*
X007974Y013293D01*
X007942Y013372D02*
X009653Y013372D01*
X009812Y013450D02*
X007869Y013450D01*
X007460Y013529D02*
X007190Y013529D01*
X007319Y013450D02*
X007331Y013450D01*
X006708Y013372D02*
X005597Y013372D01*
X005676Y013293D02*
X006676Y013293D01*
X006651Y013215D02*
X005716Y013215D01*
X005748Y013136D02*
X006651Y013136D01*
X006659Y013058D02*
X005749Y013058D01*
X005749Y012979D02*
X006691Y012979D01*
X006741Y012901D02*
X005718Y012901D01*
X005681Y012822D02*
X006819Y012822D01*
X007281Y012822D02*
X007369Y012822D01*
X005607Y012351D02*
X013382Y012351D01*
X013461Y012430D02*
X010686Y012430D01*
X010817Y012508D02*
X016646Y012508D01*
X016555Y012587D02*
X010891Y012587D01*
X010924Y012665D02*
X016497Y012665D01*
X016465Y012744D02*
X010949Y012744D01*
X010949Y012822D02*
X016451Y012822D01*
X017054Y012508D02*
X023883Y012508D01*
X023838Y012587D02*
X017145Y012587D01*
X017203Y012665D02*
X023806Y012665D01*
X023801Y012744D02*
X017235Y012744D01*
X017249Y012822D02*
X023801Y012822D01*
X023829Y012901D02*
X017249Y012901D01*
X017230Y012979D02*
X023861Y012979D01*
X023939Y013058D02*
X017198Y013058D01*
X017133Y013136D02*
X024078Y013136D01*
X023648Y013293D02*
X014449Y013293D01*
X014449Y013372D02*
X023570Y013372D01*
X023533Y013450D02*
X014422Y013450D01*
X014389Y013529D02*
X016663Y013529D01*
X016584Y013607D02*
X014312Y013607D01*
X014173Y013686D02*
X016539Y013686D01*
X016506Y013764D02*
X011873Y013764D01*
X011914Y013843D02*
X016501Y013843D01*
X017024Y014235D02*
X029860Y014235D01*
X029862Y014229D02*
X029974Y014117D01*
X030121Y014056D01*
X030279Y014056D01*
X030426Y014117D01*
X030538Y014229D01*
X030599Y014376D01*
X030599Y014534D01*
X030538Y014681D01*
X030426Y014793D01*
X030279Y014854D01*
X030121Y014854D01*
X029974Y014793D01*
X029862Y014681D01*
X029801Y014534D01*
X029801Y014376D01*
X029862Y014229D01*
X029827Y014314D02*
X026047Y014314D01*
X026201Y014392D02*
X029801Y014392D01*
X029801Y014471D02*
X026279Y014471D01*
X026317Y014549D02*
X029807Y014549D01*
X029840Y014628D02*
X026349Y014628D01*
X026349Y014706D02*
X029887Y014706D01*
X029966Y014785D02*
X028143Y014785D01*
X028222Y014863D02*
X032200Y014863D01*
X032200Y014785D02*
X030434Y014785D01*
X030513Y014706D02*
X032200Y014706D01*
X032200Y014628D02*
X030560Y014628D01*
X030593Y014549D02*
X032200Y014549D01*
X032200Y014471D02*
X030599Y014471D01*
X030599Y014392D02*
X032200Y014392D01*
X032200Y014314D02*
X030573Y014314D01*
X030540Y014235D02*
X032200Y014235D01*
X032200Y014157D02*
X030465Y014157D01*
X030332Y014078D02*
X032200Y014078D01*
X032200Y014000D02*
X028901Y014000D01*
X028934Y013921D02*
X032200Y013921D01*
X032200Y013843D02*
X028949Y013843D01*
X028949Y013764D02*
X032200Y013764D01*
X032200Y013686D02*
X031433Y013686D01*
X031512Y013607D02*
X032200Y013607D01*
X032200Y013529D02*
X031560Y013529D01*
X031592Y013450D02*
X032200Y013450D01*
X032200Y013372D02*
X031599Y013372D01*
X031599Y013293D02*
X032200Y013293D01*
X032200Y013215D02*
X031573Y013215D01*
X031541Y013136D02*
X032200Y013136D01*
X032200Y013058D02*
X031466Y013058D01*
X030840Y013529D02*
X028837Y013529D01*
X028900Y013607D02*
X030888Y013607D01*
X030967Y013686D02*
X028932Y013686D01*
X028841Y014078D02*
X030068Y014078D01*
X029935Y014157D02*
X028743Y014157D01*
X028357Y014157D02*
X017162Y014157D01*
X017239Y014078D02*
X028259Y014078D01*
X028199Y014000D02*
X023989Y014000D01*
X023811Y014000D02*
X017272Y014000D01*
X017299Y013921D02*
X023652Y013921D01*
X023574Y013843D02*
X017299Y013843D01*
X017294Y013764D02*
X023534Y013764D01*
X023502Y013686D02*
X017261Y013686D01*
X017216Y013607D02*
X023501Y013607D01*
X023501Y013529D02*
X017137Y013529D01*
X017447Y011723D02*
X013820Y011723D01*
X013960Y011802D02*
X020565Y011802D01*
X020735Y011802D02*
X026640Y011802D01*
X026562Y011880D02*
X014038Y011880D01*
X014071Y011959D02*
X026529Y011959D01*
X026501Y012037D02*
X014099Y012037D01*
X014099Y012116D02*
X026501Y012116D01*
X026505Y012194D02*
X014095Y012194D01*
X014062Y012273D02*
X026538Y012273D01*
X026582Y012351D02*
X014018Y012351D01*
X013939Y012430D02*
X023962Y012430D01*
X024438Y012430D02*
X026661Y012430D01*
X027262Y012273D02*
X030095Y012273D01*
X029975Y012194D02*
X027295Y012194D01*
X027299Y012116D02*
X029906Y012116D01*
X029873Y012037D02*
X027299Y012037D01*
X027271Y011959D02*
X029851Y011959D01*
X029851Y011880D02*
X027238Y011880D01*
X027160Y011802D02*
X029861Y011802D01*
X029894Y011723D02*
X027020Y011723D01*
X026780Y011723D02*
X020896Y011723D01*
X020974Y011645D02*
X028128Y011645D01*
X028047Y011566D02*
X021015Y011566D01*
X021047Y011488D02*
X027994Y011488D01*
X027961Y011409D02*
X021287Y011409D01*
X020717Y010938D02*
X018006Y010938D01*
X018038Y010860D02*
X020749Y010860D01*
X020810Y010781D02*
X018049Y010781D01*
X017952Y011017D02*
X020546Y011017D01*
X020396Y011095D02*
X017904Y011095D01*
X017956Y011174D02*
X020318Y011174D01*
X020282Y011252D02*
X017989Y011252D01*
X017999Y011331D02*
X020251Y011331D01*
X020251Y011409D02*
X017999Y011409D01*
X017977Y011488D02*
X020253Y011488D01*
X020285Y011566D02*
X017944Y011566D01*
X017874Y011645D02*
X020326Y011645D01*
X020404Y011723D02*
X017753Y011723D01*
X017326Y011645D02*
X013153Y011645D01*
X013206Y011723D02*
X013580Y011723D01*
X013720Y011566D02*
X017256Y011566D01*
X017223Y011488D02*
X013831Y011488D01*
X013897Y011409D02*
X017201Y011409D01*
X017201Y011331D02*
X013930Y011331D01*
X013949Y011252D02*
X017211Y011252D01*
X017244Y011174D02*
X013949Y011174D01*
X013936Y011095D02*
X017296Y011095D01*
X017348Y011017D02*
X013904Y011017D01*
X013847Y010938D02*
X017294Y010938D01*
X017262Y010860D02*
X013758Y010860D01*
X013342Y010860D02*
X010618Y010860D01*
X010662Y010938D02*
X013253Y010938D01*
X013196Y011017D02*
X010695Y011017D01*
X010699Y011095D02*
X013164Y011095D01*
X013151Y011174D02*
X010699Y011174D01*
X010671Y011252D02*
X013151Y011252D01*
X013170Y011331D02*
X010638Y011331D01*
X010540Y010781D02*
X017251Y010781D01*
X017251Y010703D02*
X009250Y010703D01*
X009282Y010624D02*
X012599Y010624D01*
X012477Y010546D02*
X012249Y010546D01*
X012402Y010467D02*
X012406Y010467D01*
X012051Y010546D02*
X009299Y010546D01*
X009299Y010467D02*
X009482Y010467D01*
X009370Y010389D02*
X009283Y010389D01*
X009303Y010310D02*
X009251Y010310D01*
X009271Y010232D02*
X009190Y010232D01*
X009251Y010153D02*
X009092Y010153D01*
X009296Y009918D02*
X008276Y009918D01*
X007824Y009918D02*
X006776Y009918D01*
X006855Y009996D02*
X007745Y009996D01*
X007693Y010075D02*
X006907Y010075D01*
X006939Y010153D02*
X007661Y010153D01*
X007651Y010232D02*
X006949Y010232D01*
X006949Y010310D02*
X007651Y010310D01*
X007674Y010389D02*
X006926Y010389D01*
X006894Y010467D02*
X007706Y010467D01*
X007777Y010546D02*
X006823Y010546D01*
X006701Y010624D02*
X007899Y010624D01*
X009137Y009682D02*
X021101Y009682D01*
X021101Y009604D02*
X021030Y009604D01*
X021133Y009761D02*
X012240Y009761D01*
X012398Y009839D02*
X021170Y009839D01*
X021249Y009918D02*
X012976Y009918D01*
X012524Y009918D02*
X012476Y009918D01*
X012060Y009761D02*
X009860Y009761D01*
X009948Y009839D02*
X011902Y009839D01*
X011824Y009918D02*
X010004Y009918D01*
X010036Y009996D02*
X011784Y009996D01*
X011752Y010075D02*
X010049Y010075D01*
X010049Y010153D02*
X011751Y010153D01*
X011751Y010232D02*
X010029Y010232D01*
X009997Y010310D02*
X011783Y010310D01*
X011820Y010389D02*
X009930Y010389D01*
X009818Y010467D02*
X011898Y010467D01*
X012901Y010624D02*
X017273Y010624D01*
X017305Y010546D02*
X013023Y010546D01*
X013094Y010467D02*
X017374Y010467D01*
X016676Y008893D02*
X016529Y008954D01*
X016371Y008954D01*
X016224Y008893D01*
X016189Y008858D01*
X016079Y008904D01*
X015921Y008904D01*
X015774Y008843D01*
X015662Y008731D01*
X015601Y008584D01*
X015601Y008426D01*
X013743Y008426D01*
X013788Y008381D02*
X013676Y008493D01*
X013529Y008554D01*
X013491Y008554D01*
X013438Y008681D01*
X013326Y008793D01*
X013179Y008854D01*
X013021Y008854D01*
X012874Y008793D01*
X012762Y008681D01*
X012701Y008534D01*
X012701Y008376D01*
X012762Y008229D01*
X012874Y008117D01*
X013021Y008056D01*
X013059Y008056D01*
X013112Y007929D01*
X013224Y007817D01*
X013371Y007756D01*
X013529Y007756D01*
X013676Y007817D01*
X013788Y007929D01*
X013849Y008076D01*
X013849Y008234D01*
X013788Y008381D01*
X013802Y008348D02*
X015634Y008348D01*
X015662Y008279D02*
X015774Y008167D01*
X015921Y008106D01*
X016079Y008106D01*
X016226Y008167D01*
X016261Y008202D01*
X016371Y008156D01*
X016529Y008156D01*
X016533Y008158D01*
X016624Y008067D01*
X016771Y008006D01*
X016929Y008006D01*
X017076Y008067D01*
X017188Y008179D01*
X017249Y008326D01*
X017249Y008484D01*
X017188Y008631D01*
X017076Y008743D01*
X016929Y008804D01*
X016771Y008804D01*
X016767Y008802D01*
X016676Y008893D01*
X016666Y008897D02*
X017394Y008897D01*
X017473Y008819D02*
X016750Y008819D01*
X017079Y008740D02*
X023451Y008740D01*
X023537Y008662D02*
X017157Y008662D01*
X017208Y008583D02*
X024471Y008583D01*
X024336Y008505D02*
X023348Y008505D01*
X023376Y008493D02*
X023229Y008554D01*
X023071Y008554D01*
X022924Y008493D01*
X022812Y008381D01*
X022780Y008304D01*
X022721Y008304D01*
X022574Y008243D01*
X022462Y008131D01*
X022401Y007984D01*
X022401Y007826D01*
X022462Y007679D01*
X022574Y007567D01*
X022721Y007506D01*
X022879Y007506D01*
X023026Y007567D01*
X023138Y007679D01*
X023170Y007756D01*
X023229Y007756D01*
X023376Y007817D01*
X023488Y007929D01*
X023549Y008076D01*
X023549Y008234D01*
X023488Y008381D01*
X023376Y008493D01*
X023443Y008426D02*
X024260Y008426D01*
X024227Y008348D02*
X023502Y008348D01*
X023534Y008269D02*
X024201Y008269D01*
X024201Y008191D02*
X023549Y008191D01*
X023549Y008112D02*
X024207Y008112D01*
X024239Y008034D02*
X023531Y008034D01*
X023499Y007955D02*
X024286Y007955D01*
X024365Y007877D02*
X023435Y007877D01*
X023330Y007798D02*
X024357Y007798D01*
X024201Y007720D02*
X023155Y007720D01*
X023100Y007641D02*
X024122Y007641D01*
X024084Y007563D02*
X023015Y007563D01*
X022585Y007563D02*
X021815Y007563D01*
X021826Y007567D02*
X021938Y007679D01*
X021999Y007826D01*
X021999Y007984D01*
X021938Y008131D01*
X021826Y008243D01*
X021679Y008304D01*
X021521Y008304D01*
X021374Y008243D01*
X021262Y008131D01*
X021201Y007984D01*
X021201Y007826D01*
X021262Y007679D01*
X021374Y007567D01*
X021521Y007506D01*
X021679Y007506D01*
X021826Y007567D01*
X021900Y007641D02*
X022500Y007641D01*
X022445Y007720D02*
X021955Y007720D01*
X021987Y007798D02*
X022413Y007798D01*
X022401Y007877D02*
X021999Y007877D01*
X021999Y007955D02*
X022401Y007955D01*
X022422Y008034D02*
X021978Y008034D01*
X021946Y008112D02*
X022454Y008112D01*
X022522Y008191D02*
X021878Y008191D01*
X021763Y008269D02*
X022637Y008269D01*
X022798Y008348D02*
X017249Y008348D01*
X017249Y008426D02*
X022857Y008426D01*
X022952Y008505D02*
X017240Y008505D01*
X017225Y008269D02*
X021437Y008269D01*
X021322Y008191D02*
X017193Y008191D01*
X017121Y008112D02*
X021254Y008112D01*
X021222Y008034D02*
X016995Y008034D01*
X016705Y008034D02*
X013831Y008034D01*
X013849Y008112D02*
X015907Y008112D01*
X015751Y008191D02*
X013849Y008191D01*
X013834Y008269D02*
X015672Y008269D01*
X015662Y008279D02*
X015601Y008426D01*
X015601Y008505D02*
X013648Y008505D01*
X013479Y008583D02*
X015601Y008583D01*
X015633Y008662D02*
X013446Y008662D01*
X013379Y008740D02*
X015671Y008740D01*
X015750Y008819D02*
X013264Y008819D01*
X012936Y008819D02*
X011000Y008819D01*
X010976Y008843D02*
X010829Y008904D01*
X010671Y008904D01*
X010524Y008843D01*
X010412Y008731D01*
X010351Y008584D01*
X010351Y008426D01*
X005696Y008426D01*
X005629Y008454D02*
X005776Y008393D01*
X005888Y008281D01*
X005949Y008134D01*
X005949Y007976D01*
X005888Y007829D01*
X005776Y007717D01*
X005629Y007656D01*
X005471Y007656D01*
X005324Y007717D01*
X005212Y007829D01*
X005151Y007976D01*
X005151Y008134D01*
X005212Y008281D01*
X005324Y008393D01*
X005471Y008454D01*
X005629Y008454D01*
X005821Y008348D02*
X010384Y008348D01*
X010412Y008279D02*
X010524Y008167D01*
X010671Y008106D01*
X010829Y008106D01*
X010976Y008167D01*
X011088Y008279D01*
X011149Y008426D01*
X012701Y008426D01*
X012701Y008505D02*
X011149Y008505D01*
X011149Y008583D02*
X012721Y008583D01*
X012754Y008662D02*
X011117Y008662D01*
X011088Y008731D02*
X010976Y008843D01*
X010846Y008897D02*
X015904Y008897D01*
X016096Y008897D02*
X016234Y008897D01*
X016249Y008191D02*
X016288Y008191D01*
X016093Y008112D02*
X016579Y008112D01*
X016579Y007804D02*
X016421Y007804D01*
X016274Y007743D01*
X016162Y007631D01*
X016101Y007484D01*
X004061Y007484D01*
X004038Y007429D02*
X004099Y007576D01*
X004099Y007734D01*
X004038Y007881D01*
X003926Y007993D01*
X003779Y008054D01*
X003621Y008054D01*
X003474Y007993D01*
X003362Y007881D01*
X003301Y007734D01*
X003301Y007576D01*
X003362Y007429D01*
X003474Y007317D01*
X003621Y007256D01*
X003779Y007256D01*
X003926Y007317D01*
X004038Y007429D01*
X004014Y007406D02*
X016101Y007406D01*
X016101Y007484D02*
X016101Y007326D01*
X016162Y007179D01*
X016274Y007067D01*
X016421Y007006D01*
X016579Y007006D01*
X016726Y007067D01*
X016838Y007179D01*
X016899Y007326D01*
X016899Y007484D01*
X018715Y007484D01*
X018637Y007406D02*
X016899Y007406D01*
X016899Y007484D02*
X016838Y007631D01*
X016726Y007743D01*
X016579Y007804D01*
X016593Y007798D02*
X021213Y007798D01*
X021201Y007877D02*
X013735Y007877D01*
X013799Y007955D02*
X021201Y007955D01*
X021245Y007720D02*
X016749Y007720D01*
X016828Y007641D02*
X021300Y007641D01*
X021385Y007563D02*
X016866Y007563D01*
X016899Y007327D02*
X018590Y007327D01*
X018557Y007249D02*
X016867Y007249D01*
X016829Y007170D02*
X018551Y007170D01*
X018551Y007092D02*
X016750Y007092D01*
X016596Y007013D02*
X018577Y007013D01*
X018610Y006935D02*
X017984Y006935D01*
X018063Y006856D02*
X018685Y006856D01*
X018819Y006778D02*
X018110Y006778D01*
X017516Y006935D02*
X015149Y006935D01*
X015149Y006984D02*
X015088Y007131D01*
X014976Y007243D01*
X014829Y007304D01*
X014671Y007304D01*
X014524Y007243D01*
X014412Y007131D01*
X014351Y006984D01*
X014351Y006826D01*
X014401Y006705D01*
X014361Y006608D01*
X014326Y006643D01*
X014179Y006704D01*
X014021Y006704D01*
X013874Y006643D01*
X013800Y006569D01*
X013776Y006593D01*
X013629Y006654D01*
X013471Y006654D01*
X013445Y006643D01*
X013388Y006781D01*
X013276Y006893D01*
X013129Y006954D01*
X012971Y006954D01*
X012824Y006893D01*
X012712Y006781D01*
X012651Y006634D01*
X012651Y006476D01*
X012712Y006329D01*
X012824Y006217D01*
X012971Y006156D01*
X013129Y006156D01*
X013155Y006167D01*
X013212Y006029D01*
X013324Y005917D01*
X013471Y005856D01*
X013629Y005856D01*
X013776Y005917D01*
X013850Y005991D01*
X013874Y005967D01*
X014021Y005906D01*
X014179Y005906D01*
X014326Y005967D01*
X014438Y006079D01*
X014489Y006202D01*
X014524Y006167D01*
X014671Y006106D01*
X014829Y006106D01*
X014976Y006167D01*
X015088Y006279D01*
X015149Y006426D01*
X015149Y006584D01*
X015099Y006705D01*
X015149Y006826D01*
X015149Y006984D01*
X015137Y007013D02*
X016404Y007013D01*
X016250Y007092D02*
X015104Y007092D01*
X015049Y007170D02*
X016171Y007170D01*
X016133Y007249D02*
X014963Y007249D01*
X014537Y007249D02*
X002051Y007249D01*
X002038Y007281D02*
X001926Y007393D01*
X001779Y007454D01*
X001621Y007454D01*
X001474Y007393D01*
X001362Y007281D01*
X001301Y007134D01*
X001301Y006976D01*
X001362Y006829D01*
X001474Y006717D01*
X001621Y006656D01*
X001779Y006656D01*
X001926Y006717D01*
X002038Y006829D01*
X002099Y006976D01*
X002099Y007134D01*
X002038Y007281D01*
X001992Y007327D02*
X003464Y007327D01*
X003386Y007406D02*
X001896Y007406D01*
X002084Y007170D02*
X014451Y007170D01*
X014396Y007092D02*
X002099Y007092D01*
X002099Y007013D02*
X014363Y007013D01*
X014351Y006935D02*
X013176Y006935D01*
X013313Y006856D02*
X014351Y006856D01*
X014371Y006778D02*
X013389Y006778D01*
X013422Y006699D02*
X014009Y006699D01*
X013852Y006621D02*
X013710Y006621D01*
X014191Y006699D02*
X014399Y006699D01*
X014366Y006621D02*
X014348Y006621D01*
X015101Y006699D02*
X017357Y006699D01*
X017351Y006621D02*
X016260Y006621D01*
X016377Y006542D02*
X017351Y006542D01*
X017377Y006464D02*
X016445Y006464D01*
X016478Y006385D02*
X017410Y006385D01*
X017485Y006307D02*
X016499Y006307D01*
X016691Y006228D02*
X016959Y006228D01*
X016831Y006150D02*
X016769Y006150D01*
X017499Y005914D02*
X022095Y005914D01*
X022017Y005836D02*
X017499Y005836D01*
X017491Y005757D02*
X021981Y005757D01*
X021951Y005679D02*
X017458Y005679D01*
X017409Y005600D02*
X020491Y005600D01*
X020403Y005522D02*
X017330Y005522D01*
X017276Y005293D02*
X017129Y005354D01*
X016971Y005354D01*
X016824Y005293D01*
X016712Y005181D01*
X016651Y005034D01*
X016651Y004876D01*
X016712Y004729D01*
X016824Y004617D01*
X016971Y004556D01*
X017129Y004556D01*
X017276Y004617D01*
X017388Y004729D01*
X017449Y004876D01*
X017449Y005034D01*
X017388Y005181D01*
X017276Y005293D01*
X017283Y005286D02*
X020301Y005286D01*
X020301Y005208D02*
X017361Y005208D01*
X017410Y005129D02*
X020321Y005129D01*
X020353Y005051D02*
X017442Y005051D01*
X017449Y004972D02*
X020419Y004972D01*
X020396Y004894D02*
X017449Y004894D01*
X017424Y004815D02*
X020246Y004815D01*
X020168Y004737D02*
X017391Y004737D01*
X017317Y004658D02*
X020132Y004658D01*
X020101Y004580D02*
X017989Y004580D01*
X017976Y004593D02*
X018088Y004481D01*
X018149Y004334D01*
X018149Y004176D01*
X018088Y004029D01*
X017976Y003917D01*
X017829Y003856D01*
X017671Y003856D01*
X017524Y003917D01*
X017412Y004029D01*
X017351Y004176D01*
X017351Y004334D01*
X017412Y004481D01*
X017524Y004593D01*
X017671Y004654D01*
X017829Y004654D01*
X017976Y004593D01*
X018068Y004501D02*
X020101Y004501D01*
X020103Y004423D02*
X018112Y004423D01*
X018145Y004344D02*
X020135Y004344D01*
X020176Y004266D02*
X018149Y004266D01*
X018149Y004187D02*
X020254Y004187D01*
X020415Y004109D02*
X018121Y004109D01*
X018088Y004030D02*
X018163Y004030D01*
X018221Y004054D02*
X018074Y003993D01*
X017962Y003881D01*
X017901Y003734D01*
X017901Y003576D01*
X017962Y003429D01*
X018074Y003317D01*
X018221Y003256D01*
X018379Y003256D01*
X018526Y003317D01*
X018638Y003429D01*
X018699Y003576D01*
X018699Y003734D01*
X018638Y003881D01*
X018526Y003993D01*
X018379Y004054D01*
X018221Y004054D01*
X018033Y003952D02*
X018010Y003952D01*
X017959Y003873D02*
X017870Y003873D01*
X017926Y003795D02*
X016703Y003795D01*
X016738Y003829D02*
X016626Y003717D01*
X016479Y003656D01*
X016321Y003656D01*
X016174Y003717D01*
X016062Y003829D01*
X016001Y003976D01*
X016001Y004134D01*
X016062Y004281D01*
X016174Y004393D01*
X016321Y004454D01*
X016479Y004454D01*
X016626Y004393D01*
X016738Y004281D01*
X016799Y004134D01*
X016799Y003976D01*
X016738Y003829D01*
X016756Y003873D02*
X017630Y003873D01*
X017490Y003952D02*
X016789Y003952D01*
X016799Y004030D02*
X017412Y004030D01*
X017379Y004109D02*
X016799Y004109D01*
X016777Y004187D02*
X017351Y004187D01*
X017351Y004266D02*
X016744Y004266D01*
X016675Y004344D02*
X017355Y004344D01*
X017388Y004423D02*
X016555Y004423D01*
X016245Y004423D02*
X013733Y004423D01*
X013749Y004384D02*
X013688Y004531D01*
X013576Y004643D01*
X013429Y004704D01*
X013271Y004704D01*
X013124Y004643D01*
X013012Y004531D01*
X012951Y004384D01*
X012951Y004226D01*
X013012Y004079D01*
X013124Y003967D01*
X013271Y003906D01*
X013429Y003906D01*
X013576Y003967D01*
X013688Y004079D01*
X013749Y004226D01*
X013749Y004384D01*
X013749Y004344D02*
X016125Y004344D01*
X016056Y004266D02*
X013749Y004266D01*
X013733Y004187D02*
X016023Y004187D01*
X016001Y004109D02*
X013700Y004109D01*
X013639Y004030D02*
X016001Y004030D01*
X016011Y003952D02*
X013539Y003952D01*
X013161Y003952D02*
X012189Y003952D01*
X012226Y003967D02*
X012338Y004079D01*
X012399Y004226D01*
X012399Y004384D01*
X012338Y004531D01*
X012226Y004643D01*
X012079Y004704D01*
X011921Y004704D01*
X011775Y004643D01*
X011629Y004704D01*
X011471Y004704D01*
X011324Y004643D01*
X011212Y004531D01*
X011151Y004384D01*
X011151Y004226D01*
X011212Y004079D01*
X011324Y003967D01*
X011471Y003906D01*
X011629Y003906D01*
X011775Y003967D01*
X011921Y003906D01*
X012079Y003906D01*
X012226Y003967D01*
X012289Y004030D02*
X013061Y004030D01*
X013000Y004109D02*
X012350Y004109D01*
X012383Y004187D02*
X012967Y004187D01*
X012951Y004266D02*
X012399Y004266D01*
X012399Y004344D02*
X012951Y004344D01*
X012967Y004423D02*
X012383Y004423D01*
X012350Y004501D02*
X013000Y004501D01*
X013061Y004580D02*
X012289Y004580D01*
X012190Y004658D02*
X013160Y004658D01*
X013540Y004658D02*
X016783Y004658D01*
X016709Y004737D02*
X009152Y004737D01*
X009079Y004706D02*
X009226Y004767D01*
X009338Y004879D01*
X009399Y005026D01*
X009399Y005184D01*
X009339Y005330D01*
X009388Y005379D01*
X009449Y005526D01*
X009449Y005684D01*
X009388Y005831D01*
X009276Y005943D01*
X009129Y006004D01*
X008971Y006004D01*
X008824Y005943D01*
X008712Y005831D01*
X008651Y005684D01*
X008651Y005526D01*
X008711Y005380D01*
X008662Y005331D01*
X008601Y005184D01*
X008601Y005026D01*
X008662Y004879D01*
X008774Y004767D01*
X008921Y004706D01*
X009079Y004706D01*
X009274Y004815D02*
X016676Y004815D01*
X016651Y004894D02*
X009344Y004894D01*
X009377Y004972D02*
X016651Y004972D01*
X016658Y005051D02*
X009399Y005051D01*
X009399Y005129D02*
X013716Y005129D01*
X013771Y005106D02*
X013929Y005106D01*
X014076Y005167D01*
X014188Y005279D01*
X014249Y005426D01*
X014249Y005584D01*
X014188Y005731D01*
X014076Y005843D01*
X013929Y005904D01*
X013771Y005904D01*
X013624Y005843D01*
X013512Y005731D01*
X013451Y005584D01*
X013451Y005426D01*
X013512Y005279D01*
X013624Y005167D01*
X013771Y005106D01*
X013584Y005208D02*
X009389Y005208D01*
X009357Y005286D02*
X013509Y005286D01*
X013477Y005365D02*
X009373Y005365D01*
X009414Y005443D02*
X013451Y005443D01*
X013451Y005522D02*
X009447Y005522D01*
X009449Y005600D02*
X013458Y005600D01*
X013490Y005679D02*
X009449Y005679D01*
X009419Y005757D02*
X013538Y005757D01*
X013617Y005836D02*
X009383Y005836D01*
X009305Y005914D02*
X013331Y005914D01*
X013249Y005993D02*
X009156Y005993D01*
X008944Y005993D02*
X008454Y005993D01*
X008438Y006031D02*
X008326Y006143D01*
X008179Y006204D01*
X008021Y006204D01*
X007874Y006143D01*
X007762Y006031D01*
X007701Y005884D01*
X007701Y005726D01*
X007762Y005579D01*
X007874Y005467D01*
X008021Y005406D01*
X008179Y005406D01*
X008326Y005467D01*
X008438Y005579D01*
X008499Y005726D01*
X008499Y005884D01*
X008438Y006031D01*
X008398Y006071D02*
X013195Y006071D01*
X013162Y006150D02*
X008310Y006150D01*
X008486Y005914D02*
X008795Y005914D01*
X008717Y005836D02*
X008499Y005836D01*
X008499Y005757D02*
X008681Y005757D01*
X008651Y005679D02*
X008479Y005679D01*
X008447Y005600D02*
X008651Y005600D01*
X008653Y005522D02*
X008380Y005522D01*
X008268Y005443D02*
X008686Y005443D01*
X008696Y005365D02*
X008054Y005365D01*
X008026Y005393D02*
X007879Y005454D01*
X007721Y005454D01*
X007574Y005393D01*
X007462Y005281D01*
X007401Y005134D01*
X007401Y004976D01*
X007462Y004829D01*
X007574Y004717D01*
X007721Y004656D01*
X007879Y004656D01*
X008026Y004717D01*
X008138Y004829D01*
X008199Y004976D01*
X008199Y005134D01*
X008138Y005281D01*
X008026Y005393D01*
X007932Y005443D02*
X007905Y005443D01*
X007820Y005522D02*
X006213Y005522D01*
X006188Y005581D02*
X006249Y005434D01*
X006249Y005276D01*
X006188Y005129D01*
X006320Y005129D01*
X006301Y005084D02*
X006301Y004926D01*
X006362Y004779D01*
X006426Y004715D01*
X006374Y004693D01*
X006262Y004581D01*
X006201Y004434D01*
X006201Y004276D01*
X006262Y004129D01*
X006374Y004017D01*
X006521Y003956D01*
X006679Y003956D01*
X006826Y004017D01*
X006938Y004129D01*
X006999Y004276D01*
X006999Y004434D01*
X006938Y004581D01*
X006874Y004645D01*
X006926Y004667D01*
X007038Y004779D01*
X007099Y004926D01*
X007099Y005084D01*
X007038Y005231D01*
X006926Y005343D01*
X006779Y005404D01*
X006621Y005404D01*
X006474Y005343D01*
X006362Y005231D01*
X006301Y005084D01*
X006301Y005051D02*
X006218Y005051D01*
X006238Y005031D02*
X006164Y005105D01*
X006188Y005129D01*
X006221Y005208D02*
X006352Y005208D01*
X006417Y005286D02*
X006249Y005286D01*
X006249Y005365D02*
X006526Y005365D01*
X006245Y005443D02*
X007695Y005443D01*
X007753Y005600D02*
X006169Y005600D01*
X006188Y005581D02*
X006076Y005693D01*
X005929Y005754D01*
X005771Y005754D01*
X005624Y005693D01*
X005512Y005581D01*
X005451Y005434D01*
X005451Y005276D01*
X005512Y005129D01*
X000700Y005129D01*
X000700Y005051D02*
X005582Y005051D01*
X005586Y005055D02*
X005562Y005031D01*
X005501Y004884D01*
X005501Y004726D01*
X005562Y004579D01*
X005674Y004467D01*
X005821Y004406D01*
X005979Y004406D01*
X006126Y004467D01*
X006238Y004579D01*
X006299Y004726D01*
X006299Y004884D01*
X006238Y005031D01*
X006262Y004972D02*
X006301Y004972D01*
X006295Y004894D02*
X006315Y004894D01*
X006299Y004815D02*
X006347Y004815D01*
X006299Y004737D02*
X006405Y004737D01*
X006339Y004658D02*
X006271Y004658D01*
X006261Y004580D02*
X006238Y004580D01*
X006229Y004501D02*
X006160Y004501D01*
X006201Y004423D02*
X006019Y004423D01*
X006201Y004344D02*
X000700Y004344D01*
X000700Y004266D02*
X006205Y004266D01*
X006238Y004187D02*
X002532Y004187D01*
X002526Y004193D02*
X002379Y004254D01*
X002221Y004254D01*
X002074Y004193D01*
X001962Y004081D01*
X001901Y003934D01*
X001901Y003776D01*
X001962Y003629D01*
X002074Y003517D01*
X002221Y003456D01*
X002379Y003456D01*
X002526Y003517D01*
X002638Y003629D01*
X002699Y003776D01*
X002699Y003934D01*
X002638Y004081D01*
X002526Y004193D01*
X002610Y004109D02*
X006283Y004109D01*
X006361Y004030D02*
X002659Y004030D01*
X002692Y003952D02*
X004095Y003952D01*
X004074Y003943D02*
X003962Y003831D01*
X003901Y003684D01*
X003901Y003526D01*
X003962Y003379D01*
X004074Y003267D01*
X004221Y003206D01*
X004379Y003206D01*
X004526Y003267D01*
X004638Y003379D01*
X004699Y003526D01*
X004699Y003684D01*
X004638Y003831D01*
X004526Y003943D01*
X004379Y004004D01*
X004221Y004004D01*
X004074Y003943D01*
X004004Y003873D02*
X002699Y003873D01*
X002699Y003795D02*
X003947Y003795D01*
X003914Y003716D02*
X002674Y003716D01*
X002642Y003638D02*
X003901Y003638D01*
X003901Y003559D02*
X002568Y003559D01*
X002438Y003481D02*
X003920Y003481D01*
X003952Y003402D02*
X000700Y003402D01*
X000700Y003324D02*
X004018Y003324D01*
X004127Y003245D02*
X000700Y003245D01*
X000700Y003167D02*
X009346Y003167D01*
X009362Y003129D02*
X009301Y003276D01*
X009301Y003434D01*
X009362Y003581D01*
X009474Y003693D01*
X009621Y003754D01*
X009779Y003754D01*
X009926Y003693D01*
X010000Y003619D01*
X010024Y003643D01*
X010171Y003704D01*
X010329Y003704D01*
X010476Y003643D01*
X010588Y003531D01*
X010649Y003384D01*
X010649Y003226D01*
X010588Y003079D01*
X010476Y002967D01*
X010329Y002906D01*
X010171Y002906D01*
X010024Y002967D01*
X009950Y003041D01*
X009926Y003017D01*
X009779Y002956D01*
X009621Y002956D01*
X009474Y003017D01*
X009362Y003129D01*
X009403Y003088D02*
X000700Y003088D01*
X000700Y003010D02*
X009492Y003010D01*
X009314Y003245D02*
X004473Y003245D01*
X004582Y003324D02*
X009301Y003324D01*
X009301Y003402D02*
X004648Y003402D01*
X004680Y003481D02*
X009320Y003481D01*
X009353Y003559D02*
X008236Y003559D01*
X008229Y003556D02*
X008376Y003617D01*
X008488Y003729D01*
X008549Y003876D01*
X008549Y004034D01*
X008488Y004181D01*
X008376Y004293D01*
X008229Y004354D01*
X008071Y004354D01*
X007924Y004293D01*
X007812Y004181D01*
X007751Y004034D01*
X007751Y003876D01*
X007812Y003729D01*
X007924Y003617D01*
X008071Y003556D01*
X008229Y003556D01*
X008064Y003559D02*
X004699Y003559D01*
X004699Y003638D02*
X007904Y003638D01*
X007825Y003716D02*
X004686Y003716D01*
X004653Y003795D02*
X007785Y003795D01*
X007752Y003873D02*
X004596Y003873D01*
X004505Y003952D02*
X007751Y003952D01*
X007751Y004030D02*
X006839Y004030D01*
X006917Y004109D02*
X007782Y004109D01*
X007818Y004187D02*
X006962Y004187D01*
X006995Y004266D02*
X007897Y004266D01*
X008047Y004344D02*
X006999Y004344D01*
X006999Y004423D02*
X011167Y004423D01*
X011151Y004344D02*
X008253Y004344D01*
X008403Y004266D02*
X011151Y004266D01*
X011167Y004187D02*
X008482Y004187D01*
X008518Y004109D02*
X011200Y004109D01*
X011261Y004030D02*
X008549Y004030D01*
X008549Y003952D02*
X011361Y003952D01*
X011739Y003952D02*
X011811Y003952D01*
X012262Y003531D02*
X012201Y003384D01*
X012201Y003226D01*
X012262Y003079D01*
X012374Y002967D01*
X012521Y002906D01*
X012679Y002906D01*
X012826Y002967D01*
X012938Y003079D01*
X012999Y003226D01*
X012999Y003384D01*
X012938Y003531D01*
X012826Y003643D01*
X012679Y003704D01*
X012521Y003704D01*
X012374Y003643D01*
X012262Y003531D01*
X012290Y003559D02*
X010560Y003559D01*
X010609Y003481D02*
X012241Y003481D01*
X012209Y003402D02*
X010641Y003402D01*
X010649Y003324D02*
X012201Y003324D01*
X012201Y003245D02*
X010649Y003245D01*
X010624Y003167D02*
X012226Y003167D01*
X012258Y003088D02*
X010592Y003088D01*
X010518Y003010D02*
X012332Y003010D01*
X012461Y002931D02*
X011534Y002931D01*
X011479Y002954D02*
X011321Y002954D01*
X011174Y002893D01*
X011062Y002781D01*
X011001Y002634D01*
X011001Y002476D01*
X011062Y002329D01*
X011174Y002217D01*
X011321Y002156D01*
X011479Y002156D01*
X011626Y002217D01*
X011738Y002329D01*
X011799Y002476D01*
X011799Y002634D01*
X011738Y002781D01*
X011626Y002893D01*
X011479Y002954D01*
X011666Y002853D02*
X013701Y002853D01*
X013701Y002826D02*
X013762Y002679D01*
X013874Y002567D01*
X014021Y002506D01*
X014179Y002506D01*
X014326Y002567D01*
X014438Y002679D01*
X014499Y002826D01*
X014499Y002984D01*
X014438Y003131D01*
X014326Y003243D01*
X014179Y003304D01*
X014021Y003304D01*
X013874Y003243D01*
X013762Y003131D01*
X013701Y002984D01*
X013701Y002826D01*
X013723Y002774D02*
X011741Y002774D01*
X011773Y002696D02*
X013755Y002696D01*
X013824Y002617D02*
X011799Y002617D01*
X011799Y002539D02*
X013943Y002539D01*
X014257Y002539D02*
X016753Y002539D01*
X016751Y002534D02*
X016751Y002376D01*
X016812Y002229D01*
X016924Y002117D01*
X017071Y002056D01*
X017229Y002056D01*
X017376Y002117D01*
X017488Y002229D01*
X017549Y002376D01*
X017549Y002534D01*
X017488Y002681D01*
X017376Y002793D01*
X017229Y002854D01*
X017071Y002854D01*
X016924Y002793D01*
X016812Y002681D01*
X016751Y002534D01*
X016751Y002460D02*
X011792Y002460D01*
X011760Y002382D02*
X016751Y002382D01*
X016781Y002303D02*
X011712Y002303D01*
X011633Y002225D02*
X016817Y002225D01*
X016895Y002146D02*
X015819Y002146D01*
X015826Y002143D02*
X015679Y002204D01*
X015521Y002204D01*
X015374Y002143D01*
X015262Y002031D01*
X015201Y001884D01*
X015201Y001726D01*
X015262Y001579D01*
X015374Y001467D01*
X015521Y001406D01*
X015679Y001406D01*
X015826Y001467D01*
X015938Y001579D01*
X015999Y001726D01*
X015999Y001884D01*
X015938Y002031D01*
X015826Y002143D01*
X015901Y002068D02*
X017044Y002068D01*
X017256Y002068D02*
X018325Y002068D01*
X018301Y002126D02*
X018362Y001979D01*
X018474Y001867D01*
X018621Y001806D01*
X018779Y001806D01*
X018926Y001867D01*
X019038Y001979D01*
X019099Y002126D01*
X019099Y002284D01*
X019038Y002431D01*
X018926Y002543D01*
X018779Y002604D01*
X018621Y002604D01*
X018474Y002543D01*
X018362Y002431D01*
X018301Y002284D01*
X018301Y002126D01*
X018301Y002146D02*
X017405Y002146D01*
X017483Y002225D02*
X018301Y002225D01*
X018309Y002303D02*
X017519Y002303D01*
X017549Y002382D02*
X018342Y002382D01*
X018391Y002460D02*
X017549Y002460D01*
X017547Y002539D02*
X018470Y002539D01*
X018930Y002539D02*
X020174Y002539D01*
X020151Y002484D02*
X020151Y002326D01*
X020212Y002179D01*
X020324Y002067D01*
X020471Y002006D01*
X020629Y002006D01*
X020776Y002067D01*
X020888Y002179D01*
X020949Y002326D01*
X020949Y002484D01*
X020888Y002631D01*
X020776Y002743D01*
X020629Y002804D01*
X020471Y002804D01*
X020324Y002743D01*
X020212Y002631D01*
X020151Y002484D01*
X020151Y002460D02*
X019009Y002460D01*
X019058Y002382D02*
X020151Y002382D01*
X020161Y002303D02*
X019091Y002303D01*
X019099Y002225D02*
X020193Y002225D01*
X020245Y002146D02*
X019099Y002146D01*
X019075Y002068D02*
X020324Y002068D01*
X020776Y002068D02*
X032200Y002068D01*
X032200Y002146D02*
X020855Y002146D01*
X020907Y002225D02*
X032200Y002225D01*
X032200Y002303D02*
X020939Y002303D01*
X020949Y002382D02*
X032200Y002382D01*
X032200Y002460D02*
X020949Y002460D01*
X020926Y002539D02*
X032200Y002539D01*
X032200Y002617D02*
X020894Y002617D01*
X020823Y002696D02*
X032200Y002696D01*
X032200Y002774D02*
X020701Y002774D01*
X020658Y003010D02*
X021982Y003010D01*
X022024Y002967D02*
X022171Y002906D01*
X022329Y002906D01*
X022476Y002967D01*
X022588Y003079D01*
X022649Y003226D01*
X022649Y003384D01*
X022588Y003531D01*
X022476Y003643D01*
X022329Y003704D01*
X022171Y003704D01*
X022024Y003643D01*
X021912Y003531D01*
X021851Y003384D01*
X021851Y003226D01*
X021912Y003079D01*
X022024Y002967D01*
X022111Y002931D02*
X014499Y002931D01*
X014499Y002853D02*
X017068Y002853D01*
X017232Y002853D02*
X032200Y002853D01*
X032200Y002931D02*
X026940Y002931D01*
X027018Y003010D02*
X032200Y003010D01*
X032200Y003088D02*
X027062Y003088D01*
X027095Y003167D02*
X032200Y003167D01*
X032200Y003245D02*
X029423Y003245D01*
X029532Y003324D02*
X032200Y003324D01*
X032200Y003402D02*
X029598Y003402D01*
X029630Y003481D02*
X032200Y003481D01*
X032200Y003559D02*
X029649Y003559D01*
X029649Y003638D02*
X032200Y003638D01*
X032200Y003716D02*
X029636Y003716D01*
X029603Y003795D02*
X032200Y003795D01*
X032200Y003873D02*
X029546Y003873D01*
X029077Y003245D02*
X028773Y003245D01*
X028882Y003324D02*
X028968Y003324D01*
X028427Y003245D02*
X027099Y003245D01*
X027099Y003324D02*
X028318Y003324D01*
X028252Y003402D02*
X027071Y003402D01*
X027038Y003481D02*
X028220Y003481D01*
X028201Y003559D02*
X026960Y003559D01*
X026818Y003638D02*
X028201Y003638D01*
X028214Y003716D02*
X026470Y003716D01*
X026581Y003638D02*
X026582Y003638D01*
X025953Y003559D02*
X025710Y003559D01*
X025788Y003481D02*
X025920Y003481D01*
X025901Y003402D02*
X025821Y003402D01*
X025849Y003324D02*
X025901Y003324D01*
X025914Y003245D02*
X025849Y003245D01*
X025845Y003167D02*
X025946Y003167D01*
X026003Y003088D02*
X025812Y003088D01*
X025768Y003010D02*
X026092Y003010D01*
X026460Y002931D02*
X025690Y002931D01*
X025210Y002931D02*
X023340Y002931D01*
X023418Y003010D02*
X025132Y003010D01*
X025088Y003088D02*
X023462Y003088D01*
X023495Y003167D02*
X025055Y003167D01*
X025051Y003245D02*
X023499Y003245D01*
X023499Y003324D02*
X025051Y003324D01*
X025079Y003402D02*
X023471Y003402D01*
X023438Y003481D02*
X025112Y003481D01*
X025190Y003559D02*
X023360Y003559D01*
X023376Y003716D02*
X021275Y003716D01*
X021196Y003638D02*
X022019Y003638D01*
X021940Y003559D02*
X021036Y003559D01*
X020864Y003559D02*
X020797Y003559D01*
X020830Y003481D02*
X021891Y003481D01*
X021859Y003402D02*
X020849Y003402D01*
X020849Y003324D02*
X021851Y003324D01*
X021851Y003245D02*
X020836Y003245D01*
X020804Y003167D02*
X021876Y003167D01*
X021908Y003088D02*
X020747Y003088D01*
X020399Y002774D02*
X017395Y002774D01*
X017473Y002696D02*
X020277Y002696D01*
X020206Y002617D02*
X017514Y002617D01*
X016905Y002774D02*
X014477Y002774D01*
X014445Y002696D02*
X016827Y002696D01*
X016786Y002617D02*
X014376Y002617D01*
X014488Y003010D02*
X020242Y003010D01*
X020153Y003088D02*
X014456Y003088D01*
X014402Y003167D02*
X020096Y003167D01*
X020064Y003245D02*
X014321Y003245D01*
X013879Y003245D02*
X012999Y003245D01*
X012999Y003324D02*
X018068Y003324D01*
X017989Y003402D02*
X012991Y003402D01*
X012959Y003481D02*
X017941Y003481D01*
X017908Y003559D02*
X012910Y003559D01*
X012831Y003638D02*
X017901Y003638D01*
X017901Y003716D02*
X016624Y003716D01*
X016176Y003716D02*
X009870Y003716D01*
X009981Y003638D02*
X010019Y003638D01*
X010481Y003638D02*
X012369Y003638D01*
X012974Y003167D02*
X013798Y003167D01*
X013744Y003088D02*
X012942Y003088D01*
X012868Y003010D02*
X013712Y003010D01*
X013701Y002931D02*
X012739Y002931D01*
X011266Y002931D02*
X010389Y002931D01*
X010111Y002931D02*
X000700Y002931D01*
X000700Y002853D02*
X011134Y002853D01*
X011059Y002774D02*
X000700Y002774D01*
X000700Y002696D02*
X006401Y002696D01*
X006421Y002704D02*
X006274Y002643D01*
X006162Y002531D01*
X006101Y002384D01*
X006101Y002226D01*
X006162Y002079D01*
X006274Y001967D01*
X006421Y001906D01*
X006579Y001906D01*
X006726Y001967D01*
X006838Y002079D01*
X006899Y002226D01*
X006899Y002384D01*
X006838Y002531D01*
X006726Y002643D01*
X006579Y002704D01*
X006421Y002704D01*
X006599Y002696D02*
X011027Y002696D01*
X011001Y002617D02*
X006752Y002617D01*
X006830Y002539D02*
X011001Y002539D01*
X011008Y002460D02*
X006867Y002460D01*
X006899Y002382D02*
X011040Y002382D01*
X011088Y002303D02*
X006899Y002303D01*
X006898Y002225D02*
X011167Y002225D01*
X011126Y002143D02*
X010979Y002204D01*
X010821Y002204D01*
X010674Y002143D01*
X010562Y002031D01*
X010501Y001884D01*
X010501Y001726D01*
X010552Y001604D01*
X010524Y001593D01*
X010412Y001481D01*
X010351Y001334D01*
X010351Y001176D01*
X010412Y001029D01*
X010524Y000917D01*
X010671Y000856D01*
X010829Y000856D01*
X010976Y000917D01*
X011088Y001029D01*
X011149Y001176D01*
X011149Y001334D01*
X011098Y001456D01*
X011126Y001467D01*
X011238Y001579D01*
X011299Y001726D01*
X011299Y001884D01*
X011238Y002031D01*
X011126Y002143D01*
X011119Y002146D02*
X015381Y002146D01*
X015299Y002068D02*
X011201Y002068D01*
X011255Y001989D02*
X015245Y001989D01*
X015212Y001911D02*
X011288Y001911D01*
X011299Y001832D02*
X011868Y001832D01*
X011921Y001854D02*
X011774Y001793D01*
X011662Y001681D01*
X011601Y001534D01*
X011601Y001376D01*
X011662Y001229D01*
X011774Y001117D01*
X011921Y001056D01*
X012079Y001056D01*
X012226Y001117D01*
X012338Y001229D01*
X012399Y001376D01*
X012399Y001534D01*
X012338Y001681D01*
X012226Y001793D01*
X012079Y001854D01*
X011921Y001854D01*
X011735Y001754D02*
X011299Y001754D01*
X011278Y001675D02*
X011660Y001675D01*
X011627Y001597D02*
X011245Y001597D01*
X011177Y001518D02*
X011601Y001518D01*
X011601Y001440D02*
X011105Y001440D01*
X011138Y001361D02*
X011607Y001361D01*
X011640Y001283D02*
X011149Y001283D01*
X011149Y001204D02*
X011687Y001204D01*
X011766Y001126D02*
X011128Y001126D01*
X011095Y001047D02*
X032200Y001047D01*
X032200Y000969D02*
X011027Y000969D01*
X010911Y000890D02*
X032200Y000890D01*
X032200Y000812D02*
X006092Y000812D01*
X006079Y000806D02*
X006226Y000867D01*
X006338Y000979D01*
X006399Y001126D01*
X006399Y001284D01*
X006338Y001431D01*
X006226Y001543D01*
X006079Y001604D01*
X005921Y001604D01*
X005774Y001543D01*
X005662Y001431D01*
X005601Y001284D01*
X005601Y001126D01*
X005662Y000979D01*
X005774Y000867D01*
X005921Y000806D01*
X006079Y000806D01*
X005908Y000812D02*
X000700Y000812D01*
X000700Y000890D02*
X005751Y000890D01*
X005673Y000969D02*
X000700Y000969D01*
X000700Y001047D02*
X005634Y001047D01*
X005601Y001126D02*
X000700Y001126D01*
X000700Y001204D02*
X005601Y001204D01*
X005601Y001283D02*
X000700Y001283D01*
X000700Y001361D02*
X005633Y001361D01*
X005671Y001440D02*
X000700Y001440D01*
X000700Y001518D02*
X005749Y001518D01*
X005903Y001597D02*
X003476Y001597D01*
X003526Y001617D02*
X003638Y001729D01*
X003699Y001876D01*
X003699Y002034D01*
X003638Y002181D01*
X003526Y002293D01*
X003379Y002354D01*
X003221Y002354D01*
X003074Y002293D01*
X002962Y002181D01*
X002901Y002034D01*
X002901Y001876D01*
X002962Y001729D01*
X003074Y001617D01*
X003221Y001556D01*
X003379Y001556D01*
X003526Y001617D01*
X003584Y001675D02*
X008606Y001675D01*
X008624Y001693D02*
X008512Y001581D01*
X008451Y001434D01*
X008451Y001276D01*
X008512Y001129D01*
X008624Y001017D01*
X008771Y000956D01*
X008929Y000956D01*
X009076Y001017D01*
X009188Y001129D01*
X009249Y001276D01*
X009249Y001434D01*
X009188Y001581D01*
X009076Y001693D01*
X008929Y001754D01*
X008771Y001754D01*
X008624Y001693D01*
X008528Y001597D02*
X006097Y001597D01*
X006251Y001518D02*
X008486Y001518D01*
X008453Y001440D02*
X006329Y001440D01*
X006367Y001361D02*
X008451Y001361D01*
X008451Y001283D02*
X006399Y001283D01*
X006399Y001204D02*
X008481Y001204D01*
X008516Y001126D02*
X006399Y001126D01*
X006366Y001047D02*
X008594Y001047D01*
X008741Y000969D02*
X006327Y000969D01*
X006249Y000890D02*
X010589Y000890D01*
X010473Y000969D02*
X008959Y000969D01*
X009106Y001047D02*
X010405Y001047D01*
X010372Y001126D02*
X009184Y001126D01*
X009219Y001204D02*
X010351Y001204D01*
X010351Y001283D02*
X009249Y001283D01*
X009249Y001361D02*
X010362Y001361D01*
X010395Y001440D02*
X009247Y001440D01*
X009214Y001518D02*
X010449Y001518D01*
X010533Y001597D02*
X009172Y001597D01*
X009094Y001675D02*
X010522Y001675D01*
X010501Y001754D02*
X008930Y001754D01*
X008770Y001754D02*
X003648Y001754D01*
X003681Y001832D02*
X010501Y001832D01*
X010512Y001911D02*
X006590Y001911D01*
X006748Y001989D02*
X010545Y001989D01*
X010599Y002068D02*
X006826Y002068D01*
X006866Y002146D02*
X010681Y002146D01*
X009982Y003010D02*
X009908Y003010D01*
X009419Y003638D02*
X008396Y003638D01*
X008475Y003716D02*
X009530Y003716D01*
X008548Y003873D02*
X016044Y003873D01*
X016097Y003795D02*
X008515Y003795D01*
X008848Y004737D02*
X008045Y004737D01*
X008124Y004815D02*
X008726Y004815D01*
X008656Y004894D02*
X008165Y004894D01*
X008197Y004972D02*
X008623Y004972D01*
X008601Y005051D02*
X008199Y005051D01*
X008199Y005129D02*
X008601Y005129D01*
X008611Y005208D02*
X008168Y005208D01*
X008133Y005286D02*
X008643Y005286D01*
X007884Y004658D02*
X011360Y004658D01*
X011261Y004580D02*
X006939Y004580D01*
X006971Y004501D02*
X011200Y004501D01*
X011740Y004658D02*
X011810Y004658D01*
X013639Y004580D02*
X016915Y004580D01*
X017185Y004580D02*
X017511Y004580D01*
X017432Y004501D02*
X013700Y004501D01*
X013984Y005129D02*
X016690Y005129D01*
X016739Y005208D02*
X014116Y005208D01*
X014191Y005286D02*
X016817Y005286D01*
X016870Y005522D02*
X016566Y005522D01*
X016709Y005600D02*
X016791Y005600D01*
X016334Y005522D02*
X014249Y005522D01*
X014242Y005600D02*
X016191Y005600D01*
X016113Y005679D02*
X014210Y005679D01*
X014162Y005757D02*
X016080Y005757D01*
X016051Y005836D02*
X014083Y005836D01*
X014002Y005914D02*
X013769Y005914D01*
X014198Y005914D02*
X015881Y005914D01*
X015799Y005993D02*
X014351Y005993D01*
X014430Y006071D02*
X015745Y006071D01*
X015712Y006150D02*
X014934Y006150D01*
X015037Y006228D02*
X015701Y006228D01*
X015701Y006307D02*
X015099Y006307D01*
X015132Y006385D02*
X015722Y006385D01*
X015755Y006464D02*
X015149Y006464D01*
X015149Y006542D02*
X015823Y006542D01*
X015940Y006621D02*
X015134Y006621D01*
X015129Y006778D02*
X017390Y006778D01*
X017437Y006856D02*
X015149Y006856D01*
X016101Y007327D02*
X003936Y007327D01*
X004093Y007563D02*
X012135Y007563D01*
X012124Y007567D02*
X012271Y007506D01*
X012429Y007506D01*
X012576Y007567D01*
X012688Y007679D01*
X012749Y007826D01*
X012749Y007984D01*
X012688Y008131D01*
X012576Y008243D01*
X012429Y008304D01*
X012271Y008304D01*
X012124Y008243D01*
X012012Y008131D01*
X011951Y007984D01*
X011951Y007826D01*
X012012Y007679D01*
X012124Y007567D01*
X012050Y007641D02*
X004099Y007641D01*
X004099Y007720D02*
X005322Y007720D01*
X005243Y007798D02*
X004072Y007798D01*
X004040Y007877D02*
X005192Y007877D01*
X005160Y007955D02*
X003964Y007955D01*
X003828Y008034D02*
X005151Y008034D01*
X005151Y008112D02*
X000700Y008112D01*
X000700Y008034D02*
X003572Y008034D01*
X003436Y007955D02*
X000700Y007955D01*
X000700Y007877D02*
X003360Y007877D01*
X003328Y007798D02*
X000700Y007798D01*
X000700Y007720D02*
X003301Y007720D01*
X003301Y007641D02*
X000700Y007641D01*
X000700Y007563D02*
X003307Y007563D01*
X003339Y007484D02*
X000700Y007484D01*
X000700Y007406D02*
X001504Y007406D01*
X001408Y007327D02*
X000700Y007327D01*
X000700Y007249D02*
X001349Y007249D01*
X001316Y007170D02*
X000700Y007170D01*
X000700Y007092D02*
X001301Y007092D01*
X001301Y007013D02*
X000700Y007013D01*
X000700Y006935D02*
X001318Y006935D01*
X001351Y006856D02*
X000700Y006856D01*
X000700Y006778D02*
X001414Y006778D01*
X001517Y006699D02*
X000700Y006699D01*
X000700Y006621D02*
X012651Y006621D01*
X012651Y006542D02*
X000700Y006542D01*
X000700Y006464D02*
X012656Y006464D01*
X012689Y006385D02*
X000700Y006385D01*
X000700Y006307D02*
X012735Y006307D01*
X012813Y006228D02*
X000700Y006228D01*
X000700Y006150D02*
X004760Y006150D01*
X004771Y006154D02*
X004624Y006093D01*
X004512Y005981D01*
X004451Y005834D01*
X004451Y005676D01*
X004512Y005529D01*
X004624Y005417D01*
X004771Y005356D01*
X004929Y005356D01*
X005076Y005417D01*
X005188Y005529D01*
X005249Y005676D01*
X005249Y005834D01*
X005188Y005981D01*
X005076Y006093D01*
X004929Y006154D01*
X004771Y006154D01*
X004940Y006150D02*
X007890Y006150D01*
X007802Y006071D02*
X005098Y006071D01*
X005176Y005993D02*
X007746Y005993D01*
X007714Y005914D02*
X005216Y005914D01*
X005248Y005836D02*
X007701Y005836D01*
X007701Y005757D02*
X005249Y005757D01*
X005249Y005679D02*
X005610Y005679D01*
X005531Y005600D02*
X005217Y005600D01*
X005180Y005522D02*
X005487Y005522D01*
X005455Y005443D02*
X005102Y005443D01*
X004949Y005365D02*
X005451Y005365D01*
X005451Y005286D02*
X000700Y005286D01*
X000700Y005208D02*
X005479Y005208D01*
X005512Y005129D02*
X005586Y005055D01*
X005538Y004972D02*
X000700Y004972D01*
X000700Y004894D02*
X005505Y004894D01*
X005501Y004815D02*
X000700Y004815D01*
X000700Y004737D02*
X005501Y004737D01*
X005529Y004658D02*
X000700Y004658D01*
X000700Y004580D02*
X005562Y004580D01*
X005640Y004501D02*
X000700Y004501D01*
X000700Y004423D02*
X005781Y004423D01*
X006904Y004658D02*
X007716Y004658D01*
X007555Y004737D02*
X006995Y004737D01*
X007053Y004815D02*
X007476Y004815D01*
X007435Y004894D02*
X007085Y004894D01*
X007099Y004972D02*
X007403Y004972D01*
X007401Y005051D02*
X007099Y005051D01*
X007080Y005129D02*
X007401Y005129D01*
X007432Y005208D02*
X007048Y005208D01*
X006983Y005286D02*
X007467Y005286D01*
X007546Y005365D02*
X006874Y005365D01*
X006090Y005679D02*
X007721Y005679D01*
X005778Y007720D02*
X011995Y007720D01*
X011963Y007798D02*
X005857Y007798D01*
X005908Y007877D02*
X011951Y007877D01*
X011951Y007955D02*
X005940Y007955D01*
X005949Y008034D02*
X011972Y008034D01*
X012004Y008112D02*
X010843Y008112D01*
X010999Y008191D02*
X012072Y008191D01*
X012187Y008269D02*
X011078Y008269D01*
X011116Y008348D02*
X012713Y008348D01*
X012745Y008269D02*
X012513Y008269D01*
X012628Y008191D02*
X012801Y008191D01*
X012886Y008112D02*
X012696Y008112D01*
X012728Y008034D02*
X013069Y008034D01*
X013101Y007955D02*
X012749Y007955D01*
X012749Y007877D02*
X013165Y007877D01*
X013270Y007798D02*
X012737Y007798D01*
X012705Y007720D02*
X016251Y007720D01*
X016172Y007641D02*
X012650Y007641D01*
X012565Y007563D02*
X016134Y007563D01*
X016407Y007798D02*
X013630Y007798D01*
X012924Y006935D02*
X002082Y006935D01*
X002049Y006856D02*
X012787Y006856D01*
X012711Y006778D02*
X001986Y006778D01*
X001883Y006699D02*
X012678Y006699D01*
X014467Y006150D02*
X014566Y006150D01*
X014249Y005443D02*
X020346Y005443D01*
X020314Y005365D02*
X014223Y005365D01*
X018437Y004030D02*
X020551Y004030D01*
X020551Y003952D02*
X018567Y003952D01*
X018641Y003873D02*
X020552Y003873D01*
X020585Y003795D02*
X018674Y003795D01*
X018699Y003716D02*
X020280Y003716D01*
X020169Y003638D02*
X018699Y003638D01*
X018692Y003559D02*
X020103Y003559D01*
X020070Y003481D02*
X018659Y003481D01*
X018611Y003402D02*
X020051Y003402D01*
X020051Y003324D02*
X018532Y003324D01*
X018358Y001989D02*
X015955Y001989D01*
X015988Y001911D02*
X018431Y001911D01*
X018559Y001832D02*
X015999Y001832D01*
X015999Y001754D02*
X032200Y001754D01*
X032200Y001832D02*
X018841Y001832D01*
X018969Y001911D02*
X032200Y001911D01*
X032200Y001989D02*
X019042Y001989D01*
X020620Y003716D02*
X020625Y003716D01*
X020869Y004894D02*
X021998Y004894D01*
X021919Y004972D02*
X020981Y004972D01*
X021047Y005051D02*
X021882Y005051D01*
X021851Y005129D02*
X021079Y005129D01*
X021099Y005208D02*
X021851Y005208D01*
X021852Y005286D02*
X021099Y005286D01*
X021086Y005365D02*
X021884Y005365D01*
X021924Y005443D02*
X021054Y005443D01*
X020997Y005522D02*
X021953Y005522D01*
X021951Y005600D02*
X020909Y005600D01*
X020887Y006228D02*
X024761Y006228D01*
X024728Y006150D02*
X024640Y006150D01*
X024838Y006307D02*
X020949Y006307D01*
X021149Y006385D02*
X022251Y006385D01*
X022321Y006356D02*
X022174Y006417D01*
X022062Y006529D01*
X022001Y006676D01*
X022001Y006834D01*
X022062Y006981D01*
X022174Y007093D01*
X022321Y007154D01*
X022479Y007154D01*
X022626Y007093D01*
X022738Y006981D01*
X022799Y006834D01*
X022799Y006676D01*
X022738Y006529D01*
X022626Y006417D01*
X022479Y006356D01*
X022321Y006356D01*
X022128Y006464D02*
X021272Y006464D01*
X021343Y006542D02*
X022057Y006542D01*
X022024Y006621D02*
X021376Y006621D01*
X021399Y006699D02*
X022001Y006699D01*
X022001Y006778D02*
X021399Y006778D01*
X021390Y006856D02*
X022010Y006856D01*
X022043Y006935D02*
X021357Y006935D01*
X021306Y007013D02*
X022094Y007013D01*
X022173Y007092D02*
X021227Y007092D01*
X020784Y007170D02*
X024121Y007170D01*
X024112Y007179D02*
X024203Y007088D01*
X024201Y007084D01*
X024201Y006926D01*
X024262Y006779D01*
X024374Y006667D01*
X024521Y006606D01*
X024679Y006606D01*
X024826Y006667D01*
X024938Y006779D01*
X024999Y006926D01*
X024999Y007084D01*
X024938Y007231D01*
X024920Y007249D02*
X025643Y007249D01*
X025564Y007327D02*
X024849Y007327D01*
X024849Y007406D02*
X025530Y007406D01*
X025504Y007641D02*
X024778Y007641D01*
X024788Y007631D02*
X024849Y007484D01*
X024699Y007720D02*
X025537Y007720D01*
X025579Y007798D02*
X024543Y007798D01*
X024051Y007484D02*
X024051Y007326D01*
X024112Y007179D01*
X024083Y007249D02*
X020751Y007249D01*
X020692Y007327D02*
X024051Y007327D01*
X024051Y007406D02*
X020596Y007406D01*
X022627Y007092D02*
X024200Y007092D01*
X024201Y007013D02*
X022706Y007013D01*
X022757Y006935D02*
X024201Y006935D01*
X024230Y006856D02*
X022790Y006856D01*
X022799Y006778D02*
X024264Y006778D01*
X024342Y006699D02*
X022799Y006699D01*
X022776Y006621D02*
X024486Y006621D01*
X024714Y006621D02*
X025008Y006621D01*
X024975Y006542D02*
X022743Y006542D01*
X022672Y006464D02*
X024951Y006464D01*
X024951Y006385D02*
X022549Y006385D01*
X024858Y006699D02*
X025080Y006699D01*
X025207Y006778D02*
X024936Y006778D01*
X024970Y006856D02*
X025281Y006856D01*
X025316Y006935D02*
X024999Y006935D01*
X024999Y007013D02*
X025394Y007013D01*
X025541Y007092D02*
X024996Y007092D01*
X025285Y007877D02*
X025515Y007877D01*
X025436Y007955D02*
X025364Y007955D01*
X025390Y008426D02*
X025410Y008426D01*
X025486Y008505D02*
X025314Y008505D01*
X025179Y008583D02*
X025621Y008583D01*
X024921Y008583D02*
X024729Y008583D01*
X024773Y009368D02*
X023916Y009368D01*
X024029Y009290D02*
X025352Y009290D01*
X025273Y009368D02*
X025227Y009368D01*
X023439Y010781D02*
X030741Y010781D01*
X030709Y010703D02*
X023361Y010703D01*
X022009Y009211D02*
X021591Y009211D01*
X021748Y009290D02*
X021852Y009290D01*
X026691Y006699D02*
X027542Y006699D01*
X027621Y006621D02*
X026848Y006621D01*
X028079Y006621D02*
X032200Y006621D01*
X032200Y006699D02*
X028158Y006699D01*
X028208Y006778D02*
X032200Y006778D01*
X032200Y006856D02*
X028241Y006856D01*
X028249Y006935D02*
X032200Y006935D01*
X032200Y007013D02*
X028249Y007013D01*
X028225Y007092D02*
X032200Y007092D01*
X032200Y007170D02*
X028193Y007170D01*
X028120Y007249D02*
X032200Y007249D01*
X032200Y007327D02*
X027994Y007327D01*
X028082Y009211D02*
X028088Y009211D01*
X031240Y010232D02*
X032200Y010232D01*
X032200Y010310D02*
X031369Y010310D01*
X031442Y010389D02*
X032200Y010389D01*
X032200Y010467D02*
X031474Y010467D01*
X031499Y010546D02*
X032200Y010546D01*
X032200Y010624D02*
X031499Y010624D01*
X031491Y010703D02*
X032200Y010703D01*
X032200Y010781D02*
X031459Y010781D01*
X031409Y010860D02*
X032200Y010860D01*
X032200Y010938D02*
X031331Y010938D01*
X030926Y011566D02*
X030474Y011566D01*
X030553Y011645D02*
X030847Y011645D01*
X030794Y011723D02*
X030606Y011723D01*
X030639Y011802D02*
X030761Y011802D01*
X030751Y011880D02*
X030649Y011880D01*
X030649Y011959D02*
X030751Y011959D01*
X030773Y012037D02*
X030627Y012037D01*
X030594Y012116D02*
X030806Y012116D01*
X030875Y012194D02*
X030525Y012194D01*
X030405Y012273D02*
X030995Y012273D01*
X027657Y014785D02*
X026349Y014785D01*
X026316Y014863D02*
X027578Y014863D01*
X027536Y014942D02*
X026277Y014942D01*
X026199Y015020D02*
X027504Y015020D01*
X030365Y015413D02*
X032200Y015413D01*
X032200Y015491D02*
X030450Y015491D01*
X030661Y015570D02*
X032200Y015570D01*
X032200Y015648D02*
X030807Y015648D01*
X030885Y015727D02*
X032200Y015727D01*
X032200Y015805D02*
X030919Y015805D01*
X030949Y015884D02*
X032200Y015884D01*
X032200Y015962D02*
X030949Y015962D01*
X030946Y016041D02*
X032200Y016041D01*
X032200Y016119D02*
X030914Y016119D01*
X030871Y016198D02*
X032200Y016198D01*
X032200Y016276D02*
X030793Y016276D01*
X020921Y015020D02*
X020716Y015020D01*
X020727Y015099D02*
X020843Y015099D01*
X020792Y015177D02*
X020727Y015177D01*
X020716Y015256D02*
X020760Y015256D01*
X020751Y015334D02*
X020696Y015334D01*
X020663Y015413D02*
X020751Y015413D01*
X020775Y015491D02*
X020617Y015491D01*
X020466Y018788D02*
X020325Y018788D01*
X020432Y018867D02*
X020445Y018867D01*
X013927Y013686D02*
X011794Y013686D01*
X011631Y013607D02*
X013788Y013607D01*
X012575Y012194D02*
X012523Y012194D01*
X010414Y012430D02*
X001259Y012430D01*
X001211Y012508D02*
X010283Y012508D01*
X010298Y013136D02*
X010317Y013136D01*
X010147Y013372D02*
X010634Y013372D01*
X010491Y013450D02*
X009988Y013450D01*
X006067Y011252D02*
X000700Y011252D01*
X000700Y011174D02*
X005905Y011174D01*
X005826Y011095D02*
X000700Y011095D01*
X000700Y011017D02*
X005785Y011017D01*
X005753Y010938D02*
X000700Y010938D01*
X000700Y010860D02*
X005751Y010860D01*
X005751Y010781D02*
X003684Y010781D01*
X003629Y010804D02*
X003471Y010804D01*
X003324Y010743D01*
X003212Y010631D01*
X003151Y010484D01*
X003151Y010326D01*
X003212Y010179D01*
X003324Y010067D01*
X003471Y010006D01*
X003629Y010006D01*
X003776Y010067D01*
X003888Y010179D01*
X003949Y010326D01*
X003949Y010484D01*
X003888Y010631D01*
X003776Y010743D01*
X003629Y010804D01*
X003816Y010703D02*
X005782Y010703D01*
X005817Y010624D02*
X003891Y010624D01*
X003923Y010546D02*
X005827Y010546D01*
X005756Y010467D02*
X003949Y010467D01*
X003949Y010389D02*
X005724Y010389D01*
X005701Y010310D02*
X003942Y010310D01*
X003910Y010232D02*
X005701Y010232D01*
X005711Y010153D02*
X003862Y010153D01*
X003783Y010075D02*
X005743Y010075D01*
X005795Y009996D02*
X002354Y009996D01*
X002354Y009959D02*
X002288Y009798D01*
X002165Y009675D01*
X002004Y009609D01*
X001830Y009609D01*
X001670Y009675D01*
X001547Y009798D01*
X001480Y009959D01*
X001480Y010132D01*
X001547Y010293D01*
X001670Y010416D01*
X001830Y010482D01*
X002004Y010482D01*
X002165Y010416D01*
X002288Y010293D01*
X002354Y010132D01*
X002354Y009959D01*
X002337Y009918D02*
X005874Y009918D01*
X003868Y009682D02*
X002172Y009682D01*
X002250Y009761D02*
X009440Y009761D01*
X009352Y009839D02*
X002305Y009839D01*
X002354Y010075D02*
X003317Y010075D01*
X003238Y010153D02*
X002346Y010153D01*
X002313Y010232D02*
X003190Y010232D01*
X003158Y010310D02*
X002271Y010310D01*
X002192Y010389D02*
X003151Y010389D01*
X003151Y010467D02*
X002041Y010467D01*
X001793Y010467D02*
X000700Y010467D01*
X000700Y010389D02*
X001643Y010389D01*
X001564Y010310D02*
X000700Y010310D01*
X000700Y010232D02*
X001522Y010232D01*
X001489Y010153D02*
X000700Y010153D01*
X000700Y010075D02*
X001480Y010075D01*
X001480Y009996D02*
X000700Y009996D01*
X000700Y009918D02*
X001498Y009918D01*
X001530Y009839D02*
X000700Y009839D01*
X000700Y009761D02*
X001585Y009761D01*
X001663Y009682D02*
X000700Y009682D01*
X000700Y009604D02*
X003735Y009604D01*
X003660Y009525D02*
X000700Y009525D01*
X000700Y009447D02*
X003627Y009447D01*
X003601Y009368D02*
X000700Y009368D01*
X000700Y009290D02*
X001802Y009290D01*
X001830Y009301D02*
X001670Y009235D01*
X001547Y009112D01*
X001480Y008951D01*
X001480Y008778D01*
X001547Y008617D01*
X001670Y008494D01*
X001830Y008428D01*
X002004Y008428D01*
X002165Y008494D01*
X002288Y008617D01*
X002354Y008778D01*
X002354Y008951D01*
X002288Y009112D01*
X002165Y009235D01*
X002004Y009301D01*
X001830Y009301D01*
X002033Y009290D02*
X003601Y009290D01*
X003607Y009211D02*
X002189Y009211D01*
X002267Y009133D02*
X003640Y009133D01*
X003687Y009054D02*
X002312Y009054D01*
X002344Y008976D02*
X003766Y008976D01*
X002354Y008897D02*
X007651Y008897D01*
X007654Y008819D02*
X002354Y008819D01*
X002339Y008740D02*
X007687Y008740D01*
X007730Y008662D02*
X002306Y008662D01*
X002254Y008583D02*
X007808Y008583D01*
X008292Y008583D02*
X010351Y008583D01*
X010351Y008505D02*
X002175Y008505D01*
X001659Y008505D02*
X000700Y008505D01*
X000700Y008583D02*
X001581Y008583D01*
X001529Y008662D02*
X000700Y008662D01*
X000700Y008740D02*
X001496Y008740D01*
X001480Y008819D02*
X000700Y008819D01*
X000700Y008897D02*
X001480Y008897D01*
X001490Y008976D02*
X000700Y008976D01*
X000700Y009054D02*
X001523Y009054D01*
X001568Y009133D02*
X000700Y009133D01*
X000700Y009211D02*
X001646Y009211D01*
X000700Y008426D02*
X005404Y008426D01*
X005279Y008348D02*
X000700Y008348D01*
X000700Y008269D02*
X005207Y008269D01*
X005175Y008191D02*
X000700Y008191D01*
X000700Y006071D02*
X004602Y006071D01*
X004524Y005993D02*
X000700Y005993D01*
X000700Y005914D02*
X004484Y005914D01*
X004452Y005836D02*
X000700Y005836D01*
X000700Y005757D02*
X004451Y005757D01*
X004451Y005679D02*
X000700Y005679D01*
X000700Y005600D02*
X004483Y005600D01*
X004520Y005522D02*
X000700Y005522D01*
X000700Y005443D02*
X004598Y005443D01*
X004751Y005365D02*
X000700Y005365D01*
X000700Y004187D02*
X002068Y004187D01*
X001990Y004109D02*
X000700Y004109D01*
X000700Y004030D02*
X001941Y004030D01*
X001908Y003952D02*
X000700Y003952D01*
X000700Y003873D02*
X001901Y003873D01*
X001901Y003795D02*
X000700Y003795D01*
X000700Y003716D02*
X001926Y003716D01*
X001958Y003638D02*
X000700Y003638D01*
X000700Y003559D02*
X002032Y003559D01*
X002162Y003481D02*
X000700Y003481D01*
X000700Y002617D02*
X006248Y002617D01*
X006170Y002539D02*
X002266Y002539D01*
X002229Y002554D02*
X002071Y002554D01*
X001924Y002493D01*
X001812Y002381D01*
X001751Y002234D01*
X001751Y002076D01*
X001812Y001929D01*
X001924Y001817D01*
X002071Y001756D01*
X002229Y001756D01*
X002376Y001817D01*
X002488Y001929D01*
X002549Y002076D01*
X002549Y002234D01*
X002488Y002381D01*
X002376Y002493D01*
X002229Y002554D01*
X002034Y002539D02*
X000700Y002539D01*
X000700Y002460D02*
X001891Y002460D01*
X001813Y002382D02*
X000700Y002382D01*
X000700Y002303D02*
X001780Y002303D01*
X001751Y002225D02*
X000700Y002225D01*
X000700Y002146D02*
X001751Y002146D01*
X001755Y002068D02*
X000700Y002068D01*
X000700Y001989D02*
X001787Y001989D01*
X001831Y001911D02*
X000700Y001911D01*
X000700Y001832D02*
X001909Y001832D01*
X002391Y001832D02*
X002919Y001832D01*
X002901Y001911D02*
X002469Y001911D01*
X002513Y001989D02*
X002901Y001989D01*
X002915Y002068D02*
X002545Y002068D01*
X002549Y002146D02*
X002948Y002146D01*
X003006Y002225D02*
X002549Y002225D01*
X002520Y002303D02*
X003098Y002303D01*
X003502Y002303D02*
X006101Y002303D01*
X006102Y002225D02*
X003594Y002225D01*
X003652Y002146D02*
X006134Y002146D01*
X006174Y002068D02*
X003685Y002068D01*
X003699Y001989D02*
X006252Y001989D01*
X006410Y001911D02*
X003699Y001911D01*
X003124Y001597D02*
X000700Y001597D01*
X000700Y001675D02*
X003016Y001675D01*
X002952Y001754D02*
X000700Y001754D01*
X000700Y000733D02*
X032200Y000733D01*
X032200Y000655D02*
X000700Y000655D01*
X000700Y000576D02*
X032200Y000576D01*
X032200Y000498D02*
X000700Y000498D01*
X000700Y000419D02*
X032200Y000419D01*
X032200Y001126D02*
X012234Y001126D01*
X012313Y001204D02*
X032200Y001204D01*
X032200Y001283D02*
X012360Y001283D01*
X012393Y001361D02*
X032200Y001361D01*
X032200Y001440D02*
X015760Y001440D01*
X015877Y001518D02*
X032200Y001518D01*
X032200Y001597D02*
X015945Y001597D01*
X015978Y001675D02*
X032200Y001675D01*
X027296Y004658D02*
X027034Y004658D01*
X026866Y004658D02*
X025167Y004658D01*
X025241Y004737D02*
X026705Y004737D01*
X026626Y004815D02*
X025274Y004815D01*
X025299Y004894D02*
X026131Y004894D01*
X026019Y004972D02*
X025299Y004972D01*
X025292Y005051D02*
X025953Y005051D01*
X025816Y005129D02*
X025260Y005129D01*
X025250Y005208D02*
X025684Y005208D01*
X025609Y005286D02*
X025501Y005286D01*
X026469Y004894D02*
X026585Y004894D01*
X027195Y004737D02*
X027205Y004737D01*
X027253Y005365D02*
X027326Y005365D01*
X023904Y004423D02*
X023755Y004423D01*
X023824Y003716D02*
X024047Y003716D01*
X022982Y003638D02*
X022481Y003638D01*
X022560Y003559D02*
X022840Y003559D01*
X022762Y003481D02*
X022609Y003481D01*
X022641Y003402D02*
X022729Y003402D01*
X022701Y003324D02*
X022649Y003324D01*
X022649Y003245D02*
X022701Y003245D01*
X022705Y003167D02*
X022624Y003167D01*
X022592Y003088D02*
X022738Y003088D01*
X022782Y003010D02*
X022518Y003010D01*
X022389Y002931D02*
X022860Y002931D01*
X015440Y001440D02*
X012399Y001440D01*
X012399Y001518D02*
X015323Y001518D01*
X015255Y001597D02*
X012373Y001597D01*
X012340Y001675D02*
X015222Y001675D01*
X015201Y001754D02*
X012265Y001754D01*
X012132Y001832D02*
X015201Y001832D01*
X012250Y000805D02*
X012250Y000505D01*
X012250Y000805D02*
X012200Y000855D01*
X006133Y002460D02*
X002409Y002460D01*
X002487Y002382D02*
X006101Y002382D01*
X005949Y008112D02*
X010657Y008112D01*
X010501Y008191D02*
X005925Y008191D01*
X005893Y008269D02*
X010422Y008269D01*
X010412Y008279D02*
X010351Y008426D01*
X010383Y008662D02*
X008370Y008662D01*
X008413Y008740D02*
X010421Y008740D01*
X010500Y008819D02*
X008446Y008819D01*
X008449Y008897D02*
X010654Y008897D01*
X011079Y008740D02*
X012821Y008740D01*
X011149Y008584D02*
X011149Y008426D01*
X011149Y008584D02*
X011088Y008731D01*
X003416Y010781D02*
X000700Y010781D01*
X000700Y010703D02*
X003284Y010703D01*
X003209Y010624D02*
X000700Y010624D01*
X000700Y010546D02*
X003177Y010546D01*
X032058Y006542D02*
X032200Y006542D01*
X032194Y005836D02*
X032200Y005836D01*
D17*
X031950Y006155D03*
X031250Y005755D03*
X031100Y006155D03*
X029450Y006805D03*
X027850Y006955D03*
X026700Y007205D03*
X025900Y007555D03*
X026100Y007905D03*
X025750Y008205D03*
X025050Y008205D03*
X024600Y008205D03*
X024450Y007405D03*
X024600Y007005D03*
X025350Y006405D03*
X025650Y006705D03*
X026600Y006305D03*
X026900Y005555D03*
X026300Y005255D03*
X025950Y005505D03*
X025350Y005655D03*
X025100Y006005D03*
X024550Y005755D03*
X024900Y005405D03*
X024900Y004955D03*
X024150Y004105D03*
X023600Y004055D03*
X023000Y004255D03*
X022650Y004855D03*
X022250Y005205D03*
X022350Y005605D03*
X022200Y006405D03*
X022400Y006755D03*
X021000Y006755D03*
X020600Y006505D03*
X020150Y006655D03*
X020400Y007055D03*
X021600Y007905D03*
X022800Y007905D03*
X023150Y008155D03*
X022900Y009155D03*
X022600Y009655D03*
X022100Y009605D03*
X021500Y009605D03*
X020950Y009205D03*
X021100Y011055D03*
X020650Y011405D03*
X019350Y011055D03*
X017650Y010755D03*
X017600Y011355D03*
X017400Y012455D03*
X016850Y012855D03*
X016450Y012355D03*
X015950Y013105D03*
X016900Y013855D03*
X016200Y014355D03*
X016900Y015205D03*
X017750Y015555D03*
X018700Y016155D03*
X021150Y015355D03*
X021850Y015105D03*
X024200Y014805D03*
X024600Y015105D03*
X025950Y014705D03*
X026650Y014655D03*
X027900Y015105D03*
X028700Y015355D03*
X030150Y015755D03*
X030550Y015955D03*
X031150Y017355D03*
X029500Y019405D03*
X026900Y016705D03*
X024750Y016605D03*
X022950Y019255D03*
X015950Y019755D03*
X015650Y017855D03*
X014050Y017355D03*
X012900Y018005D03*
X012150Y017705D03*
X011974Y017281D03*
X011550Y017105D03*
X011126Y017281D03*
X010950Y017705D03*
X010450Y017655D03*
X011126Y018129D03*
X011550Y018305D03*
X011974Y018129D03*
X011150Y019455D03*
X011200Y019805D03*
X010550Y019455D03*
X008900Y019455D03*
X007400Y018605D03*
X006900Y018455D03*
X007100Y018105D03*
X006600Y017455D03*
X005000Y017105D03*
X004550Y017005D03*
X004450Y016605D03*
X004050Y016305D03*
X004900Y016005D03*
X005600Y015555D03*
X006200Y015205D03*
X006900Y014755D03*
X007300Y014305D03*
X007950Y014305D03*
X007850Y014705D03*
X008350Y015405D03*
X007950Y015555D03*
X007550Y015555D03*
X009150Y014905D03*
X009700Y015005D03*
X010700Y015005D03*
X011500Y014855D03*
X011550Y014005D03*
X011200Y013605D03*
X010750Y013755D03*
X010550Y012805D03*
X009900Y013055D03*
X010000Y012005D03*
X010300Y011105D03*
X008900Y010505D03*
X009050Y009955D03*
X009650Y010105D03*
X008900Y009355D03*
X008050Y009405D03*
X008050Y008905D03*
X006100Y008405D03*
X005550Y008055D03*
X003700Y007655D03*
X003300Y007305D03*
X003400Y006305D03*
X004850Y005755D03*
X005850Y005355D03*
X006700Y005005D03*
X006600Y004355D03*
X005900Y004805D03*
X004800Y004005D03*
X004300Y003605D03*
X002700Y003155D03*
X002300Y003855D03*
X002150Y002155D03*
X003300Y001955D03*
X004700Y001855D03*
X006000Y001205D03*
X007450Y001455D03*
X006500Y002305D03*
X006400Y002755D03*
X006500Y003605D03*
X008150Y003955D03*
X008550Y003255D03*
X009700Y003355D03*
X010250Y003305D03*
X011400Y002555D03*
X010900Y001805D03*
X010500Y001655D03*
X010750Y001255D03*
X011400Y001105D03*
X012000Y001455D03*
X012250Y000505D03*
X013450Y002605D03*
X013550Y003055D03*
X014100Y002905D03*
X013050Y003055D03*
X012600Y003305D03*
X012000Y004305D03*
X011550Y004305D03*
X010350Y005005D03*
X009000Y005105D03*
X009050Y005605D03*
X008100Y005805D03*
X007800Y006155D03*
X007800Y005055D03*
X011750Y007605D03*
X012350Y007905D03*
X013450Y008155D03*
X013100Y008455D03*
X010750Y008505D03*
X010150Y008105D03*
X012550Y006505D03*
X013050Y006555D03*
X013450Y006655D03*
X013550Y006255D03*
X014100Y006305D03*
X014750Y006505D03*
X014750Y006905D03*
X016100Y006255D03*
X016450Y005905D03*
X017100Y005855D03*
X017050Y006705D03*
X017750Y006605D03*
X018950Y007155D03*
X016850Y008405D03*
X016450Y008555D03*
X016000Y008505D03*
X016450Y009605D03*
X017700Y009155D03*
X016500Y007405D03*
X018250Y005355D03*
X019200Y005255D03*
X019250Y004355D03*
X018300Y003655D03*
X017750Y004255D03*
X017050Y004955D03*
X016100Y004755D03*
X016400Y004055D03*
X015950Y003255D03*
X017150Y002455D03*
X018700Y002205D03*
X019400Y002255D03*
X020550Y002405D03*
X020750Y003055D03*
X020450Y003355D03*
X020950Y003955D03*
X020500Y004505D03*
X020700Y005255D03*
X022250Y003305D03*
X023100Y003255D03*
X023050Y002005D03*
X022626Y001829D03*
X022450Y001405D03*
X022626Y000981D03*
X023050Y000805D03*
X023474Y000981D03*
X023650Y001405D03*
X023474Y001829D03*
X025150Y002255D03*
X025450Y003255D03*
X026300Y003355D03*
X026700Y003255D03*
X027650Y002255D03*
X028600Y003605D03*
X029250Y003605D03*
X028450Y004205D03*
X029200Y004805D03*
X029200Y005505D03*
X027500Y005005D03*
X026950Y005055D03*
X029450Y002305D03*
X031800Y003655D03*
X031150Y004405D03*
X031100Y005055D03*
X032050Y005055D03*
X031050Y007655D03*
X031950Y009155D03*
X031100Y010605D03*
X029800Y009755D03*
X028300Y009555D03*
X027900Y008855D03*
X026950Y008155D03*
X025600Y009605D03*
X025900Y009905D03*
X026900Y009855D03*
X025000Y009705D03*
X023750Y009005D03*
X023100Y011005D03*
X022150Y012505D03*
X022800Y013405D03*
X023900Y013605D03*
X025000Y013505D03*
X024200Y012755D03*
X026900Y012105D03*
X026950Y011555D03*
X028350Y011305D03*
X029450Y011555D03*
X030250Y011905D03*
X031150Y011905D03*
X029600Y012605D03*
X031200Y013355D03*
X031250Y013855D03*
X031900Y013855D03*
X030200Y014455D03*
X029400Y014305D03*
X028550Y013805D03*
X020850Y013355D03*
X016150Y016105D03*
X016300Y016505D03*
X014050Y014855D03*
X013500Y015005D03*
X013000Y015055D03*
X012600Y014655D03*
X014050Y013305D03*
X013900Y012805D03*
X013700Y012105D03*
X012850Y011905D03*
X012300Y011855D03*
X013100Y011005D03*
X013550Y011205D03*
X012750Y010255D03*
X012150Y010155D03*
X008050Y010255D03*
X006550Y010255D03*
X006100Y010255D03*
X006150Y010855D03*
X005400Y012005D03*
X005150Y012655D03*
X004950Y013055D03*
X005350Y013055D03*
X004550Y014105D03*
X003900Y014155D03*
X003300Y014155D03*
X002650Y014155D03*
X001400Y014205D03*
X000900Y012255D03*
X003550Y011155D03*
X003550Y010405D03*
X004000Y009305D03*
X003250Y008355D03*
X002150Y009405D03*
X001700Y007055D03*
X008850Y001355D03*
X013350Y004305D03*
X013850Y005505D03*
X015600Y001805D03*
X017400Y000805D03*
X019500Y000805D03*
X026450Y000705D03*
X007600Y013155D03*
X007050Y013155D03*
X004800Y015005D03*
X002200Y016855D03*
X002550Y017355D03*
X002150Y017455D03*
X002300Y018005D03*
X001500Y017655D03*
X001200Y018055D03*
X004600Y018355D03*
X009350Y017905D03*
D18*
X011550Y017705D03*
X023050Y001405D03*
M02*
